<?xml version="1.0" standalone="no"?>
<!DOCTYPE svg PUBLIC "-//W3C//DTD SVG 1.1//EN" "http://www.w3.org/Graphics/SVG/1.1/DTD/svg11.dtd" >
<svg>
<metadata>
Created by FontForge 20090622 at Wed Nov  8 03:57:42 2017
 By deploy user
Chic Boutique is a font by MakeMediaCo., designed by Callie Hegstrom in 2015.
</metadata>
<defs>
<font id="BoutiqueScript-Regular" horiz-adv-x="0" >
  <font-face 
    font-family="Boutique Script"
    font-weight="400"
    font-stretch="normal"
    units-per-em="1000"
    panose-1="0 0 0 0 0 0 0 0 0 0"
    ascent="906"
    descent="-94"
    x-height="554"
    cap-height="788.5"
    bbox="-205.143 -200 1011.08 940"
    underline-thickness="50"
    underline-position="-50"
    unicode-range="U+000D-U+2265"
  />
<missing-glyph horiz-adv-x="500" 
 />
    <glyph glyph-name=".notdef" horiz-adv-x="500" 
 />
    <glyph glyph-name="NULL" 
 />
    <glyph glyph-name="NULL" 
 />
    <glyph glyph-name="nonmarkingreturn" unicode="&#xd;" 
 />
    <glyph glyph-name="space" unicode=" " horiz-adv-x="220" 
 />
    <glyph glyph-name="exclam" unicode="!" horiz-adv-x="144" 
d="M20 249v-7q0 -8 0.5 -9.5t7.5 -8.5q1 0 1 -1q7 -5 12 -5q6 0 12 3q2 1 3.5 2t3.5 2q1 0 1 1q4 6 5 10q0 3 0.5 6.5t-0.5 5.5q-1 3 -1.5 5t-0.5 5q0 5 -5 8q-5 4 -14 2q-3 -2 -5.5 -1.5t-5.5 -0.5q-3 0 -4 -1l-3.5 -3.5t-2.5 -3.5q-4 -4 -4 -9zM119 486q2 -4 0 -11
q-2 -4 -3.5 -7.5t-3.5 -7.5q-1 -1 -1 -2t-1 -2q-5 -5 -5.5 -10t-1.5 -11q0 -1 0.5 -1.5t0.5 -1.5q0 -2 -1 -3q-3 -2 -4 -5.5t-3 -6.5l-2 -5q0 -7 -3 -14q-2 -2 -2.5 -5.5t-2.5 -6.5q-1 -2 -1 -5t-1 -6l-2 -4t-2 -5v-3q-2 -5 -5 -8.5t-3 -8.5t-2.5 -8.5t-2.5 -8.5l-9 -21
q-3 -4 -4 -9q0 -5 -6 -11q-2 -2 -4 -2q-2 -2 -4 0q-3 2 -5.5 4.5t-2.5 7.5q0 4 -1 7t-1 7t-1 7t-3 7q0 2 -0.5 3t-0.5 3q0 8 -1 11q-1 2 -1 7q0 4 0.5 7t-1.5 7q0 2 0.5 2.5t0.5 -1.5l1 5q-2 5 -1.5 10t1.5 10v11q-2 6 3 15q3 3 3 9q1 4 1 13q1 3 -4 3q-1 0 -1 1v2q6 7 3 15
q0 2 1 3q4 1 4 6l3 24q0 7 -4 10q-1 1 -1 5q0 3 2 7l2 8q0 2 -1 3.5t0 2.5q2 6 2 11.5t2 11.5q0 2 1 3t1 3q2 2 1 4q-1 4 0 7l2 6l3 30q0 6 -1 8q-1 5 -0.5 6t5.5 2q4 1 8 5q2 3 6 1l6 -3q2 -2 5 0t8 0q6 -3 12.5 -5.5t11.5 -5.5q5 -2 8 -9l2 -4l2 -4q0 -5 1.5 -9.5
t0.5 -9.5q0 -5 -0.5 -10t-0.5 -10q0 -2 0.5 -5t-0.5 -6q0 -2 -0.5 -3.5t0.5 -3.5t1 -3t1 -3q1 -3 1 -8q-1 -6 -1 -12t-1 -12q0 -3 -2 -7t-1 -7z" />
    <glyph glyph-name="quotedbl" unicode="&#x22;" horiz-adv-x="161" 
d="M109 691q5 4 11 5t12 1q4 -1 8.5 -0.5t8.5 -4.5l3 -9q2 -6 2 -11q5 -26 -1 -51q-3 -15 -10 -28t-19 -23q-5 -1 -7 1.5t-4 4.5q-1 5 -1.5 9.5t1.5 9.5q0 2 0.5 4.5t-1.5 4.5q-2 6 -2 7q0 6 -1 11.5l-2 10.5q-1 2 -4 5q1 4 2 6.5t1 6.5q-1 5 -0.5 9.5t1.5 9.5v6q-2 5 -1 8
t3 7zM46 691q5 4 11 5t11 1q5 -1 9.5 -0.5t8.5 -4.5q2 -6 2 -9l3 -11q2 -13 2 -25t-3 -26q-3 -15 -10 -28t-19 -23q-5 -1 -7 1.5t-4 4.5q-1 5 -1.5 9.5t0.5 9.5q2 5 0 9q-2 6 -2 7q0 6 -1.5 11.5t-1.5 10.5q-2 2 -2.5 3t-1.5 2q0 4 1.5 6.5t0.5 6.5q-1 5 0 9.5t1 9.5
q0 2 0.5 3t-0.5 3q-2 5 -0.5 8z" />
    <glyph glyph-name="numbersign" unicode="#" horiz-adv-x="285" 
d="M151 379l8 8q-3 4 -4 8q-3 0 -5.5 -0.5t-4.5 -0.5q-4 -1 -10 1q-5 -9 -6.5 -15t-1.5 -15h18q2 2 3 2t2 1q1 2 3 4q-2 6 -2 7zM261 557q6 -9 3 -17q-2 -6 -2 -7q0 -8 -2.5 -15.5t-6.5 -15.5q1 -2 1 -3t1 -3l-4 -6l-2 -4t-1 -4q0 -3 -2.5 -5.5t-2.5 -4.5q-1 -6 -4 -10.5
t-5 -9.5q0 -2 0.5 -2.5t0.5 -1.5q0 -5 -3 -5.5t-6 -1.5l6 -6q-1 -2 -2 -3.5t-2 -3.5q0 -3 2 -4.5t3 -3.5q7 -2 13.5 -1.5t13.5 -0.5q3 -6 -2 -9q-3 -2 -5.5 -3t-5.5 -2l-15 -3q-9 -3 -13 -10q-3 -8 -8 -15q2 -2 3.5 -2h3.5h6.5t7.5 -1q1 -2 1 -6q-9 -7 -18.5 -11.5
l-19.5 -9.5q-5 -12 -12 -20q-4 -6 -6 -14q-2 -9 -5.5 -17.5t-7.5 -16.5q-5 -10 -5 -19q-2 -13 -4.5 -16.5t-16.5 -11.5l-3 6q-2 3 -2.5 6t-2.5 6q-3 6 -3 12q0 4 -0.5 8t-0.5 9l3 4q-2 3 -1 6l2 6q1 4 0.5 7.5t-0.5 6.5t2 6t0 6q-8 2 -11 1.5t-11 -4.5q-2 -3 -2.5 -7
t-2.5 -8q-1 -5 -2 -9t-2 -9q-2 -4 -2.5 -8t-2.5 -8t-1 -8.5t-4 -8.5h-4h-5q-2 2 -2 3q-4 7 -4 14t-2 15t-3.5 16.5t0.5 16.5l-6 8q-12 1 -23 3.5t-19 12.5q2 2 4 3.5t4 3.5l18.5 4t19.5 3q2 0 4.5 1t4.5 2l6 38q-5 1 -9 1h-9q-3 -1 -5.5 -2t-4.5 -2q-7 5 -13 10.5t-14 8.5
q-7 3 -9 11q2 5 6 5q3 0 4 2t3 4h30h29q1 2 2 2.5t1 1.5l4 18l4 18q2 2 0 5q-2 8 0.5 14.5t5.5 13.5l6 15q5 17 13 31.5t19 28.5q5 0 8 -1t5.5 -2t5.5 -3q6 -3 9 -10.5t1 -12.5q-2 -6 -3 -12t-4 -11q-2 -4 -1.5 -8t-2.5 -7q1 -7 -1 -13t-3 -12q-2 -6 -3.5 -11.5t-3.5 -11.5
l-9 -34q5 -1 9.5 -1.5t9.5 -1.5q6 6 7 8.5t3 13.5q4 5 4.5 11.5t2.5 11.5q1 2 0.5 4.5t-0.5 4.5l3 3q0 2 -1 2.5t-2 2.5l-1 1q1 2 1 3.5t1 3.5q5 5 7.5 11t6.5 12q3 5 5.5 11t4.5 12q0 2 -0.5 2.5t-0.5 2.5q2 7 6.5 12t8.5 10q6 2 12 0.5t11 1.5q6 -2 10 -7z" />
    <glyph glyph-name="dollar" unicode="$" horiz-adv-x="230" 
d="M145 305q3 3 0 3q-1 3 -1 6t-1 5q-1 5 -5 9l-3 -6q-1 -2 -1 -5q0 -5 -1 -8q-3 -8 -4.5 -15.5t-3.5 -15.5v-1l1 -1q2 1 3.5 2t3.5 2q5 2 6.5 5.5t3.5 7.5q1 3 0.5 6t1.5 6zM101 448l20 -20q3 0 4 2q2 2 2 4q-1 8 1.5 14.5t2.5 14.5q4 6 2 18v10q0 3 -5 3q-10 -2 -14 -9
q-3 -5 -6.5 -8.5t-6.5 -7.5q-3 -3 -3 -6v-7q0 -5 3 -8zM208 462q0 -3 1.5 -5.5t-0.5 -6.5q-1 -2 -0.5 -4.5t-0.5 -4.5v-11q0 -5 -1.5 -8.5t-3.5 -7.5t-8 -4l-8 3q-6 1 -11 9q-2 2 -2.5 4.5t-2.5 5.5l-3 3q-1 1 -2.5 0.5t-1.5 -1.5q-1 -7 -2.5 -13t-3.5 -12t-4 -16
q-3 -6 2 -14l4 -8t3 -9q2 -5 4 -8.5t3 -8.5l3 -7q7 -11 7 -20q3 -8 2.5 -16t-0.5 -16q-1 -2 -1.5 -5t-2.5 -5q-2 -4 -4.5 -8l-4.5 -7q-4 -5 -7.5 -10t-8.5 -8q-8 -6 -11 -9q-2 -3 -5.5 -5t-5.5 -5q-4 -4 -8.5 -6t-9.5 -4q-2 -1 -5 -1q-5 0 -8 -2t-7 -4q-5 2 -9 4t-9 1
l-15 5.5t-13 8.5l-8 8t-9 6l-3 4q-2 2 -2.5 5t-2.5 5q-3 5 -1 13l4 13q3 3 4 6.5t2 6.5q3 7 8 9l4 2q2 2 4 0t2 -4q-2 -6 -2 -12t-1 -12q0 -3 1 -5.5t2 -5.5q7 -14 20 -8q3 1 9 1h18q4 2 5 4q0 6 1.5 12t3.5 12q0 3 0.5 5.5t1.5 5.5v9.5t2 9.5q1 3 1 10t2 11q1 2 1 8v27
q0 7 -3 13q-4 5 -7.5 10t-8.5 10q-8 7 -13.5 15t-13.5 15l-6 11.5t-3 12.5q0 3 -2 9q2 5 2 9t2 9q1 2 1 7q2 4 2 5q6 8 14 17t15 15q2 2 5 3.5t5 3.5q10 7 24 6q4 0 7 -1.5l7 -3.5q2 0 4 2q0 1 0.5 1.5t0.5 1.5q0 4 1.5 7.5t2.5 8.5q2 7 5 13t5 14q2 3 4 6.5t5 6.5
q7 9 16 16q2 2 4 0l13 -12q3 -3 3 -7q0 -11 -2 -16q-5 -11 -10 -28q-2 -5 -3.5 -10t-0.5 -10q-2 -4 -2.5 -7.5t-2.5 -7.5q-1 -4 1 -8q1 0 3 -2q5 -2 7.5 -6t5.5 -8q4 -6 4 -12q0 -4 3 -7q2 -4 1 -8q0 -3 -1 -4z" />
    <glyph glyph-name="percent" unicode="%" horiz-adv-x="274" 
d="M110 218q1 0 1 -1q0 -2 -1 -2q-3 0 -1 2q0 1 1 1zM110 225q-1 2 0 3t2 0q1 0 1.5 -0.5t1.5 -0.5q0 -3 -3 -3zM158 269h1v2l-2 2v-3q1 0 1 -1zM118 278q0 1 1 1l1 -4l-2 -2l-1 1q0 3 1 4zM161 286l1 -1v2q0 1 -1 1q-1 -1 0 -2zM130 310q-3 0 -3 3q3 0 4 1l1 -1v-1z
M232 289q3 7 1 13q1 4 -0.5 7t-3.5 6q0 3 -2 3q-2 1 -3.5 2t-3.5 2t-4 -1q-3 -2 -7 -6q-3 -2 -3 -7v-6q-1 -5 -1.5 -9t-1.5 -8q-4 -10 -3 -20q0 -2 -1 -4q0 -5 1 -7l3 -5q2 -3 5 -1q6 4 11 12q1 2 1.5 3.5t2.5 3.5t2.5 5t2.5 5l2 6zM163 322v1l1 1l1 -1q0 -1 -2 -1zM89 343
l1 -1q-1 -2 -6 -7q-3 -2 -3 0q-1 1 -1 3q1 2 2 3.5t2 3.5q1 3 3 0zM250 325q1 -4 1.5 -7.5t2.5 -7.5v-5q-1 -5 -2 -9.5t-2 -9.5l-3 -12q-2 -11 -6 -20q-1 -2 -2 -5t0 -5v-2q-2 -2 -3.5 -5t-3.5 -6l-5 -5t-6 -5q-2 -1 -4 -6q-1 -3 -6 -5q-2 1 -4 0l-4 -2q-6 -5 -16 -3l-10 1
l1 2q2 2 0 2q-2 1 -3 0.5t-2 1.5q-2 3 -6 7q-4 3 -6 10q0 5 -3 7q-3 3 -3 8q-1 2 -1 6q-2 8 -4 14q-2 2 0 5q1 3 5 3l1 1q0 1 -4 3q-3 2 -1 4q0 2 0.5 3t0.5 2l4 6q1 2 1 3t1 3q0 1 2 1q1 0 1 -0.5t1 -0.5q0 -2 1 -3q1 0 2 1t1 3q1 2 0.5 4t0.5 4q1 3 1 9q1 2 2 3.5t2 3.5v3
q0 3 2 3q5 1 5 7q0 5 6 7q3 0 5 1l4 3q7 5 14 5l21 3q6 0 11 -3q3 0 3 -2q2 -2 3.5 -5t3.5 -5q-1 -1 -1 -3q-3 -3 -1 -7zM103 400q2 2 2 -1v-6q-5 1 -3 6zM96 538q1 5 -3 6q-8 4 -11 6q-4 0 -5 -1l-3.5 -8.5l-3.5 -8.5q-2 -6 -4.5 -12.5t-2.5 -13.5v-6h-1q0 -9 -1 -13
q0 -2 0.5 -3t0.5 -2q0 -2 2 -2q1 -2 3 0q2 4 5 7t5 8q6 6 8 10l3.5 7l3.5 7t2 8t1 8q0 1 0.5 1.5t0.5 1.5zM157 377l-4 -8t-3 -9q-1 -7 -8 -12l-5 -5l2 -2q1 -2 0 -3q-3 -2 -4.5 -4.5t-3.5 -4.5t-2 -3q2 -3 0.5 -5.5t-2.5 -4.5v-3q-3 -2 -4 -4.5t-3 -4.5q-4 -6 -4 -8v-3h2
l2 3l2 2h2q0 -1 1 -1q1 -3 -1 -6t-2 -6q0 -1 -1 -1h-2q-4 0 -4 -2l-4 -10.5t-2 -10.5q0 -7 -3 -13q-1 -1 -1 -3q2 -5 -1 -10t-2 -10q0 -1 -0.5 -1.5t-0.5 -1.5q-4 -2 -5 -4.5t-3 -5.5q-2 -4 -4 -5q-1 -1 -2 0t-2 0q-4 -2 -7 -4t-7 -4h-2q-2 -2 -5.5 -0.5t-4.5 4.5q-1 2 -1 7
q-1 3 -0.5 6.5t-0.5 7.5q-1 2 0 4.5t2 4.5q2 6 4 10q2 2 2 4.5t1 4.5q1 4 -0.5 7t0.5 6q2 2 2 5t1 6q2 3 -2 5l-3 3q-3 3 0 3q2 2 7 4q5 5 3 10q0 1 0.5 1.5t0.5 1.5q1 2 -1 4q-5 4 -1 8q1 2 3 4q3 1 3 6q1 2 5 2q1 -1 3 1q3 3 5 9q1 2 -2 4q2 5 4 6t4 3l1 1q0 2 -2 2l-5 -2
q-3 0 -3 3v3q0 4 2 7t2 6l6 6q1 1 1.5 2t1.5 2v1q-2 4 -0.5 6t3.5 5q4 1 6 8v3q-3 6 2 9q2 2 4 3q3 3 3 7q0 2 0.5 2.5t0.5 2.5q1 8 1.5 11t4.5 10q5 7 7.5 14.5t5.5 14.5q2 3 2 10q1 2 2 4.5t2 4.5v3q-4 13 2 27q2 3 2.5 7t2.5 8q1 1 1 3q0 6 -6 6l-9 -3l-17.5 -4t-17.5 -3
l-1 -1l-1 -1q0 -5 -0.5 -8.5t-1.5 -7.5l1 -7q3 -5 0 -11t-3 -12q-2 -8 -5 -12l-8 -10l-8 -10l-4 -3l-12 -4t-13 -1q-12 1 -20 12l-6 13q-1 5 -0.5 9.5t-1.5 9.5q0 7 1 10q0 5 0.5 11t3.5 11q1 2 1 8q2 8 4 12t7 13q3 6 7 11.5l8 11.5l10 4q3 2 9 2q2 0 3.5 0.5t3.5 0.5
q3 2 8 0q5 -4 10 -2h3q3 -2 6.5 -3t5.5 -3q4 -1 4 -6q0 -4 4 -4q3 0 5.5 -0.5t4.5 0.5q5 2 11 2.5t11 1.5q2 0 10 2q1 0 3 3q4 4 4 12q0 5 3 11q5 5 10 5q2 -1 6 -1q6 2 12 1.5t12 -0.5q7 -2 10 -5q3 -2 3 -3q1 -4 1 -7t1 -6q0 -4 -1 -5q-3 -6 -3 -12q0 -4 -0.5 -7t-0.5 -6
l-3 -9q-2 -6 -4.5 -12t-2.5 -13q0 -2 -2.5 -8t-4.5 -8q-5 -5 -5 -11q0 -13 -9 -22q-1 -1 -1 -6q0 -2 -2 -4t-3.5 -4.5t-2.5 -5.5q-3 -7 -6.5 -13.5t-5.5 -14.5q0 -2 -2 -4q-1 -2 1 -6q1 -6 -2 -9l-6 -8q-5 -7 -2 -14q1 -4 -1 -11z" />
    <glyph glyph-name="ampersand" unicode="&#x26;" horiz-adv-x="364" 
d="M102 472l2 2q-7 5 -5 14q0 1 0.5 1t0.5 1q4 3 5 7t4 8q1 1 3 0v-1q1 -2 0 -3q-1 -5 -5 -15q-1 -1 1 -3h3q1 1 1.5 1t1.5 1q0 1 0.5 1t0.5 1q1 6 3 12l4 12q0 2 -2 2q-1 1 -2 1t-3 1q-4 0 -1 3q2 6 4 8l6 8q3 8 8 14t10 13q1 2 5 6q6 6 8 9q2 5 5 6q13 7 22 18
q5 5 10.5 7.5l11.5 5.5q2 0 3 1h13.5t12.5 -2q3 -1 8 -1q8 0 16 -3q2 -1 4 -0.5t4 -0.5q17 -2 27 -8q3 -2 5.5 -3t5.5 -2l6 -3l4 -4l4 -4q7 -6 7 -14v-18q0 -4 -0.5 -8t-2.5 -8q0 -1 -0.5 -2t0.5 -3q0 -5 -2.5 -10t-2.5 -10q-2 -4 -3.5 -8t-3.5 -8t-2.5 -8t-2.5 -7
q-2 -4 -3.5 -7.5t-1.5 -8.5l-2 -4q-2 -2 -3 -1q-3 1 -6.5 1.5t-6.5 2.5q-5 4 -11.5 7.5l-12.5 6.5q-2 1 -2.5 3.5t0.5 3.5l8 9q2 2 3.5 4.5t3.5 4.5q2 5 3 8.5t2 8.5t2.5 8.5t1.5 8.5q-1 2 1 8q1 2 1 4t1 4q2 15 -16 21q-3 0 -5 2q-6 2 -10 -1q-5 -4 -9.5 -6.5t-9.5 -7.5
q-8 -8 -16 -21q-2 -4 -4.5 -8t-5.5 -8t-5.5 -8l-5.5 -9q-2 -2 -2.5 -5.5t-2.5 -6.5q-2 -2 -3 -5t-3 -6q-5 -6 -7.5 -12.5t-4.5 -13.5q0 -5 3 -6q2 -1 3.5 -2t3.5 -1q7 0 15 -4q4 -2 7 -2q2 -1 4 -1t4 -1l10.5 -4l10.5 -4q1 -1 2 -1t2 -1q4 -4 4 -6q0 -8 -1 -12q0 -3 -4 -5
q-2 -1 -5 -1t-5 -1q-3 -2 -6.5 -2t-6.5 -1q-10 0 -16 -6q-11 -11 -22 -19.5t-22 -18.5q-7 -7 -15 -11l-3.5 -3.5l-3.5 -3.5q-4 -6 -7 -9q-5 -5 -8.5 -11t-6.5 -12q0 -2 -2 -6q-5 -8 -5 -20q0 -18 16 -25q1 0 2 -1q7 -3 13.5 -4t14.5 2q3 1 6 0.5t6 0.5q19 3 30 11q2 0 2 2
q0 10 -2 15q-4 5 1 10q2 6 4 9q2 5 -4 8q-2 0 -2.5 1t-2.5 1q-9 1 -12 9q-3 6 1 10q6 4 8 4q8 0 16 5q3 2 6.5 4t6.5 4q2 1 4.5 2.5t4.5 2.5l9 3q5 2 9 5t9 5q2 2 4 3q3 3 8 1q3 0 5 -1q9 -5 21 -5q3 0 7 -2q8 -2 17 -13q3 -6 -1 -12q-3 -5 -8 -8q-4 -2 -7 -4.5t-5 -4.5
q-8 -6 -13 -15q-5 -6 -8 -16q-2 -5 -4 -9.5t-2 -9.5q-1 -3 -2 -5.5t-3 -5.5q-5 -7 -1 -18q1 -3 2.5 -6t3.5 -6q2 -2 4 -3q3 -2 7 -3.5t8 -4.5v-3q-2 -2 -4 -3q-3 -1 -11 -5h-3q-5 2 -11 2t-11 2q-14 5 -24 13q-2 1 -6 5q-5 5 -13 2q-7 -1 -16 -5q-5 -2 -11.5 -3t-11.5 -3
q-3 -1 -9 -1q-8 0 -17 0.5t-17 -0.5q-8 0 -14 1.5t-13 2.5q-1 0 -1.5 0.5t-1.5 0.5q-8 4 -14 8t-11 9q-4 4 -6.5 8.5t-4.5 9.5q-3 11 -8 25q-2 4 -2 7v26q0 3 2 9l6 12q1 4 5 8q8 14 14 21t17 17l20 18q6 6 11 8q7 5 4 13q-4 8 -6 15.5t-7 15.5q-2 4 -3 7.5t-3 7.5q-1 1 2 4
z" />
    <glyph glyph-name="quotesingle" unicode="'" horiz-adv-x="65" 
d="M46 691q5 4 11 5t11 1q5 -1 9.5 -0.5t8.5 -4.5q2 -6 2 -9l3 -11q2 -13 2 -25t-3 -26q-3 -15 -10 -28t-19 -23q-5 -1 -7 1.5t-4 4.5q-1 5 -1.5 9.5t0.5 9.5q2 5 0 9q-2 6 -2 7q0 6 -1.5 11.5t-1.5 10.5q-2 2 -2.5 3t-1.5 2q0 4 1.5 6.5t0.5 6.5q-1 5 0 9.5t1 9.5
q0 2 0.5 3t-0.5 3q-2 5 -0.5 8z" />
    <glyph glyph-name="parenleft" unicode="(" horiz-adv-x="206" 
d="M136 595q5 2 11 3t11 3q8 3 14 1.5t12 -5.5q6 -3 11 -7.5l11 -9.5q-1 -5 -1 -11t-1 -11q-2 -2 -4.5 -3.5t-4.5 -3.5q-6 -4 -7 -6q-2 -6 -6 -10.5t-9 -8.5q-10 -8 -19.5 -17t-18.5 -19q-20 -20 -28 -51q-2 -8 -4.5 -14.5t-6.5 -13.5q-8 -13 -13.5 -27l-10.5 -28
q-5 -17 -5 -32q-1 -5 -0.5 -11.5t1.5 -11.5q3 -13 5.5 -25t4.5 -25q0 -3 2 -7q6 -10 13 -19t18 -15l1 -1q0 -4 -3 -4.5t-6 -2.5q-2 1 -4 1t-4 2q-9 8 -18.5 14t-16.5 16l-6 6q-11 11 -17.5 24t-11.5 27q-5 15 -5.5 30.5t0.5 31.5q2 20 4.5 39t7.5 37q2 8 4 14.5l4 13.5
l6 16.5t8 16.5q5 9 11 17.5t14 15.5q2 2 3 4l2 4q7 11 15.5 21l16.5 20q5 5 9.5 10.5t10.5 11.5z" />
    <glyph glyph-name="parenright" unicode=")" horiz-adv-x="207" 
d="M70 209q-5 -2 -11 -3t-11 -3q-8 -3 -14 -1t-12 5q-7 3 -11.5 7.5t-10.5 9.5q1 6 1 11.5t1 11.5l9 6q6 4 7 7q2 6 6 10t9 8l19.5 17.5t17.5 18.5q20 21 29 52q2 8 4 14.5t7 13.5q8 13 13 26.5l10 27.5q5 17 6 32q1 6 0 12l-2 12l-9 49q0 4 -3 7q-6 11 -12.5 20t-17.5 14
q-1 0 -1 2q0 4 2.5 4.5t5.5 2.5q6 -2 8 -4l19.5 -13.5t16.5 -16.5l6 -5q12 -10 18 -23.5t11 -27.5q5 -16 5.5 -31.5t-0.5 -31.5q-1 -20 -4.5 -38.5t-8.5 -37.5q-2 -7 -3.5 -14t-3.5 -14q-6 -18 -15 -32l-10.5 -18t-13.5 -16q-2 -2 -3 -4t-3 -4q-7 -11 -15 -21l-16 -20
q-5 -5 -9.5 -10z" />
    <glyph glyph-name="asterisk" unicode="*" horiz-adv-x="228" 
d="M204 531q-17 -8 -34 -5q2 -2 2 -3q6 -6 8 -9q5 -8 11 -12q2 -2 3 -4q0 -5 -3 -9t-4 -9l-10 -3q-17 5 -27 19q-3 3 -4 5q-2 -10 -7 -17q-1 -2 -2 -4.5t-2 -5.5q-2 -2 -4.5 -3t-4.5 -4q0 -2 -5 -4q-6 -4 -10 -5q-6 2 -9 7q-1 3 -3 5.5t-3 5.5l-3 11q-1 -1 -2 -1t-3 -1
q-6 2 -11 1q-2 -1 -3 -0.5t-3 0.5q-3 1 -5.5 2t-5.5 2q-3 6 -1 11q1 3 1 6.5t2 5.5q2 5 8 13q-7 0 -10 -1q-5 0 -13 4q-5 5 -5 11l-2 14q1 3 3 4t3 2h41l-7.5 7.5t-7.5 6.5q-4 2 -5 5t-2 7q0 7 4 11l9 12q2 2 4 0.5t4 -0.5l8 -8q0 2 0.5 5t0.5 6q13 2 21 0.5t19 -6.5
q0 -6 3 -12h1q5 5 9 8.5t9 8.5q11 -8 15.5 -14.5t8.5 -18.5q-2 -2 -3.5 -5.5t-3.5 -6.5q-2 -4 -3 -5q3 -1 8 -1q5 -1 8.5 -1.5t8.5 0.5q2 0 4 -1q4 -4 4.5 -8.5t3.5 -8.5q-1 -2 -2 -4.5t-2 -5.5z" />
    <glyph glyph-name="plus" unicode="+" horiz-adv-x="273" 
d="M230 429q26 -3 23 -29q0 -2 -0.5 -2t-0.5 -2q-14 -11 -34 -11q-11 -1 -20.5 -1.5t-19.5 -0.5h-14q1 -5 1 -11t1 -11q0 -5 -0.5 -9.5t-1.5 -9.5q0 -8 -0.5 -16.5t-1.5 -16.5q-1 -25 -29 -22q-1 0 -1.5 0.5t-2.5 0.5q-6 8 -8 16.5t-3 17.5q-1 10 -1 20v20v18q-5 0 -9 -0.5
t-9 -1.5t-9.5 0t-9.5 0q-8 -2 -16.5 -1.5t-16.5 -2.5q-2 0 -4 0.5t-4 0.5q-15 14 -18 28q-2 6 -1 12.5t6 12.5q8 -2 15 -1.5t15 2.5q4 1 8 1h9h40q0 2 -0.5 5t-0.5 5q-1 5 -0.5 9.5t-0.5 9.5q-1 8 -1 17t-2 17q-1 2 1 8q10 13 27 18q6 1 12.5 0.5t12.5 -5.5q-1 -8 -0.5 -15
t2.5 -15q1 -5 0.5 -9t-0.5 -9v-35q5 1 8.5 1h7.5q5 0 9.5 -0.5t9.5 -0.5q8 -1 16 -1t16 -1z" />
    <glyph glyph-name="comma" unicode="," horiz-adv-x="91" 
d="M27 246q0 4 1 7q0 4 4 12q2 2 4 5l4 6q2 0 4 -1t4 0l4 -1q8 -4 17 -10q2 -1 2 -4v-10q1 -5 -2 -10q-2 -5 -4 -13q0 -3 -1 -5q-1 -1 -3 -5q-3 -10 -13 -14l-2 -2q-2 -3 -9 -5q-4 -1 -11 -1q-1 0 -1 0.5t-1 0.5q-2 4 -4 6q0 2 1 3q2 4 8 12q6 7 4 16q0 3 -1 4t-1 2
q-2 2 -2.5 3.5t-1.5 3.5z" />
    <glyph glyph-name="hyphen" unicode="-" horiz-adv-x="462" 
d="M122 433q19 -3 41 2q5 2 11 1.5t12 -0.5h45t45 1q13 0 25.5 1t25.5 1h13t13 -1l43 -3q34 -3 30 -39q0 -1 -2 -5q-18 -15 -45 -15q-14 -1 -27 -1.5t-26 -0.5h-24q-5 -1 -8.5 -1t-8.5 -1q-5 0 -8.5 -1t-8.5 -1q-23 1 -47 -3q-6 -1 -12.5 0t-12.5 0q-11 -2 -22.5 -1.5
t-22.5 -3.5q-2 -1 -5 0t-6 1q-20 17 -24 37q-2 8 -1 16.5t7 16.5z" />
    <glyph glyph-name="period" unicode="." horiz-adv-x="89" 
d="M20 253v7q0 4 4 10l3.5 3.5l3.5 3.5q1 1 3 1q3 1 6 0.5t6 1.5q9 2 15 -2q5 -3 5 -9q0 -3 2 -9q2 -7 0 -13q0 -3 -1.5 -6t-3.5 -5q-1 -1 -2 -1l-6 -4q-6 -3 -13 -3q-6 0 -13 5q0 1 -0.5 1t-0.5 1q-7 7 -7.5 8t-0.5 10z" />
    <glyph glyph-name="slash" unicode="/" horiz-adv-x="164" 
d="M68 268q-3 -2 -3 -5q0 -4 -4 -4q-7 -2 -4 -7q0 -2 -1 -3q-5 -2 -9 -11q0 -2 0.5 -3t-0.5 -3q-2 -7 -3.5 -13.5t-3.5 -13.5q0 -2 -0.5 -3t-0.5 -3q1 -8 -7 -15q-7 -6 -16 -1q-12 4 -15 18q-2 5 0 11q2 4 2 11v2q-1 8 1 15.5t3 15.5q2 3 2.5 6.5t0.5 6.5q0 7 4 12q2 2 2 4
q0 6 4 14q3 4 3 9q0 2 2 6q5 5 4 12q0 5 2 10l4 10q3 3 5 11q2 4 2 11q0 5 3 8q4 7 5 14q1 4 1 7.5t3 7.5q1 1 1 4q-1 5 0.5 9l3.5 9t3 10t3 10l6 20l3.5 7t2.5 8q2 6 3.5 12.5t3.5 13.5q2 6 4 9q3 3 3 7q-1 5 0.5 9t2.5 8q1 5 2 8.5t3 7.5q3 10 7.5 18.5l9.5 17.5
q2 5 5.5 10.5l6.5 10.5q3 7 11 10q2 0 6 -2q10 -1 17 -13q3 -5 1 -9q-1 -3 -1 -6t-2 -7q-1 -3 -1 -11q0 -5 -0.5 -9t-2.5 -8q-3 -6 -3 -12q0 -10 -2 -15q-1 -1 -1 -4q-1 -4 -1 -12v-1v-2q-2 -3 -2 -6t-1 -6t-2 -5.5t-2 -5.5q-2 -6 -2 -9q-1 -1 -1 -3q-4 -7 -5 -13t-1 -14
q0 -2 -1 -3.5t-2 -3.5q-3 -3 -2 -7v-3q-2 -8 -3 -11q-5 -10 -5 -19q0 -3 -2 -7q-2 -3 -2.5 -5.5t-2.5 -4.5t-2 -4.5t-1 -4.5q-2 -3 -1 -5.5t-1 -4.5l-3 -7q-1 -5 -2 -8.5t-2 -8.5q-1 -2 -1 -4.5t-2 -4.5l-4 -11.5t-3 -11.5q-2 -9 -9 -15q-1 0 -4 -3l-2 -2v-2q2 0 2 1v3
q4 -4 3 -8q-2 -4 -5 -7.5t-5 -7.5q-2 0 -3 -3z" />
    <glyph glyph-name="zero" unicode="0" horiz-adv-x="213" 
d="M77 301l15 -12h7q24 0 40 17q13 15 21 28q4 6 6 8q4 6 8 18l4 16l4 16t1.5 15t-1.5 15q0 2 -0.5 4.5t-0.5 4.5q0 10 -1 20t-4 20q-4 14 -14 29q-19 3 -32 -12l-11.5 -16t-8.5 -19q-5 -18 -12 -32q-2 -4 -4 -12l-4 -15.5t-7 -12.5q-1 -3 -0.5 -5t-0.5 -4q-2 -5 -2.5 -11
t-1.5 -12q-1 -2 -0.5 -5t-1.5 -5q-3 -8 -2.5 -16.5t0.5 -16.5q2 -4 3 -5zM161 558q9 -8 19 -14t17 -18q0 -6 1 -12.5t3 -13.5l6 -24.5t5 -25.5q1 -7 2 -13t0 -13q0 -4 -0.5 -7t-0.5 -6t-1 -6t0 -6q1 -9 -2 -19q-1 -5 -2 -9l-2 -8q-3 -16 -10 -27q-4 -8 -6 -15.5t-6 -15.5
l-6 -10t-5 -12q-2 -4 -5.5 -7.5t-6.5 -7.5q-13 -20 -33 -25q-16 6 -34 1q-9 -3 -17.5 -1l-16.5 4q-7 2 -12.5 5.5t-10.5 8.5q-9 9 -15.5 19l-13.5 20q-2 8 -5 15.5t-2 17.5q1 4 0 8t-1 9q1 4 1.5 7.5t-0.5 8.5q-2 4 0.5 8t1.5 9v14t1 14t3.5 13t4.5 13q1 2 1 4t1 4
q2 7 3.5 14.5t7.5 12.5q1 1 1 2.5t1 2.5q4 15 14 30l10 16t9 16q5 9 11 12t15 3h5q5 5 8 7q2 -1 3.5 -1t3.5 -1q2 2 4 3t4 3q5 -3 11 -5.5t12 -1.5t12 0.5t12 -0.5z" />
    <glyph glyph-name="one" unicode="1" horiz-adv-x="234" 
d="M137 268q20 -3 35 -2q5 0 15 2h7.5t7.5 -3q-1 -5 -4 -7t-5 -5q-17 -6 -32 -6q-5 0 -7 -1q-5 -3 -11 -3t-11 1q-9 0 -13.5 -1.5t-12.5 -6.5q-17 -5 -30 6q-6 0 -11 -0.5t-10 -2.5q-8 -2 -14 1q-5 2 -11 3t-11 3t-10 3.5t-9 6.5q0 4 5 6q2 1 6 1q5 1 11 1.5t11 0.5
q8 0 15 1t14 4q3 3 2.5 6.5t-0.5 7.5q-2 10 0 19t6 19q2 7 4.5 13.5t4.5 14.5q1 5 4 9.5t6 9.5l2 4l2 4q5 16 12 30l14 28q3 7 5 14t7 13q4 6 7 12t7 13v1q-1 1 -1 2h-3q-4 -2 -7.5 -4t-6.5 -4q-7 -5 -14 -7t-15 -4q-5 0 -13 4q-2 2 -8 4t-11 9q2 5 5 5q7 1 13 1.5t12 3.5
l27 12t26 14l13 6q13 7 17 15q2 5 5 9.5t5 9.5l13 3q12 -2 16 -4.5t13 -11.5q1 -3 1.5 -6.5t2.5 -6.5l-5.5 -13t-4.5 -12q-3 -8 -5 -15t-4 -15q-3 -11 -7 -21.5t-10 -20.5q-2 -4 -2 -5q-1 -5 -2.5 -8.5t-3.5 -7.5l-4 -14t-7 -13q-2 -2 -2 -4q1 -7 -2.5 -12.5l-6.5 -10.5
l-6 -14q-5 -11 -8.5 -22.5t-8.5 -22.5q-2 -4 -2.5 -8t-1.5 -8q-1 -3 -2 -6.5t-3 -5.5q-3 -5 0 -11z" />
    <glyph glyph-name="two" unicode="2" horiz-adv-x="244" 
d="M147 343l-9.5 -5.5t-8.5 -6.5q-4 -5 -8 -9.5t-8 -9.5q6 -6 13 -9t12 -8q9 -2 18 -3.5t18 -3.5h10q3 0 5.5 0.5t4.5 0.5q2 -1 5 -4v-7.5t-1 -8.5q-4 -7 -9 -10q1 -2 1 -3.5t1 -3.5q-9 -4 -18 -6t-19 1t-19 6.5t-18 7.5q-5 2 -9.5 5t-8.5 5l-12 -3q-2 -4 -4 -7.5t-4 -6.5
q-2 -4 -5 -7t-5 -6q-10 0 -17.5 4.5t-15.5 7.5q-9 8 -19 13.5t-17 14.5q0 5 3 5.5t5 2.5q-1 3 -1 5.5t-1 4.5q1 2 1.5 5t2.5 6q4 11 11 16q3 2 6 5l6 6q10 9 20.5 16l21.5 15q19 14 43 28q8 11 19.5 18t19.5 18q2 3 4.5 5t4.5 4q21 19 34 43t-9 44h-6.5t-6.5 1
q-11 -6 -19 -9q-11 -3 -20.5 -8.5t-18.5 -13.5q-11 -8 -19 -17.5l-16 -19.5q-4 -5 -5 -11q-3 -12 -15 -18l-26 6q-4 2 -7 7t-7 9t-8 7.5t-6 7.5q2 5 4.5 9t4.5 9q1 2 3 4q9 9 17 18t19 17q7 5 13.5 9l14.5 9l20.5 10t22.5 7q6 2 12 3t12 1q8 -2 15 1q7 2 13 -1
q9 -3 17.5 -6.5t14.5 -11.5q1 -1 2 -1.5t3 -2.5q21 -17 24 -47q1 -11 -1 -21.5t-5 -21.5l-3 -4l-8 -14t-9 -14q-5 -11 -11 -14q-2 -2 -3 -2.5t-2 -2.5q-2 -7 -6 -10.5l-9 -7.5q-17 -14 -33 -30q-2 -2 -3 -5.5t-3 -5.5z" />
    <glyph glyph-name="three" unicode="3" horiz-adv-x="234" 
d="M22 319l17 16q8 2 10 2l10 -3l2 -6l2 -6q-2 -5 -5.5 -9t-1.5 -10q-1 -5 -1 -10t7 -12q5 -2 11.5 -2.5t14.5 3.5q6 3 12.5 5.5t12.5 7.5q10 8 18.5 16t14.5 19q9 16 16 32t12 34v7q-4 4 -9 2q-7 -2 -13 -5t-12 -7q-9 -7 -12.5 -8.5t-15.5 -3.5q-6 -1 -7.5 4t-5.5 7
q-5 2 -8 5l-6 6l-3 26q0 4 9 13l15.5 15.5t16.5 13.5l2 2q9 11 20 21.5t19 22.5q4 7 7 13.5l6 13.5v4q-4 2 -6 1q-6 -2 -12.5 -2t-12.5 -5l-7 -3q-5 -5 -10 -8.5t-10 -7.5q-6 -8 -8 -12q-11 -17 -15 -34l-4 -4l-4 -4h-22l-3.5 3.5l-3.5 3.5q-6 4 -8 6q5 8 9 16.5t9 16.5
l11.5 15t12.5 17l12 7.5l15 9.5q4 2 7.5 3.5t7.5 1.5q8 2 15 3.5t15 1.5q2 -1 8 1q10 -4 20 -5.5t20 -7.5q1 -2 2 -4.5t2 -4.5q1 -6 1 -12.5t-2 -13.5q2 -4 -2 -6.5t-3 -6.5q1 -6 -5 -12l-1 -1q-3 -11 -9.5 -20t-11.5 -20q-2 -4 -5 -7t-5 -6l-6 -12q2 -3 5.5 -3.5t6.5 -1.5
t10 -1q17 0 28.5 -10.5t15.5 -28.5q0 -2 0.5 -4.5t-0.5 -4.5q-2 -8 -3 -15.5t-4 -14.5q-4 -8 -6 -17t-9 -16q-3 -8 -7.5 -14.5t-9.5 -14.5q-12 -20 -28 -31q-5 -2 -8 -5.5t-7 -5.5q-20 -13 -41 -13q-8 1 -16.5 0.5t-16.5 2.5q-11 0 -23 3q-6 2 -10 4q-15 11 -29 10
q-11 8 -16 21q3 8 6.5 14.5t5.5 13.5q2 5 4.5 8.5t5.5 6.5z" />
    <glyph glyph-name="four" unicode="4" horiz-adv-x="212" 
d="M72 430q9 0 15.5 -0.5t11.5 1.5q6 1 11.5 -0.5t11.5 0.5q5 14 8.5 26.5t6.5 26.5q0 2 -0.5 3t-0.5 3q-17 -14 -30.5 -30t-33.5 -30zM0 435q2 5 6 8l8 6q40 27 72 63l26 27.5t25 28.5l14 13q17 -6 32.5 -15t26.5 -25q0 -7 0.5 -14t-2.5 -15q0 -16 -4.5 -30.5t-8.5 -29.5
l-4 -16q-1 -5 0 -12q7 -1 13 -1t13 -1q3 3 9 11q5 2 8.5 -0.5t6.5 -5.5l4.5 -6.5t5.5 -6.5q1 -8 -7 -10q-5 -1 -15 -1q-11 0 -21.5 0.5t-21.5 1.5q-3 -2 -5 -11q-1 -9 -1.5 -18t-5.5 -17q0 -9 -2.5 -17.5t-4.5 -16.5q-2 -6 -3.5 -12t-3.5 -13q-2 -1 -9 -6q-1 -4 -1.5 -8
t-2.5 -9q-1 -2 -1 -3t-2 -3q-4 -5 -6.5 -10.5t-4.5 -11.5q-2 -5 -4.5 -9.5l-5.5 -9.5q-3 -1 -10 -1q-11 -2 -16 9q-8 16 -13 36q2 8 -0.5 17t2.5 17q1 2 0.5 3.5t-0.5 3.5q1 8 1.5 15.5t5.5 14.5q3 14 8 27l10 27l3 8q-4 2 -5 2q-4 -2 -8 -2.5t-9 -0.5h-15q-25 3 -50 -8
q-14 -5 -21 10l-4 12.5t-2 14.5z" />
    <glyph glyph-name="five" unicode="5" horiz-adv-x="205" 
d="M42 290q7 -5 13.5 -5.5t13.5 1.5q29 9 44 36l10 18t8 19l4 13.5l4 13.5t4.5 13t3.5 13q1 8 2.5 15.5t2.5 15.5q-14 5 -25 -1q-8 -5 -17 -8t-17 -10q-2 -2 -8 -4t-8 -2q-10 3 -17.5 9t-15.5 11q-2 5 -0.5 7.5t1.5 4.5q0 8 1 12q2 7 1 13.5t1 14.5l-10 23q0 8 1.5 17.5
t7.5 17.5q7 7 14.5 8t15.5 -1q33 -8 66 -6q9 0 17.5 4t16.5 9q4 2 4.5 6t2.5 8l9 3q7 -4 8.5 -9t0.5 -13q-5 -7 -8 -15t-8 -16q-4 -6 -8.5 -10.5l-9.5 -9.5q-8 -7 -19 -5q-6 0 -12.5 -1t-13.5 1q-3 2 -6.5 2.5t-7.5 2.5q-3 2 -6.5 2.5t-7.5 2.5q-4 -6 -7 -9q6 -11 1 -25
q-2 -6 2 -11h4q10 3 19 4t19 2q14 1 26.5 -2t24.5 -11l15 -30q1 -5 1 -10t2 -10t1 -10l-2 -10q0 -3 -1 -6.5t-1 -6.5q1 -10 -1.5 -19t-5.5 -18q-2 -5 -3 -9t-3 -9q-3 -10 -8 -23q-11 -23 -26 -36q-2 -1 -2.5 -2t-1.5 -2q-6 -7 -12 -13t-14 -10q-1 0 -5 -7q-7 -2 -13.5 -3.5
t-13.5 -1.5q-19 0 -34 12q-8 7 -18 11t-21 7q-2 2 -3.5 5t-3.5 5t-4.5 4t-5.5 4q-1 3 0.5 6.5t3 6.5t1.5 6.5t-3 6.5l13 32.5t14 30.5q2 5 5 10.5l6 10.5q4 7 12 3q5 -1 7 -8v-8t-2 -7q-5 -9 -5 -21q-1 -8 -5 -19q-7 -13 -5 -31z" />
    <glyph glyph-name="six" unicode="6" horiz-adv-x="208" 
d="M91 282l6 -4t7 -4q2 2 5 2t6 2l13 9.5t11 11.5l2 2q13 13 21 28q4 8 8 14.5t7 14.5q2 6 2 8.5t-2 11.5q-10 9 -19.5 8t-20.5 -8l-16 -23q-5 -2 -10 -2.5t-11 4.5q-5 20 2.5 34.5t21.5 27.5h11.5t11.5 -2q2 -1 4 -0.5t4 0.5l21 3q8 -2 15 -7.5l14 -11.5q2 -9 3 -17.5
t-1 -17.5q-1 -5 -2.5 -8.5l-3.5 -8.5l-10 -21l-10 -21q-11 -19 -27 -40q-2 -2 -2.5 -3t-2.5 -2q-8 -4 -16 -9.5t-18 -7.5q-8 -2 -13 -4q-15 2 -29.5 6t-28.5 12q-4 2 -8 5t-7 7q-5 5 -9 10l-8 10t-5.5 11t-3.5 13q-3 16 -3 33t3 31q2 11 5 21.5t8 20.5q4 9 7.5 18.5
t8.5 18.5l10 16t13 16q8 9 15 19l15 21q7 11 16 18.5t20 15.5q4 3 11 1l10.5 -4l11.5 -4l11 -10q-1 -2 -1 -3.5t-2 -3.5l-31 -25q-3 -6 -6 -13.5t-8 -14.5l-6 -10t-5 -10q-3 -8 -5.5 -15.5t-7.5 -14.5l-4 -10.5t-3 -10.5q-1 -4 -1.5 -8t-2.5 -8l-4 -13.5t-2 -13.5l-3 -25
q-2 -5 0 -10q0 -4 0.5 -7.5t0.5 -7.5q1 -22 17 -41z" />
    <glyph glyph-name="seven" unicode="7" horiz-adv-x="177" 
d="M191 408q-2 0 -6 2q-16 -5 -32.5 -8.5t-33.5 -5.5q-4 -8 -6.5 -17t-5.5 -18q-2 -5 -2.5 -9.5t-2.5 -9.5q-3 -12 -5.5 -24t-3.5 -25q-1 -5 -2 -11t-1 -12q1 -6 1 -12t1 -13q-4 -2 -7 -4.5t-8 -4.5q-4 -1 -12 -9q-12 2 -20 10q-4 3 -8.5 4.5t-9.5 3.5q-11 3 -20 13
q-8 27 1 60q4 15 10.5 29.5t13.5 28.5q6 11 11 22q-9 6 -19 6q-10 1 -17 7q-2 2 -3.5 4t-3.5 5q8 1 14 3t13 1h30q8 10 16 22q2 2 2.5 4.5t1.5 4.5q6 19 17 39q4 7 6.5 14t4.5 15q-3 3 -8 1q-9 -2 -18.5 -2.5t-19.5 2.5q-2 0 -3 -0.5t-3 -0.5q-13 1 -25 9q-2 2 -4.5 3.5
t-5.5 3.5q-2 7 -6 13q-3 8 -1 14q4 2 7 2l10.5 -4t10.5 -6q9 -7 22 -6q6 0 12 1t12 1q6 1 11.5 1h11.5q4 0 8 1.5t8 3.5l8 14q12 3 26 -4q4 -5 10.5 -6.5t8.5 -9.5q-1 -1 -3 -5q-1 -6 -5 -10.5t-6 -9.5q-2 -12 -7 -22q-2 -2 -2 -7q-3 -8 -5 -15.5t-7 -14.5q-2 -3 -2.5 -6.5
t-2.5 -6.5l-4 -11.5l-4 -11.5q-1 -2 -1 -4t-1 -5q2 0 3.5 -0.5t3.5 -0.5q9 1 18.5 1t18.5 2q12 2 26 0q5 0 7 -6q-6 -7 -13 -13z" />
    <glyph glyph-name="eight" unicode="8" horiz-adv-x="193" 
d="M94 358l-5.5 -9.5t-6.5 -7.5q-7 -5 -10.5 -12t-5.5 -14q-4 -11 -6.5 -22.5t2.5 -22.5q2 -2 3 -2l8 -3q7 -4 12.5 -2t10.5 7q13 11 24 29l9 14q6 11 11 22q3 7 -1 14l-9 9q-7 2 -13 4t-13 1q-5 -3 -10 -5zM116 521l-14.5 -20.5t-10.5 -20.5q-5 -18 -7 -40v-10.5t2 -10.5
q7 -4 14 -1q5 2 10 3t9 6q8 9 15 18.5t10 22.5l-3 12q-2 8 -6 14q-10 10 -14 20q-2 4 -5 7zM87 570l14 -11q4 -2 7.5 -4t8.5 -2q6 -1 12 -2.5t12 -3.5q14 -3 24 -13l15 -15q1 -1 1 -1.5t1 -1.5q5 -13 8.5 -26t-1.5 -27q-2 -7 -4 -17q0 -6 -2.5 -11t-5.5 -10q-2 -5 -5 -9.5
l-7 -10.5q-9 -5 -16 -11q6 -10 15 -14q10 -5 13 -8t7 -14q-2 -5 -2 -10.5t3 -10.5q-6 -17 -13 -32.5t-17 -29.5q-3 -3 -7 -11q-6 -9 -14 -17q-13 -16 -35 -15q-11 0 -21.5 1t-21.5 3q-9 2 -17.5 5.5t-16.5 7.5q-14 12 -20 29.5t3 37.5l13.5 27t15.5 24q2 3 4 9l6 6l-3 3
q-13 6 -19 16.5t-8 24.5q-1 5 -2.5 10.5t-0.5 10.5l2 13.5t3 12.5q1 8 3.5 14l5.5 13l6 12q6 12 14.5 22.5t18.5 20.5q5 5 11 8t12 7z" />
    <glyph glyph-name="nine" unicode="9" horiz-adv-x="201" 
d="M62 438q8 -3 13 1q9 4 17 9t17 10t16 13t12 17q3 5 4 11.5t3 13.5q-4 1 -7 1t-6 1q-5 2 -13 8q-2 -1 -4 -1t-4 -2q-21 -18 -32 -38q-5 -8 -8.5 -17.5t-7.5 -18.5q-1 -2 -0.5 -4t0.5 -4zM122 569l33 -16q3 -4 4 -8q10 3 22 -4q5 0 10.5 -1t10.5 -5v-10t-3 -10
q-4 -8 -1 -13q-1 -14 -2 -26.5t-5 -25.5q-4 -18 -6 -37q-1 -2 -0.5 -3.5t0.5 -3.5q0 -4 0.5 -7.5t-1.5 -6.5q-5 -20 -9 -40t-12 -40q-4 -11 -11 -24q-4 -4 -4 -8q1 -4 -1.5 -6.5t-3.5 -6.5q-1 -7 -1 -13.5t-1 -13.5q-2 -2 -3 -4q-10 -2 -17 -4q-3 1 -7 1.5t-8 2.5l-6 4t-8 4
q-10 17 -8 40q1 20 5.5 39.5t10.5 38.5q2 5 4 15l4 18t6 17v4q-4 2 -5.5 0.5l-3.5 -3.5q-10 -7 -25 -13q-15 -7 -28.5 -5t-27.5 10q-6 3 -13 10q-16 20 -8 42q0 2 0.5 3t0.5 3q2 17 6.5 28t14.5 27l14 25t16 19q4 3 7.5 6t6.5 6q6 2 9.5 -2t8.5 -2q4 -2 8.5 -2t9.5 1
q4 0 8 -2t9 2z" />
    <glyph glyph-name="colon" unicode=":" horiz-adv-x="89" 
d="M20 357v6q0 4 4 10q3 4 7 7q2 2 4 2q8 0 11 2q4 0 7.5 -0.5t7.5 -2.5q5 -3 5 -9q1 -2 1 -4.5t1 -4.5q2 -7 0 -13q0 -4 -5 -11l-1 -1q-5 -2 -7 -4q-6 -3 -12 -3q-8 0 -13 5l-2 2q-7 7 -7.5 8.5t-0.5 10.5zM43 403q-6 -1 -10 2t-8 7l-2 3q-1 3 -2 6.5t0 7.5q-2 2 0 5t2 9
q0 4 6 8l2 1q7 1 13 6q2 0 3 -1l3 -3q4 -2 5 -2q5 0 8 -4l2 -2t2 -4q0 -6 2 -9v-11q0 -2 -1 -2q-2 -5 -4 -7l-5 -5q-1 -1 -2 -1t-2 -1q-6 -3 -12 -3z" />
    <glyph glyph-name="semicolon" unicode=";" horiz-adv-x="91" 
d="M27 356q0 5 1 7q0 4 4 12q2 3 4 5.5t4 5.5q2 0 4 -0.5t4 -0.5q3 0 4 -1q5 -2 8.5 -4.5t8.5 -4.5q2 -1 2 -5v-10q1 -4 -2 -9q-2 -3 -2.5 -6.5t-1.5 -6.5q0 -4 -1 -5q-2 -4 -3 -5q-3 -11 -13 -15l-2 -2q-2 -3 -9 -5q-6 -2 -11 0q-1 0 -2 1q-2 4 -4 6q0 2 1 2q2 5 8 13
q6 6 4 15q0 4 -1 5t-1 2q-2 2 -4 6zM45 403q-6 -1 -10 2t-8 7q-1 1 -1 3q-3 6 -3 14q-2 2 0 5q2 2 2 4.5t1 4.5q0 5 6 8q0 1 2 1q7 2 13 6h1q1 0 1 -0.5t1 -0.5l3 -3q2 -2 5 -2q4 0 7 -4q2 0 2 -2q2 -2 2 -4q1 -2 0.5 -4.5t1.5 -4.5v-11v-2q-2 -2 -2.5 -3.5t-2.5 -3.5
q-1 -2 -2 -2.5t-3 -2.5l-4 -2q-5 -3 -12 -3z" />
    <glyph glyph-name="less" unicode="&#x3c;" horiz-adv-x="239" 
d="M207 276q2 -3 5 -5.5t5 -5.5q2 -2 2 -8q-2 -9 -11 -11h-15h-8q-10 0 -14 2q-6 0 -10 2.5l-9 5.5q-5 4 -10 7t-9 8q-1 1 -2 1.5t-2 2.5q-3 2 -6.5 4t-6.5 5q-5 7 -12 11l-2 2q-4 5 -8 9l-9 9q-1 2 -3 4q-6 8 -12.5 15t-14.5 13q-3 3 -4 5q-2 2 -3 4.5t-3 4.5
q-4 5 -7.5 10.5t-8.5 9.5q-8 4 -9 11v1q0 5 2 6q6 8 10 11q2 5 5 8l6 6q4 5 8 9t7 10q1 2 5 4q6 8 13.5 14.5t12.5 14.5q2 2 3 2q5 3 9 7.5t9 8.5q3 4 7 7q6 3 11.5 6.5t11.5 6.5l14 8q6 5 13 6q12 3 19 7q3 2 8 2q3 0 6 0.5t6 0.5q8 0 12 -9q3 -3 0 -3q-2 -4 -8 -10
q-5 -5 -8.5 -10t-8.5 -10q-4 -6 -5 -10q-1 -2 -5 -4q-16 -13 -27 -28q0 -1 -3 -4q-4 -5 -8.5 -9t-7.5 -9q0 -2 -2 -2q-7 -4 -12 -11q-3 -3 -7 -5t-6 -5l-4 -3q-4 -5 -9 -8t-10 -7l-4 -3q2 0 2 -1l14 -8l23 -13l7 -6q5 -4 9 -8.5t9 -7.5q2 -2 2 -3q6 -8 13.5 -14t13.5 -14
q1 -2 2 -2.5t2 -2.5q3 -5 7.5 -9t8.5 -9q3 -4 6 -6.5t5 -7.5z" />
    <glyph glyph-name="equal" unicode="=" horiz-adv-x="273" 
d="M27 358l-3 21q3 5 9 5q8 -2 14.5 -1.5t14.5 1.5q8 2 16 1.5t16 -0.5q20 1 38.5 0.5t37.5 1.5q4 1 7.5 0t6.5 -1q7 -1 13.5 -1h12.5q11 1 22 -5q2 -2 4 -2.5t4 -1.5q7 -2 7 -12q-2 -6 -1 -11q1 -10 -9 -17t-23 -7q-15 0 -30 0.5t-30 -0.5q-11 0 -23 0.5t-23 -1.5
q-11 -1 -23 -1t-23 2q-23 2 -32 22q-3 3 -3 7zM26 474q13 -1 30 2q4 1 8 0.5t9 -0.5h34t34 1q9 0 18.5 0.5t19.5 1.5q5 0 9.5 -0.5t9.5 -0.5q8 -1 16 -1t16 -1q26 -3 23 -30q0 -1 -0.5 -1.5t-0.5 -1.5q-15 -12 -34 -12q-11 -1 -20.5 -1h-19.5h-18q-3 0 -6.5 -0.5t-6.5 -0.5
q-8 -2 -13 -2q-15 1 -35 -2q-5 -1 -9.5 -0.5t-9.5 -0.5q-8 -1 -16.5 -1t-16.5 -2q-2 -1 -8 1q-15 12 -18 27q-2 6 -1 13t6 12z" />
    <glyph glyph-name="greater" unicode="&#x3e;" horiz-adv-x="239" 
d="M32 276q2 5 5 7.5t6 6.5q4 5 8 9t7 9q1 2 2 2.5t3 2.5q6 8 13.5 14t12.5 14l3 3q5 3 9 7.5t9 8.5q4 4 7 6l23 13q3 2 6.5 4t7.5 4q0 1 2 1q-2 1 -4 3q-5 4 -10 7t-9 8l-4 3q-3 3 -6.5 5t-6.5 5q-5 7 -12 11q-2 0 -2 2q-4 5 -8 9t-8 9q-3 1 -4 4q-10 16 -27 28
q-1 1 -2 1.5t-2 2.5q-2 3 -3 5.5t-3 4.5q-5 5 -8 10t-8 10q-6 6 -9 10v3q5 9 13 9q3 0 6 -0.5t6 -0.5q5 0 7 -2q9 -4 20 -7q7 -1 13 -6q4 -2 7 -4t7 -4q6 -3 11.5 -6.5t11.5 -6.5l3.5 -3.5l3.5 -3.5q5 -4 9 -8.5t9 -7.5q2 0 2 -2q6 -8 13.5 -14.5t13.5 -14.5q1 -1 2 -1.5
t2 -2.5q3 -6 7.5 -10t8.5 -9l6 -6t5 -8l5 -5t5 -6q2 -1 2 -6v-1q-1 -7 -9 -11q-5 -4 -8.5 -9.5t-7.5 -10.5q-4 -3 -6 -9q-2 -3 -5 -5q-16 -13 -27 -28q0 -1 -1 -1.5t-2 -2.5q-4 -5 -8.5 -9t-7.5 -9l-2 -2q-7 -4 -12 -11q-3 -3 -6.5 -5t-6.5 -4q-1 -2 -2 -2.5t-2 -1.5
q-4 -5 -9 -8t-10 -7l-9.5 -5.5t-9.5 -2.5q-4 -2 -14 -2h-9h-14q-9 2 -11 11q0 6 2 8q3 4 10 11z" />
    <glyph glyph-name="question" unicode="?" horiz-adv-x="297" 
d="M88 240v7q0 5 4 11l3.5 3.5l3.5 3.5t5 2q8 0 12 2q10 2 16 -2q5 -5 6 -10q0 -7 1 -10q2 -3 1.5 -6.5t-0.5 -7.5q-2 -7 -6 -11l-2 -2l-7 -3q-5 -4 -13 -4t-14 6l-1 1q-8 7 -8.5 8.5t-0.5 11.5zM74 521q-3 0 -7 -2h-9q-9 0 -16 2.5t-10 9.5q-2 6 -5.5 12t-6.5 12
q2 7 4.5 13.5t5.5 13.5q0 1 3 4l16.5 18t18.5 17q15 11 31 15.5t34 2.5q14 -2 28.5 -3t28.5 -5q16 -5 28.5 -12t23.5 -20q21 -24 32 -57q1 -2 1.5 -8.5l1 -13t0.5 -12.5v-8q-2 -8 -3 -10q-9 -14 -16.5 -27.5t-18.5 -26.5q-2 -2 -4 -4.5t-4 -3.5q-5 -3 -9.5 -7t-9.5 -8l-7 -6
q-21 -14 -42 -35q-5 -6 -12 -10.5t-12 -11.5q-4 -4 -6.5 -7.5t-3.5 -8.5q-2 -5 -5 -10.5t-5 -10.5q1 -2 2 -5l2 -6q2 -7 -2 -10t-10 -1q-8 2 -14 9q-12 13 -15 28t-1 32q3 29 19 52l3 3q6 14 17 23.5t22 20.5l28 25q6 5 12 11l12 12q9 8 15.5 17.5t11.5 20.5q7 15 -2 29
l-5 6q-9 17 -27 18q-8 1 -15 2.5t-15 1.5q-48 -2 -71 -42q-9 -18 -12 -39z" />
    <glyph glyph-name="at" unicode="@" horiz-adv-x="359" 
d="M197 434l3 14q1 1 1 4l-2 3l-1 -1l-3 -3q-3 -2 -4.5 -5t-5.5 -5q-3 -2 -4.5 -5t-5.5 -5q-2 0 -2 -3l-5 -6q-5 -5 -8 -10l-6 -10q-3 -6 -7 -10q-3 -3 -3 -7t-1 -7l-2 -6q0 -2 1 -2q0 -2 3 0q4 2 6 4q7 6 12.5 12.5t10.5 14.5l10 15.5t12 13.5q1 1 1 4zM337 456q3 -5 0 -11
q0 -2 -0.5 -2.5t-0.5 -2.5q1 -5 -0.5 -9.5t-3.5 -8.5q-2 -8 -2 -13q0 -2 -2.5 -12.5t-3.5 -12.5q-2 -3 -4.5 -6t-4.5 -7q-2 -2 -2 -5q0 -7 -6 -11q-2 -3 -5 -5.5t-6 -5.5l-6 -8q-2 -3 -5 -3q-2 -1 -4 -3q-2 -4 -4 -5t-4.5 -2.5t-4.5 -3.5q-2 -3 -8 -3h-11q-3 0 -4 1
q-5 4 -12 5q-3 0 -9 4t-10 8q-3 5 -8 9.5t-7 10.5t-8 2q-2 -2 -2.5 -3t-2.5 -2q-2 -4 -2 -5q0 -5 -2.5 -8t-4.5 -6h-3h-2q-5 -5 -9.5 -7.5t-9.5 -6.5q-2 -2 -5.5 -2.5t-5.5 -1.5q-1 -1 -2 0q-4 2 -8 2t-8 3q-2 2 -3 2t-3 1q-4 0 -5 3q-2 3 -4 4t-4 3q-4 2 -6 5.5t-4 6.5v3
v17v3q2 4 2 7.5t1 6.5q2 9 9 13v3q1 2 3 4q5 5 5 11q0 2 2 4q2 3 4.5 6t6.5 5q2 1 5 6q3 6 7 10l6 6t5 7q2 3 5 5q3 3 6.5 6t7.5 6q3 2 6 5.5t6 6.5q4 2 7.5 4.5t6.5 5.5q1 1 4 1q3 1 5.5 0.5t5.5 -0.5q2 0 2.5 -0.5t1.5 -0.5q3 -2 9 -4q2 -1 3 -2t3 -1q6 0 10.5 -3.5
t9.5 -5.5l3 -3q5 -8 2 -15q-2 -3 -2 -6t-1 -5q-2 -4 -2 -11q0 -2 -2 -6q-4 -3 -4 -9l-4 -16q-1 -3 -1 -7q-1 -8 -1 -14.5v-14.5l1 -4q2 -2 4 -2q8 3 16 9q8 9 17 17q4 4 7 10l6 13q1 4 6 7q4 2 6 10v7l4 2h1q1 2 1 4.5t1 4.5l3 9q2 4 2 7q-1 9 -0.5 18t0.5 19q0 2 -1 4.5
t-2 4.5q-2 5 -5 9.5t-6 9.5q-2 3 -4 5.5t-4 5.5q-3 4 -8 6q-2 0 -3 1q-9 5 -23 5q-5 0 -9 -0.5t-9 0.5q-6 0 -12 -1t-12 -3q-1 0 -1.5 -0.5t-2.5 -0.5q-2 -2 -5 -2.5t-7 -2.5q-10 -4 -19.5 -8.5t-18.5 -10.5l-11.5 -8l-11.5 -8l-9.5 -9.5t-8.5 -9.5l-15 -21q-2 -3 -3.5 -6
t-3.5 -6t-4 -5.5t-2 -7.5q-5 -6 -7.5 -13t-5.5 -14l-6 -16t-5 -16q-2 -5 -3.5 -10.5t-1.5 -11.5q0 -4 -1 -6.5t-2 -6.5q0 -2 -0.5 -4t0.5 -4q1 -3 1 -10v-33q0 -5 2 -8q3 -3 3 -7q0 -2 2 -6q3 -8 12 -8h23h6.5t7.5 2q1 1 4 1q7 -1 16 4q3 1 7 1q15 0 27 12q1 2 2 2.5t2 1.5
h2q0 -1 1 -1q1 -2 0.5 -4t-0.5 -4t-2 -4q-1 -3 -1 -5.5t-1 -4.5q-2 -3 -4.5 -5t-4.5 -5q-2 -2 -5 -4.5t-7 -4.5l-12 -12q-5 -5 -9 -4q-2 0 -4.5 -1.5t-5.5 -0.5l-8 -3q-8 -3 -15 0q-15 4 -34 11q-3 1 -9 5q-4 4 -8.5 8t-7.5 10q-1 1 -2 1q-3 -2 -5 2q-1 2 -2.5 4t0.5 5
q-3 3 -5 7q-3 4 -3 11q0 9 -2 14q-2 4 -1.5 8t1.5 9q2 4 2 7q0 4 0.5 7t1.5 7l3 15q1 2 1 6q3 5 4 11t3 12q2 4 3 7t3 6q3 8 6.5 15l7.5 15q2 5 4.5 9t5.5 8t5 7.5t4 7.5l6.5 10.5t8.5 10.5q3 3 5 6.5t5 7.5q4 6 7 9l18 18q5 5 8 6l1 1q5 4 9.5 8t10.5 6q4 4 9 6t10 6
q1 1 2.5 1t2.5 1q10 4 14 7q10 4 15 5q5 3 11 0q3 -2 6 0q5 2 15 2q2 0 4.5 -1t5.5 0q2 1 4 -0.5t4 0.5q3 -1 6 -1t7 -2q2 0 6 -2q4 -3 8 -5.5t8 -4.5q4 -3 8 -5t7 -6l3 -3q2 -2 3.5 -2.5t3.5 -2.5q2 -4 4.5 -6.5t3.5 -7.5q0 -1 0.5 -1.5t0.5 -1.5q4 -4 4 -11q2 -4 2.5 -8
t0.5 -9v-6.5t2 -7.5q1 -2 1 -7v-13q0 -4 1 -7z" />
    <glyph glyph-name="A" unicode="A" horiz-adv-x="405" 
d="M352 689l3 4q-3 -1 -3 -4l-6 -3l-13.5 -13.5t-12.5 -14.5q-5 -5 -11 -13t-12 -14t-12 -14q-7 -8 -12 -15l-11 -15q-2 -2 -3.5 -5t-3.5 -5q12 -2 23.5 0t22.5 2q3 0 9 2q4 11 8.5 21t8.5 21l10.5 28l11.5 28q2 2 2 5t1 5zM496 560q-2 -3 -4 -5t-1 -6q-22 -7 -44 -8t-45 -5
q-3 -3 -3 -4q-7 -20 -13 -40.5t-13 -40.5q-3 -8 -5 -15q0 -2 -0.5 -2.5t-0.5 -1.5q2 -8 0 -16t-3 -16q-1 -3 -1 -6t-1 -6q0 -2 -0.5 -4.5t-0.5 -4.5q-1 -5 -2 -9.5t-1 -9.5q-1 -11 -3 -23t-1 -24q1 -5 -2 -12q-2 -9 -3.5 -18l-3.5 -20q-1 -8 -1 -17t-1 -18q-1 -5 -1.5 -9.5
t-0.5 -9.5q-1 -5 -2 -9t1 -9q1 -3 1 -10q0 -3 -1 -6t1 -5q2 -8 1.5 -15t-2.5 -15q0 -3 -1 -6t-1 -6q-2 -6 -2 -11q1 -4 1.5 -8t2.5 -9q2 -8 7 -15q7 -8 1 -18q-1 -2 -2 -5l-2 -6q-5 -2 -13 2q-7 4 -13.5 7t-13.5 8q-4 2 -11 9q-5 6 -10.5 11.5t-10.5 12.5q-2 3 -4.5 6
t-4.5 7q-5 8 -8.5 16t-8.5 16q-4 6 -3 11q2 9 1 17.5l-2 16.5q0 12 -6 23h1q2 3 0 4t-1 3q3 3 3 6v7q0 3 -1.5 5t-2.5 4t3 3q1 11 0.5 14t-3.5 9q1 5 1.5 10.5t2.5 11.5l2 22l2 22q1 2 1 3.5t1 3.5l2 11.5t2 12.5q2 10 4 19t5 20l6 25.5t8 25.5q1 4 2 7.5t1 8.5q0 8 4 11
q1 1 1 3q0 5 2.5 9t4.5 9q1 5 2 9t3 9q0 3 1 5q-19 1 -36 -1t-35 -2q-4 -4 -6 -7q-10 -14 -18.5 -27.5t-19.5 -27.5l-15 -19.5t-16 -17.5l-9 -9l-9 -9q-14 -14 -32 -23q-8 -4 -16 -6.5t-16 -2.5q-5 -1 -8 0t-7 3q-2 2 -8 4q-11 6 -11 19v1q5 1 10 1.5t10 -1.5q6 -2 12 3
l19 15.5t17 16.5l20 21.5t18 22.5l30 42v2q0 2 -4 2q-27 3 -52 14q-4 2 -7 4.5t-4 7.5q2 2 2.5 2t1.5 2q-1 1 -1.5 2t-2.5 2q2 3 4.5 3.5t5.5 1.5q23 5 45.5 8t45.5 1q6 0 11 5l8 10.5t9 10.5l31.5 38.5t32.5 37.5q11 14 23 26.5l24 24.5q13 15 28 28q0 2 4 4l12 11.5
t11 12.5q7 10 21 8l15.5 -2t15.5 -3q7 -1 15 -8q3 -3 3 -7q3 -9 0 -17q-2 -8 -4.5 -14t-4.5 -13q-5 -12 -8 -23t-8 -23q-5 -14 -8 -27l-6 -27l-10 -46q8 -4 18 -3t18 -4q1 -2 -0.5 -2.5t0.5 -2.5q1 -1 1 -5q11 -4 21.5 -4t21.5 -6z" />
    <glyph glyph-name="B" unicode="B" horiz-adv-x="593" 
d="M213 137h-1l4 -8zM611 705l1 -4l5 -4l-4 -16q-2 -6 -2.5 -12t-2.5 -12q-2 -11 -7 -19l-10 -16q-2 -2 -3 -4.5t-3 -4.5l-1 -1q-2 -3 -4 -6.5t-7 -5.5v-1q-6 -11 -16 -18q-1 -1 -1 -2t-1 -2l-2 -2l-3 -1q-8 -5 -16 -13l-4 -2q-2 -2 -4 -3.5t-4 -3.5q-5 -2 -10.5 -5.5
t-10.5 -7.5l-11 -8l-1 -1q-2 -1 -4.5 -2.5t-5.5 -2.5l-7 -3q-1 -1 -2 -1.5t-2 -1.5l-5 -3q-8 -6 -17 -7v-1l-1 1v-1l-4 -4q2 0 2.5 -0.5t1.5 -0.5q20 -9 35.5 -19t29.5 -23l1 -2q8 -7 15 -14t13 -16l13 -19q4 -7 6 -14q12 -31 9 -70q0 -4 -2 -14q-4 -17 -9 -34
q-2 -6 -4.5 -10.5l-5.5 -9.5q-2 -1 -4 -5q-1 -1 -1 -2l-1 -1q1 -3 -0.5 -5.5t-2.5 -4.5l-2 -2q-2 -4 -4 -7t-4 -7q-2 -5 -4.5 -8t-6.5 -7q-2 -2 -6 -8q-2 -5 -6 -9l-3 -3q-2 -4 -5 -7l-6 -6l-12 -12q-1 -2 -2 -2.5t-2 -2.5l-1 -1l-3.5 -3.5t-4.5 -2.5q-2 -2 -3.5 -2.5
t-3.5 -2.5q-4 -4 -7 -5q-2 -2 -4.5 -3.5t-5.5 -3.5t-6.5 -5t-7.5 -5q-5 -3 -10 -5.5t-10 -4.5l-10 -4q-11 -6 -23.5 -10.5l-26.5 -9.5l-1 -1q-9 -3 -18.5 -5.5t-19.5 -3.5q-3 0 -6 -0.5t-7 -1.5q-4 0 -7 -1q-1 0 -3.5 -0.5t-4.5 1.5l-4 -2l1 2h-2l-1 -2l-5 2q-1 -1 -2 -1
t-2 -1l-10 -1l-4 -1h-12h-8.5t-8.5 1q-1 1 -3 1h-5q-3 1 -7 3q-1 0 -2 1l-9 4v1h-1q-7 0 -11 1q-6 2 -9 2q-6 2 -12 3.5t-12 4.5q-11 1 -19 9q-9 3 -16.5 8t-15.5 9l-6 3l-11.5 8t-10.5 9q-5 3 -9.5 6.5t-9.5 6.5q-2 1 -2.5 2t-1.5 2l-2 1l-3 3h-1q-7 2 -11 7q-2 2 -2 3h-9
l5 9v1h-7l-4 14l1 1v3q-2 8 -5.5 15.5t-6.5 15.5l-3 8l2 4q-6 10 -1 23v1q1 8 2 15t5 15v2q0 3 2 7l12 28l2 5q2 4 5 6l10.5 10.5t10.5 11.5q2 3 7 8q0 1 3 3l15 11l30 22q11 8 28 10h3l29 8l-16 -21l-1 -2v-1q-4 -11 -11 -17q-3 -2 -9 -8q-4 -6 -10 -10q-13 -12 -26 -28
l-2 -2q-2 -4 -4 -5q-6 -8 -9 -11l-3 -8l-1 -2q-1 0 -1 -2q0 -4 -3 -8q-3 -3 -7 -11q-1 -6 -5 -11q-4 -6 -5 -13t-2 -13q-2 -12 3 -27q2 -9 6 -17.5t11 -16.5q5 -5 8 -6q4 -2 7.5 -5t7.5 -6q9 -8 18 -12q5 -2 8.5 -4t8.5 -4l6 -3q4 -3 8 -4q5 -2 8.5 -4t8.5 -4q9 -4 15 -3
q7 0 12 -3l4 1l7 2l2 -2q5 2 9 1t6 -3q5 2 13.5 3t14.5 -1h2l-14 11l55 -8q5 2 15 4l11 3q1 0 1.5 0.5t1.5 0.5l4 2t5 2q4 2 7.5 3.5t7.5 3.5q1 0 5 2l4 1q9 5 18 8.5t17 8.5q2 1 4.5 2.5t5.5 3.5l1 2l2 4l-2 5l14 2q5 1 6 4q2 2 4 3l4 2l1 2l-2 2l8 6v1l6 8l2 -2
q2 2 3.5 2.5t3.5 2.5q7 5 10 11l3.5 3.5l3.5 3.5q16 18 34 50q4 8 8 17t6 19q2 11 3 20.5t-1 19.5q-2 8 -5 14.5t-6 11.5q-14 20 -31 32l-2 1l-16 11.5t-17 9.5q-22 10 -47 12h-13t-16 -1q-27 -1 -48 -10q-1 -1 -1 -2t-1 -3q-2 -6 -3.5 -12.5t-3.5 -13.5l-4 -15l-2 -5l-1 -2
q-2 -7 -4.5 -13.5t-3.5 -12.5q-1 -9 -7 -15q-5 -7 -7 -16q-3 -23 -23 -32h-1l-18 -2l-3 7q0 2 -1 3.5t-1 3.5v12v11q-1 3 -1 7t-0.5 7.5t0.5 8.5v6q0 17 5 39q2 8 3.5 17t3.5 18l2 7v2q0 1 -0.5 1.5t-0.5 1.5v2q0 1 2 5q4 6 5.5 12.5l3.5 14.5q2 5 2.5 9t2.5 8l6 19l4 12
t4 13q3 8 5.5 15.5t5.5 15.5q2 6 3.5 11.5t3.5 11.5l2 5q5 12 8.5 24.5t8.5 24.5q3 9 3 14v6l15 7l26 -6l3 -3l6 -6q8 -11 5 -24q-2 -4 -4 -14q-1 -5 -1.5 -9t-2.5 -9v-1q-1 -14 -9 -35q0 -2 -0.5 -4t-0.5 -4l-2 -8q-2 -6 -3 -11.5t-3 -11.5l-3 -11q-2 -6 -3.5 -12l-3.5 -14
l9 5l7 5l4 -4q0 1 2 1q0 1 1 2q3 4 9 9v2l1 -1q1 1 2 1t2 1l4 1l2 -1h1q2 2 7 2h1l2 2q11 8 20 13.5l18 10.5l3 2q2 4 5.5 6t6.5 4l2 2l14 9l8 6q4 2 7.5 5t7.5 6l3.5 3.5l3.5 3.5l9 7q4 3 7.5 6t6.5 6q6 4 12 12q6 5 11 11q6 6 11 12.5t10 17.5q8 19 2 36q-3 11 -13 17
q-19 12 -52 17q-6 1 -12 1h-12q-22 1 -41 -3q-12 -2 -24 -5l-23 -6q-20 -6 -37 -12.5t-33 -14.5l-1 -1q-27 -13 -48 -28l-11 -8q-5 -3 -8.5 -6t-8.5 -6l-15 -13t-12 -13q-3 -3 -5 -9q-2 -13 -12 -17q-10 -5 -21 3l-6 6q-3 3 -3 4q-10 11 -10 18.5t5 17.5l1 3q2 5 5 8.5
t6 8.5q13 14 27 27t30 24q19 13 45 27q22 11 41 19t38 14q30 9 55 13q22 3 47 3q36 0 74 -9q31 -8 52 -23q8 -5 16 -12.5t13 -17.5q1 -5 4 -7l6 -11q2 -5 3 -9t2 -7q1 -1 1 -4z" />
    <glyph glyph-name="C" unicode="C" horiz-adv-x="568" 
d="M79 94q2 0 2.5 -0.5t1.5 -0.5q6 -5 12.5 -8.5t13.5 -8.5l-3 -3q-8 5 -15.5 9t-13.5 11zM34 280q-1 5 0 9.5t1 9.5q0 1 -0.5 1.5t-0.5 1.5q-5 -2 -8.5 -5.5t-6.5 -7.5l3 -3v-5h6q0 -2 -0.5 -2.5t-0.5 -2.5q-1 0 -1.5 0.5t-1.5 0.5l-6 -6v-12q0 -2 0.5 -5.5t-0.5 -5.5
q-2 -3 -1 -5.5t1 -5.5v-6t-2 -5q7 -6 7 -16q0 -5 4 -15q2 5 0.5 9.5t-0.5 9.5q1 2 -0.5 4.5t-3.5 4.5l8 3q0 1 1 1l3 9q-1 2 -1.5 2.5t-1.5 2.5q-2 -2 -4 -3q-2 5 1.5 10.5t-1.5 10.5q2 5 2.5 9t2.5 8q1 1 1 4zM34 329q2 2 0 4q-6 -6 -7 -8.5t-2 -13.5q3 0 5 5t4 13zM22 345
q-3 2 -1 4q2 5 3.5 11t4.5 11q2 -2 1 -3q-2 -6 -3.5 -12t-4.5 -11zM562 735q0 -2 1 -4.5t0 -4.5q0 -4 -1 -7t-2 -7q0 -2 -0.5 -3t-0.5 -2q0 -10 -2.5 -19t-6.5 -18q-1 -3 -2.5 -6.5t-1.5 -7.5q-1 -2 -2 -2.5t-2 -2.5h-9l-2 -2q-5 -6 -12 -6l-8 -2t-9 0q-2 2 -4 3t-3 3
q-2 4 -5 5.5t-6 3.5q-3 7 -3 9t3 9v3v4q2 6 3 12.5t4 12.5q4 10 4 16q0 3 2 11q-2 5 -4 11t-9 11h-5t-5 -2l-5 -3q-6 -1 -11 -3.5t-10 -6.5q-3 -3 -5 -3q-5 -2 -8 -5l-6 -6q-4 -5 -8 -9t-9 -8t-10 -7.5t-9 -8.5l-3 -3q-5 -2 -8.5 -6t-8.5 -8q-3 -4 -6.5 -7t-7.5 -6l-2 -2
q-4 -8 -10.5 -13.5t-11.5 -13.5l-6 -5q-3 -3 -6 -5.5t-5 -6.5q-3 -4 -11 -12q-2 -1 -2.5 -2t-2.5 -3q-10 -17 -25 -32q-4 -4 -7 -8t-7 -8l-24 -33l-8 -10.5l-8 -10.5q-1 -1 -1 -2q-1 -5 -4 -9t-5 -9q-2 -6 -6 -7q-8 -3 -12 -11q-4 -6 -9 -11l-10 -10q-4 -4 -7 -8l-6 -8
l-10 -12l-3 -6q0 -1 0.5 -2t0.5 -3t-2 -4q-10 -11 -14 -23q-1 -2 -1 -3t-1 -2q-5 -5 -7.5 -11t-7.5 -11q-2 -2 -2 -3q-2 -3 -6 -11q0 -3 2 -5.5t0 -5.5t-2.5 -6.5t-3.5 -5.5q-3 -3 -5 -10q-5 -10 -6.5 -19.5t-5.5 -19.5q0 -9 -2 -18.5t-1 -18.5q0 -2 -2 -4q4 -6 5 -13t6 -12
q2 0 3 0.5t2 0.5q3 0 3 -2q1 -2 1 -5t1 -5q2 -6 4 -9q-4 0 -7 1q1 -1 0.5 -2t0.5 -2l21 -21l9.5 -5.5l9.5 -5.5l12 -7q3 -1 6.5 -1.5t5.5 -2.5h23h9t9 -2q3 2 6 0t7 0q7 3 15 3q7 0 13 3q4 2 8 2.5t9 1.5q8 -3 14 0.5t14 5.5q1 0 1.5 -0.5t1.5 -0.5q6 1 11 5q10 7 20.5 11
t21.5 6l3 2q3 2 5.5 2t5.5 1q8 0 19 9q3 3 8 5q3 1 7 5q13 10 25 22l10 8l10 8q2 1 2.5 2t1.5 2q2 4 4 5q6 6 11.5 12.5t10.5 14.5q4 6 5 9l12 19l7.5 13l7.5 13q3 6 5.5 12.5t4.5 12.5l3 9v13.5t-4 14.5q-5 5 -11 8.5t-14 6.5l-9 3.5l-9 3.5q-2 1 -5 4q-1 1 -1 3q5 7 13 7
q6 -1 12 -1t13 -2q2 -1 3.5 -1.5t3.5 -2.5l12 -7q3 -10 13 -13q5 -8 7.5 -17.5t5.5 -18.5q1 -3 1 -9v-23q0 -9 -2 -21t-4 -22q-9 -36 -28.5 -67.5t-46.5 -56.5t-59.5 -43t-67.5 -27q-1 0 -1 -0.5t-1 -0.5q-8 -2 -15 -4.5t-14 -5.5q-5 -3 -11 -3l-9 -3q-9 -3 -17.5 -5.5
t-17.5 -4.5l-13.5 -2t-14.5 -2q-6 4 -16 2q-6 -1 -12.5 -1t-12.5 2q-2 1 -3.5 1t-6.5 -2l-30 9q-6 2 -9 4q-2 2 -4.5 1.5t-4.5 0.5q-4 1 -8 4q-1 -1 -2 -1t-2 -1q-2 3 0 3.5t3 2.5q-1 2 -2 3.5t-1 3.5q-2 2 -4 1.5t-4 2.5q-1 2 -3.5 3t-4.5 3l-6 6v4h6q2 -2 4 -3t4 -3
q3 -3 3 2q-3 3 -6.5 5.5t-8.5 3.5q-2 -1 -2 -5q-2 -2 -4.5 -1t-4.5 -1q-2 4 -2 7q-5 2 -8.5 6t-8.5 6q-2 1 -2.5 2.5t-2.5 3.5l-18 25q-3 5 -2 8l3 -3q3 -4 5 -8t6 -7q1 0 1.5 -0.5t1.5 -0.5q4 1 9 1q5 -8 8.5 -10.5t12.5 -8.5q-2 8 -6.5 12.5t-12.5 10.5q-4 8 -5 13
q-1 7 -6 13q-3 5 -6 9.5t-5 11.5l-1 -2v-1q0 -3 0.5 -5.5t1.5 -5.5q-2 -1 -3 -2.5t-3 -2.5q-2 0 -3 1t-3 -1q0 -3 3 -6q2 -2 2 -8q-2 2 -3 2.5t-2 1.5l-8 15.5t-6 15.5q-2 5 -4.5 10t-3.5 10q0 3 -0.5 6t-1.5 7q-2 1 -2.5 2t-2.5 3q-1 -1 -1.5 -2t-2.5 -3q0 5 -2 8.5t0 8.5
h3l5 5v5h-3q-2 2 -0.5 3t1.5 3q-2 5 -1.5 7t2.5 9l-2 3l-3 3l3 11h1q2 1 2.5 -0.5t2.5 -2.5v7q-1 0 -2 0.5t-3 0.5q5 5 7 6l9 36q2 2 4 3.5t3 4.5l9 25v2q2 10 6 14q2 2 2 4q1 5 3.5 9t5.5 8q2 3 3 5.5t2 5.5q4 11 14 25q-3 3 -4 5l3 6q7 7 8 14q1 4 9 10q8 7 14 16t13 17
q2 4 8 12l11.5 15t13.5 14l6 8q2 2 2.5 3.5t2.5 2.5q5 2 7 5.5t4 6.5l8 9l22.5 24l22.5 24q7 8 14.5 15.5t12.5 16.5q5 8 14 11q1 0 1.5 0.5t1.5 0.5q8 8 16.5 14.5t16.5 13.5q5 5 5 9q8 7 17 13l18 12q4 3 8.5 5.5t7.5 7.5q1 1 2.5 1t3.5 1l30 21q1 1 1 1.5t1 1.5
q4 1 7.5 2.5t6.5 2.5q4 0 7 1.5t6 2.5q6 2 12 5t13 5q13 2 23 -4q13 -8 32 -8q13 -2 23 -6q8 -4 11 -7q2 -3 4 -4t4 -3q3 -5 5 -9t5 -8q6 -8 6 -17z" />
    <glyph glyph-name="D" unicode="D" horiz-adv-x="577" 
d="M247 36q2 1 3.5 1t3.5 1q-5 1 -8.5 0.5t-6.5 1.5h-3q-4 -1 -7.5 -2.5t-8.5 -0.5q-4 0 -10 -2q-1 0 -5 2q-4 -3 -11 -1q-6 2 -14 0l18 -3h14q4 0 7.5 0.5t7.5 -0.5t7 0.5t7 1.5q2 0 3 0.5t3 0.5zM164 392h4q-5 -3 -9 -6t-9 -5q-2 -2 -5 0q5 4 9.5 6t9.5 5zM220 278v17
q0 12 3 24q0 2 0.5 3.5t-0.5 3.5q0 7 1 13.5t3 13.5q0 2 0.5 3.5t0.5 3.5q0 8 1.5 16t3.5 16l3 18q1 4 1 7t1 6l9 36q2 6 2 10v3q2 4 2.5 8t2.5 8q2 8 4 15t4 15q1 5 2.5 8.5t2.5 8.5l6 17l4 10.5l4 11.5q1 7 5 14q6 17 13 32q2 1 5 1t5 1l4 -2q11 -2 17 -4q3 -2 5 -5
q6 -4 7 -10q1 -2 1 -3t1 -3q6 -5 8 -16q1 -1 1 -3q-1 -8 -2 -14.5t1 -14.5l-4 -4q0 -8 -3 -12q-1 -1 0 -2t0 -3l-4 -17.5t-3 -17.5l-1 -1l-2 -6l-2 -6q-2 -6 -2 -10q-2 -8 -5 -10q0 -8 -4 -15l-3 -11q0 -5 -3 -11q-4 -15 -11 -34q0 -2 -0.5 -3t-0.5 -3q-4 -6 -3 -10
q-4 -5 -5 -11t-5 -11l-3 -4q-3 -14 -10 -25q-2 -4 -3.5 -7.5t-0.5 -7.5q0 -2 -0.5 -2.5t-0.5 -1.5q-4 -8 -4 -13q-1 -4 -3 -6.5t-4 -4.5q-2 -5 -5 -8.5t-6 -8.5q0 -8 -4 -15q-2 -5 -4 -9.5t-5 -9.5l-4.5 -4.5t-4.5 -5.5h-2q-2 4 -2 6q2 5 0 9.5t-1 9.5q0 8 -3 16
q-2 5 -1.5 10.5t0.5 10.5zM572 512q1 -3 0.5 -6t-0.5 -6q1 -4 -1 -11l-2 -6t1 -7q1 -2 -0.5 -3.5t0.5 -3.5q1 -2 -0.5 -3.5t0.5 -3.5q-2 -3 -1 -6.5t-1 -5.5q-2 -5 -2 -9.5t-3 -9.5q1 -4 1.5 -6.5t-0.5 -5.5q-2 -7 -3.5 -13t-3.5 -13q2 -2 0 -3.5t-2 -3.5q-1 -2 -1 -4t-2 -4
q-2 -4 -4 -14q-1 -5 -2.5 -9l-3.5 -9q0 -2 -1 -3t-1 -3q-1 -6 -3.5 -12t-4.5 -12q-2 -4 -3 -8t-3 -8q-2 -8 -5.5 -15.5l-7.5 -15.5l-9 -20q-1 -1 -2.5 -1.5t-1.5 -2.5q-3 -6 -7 -11.5l-8 -11.5q-3 -2 -3 -5q-2 -6 -6 -7q-4 -4 -4 -7l-3 -5q-2 -2 -3.5 -4t-2.5 -4
q-4 -6 -7 -7q0 -4 -2.5 -6t-4.5 -4t-3.5 -5t-3.5 -5t-2.5 -3t-2.5 -2q-8 -6 -13.5 -13.5t-11.5 -13.5q-4 -5 -8 -8t-10 -4q-3 -6 -10 -9l-10 -6q-7 -4 -11 -11l-6 -8q-9 -1 -18 -12l-9 -5q-6 -2 -8 -7q-2 -3 -4 -4t-4 -3l-3 3q-2 -2 -4 -2q0 -2 1 -3l-2 -2t-4 -3
q-7 4 -16 -3q-2 -1 -2.5 -2t-2.5 -3q-3 -1 -6 -1t-5 -2q-6 -3 -13 -3q-4 -1 -8 -1t-8 -2q-8 -2 -13 -1q-2 1 -3 0.5t-3 -0.5h-26q-2 0 -4 1.5t-5 -0.5q-2 -1 -4 0t-5 1q-2 -1 -4.5 -0.5t-4.5 0.5l-5 5q-2 1 -2 -1t-2 -2t-2.5 2t-2.5 1q-1 0 -1.5 1t-2.5 2q-1 0 -7 -2
q-3 3 -6 6.5t-9 3.5q2 -4 4 -6l-2 -2q-3 0 -4.5 2t-3.5 3q-2 0 -4.5 1t-4.5 2q-2 2 -5 1l-4 1q-4 2 -7 3q0 2 -1 3v2q-2 1 -3 0t-3 -1q-1 1 -2 2.5t-3 0.5l3 -5q-2 -1 -3.5 0.5t-3.5 1.5q-2 1 -2.5 3.5t-3.5 1.5v-3h-3q-10 5 -16 11q-1 1 -4 6h-7q-2 2 -2 4q-1 4 -5 6
q0 1 -3 1q0 2 -0.5 4t-0.5 4q-3 1 -4.5 -1t-3.5 -2q-2 2 -1 2.5t1 2.5t-1 2q-3 3 -5.5 7.5t-6.5 7.5q-2 0 -2 4q1 2 -1 6l-2 4t1 4q-1 3 -1.5 5.5t-4.5 4.5q3 6 1 11q-1 2 -0.5 3.5t0.5 3.5v7q-1 2 -0.5 3.5t-0.5 3.5q0 5 -0.5 9t-3.5 9q2 4 4 6q0 4 2 10q4 12 7 27q0 1 2 3
q-2 5 -1 8l2 -3q2 4 3 5q-1 0 -3 2q2 6 5 11.5t4 11.5l16 22q0 1 -1 2q6 4 8 6t4 7q1 5 6 10q7 5 12 16q3 2 6.5 3t5.5 5l13.5 12t13.5 11q2 2 3.5 1.5t4.5 -3.5q5 2 8 5.5t6 7.5q2 -2 4 -3q2 -2 4 -3q-3 -2 -5.5 -3t-4.5 -3q2 -2 4 -3l-3 -3l-7.5 -5.5t-6.5 -6.5
q-3 -2 -4.5 -5t-3.5 -6l-4 -6t-5 -5l-8 -9q-2 -3 -6 -6q0 -4 -2 -14q-1 -4 -5 -12l-2 -4t-2 -5q-1 -4 -7 -10q0 -5 -1 -6q-2 -4 -4 -7t-4 -7q-2 -5 -3.5 -11t-2.5 -12q-1 -8 -5 -19q-3 -20 2 -35q0 -1 4 -5l2 2q2 2 0 5t2 5q1 -1 1 -5q0 -2 2 -10q2 -2 2 -5q1 -3 1 -7
q1 -2 1 -3t1 -2q3 -5 4 -9.5t5 -9.5q1 2 1 5q5 -4 7.5 -9t7.5 -8q1 0 3 1l4 -4t5 -2q2 0 4 -4q4 -2 7 -5t7 -5q2 -2 3.5 -2.5t3.5 -1.5q4 -2 12 -4q7 2 11 -1h3q2 1 4 -0.5t4 -1.5q0 -1 2 -5h4q6 -3 14 -3q5 0 7 -1h3q3 2 6 1t5 0q3 2 6 0.5t5 0.5q5 -1 8 0.5t7 1.5
q2 1 4.5 1t4.5 1h2q5 5 11 5.5t11 5.5l8 3q1 0 3 2v3q2 1 5 1.5t5 2.5v2q3 2 6 2.5t5 4.5q2 2 5 3.5t5 3.5q4 2 5 3q8 8 17 14.5t15 16.5q2 4 5 4q4 1 6 4t4 5q3 2 5.5 5t4.5 5q3 4 6.5 7t5.5 7q4 5 8 9t8 9q3 4 6 7.5t2 8.5q2 3 3.5 6.5t4.5 6.5q2 3 5 6.5t5 8.5q0 2 3 4
q3 1 4 3.5t3 4.5l4 10t5 10q0 2 1 3.5t3 3.5q6 7 9 18q2 6 4.5 11.5t5.5 10.5q3 8 6.5 15t5.5 15q1 6 4 11q2 5 3 10.5l2 10.5q0 3 1 4q4 9 5.5 18t4.5 18q1 2 1 4q0 7 1 13t1 13q1 4 1 7.5t2 7.5q1 4 1 7.5t1 7.5q0 2 -0.5 3t0.5 3q2 3 1.5 6.5t-0.5 7.5v50q0 3 -0.5 6
t-0.5 7q-1 3 -1 6t-1 6q-2 4 -2 8t-1 9t-1.5 8.5t-0.5 8.5q-1 5 -2 8.5t-3 8.5l-9 28l-2 6t-2 5l-9 19q-9 20 -22 34q-3 3 -6 5t-6 5q-5 6 -12 8.5l-15 5.5h-3q-5 -2 -10.5 -2t-10.5 -2q-9 -1 -17.5 -4t-16.5 -7q-5 -2 -10.5 -5l-10.5 -6q-4 -2 -6 -4q-1 0 -1.5 -1t-1.5 -1
q-7 -2 -12.5 -7t-11.5 -9l-9 -7.5t-9 -8.5q-2 -2 -4 -3.5t-4 -3.5q-2 -1 -2.5 -2t-2.5 -3l-10 -15v-9q-4 -2 -8 -3.5t-6 -5.5q-3 1 -7 1q-2 0 -3 -0.5t-3 -0.5q-1 0 -1.5 -0.5t-1.5 -0.5q-4 1 -8 1.5t-8 -0.5q-5 -1 -16 -1q-2 3 -5 5h-6q-4 2 -7 5q-2 1 -7 1q0 3 1 5l-7 4
q0 2 -0.5 3t-0.5 2q3 5 6 8.5t5 7.5q5 8 10.5 13.5t10.5 12.5q5 4 8 8.5t8 6.5l1 1q9 9 20 17l8 6q11 10 23 17l15 9q2 1 3.5 2t3.5 3q1 -1 4 -1q2 1 5 1.5t5 2.5q5 4 12 6t12 5q2 1 3.5 0.5t3.5 0.5q4 2 2 5h5q1 0 2 -1t2 0q2 2 4 0.5t4 -0.5q2 0 8 2v2q2 3 9 5h1q1 0 3 -2
q-6 -2 -7 -2l1 -1h9.5t9.5 2h2q4 -2 8 -2q2 0 3.5 1.5t3.5 -0.5q3 -2 6 -0.5t5 -0.5q8 0 15 -2l14 -4l11.5 -4l10.5 -4l4 -2q5 -2 9.5 -4t9.5 -4l4 -3l3.5 -3.5l3.5 -3.5v-6q1 0 1 -0.5t1 -0.5q4 0 7 -3q2 -3 4.5 -6t4.5 -6l21 -30q2 -2 2 -3q0 -3 2 -5t3 -5t2 -6.5t3 -5.5
q1 -3 3 -6t1 -7q-1 -1 1 -5q4 -8 5 -12l3 -10q2 -5 2.5 -9t1.5 -9q2 -5 2.5 -10.5t1.5 -10.5q2 -5 2 -10t2 -10q1 -2 0 -3.5t0 -3.5t1 -7v-7v-7.5t1 -8.5t1 -9.5t2 -9.5q1 -3 0 -6t0 -7q0 -3 0.5 -6.5t-1.5 -6.5z" />
    <glyph glyph-name="E" unicode="E" horiz-adv-x="424" 
d="M23 157l-5 6q2 3 4 1q2 -3 8 -9q-1 -1 -1 -2q-2 2 -6 4zM15 168q-1 0 -1 1h2q0 -1 -1 -1zM207 178v-1h-1zM8 181v2q1 0 1.5 -0.5t-0.5 -0.5v-2zM287 190q0 1 0.5 0.5t0.5 -1.5l-1 -1q-1 0 -1.5 0.5t-1.5 0.5q1 1 3 1zM1 192v1h1v-1h-1zM72 271v1q-1 0 -1 -0.5t-1 -0.5v-1
q1 0 2 1zM114 346v6q-2 -2 -3 -3.5t-3 -3.5l-2 -4l-2 -4q-5 -9 -13 -20q-5 -6 -7.5 -13t-4.5 -15q-4 -3 -5 -7t-2 -9q7 6 7 16q2 2 3 2q3 6 6.5 12t7.5 12l14 24q2 2 2.5 3.5t1.5 3.5zM182 427q0 1 -1 1h1v-1zM126 520l1 1zM507 650l-7 -3h3.5t3.5 3zM325 686h1q-1 1 -2 1z
M338 689q0 -1 1 -1h-2h-1q1 1 2 1zM359 691q-1 0 -1.5 -0.5t-1.5 -0.5l-1 1q0 1 2 1q1 0 2 -1zM593 698l32 -6q2 0 3 -1t3 -2l-7.5 -9t-7.5 -8q-2 -3 -7 -3q-6 -2 -12 -2.5t-11 -2.5l-25.5 -4l-25.5 -4q-2 -1 -8 -1q-2 0 -4 -0.5t-4 -0.5q-9 0 -9 -9q-11 -4 -17 -5t-15 1
l7.5 1.5t4.5 1.5t4.5 1t4.5 2q-6 -1 -11.5 -1t-11.5 -2l-10 -2l-10 -2q-2 -1 -4.5 -0.5t-4.5 0.5h-10t-10 -2q-12 -5 -23 -4h-4q-14 -4 -26.5 -7t-25.5 -8q-11 -5 -23 -8t-24 -7h-8q-4 -1 -7 -1.5t-6 -0.5l-17 -27l-3 -9q-2 -9 -7 -16q-2 -2 -4 -8q3 0 4 -3q-2 -4 -4 -6
q-6 -7 -9.5 -14.5l-7.5 -15.5t-7 -12q-7 -7 -10 -18q4 -2 3 -6q-3 -2 -6 -3.5t-8 -0.5q-5 -7 -11 -14t-9 -17l15 11q-4 -14 -17 -15v2q-4 -2 -1 -2q-2 -5 -4 -9.5t-4 -9.5q5 2 6 5t6 3q2 -2 -0.5 -3.5t-1.5 -4.5h9q10 0 19 1.5t19 2.5q18 2 36 3t36 3l18 2t18 3h5
q0 -3 -1 -3q-6 -6 -12.5 -11t-14.5 -8q-17 -6 -34.5 -10.5t-34.5 -9.5q-8 -2 -15 -4t-15 -4q-14 -4 -28.5 -5l-29.5 -2q-2 0 -2.5 -0.5t-2.5 -0.5q-11 -1 -14 -15q-5 -2 -5 -7q-5 0 -5 -7q5 3 5 7q3 2 5 7q2 0 2.5 1.5t1.5 3.5l3 3q4 -4 1 -7l-15.5 -25.5t-13.5 -26.5
q-2 -4 -6 -10l-5 -9q4 1 4.5 2.5t2.5 3.5t3 3.5l3 4.5v-5q-2 -5 -4.5 -10t-7.5 -7q-2 -2 -2 -3l-12 -25q-2 -2 -1.5 -5t0.5 -6l3 -3q-1 -2 -2 -2.5t-2 -2.5t-1 -6v-5q0 -17 17 -22q4 -2 8 -2.5t8 -1.5h6q-3 -5 -8.5 -4t-9.5 -4q7 -2 13.5 -2.5t13.5 -0.5q11 0 21.5 -0.5
t21.5 -0.5q5 0 6 -2q0 -1 -1 -1l-19 -3q11 -1 23 -0.5t23 2.5t22.5 3.5t23.5 3.5q-2 2 -3 2t-2 1q3 2 4 2.5t6 0.5q1 -2 1 -5q5 1 8.5 1.5t8.5 0.5q5 2 11 2.5t11 1.5h1q7 3 14 4.5t14 4.5q3 -3 8 -1l36 6l10 2l10 2l22 3q1 -2 -1 -4q-6 -6 -9 -8l-11 -9l-6 -3l-23.5 -10
t-22.5 -9q-12 -4 -23.5 -9t-23.5 -9q-7 -2 -13 -5l-12 -6q-4 -2 -7 -2q-10 -2 -19 -5.5t-18 -6.5q-5 -2 -10 -3t-10 -1q-13 0 -22 -4q-4 -3 -9 -1q-4 2 -6 1q-5 -2 -10.5 -1.5t-11.5 -0.5q-2 0 -3.5 -0.5t-3.5 0.5q-8 3 -20 1q-7 -2 -14 1v5q-5 0 -9 0.5t-8 0.5q-4 4 -5 4
l-7 3.5t-7 1.5q-10 4 -19.5 8.5t-16.5 13.5q-5 5 -10 11t-9 13q-10 15 -14 29q0 2 -2 4q-1 1 -3 1q0 6 -1 9q0 2 2 8v9q0 9 1 17.5t3 16.5l2 14q0 1 -0.5 1.5t-0.5 1.5q5 6 8.5 12t5.5 14q2 6 5 12t5 12q7 14 14 26.5t13 26.5q8 17 17 32.5l18 32.5l7.5 14.5l7.5 13.5l-1 1
h1l10 16.5l10 16.5q2 2 -1 5q0 3 1.5 5.5t3.5 4.5q1 -1 3 -1q0 1 0.5 1t0.5 1q0 2 -1 3l2 2q10 8 14 19l6 12l5.5 9.5l5.5 9.5q3 4 6 7.5t6 8.5l-21.5 6t-21.5 7q-17 6 -32 18q-6 5 -11 10.5l-10 10.5q-2 2 -2.5 4.5t-2.5 8.5l9 9q4 -1 8 -1.5t9 -3.5q6 -3 12.5 -3h12.5
q8 1 15 1.5t15 0.5q18 2 36 3.5t36 3.5q3 3 7 9l15 19.5l15 20.5l15 20q5 7 8 14q0 4 7 6q10 0 16 -6q3 -4 7 -7.5t7 -6.5q12 -11 7 -29l-4 -12t-5 -11q0 -1 -0.5 -1.5t-0.5 -1.5q3 -3 5.5 -5t7.5 1h12q6 0 16 2q3 1 6.5 1t6.5 1q1 1 1 2h9q4 0 6 1q8 2 12 2l44 3
q11 1 21 1.5t21 0.5q16 0 31 0.5t30 -0.5q10 0 19 -1.5t19 -2.5z" />
    <glyph glyph-name="F" unicode="F" horiz-adv-x="420" 
d="M171 182v-1l-1 1h1zM186 228q2 3 2 4t-1 6q-1 -4 -1 -10zM213 272v1h1q-1 0 -1 -1zM376 489q-2 -3 -5 -2q1 1 1 3q1 0 1.5 -0.5t2.5 -0.5zM365 494v-1h1q0 1 0.5 1t0.5 1q0 -1 -2 -1zM415 693l6 -2t6 1q-3 1 -5.5 2t-6.5 -1q-3 -1 -5.5 -1t-4.5 -1q-12 -4 -27 -10h7
q4 1 7.5 1.5t8.5 1.5q2 4 5.5 4t6.5 2q0 1 2 3zM454 694l-1 -1v2zM493 698h-1v1h1v-1zM604 725q2 -1 4 -1.5t3 -3.5q-4 -2 -7.5 -4.5l-6.5 -4.5q-2 -1 -6 -1q-2 0 -5 -0.5t-6 0.5q-13 2 -25 0t-24 -5q-5 -1 -15 -1q-8 0 -15.5 -1t-15.5 -3v-1q0 1 -1 1q-7 0 -13 -3
q-7 -4 -14 -1q-2 1 -8 1q-1 -1 -1 -3q-1 0 -1 -0.5t-1 -0.5q-7 0 -11 1q-2 -3 2 -7q8 3 17 2l-3 -3l-12.5 -4t-11.5 -5q-6 -3 -13 -3.5t-13 -3.5l-1 -1q-3 0 -5.5 2t-5.5 0t-6 -2h-6q-6 2 -16 -1l-10.5 -2t-10.5 0q-6 0 -13 -3q-20 -6 -40 -9q-2 0 -4 -1q-2 -8 -4 -17
l-4 -18q-2 -11 -2.5 -21.5t-2.5 -21.5q-1 -10 -3.5 -19t-4.5 -19q-1 -3 -2 -5.5t-2 -4.5l-2 -8t-2 -9q2 0 3 -0.5t3 -0.5q12 1 24 1h24q5 0 10.5 0.5t10.5 0.5h3q19 0 37.5 -1t36.5 0q3 0 6.5 -0.5t5.5 -2.5q0 -3 -1.5 -3t-3.5 -1q-2 -2 -3 -2t-3 -2q-10 -5 -19 -5
q-7 1 -16 -4q-4 0 -7 -1t-7 0l-5 -2q-11 4 -25 1q-2 -1 -5 -1t-5 -1q-2 0 -5 -3v-1q0 1 -1 1q-5 -1 -9.5 -2t-9.5 -2q-1 -2 -4 -5q-13 -2 -25.5 -5.5t-25.5 -9.5q0 -5 -2 -7q-2 -4 -3 -7.5t-3 -7.5q-1 -5 -2.5 -9t-1.5 -9q0 -9 -3 -17.5t-4 -18.5q0 -3 -1 -5.5t-2 -5.5
q0 -3 1 -5q-3 -3 -4 -5t-2 -3t1 -3v-4q-2 -5 -2.5 -9.5t-2.5 -9.5q-2 -9 2 -14l-3.5 -7t-2.5 -6q-2 -8 0 -13q1 -2 -1 -9l-4 -13q0 -1 -0.5 -2t-0.5 -2q2 -5 0 -8.5t-4 -7.5l2 -3q-2 -9 -3.5 -18t-3.5 -18q0 1 -3 -2q-2 5 0.5 9t0.5 8q-3 -3 -5 -11q-2 -5 -3.5 -10t-3.5 -10
t-4.5 -9l-5.5 -9q-4 -5 -6 -11.5t-4 -14.5q-2 -6 -3 -12t-1 -12l-2 -2q-3 2 -2.5 5t-0.5 5q-1 3 -1 6t-1 6v10q-3 -10 -5 -19.5l-4 -19.5q-2 -9 -3 -18.5t-4 -17.5q0 -2 -2 -6q-4 -8 -6.5 -16.5t-1.5 -17.5q-2 -1 -3 -1t-3 -1q-3 -1 -5 -6q-1 -3 -1 -5.5t-1 -6.5
q-7 -2 -11.5 -5.5l-9.5 -7.5q-2 2 -2.5 3t-1.5 2q-2 7 -3.5 14t-3.5 14q-1 3 -2 6.5t1 7.5q1 2 0.5 4t-0.5 4v29v37q-1 17 1.5 32.5t4.5 31.5l4 32.5t5 32.5q2 11 3.5 21t3.5 21q2 8 3.5 15t3.5 15t3.5 17t3.5 17q3 10 3 22q1 5 3 10l4 10q2 8 3.5 15t3.5 15q-1 4 -6 4
q-14 1 -27 3.5t-26 4.5q-8 2 -14.5 4t-14.5 4q-22 8 -28 29l6 6q3 0 5 -1q2 2 3 2q11 -3 20.5 -1t20.5 4q14 2 28.5 3.5t29.5 1.5q5 0 9 -0.5t9 0.5q1 1 2 1v1l19 63l18 62v3q-3 1 -8 1t-11 -0.5t-12 -0.5q-26 0 -50 3q-5 1 -9 2t-9 3l-25 4q-4 1 -7.5 2t-7.5 2q-7 3 -12 2
q-6 0 -11 4q-1 1 -6 4q-5 12 -7.5 23t-2.5 20l6 8t6 9q5 -1 9.5 -1.5t9.5 -2.5q2 -1 8 -1l56 9q17 3 33.5 3.5t33.5 1.5q12 1 24 1.5t24 2.5h3q11 0 21 1l21 2t20.5 1t19.5 1l43 2l43 2q12 1 23.5 0.5t23.5 0.5q9 0 18 -0.5t17 1.5q7 -1 13 0t13 0q6 0 12.5 -1t12.5 -1
q5 0 10 -0.5t10 -0.5l10 -2t10 1q7 -2 14 -2.5t15 -3.5q5 -2 10.5 -3.5t10.5 -3.5z" />
    <glyph glyph-name="G" unicode="G" horiz-adv-x="515" 
d="M338 134v-2q-2 2 -1 1.5t1 0.5zM390 169v-1h-1zM390 175v2q0 1 0.5 1t0.5 1h2q0 -2 -1 -3q0 -1 -2 -1zM396 182v-1q-1 0 -3 -2zM421 200v-1l-1 1h1zM117 205q-1 5 5 7l1 -1q-1 -3 -1 -9q-5 -2 -5 3zM100 260l-2 5q3 -1 2 -5zM474 266h-1v1zM98 265q-4 2 -2 5l2 4
q2 0 2 -4q-2 -4 -2 -5zM97 275h1v-1zM482 275v3l4 6q1 -4 -4 -9zM487 284h-1l1 1v-1zM92 349h-1q-5 0 -2 -5v-1q2 2 2 3q1 1 1 3zM200 385q-2 3 1 3q12 4 18 8q3 0 3 -5q-5 -1 -9.5 -2t-9.5 -3q-1 -1 -3 -1zM17 397l1 1v-1h-1zM258 401q2 0 4 2zM241 404q6 1 8 1.5t7 4.5
q-9 -2 -15 -6zM217 411l-1 1q0 2 1 2t2 -1zM28 424v1h1zM494 426q2 1 2 -1q-1 0 -1 0.5t-1 0.5zM308 429q8 -1 9.5 -0.5t4.5 4.5q-5 2 -8 -1t-6 -3zM328 433l4 2l-1 1q-2 0 -4 -1l-1 -1q0 -1 2 -1zM264 434h-4q2 3 4 0zM279 432q6 0 9 5q-2 -1 -4.5 -1.5t-4.5 -3.5zM360 440
q6 2 9 4q-7 0 -9 -4zM279 444l1 -2q0 -1 -0.5 -1.5t-0.5 -1.5q-2 2 -2 3t1 1t1 1zM365 460v-1h-2v1h2zM54 491v-4q0 1 -1 1.5t1 2.5zM101 567l1 1q0 -1 -1 -1zM103 568q0 2 1 2q0 -1 -0.5 -1t-0.5 -1zM116 589l1 1v-1h-1zM118 591l-1 -1v2h1q1 -1 0 -1zM537 748
q4 -10 6 -20.5t0 -21.5q-2 -20 -7 -36l-4 -10.5l-4 -10.5l-10 -17.5l-10 -17.5q-6 -7 -14 -12q-7 -3 -12 -2q-13 4 -18 12q-2 3 -5 6l-6 6q-3 4 0 10q13 15 21 33q5 9 8 18t5 19q3 20 -2 34q-5 17 -25 27q-3 2 -6.5 2h-7.5t-12 -2q-11 -3 -22 -6.5t-22 -7.5q-10 -4 -19 -9.5
t-19 -10.5l-16.5 -10.5t-17.5 -10.5l-5 -3q-7 -5 -13 -10t-13 -10q-6 -4 -10.5 -8.5l-9.5 -9.5l-18 -18.5l-18 -19.5q-13 -15 -25 -31t-22 -33l-12 -22l-12 -22q-5 -7 -8.5 -14t-8.5 -14q-3 -6 -5.5 -12t-6.5 -12q-10 -17 -16.5 -36t-12.5 -39q-2 -2 -1.5 -5t-0.5 -5l-6 -9
q-1 -2 -1 -7h-1v-1q0 1 1 1q2 -2 1 -3l-3 -3l4 -7q1 -2 1 -4t1 -4q-1 -7 -6 -11.5t-4 -12.5q2 2 6 4q2 -4 -0.5 -7t0.5 -5q-1 -2 -2 -2.5t-2 -2.5l-3 6v-11q0 -2 -2 -10q4 2 3.5 3.5t0.5 3.5l6 6l1 -2l-9 -20q1 -2 1.5 -5t2.5 -6q2 2 2 4t1 4v7q0 2 2 8q3 -4 2 -7t-1 -6
l3 -5q0 -3 -2 -7q-2 -2 -6 -3l3 -15l6 3q2 -2 2 -4v-6.5t-1 -7.5q0 -3 2 -4l6 6q2 -7 0 -13q-1 -2 -1 -7t5 -5l-2 5q3 3 4 0q4 -6 0 -10q0 -1 -3 -4q1 -6 4.5 -10t6.5 -8q3 0 5 1q2 -2 4 -6h5l3 -3q5 -9 18 -13q26 -5 48 -2q10 2 15 1l-2 -5q5 -2 9 -1.5t9 2.5q8 4 11 5
q4 2 7.5 3.5t7.5 3.5l16 8t16 9q17 10 31 22.5l28 25.5q5 4 8.5 9t7.5 10q14 16 26 32q4 6 6.5 12.5t4.5 12.5q2 5 4 15q2 7 1 11q-2 6 -1.5 12.5t-2.5 13.5v2q-2 3 -1 6.5t-1 5.5l-4.5 6.5t-4.5 5.5q-7 1 -13.5 1t-13.5 1h-17q-8 -1 -15 -1t-15 -2q-3 -1 -7 -0.5t-7 1.5
q-12 2 -19 -2q-1 -1 -3 -1q-5 2 -8.5 4t-8.5 4l-6 -3q-4 -1 -7 2q-1 0 -2.5 0.5t-3.5 0.5q-5 -5 -12 -7t-14 -5q-1 0 -3 2q2 2 3 4t3 4q-6 2 -9 -4q-4 2 -8 2t-9 -1q9 13 20 10q3 12 14 20q2 2 5 2q5 0 9.5 2t9.5 3q2 -2 5 0q4 0 7.5 0.5t6.5 4.5q6 2 10 2v-4q3 0 5 1.5
t5 3.5q5 3 11 4.5t12 3.5q7 2 13.5 4.5t14.5 3.5h3q1 -4 -2 -4q-5 0 -9 -2.5t-9 -1.5q-3 0 -8 -8q-2 0 -5 0.5t-6 0.5q3 -2 1 -6q13 0 24 8q9 7 22 5h2q1 1 1 2.5t2 1.5q3 0 6.5 0.5t7.5 -0.5q8 -3 13 2q1 1 4 1q8 -7 16 -5.5t17 3.5q2 -2 3 -4q2 -2 2 -3q10 -2 14 -4
q3 -2 6 -0.5t6 -0.5q1 -2 1.5 -3.5t2.5 -2.5q4 -1 7.5 -3.5t6.5 -5.5l6.5 -4.5t7.5 -4.5q3 1 3 6q2 -3 4.5 -5.5t4.5 -6.5t3.5 -7.5t-0.5 -8.5v-3q1 -2 1 -3t1 -2t5 -1q1 -10 -3 -20q-3 -7 -5 -14.5l-4 -15.5t-5 -15t-8 -13q-6 -8 -10 -16.5l-8 -16.5q-8 -17 -17 -32
t-23 -26l-6 -5q-5 -2 -7 -6.5t-7 -7.5q-9 -6 -13 -16q0 1 -3 -2q-4 1 -5 -3q-6 0 -9 -6l-7.5 -9t-7.5 -7q-4 -2 -7.5 -4.5l-6.5 -4.5l-15 -14q0 4 -3 1q-4 -5 -8.5 -7.5l-9.5 -5.5h-2q-12 -5 -21 -12q-6 -4 -8 0q-2 -2 -4 -3.5t-4 -3.5q-4 -2 -7.5 -4.5t-8.5 -0.5
q-1 0 -8 -2l-4 2q-2 -1 -4 -1t-4 -2q-2 -1 -4.5 0t-4.5 2l-7 -3q-6 -2 -9 1q-5 4 -10 2q-2 0 -3 -1q-16 -3 -31.5 0.5t-31.5 6.5q-10 5 -20 8t-19 8q-6 3 -11.5 6.5t-11.5 6.5q-4 2 -5.5 5.5t-6.5 5.5l-16 16t-14 19q-9 10 -13.5 22t-9.5 23q-5 10 -5 25q0 6 -1 12.5
l-2 12.5q-2 8 -3 16t-1 16q0 4 -1 7.5t-1 7.5q0 5 2 15v5q0 6 1.5 11t6.5 10q3 3 2 9t1 11.5l4 11.5q1 -2 3 -4q2 5 3.5 11t3.5 11q-4 4 -3 6q0 3 1.5 2.5t3.5 0.5q2 4 0 5q4 4 5.5 9.5t2.5 10.5l3 14q1 2 1.5 4t-0.5 5q-2 2 1 5q3 4 6.5 7t6.5 7l5.5 7.5t5.5 8.5q3 3 5 13
l-1 1q2 5 2.5 9t5.5 6q1 3 3 0h-2v-4q0 2 2 4q4 2 4.5 5.5t1.5 7.5q6 2 9.5 7t6.5 10q9 16 21 30q5 6 9 12t9 12q5 5 7 8q2 2 2 3t2 3q-1 0 -1.5 0.5t-1.5 0.5q2 5 3 7t6 4l-4 -10q3 2 5 5t5 5h-1h-4q2 2 3 4t3 4t6 -1l15.5 16t15.5 15q7 5 12.5 11l10.5 11q8 8 17 14.5
l18 13.5q1 1 5 3q5 5 10.5 9t11.5 9q1 0 1 0.5t1 0.5q12 6 23 13.5t23 13.5l12 6t13 5q9 2 17.5 4.5t17.5 3.5q18 2 36 0.5t36 -4.5q6 -2 12.5 -3.5t12.5 -3.5q19 -8 36 -25q3 -2 4.5 -6t3.5 -8z" />
    <glyph glyph-name="H" unicode="H" horiz-adv-x="412" 
d="M315 204q2 3 2 6.5t-1 6.5v-6.5t-1 -6.5zM293 167v-5q1 6 2 15.5t2 20t1.5 20t0.5 15.5l-2 -1q-1 -12 -2.5 -24t-0.5 -24q0 -5 -0.5 -8.5t-0.5 -8.5zM319 224v13q0 -3 -1 -6t1 -7zM336 245v-1q0 -1 -1 -1q1 1 1 2zM324 258v7h-1v-7h1zM342 277v2h1v-2h-1zM326 284
q0 3 1 5h-1v-5zM348 312h-1v1h1v-1zM479 561h27q4 1 9 -3l-3 -4l-8.5 -3.5t-7.5 -3.5l-40.5 -10t-41.5 -7l-13.5 -2t-12.5 -3q-1 -3 -1 -7q0 -2 -0.5 -3t-0.5 -3q-2 -11 -2 -22t-2 -22q-2 -10 -3.5 -19.5t-3.5 -18.5q-3 -13 -11 -26q-3 -5 -4 -11.5t-3 -13.5
q-4 -16 -7.5 -31.5t-5.5 -32.5q-2 -8 -3.5 -15t-3.5 -15q-1 -1 -2 -1.5t-2 -2.5v-1q0 -8 -1.5 -17t-2.5 -18q-2 -7 -2.5 -13.5t-1.5 -13.5q0 -5 -2 -11q-1 -5 -1.5 -8.5t-0.5 -8.5q-2 -11 -2.5 -20.5t-1.5 -20.5q-3 -1 -3 3q-1 5 -1 13q0 4 -0.5 7.5t-0.5 7.5q-3 -5 -3 -9
t-1 -8q0 -5 -1 -10t1 -10q2 -3 1 -6t-2 -7t-1 -12l5 -3l-6 -6q-6 -5 -8 -13q-4 -13 -3 -27q0 -10 -0.5 -19.5t-1.5 -19.5q0 -10 -0.5 -19t-0.5 -19q0 -6 -2 -16q-2 -5 -6 -2l-3 -41q-1 -2 -1 -3.5t-1 -3.5q-6 -9 -6 -22q-4 7 -4.5 9.5t-1.5 9.5q0 6 -1 12t-3 11l-11 47
q2 2 4 6q2 2 0 5q-2 11 -2 22.5t-2 22.5q-2 6 -2 12t-1 12q-1 16 -1.5 32t-0.5 33v69q0 11 1 21l2 21q0 7 0.5 13.5t1.5 14.5t1 17t2 17q1 3 1 8q1 14 3 28.5l4 28.5q2 11 2.5 22t2.5 22q2 9 3.5 18.5t2.5 19.5l4 24l4 23q-11 -2 -23 -3.5t-23 -3.5q-8 -2 -17 -2.5t-17 -2.5
q-5 0 -13 -2l-3 -27l-4 -28t-1 -28q0 -5 -1 -10.5l-2 -10.5q-2 -16 -3.5 -31.5t-3.5 -31.5q-2 -19 -5.5 -37t-8.5 -37l-2 -10.5t-1 -11.5q2 -2 0 -4q-3 -8 -4.5 -16.5t-3.5 -16.5q-1 -4 -2.5 -7.5t-3.5 -7.5q-2 -5 -3 -9t-2 -9q-1 -11 -1.5 -22.5t-2.5 -22.5q0 -1 -0.5 -1.5
t-0.5 -2.5l-2 -6l-2 -6q-1 -4 -1.5 -8t-2.5 -8q0 -1 -0.5 -1.5t-0.5 -1.5q0 -8 -1 -15t-3 -15q-1 -2 -1 -5.5v-6.5q1 -5 -1 -10l-4 -10q-5 -9 -12 0q-5 5 -8 11t-5 13l-4 15.5l-4 15.5q-2 6 -2 12t-1 12q-1 5 -1 11t-1 11q-2 15 -3 30l-2 30q-2 19 -2 37t-1 37h1
q0 13 -0.5 26t0.5 26q2 14 2 27.5t2 27.5q2 12 2 24t2 24l6 47q0 6 0.5 12t1.5 13q-5 -1 -9 -1t-9 -1q-10 -2 -19.5 -2t-19.5 1q-5 1 -10.5 2.5t-10.5 6.5l-3 6l10.5 6t10.5 5l14.5 3.5l14.5 3.5q5 0 8.5 0.5t7.5 1.5q5 2 9.5 2.5t9.5 1.5q4 33 12 66l15 65q2 5 3.5 10.5
t3.5 11.5l6 20q2 4 2.5 8.5t2.5 9.5q2 10 11 8q10 -2 19.5 -1.5t20.5 1.5q9 0 16 -4.5t13 -11.5q3 -5 3 -10v-16.5t-1 -17.5q0 -8 -0.5 -16.5t-1.5 -16.5q0 -5 -0.5 -9.5t-1.5 -9.5q-2 -7 -3.5 -13.5t-2.5 -13.5q0 -3 -1 -6t-1 -6q-1 -4 -3 -8t0 -9q0 -2 -0.5 -3t-0.5 -3
q-2 -6 -2 -9q5 0 8.5 0.5t8.5 1.5q13 2 26 3t26 4q6 0 11.5 0.5t11.5 1.5q1 4 1.5 7t0.5 7q3 14 5.5 29t4.5 29q2 16 6 31.5t7 31.5l4 19.5l4 18.5q2 11 4.5 20.5t5.5 19.5q2 8 2.5 15t2.5 15l2 10.5t3 10.5q5 16 9.5 32t11.5 31q5 8 15 7q8 -1 14 -4t12 -8q8 -7 10 -20
q1 -5 1 -11t1 -11q1 -12 0.5 -24t0.5 -24v-22.5t-1 -22.5q0 -4 0.5 -7t-1.5 -7q-1 -1 -1 -3q1 -23 -1.5 -41.5t-6.5 -38.5l-4 -18t-3 -17q-2 -8 -2 -14.5t-1 -14.5q-1 -3 -1 -6t-1 -5q5 0 10.5 0.5t10.5 1.5q8 1 17 1.5t17 0.5q8 1 16.5 1h16.5z" />
    <glyph glyph-name="I" unicode="I" horiz-adv-x="146" 
d="M68 248v-6q-2 3 0 6zM83 326v-3q0 1 0.5 1.5t0.5 1.5h-1zM147 729q1 -11 0.5 -22t-2.5 -22q-1 -7 -0.5 -14t-0.5 -14l-6 -55q0 -7 -2 -17q-2 -11 -4.5 -22t-5.5 -22l-3 -18l-6 -30l-6 -30l2 -1q0 1 1 1q1 1 2 1q2 -4 1 -7.5t-1 -7.5q-2 -15 -4.5 -29.5t-5.5 -28.5l-9 -49
q-2 -14 -3.5 -27t-3.5 -27l-3 -23q-1 -1 -3 -5q-1 3 -1 5q0 5 0.5 8.5t1.5 8.5t1 11t-3 11q-2 3 1 6q0 3 -0.5 5.5t-0.5 5.5q-2 -2 -2 -5q-1 -2 -0.5 -3t-0.5 -2q-5 -8 -6 -16t-3 -16q-1 -6 -1 -12v-13q0 -4 -2 -6q-1 4 -1 7t-1 8q-3 -2 -3.5 -4.5t-1.5 -4.5q-1 -5 -1 -8.5
t-2 -7.5q-1 -2 -1 -7l-2 -19.5t-1 -18.5q1 -15 0 -30t2 -30q0 -3 0.5 -6t-2.5 -6q2 -6 0.5 -11.5t-0.5 -10.5l2 -11.5t3 -10.5q5 -10 -4 -13v-14q-6 2 -11 9q-4 5 -7 9.5t-7 9.5q-3 5 -2 7q0 5 -2 9q-6 11 -10.5 23.5t-7.5 24.5q-2 9 -3.5 18.5t-3.5 18.5v3q0 15 -0.5 30.5
t-0.5 30.5q1 16 1 31.5t1 31.5q1 5 1.5 10.5t0.5 10.5q2 14 3 28.5t1 29.5q1 8 2 17l2 18q2 16 3.5 32t3.5 32l9 72q2 11 3.5 21t3.5 21q3 17 5.5 34t4.5 34q1 4 1 11q-1 14 2 32l9 56q1 4 1 8t1 9q2 3 10 5q6 1 11.5 1.5t11.5 -0.5q8 -2 15 -2.5t14 -2.5q11 -1 16 -13
q10 -19 10 -41z" />
    <glyph glyph-name="J" unicode="J" horiz-adv-x="537" 
d="M223 71v1h-1l-1 -2q1 0 1 0.5t1 0.5zM20 110q4 4 1 8q-3 -2 -2.5 -4t1.5 -4zM297 117q3 0 6 0.5t4 5.5h-3q-3 -2 -7 -6zM330 148q2 2 2 4q-8 -7 -10.5 -10t-3.5 -6q6 4 12 12zM302 155q-2 2 -3 2q-2 -1 -2 -6q2 1 2.5 2t2.5 2zM338 156q0 1 1 1l-2 1q0 -1 -0.5 -1.5
t-0.5 -1.5q0 1 2 1zM299 158h3h-3zM67 197v2l-1 -1q0 -1 1 -1zM77 219v-4q1 -1 1 -2q4 3 3 7q-3 0 -4 -1zM348 242v2h-1q-2 -2 -2 -3q1 1 3 1zM431 421q2 4 2.5 7.5t2.5 7.5q0 3 -1 5q-4 0 -7 -1l-10.5 -4l-11.5 -4q-22 -7 -46 -18l-18 -8t-18 -9q-11 -5 -22 -11l-22 -12
q-2 -1 -2.5 -2.5t-2.5 -2.5t-3.5 -0.5t-2.5 -0.5l-21 -12q-17 -10 -31 -22.5t-29 -24.5l-10 -10l-10 -10q-10 -10 -17.5 -20.5t-18.5 -19.5q-1 0 -1 -2l-18 -24l-18 -24.5l-17 -24.5q-4 -5 -7 -10l-6 -10l-9.5 -19.5l-9.5 -20.5q-3 -8 -3.5 -15t-1.5 -15q2 -3 1 -6.5t1 -5.5
q3 -5 5 -9t4 -9q3 -8 11 -5q5 2 8 0v-4q4 1 7 1t7 1q6 2 9 2q6 0 11.5 2l10.5 4l26 12l2 2l12 6q5 2 8.5 5t8.5 6q15 8 29 18t27 23l1 1q7 5 12.5 10.5t13.5 10.5q2 1 3 2.5t3 3.5l5 6q8 7 14.5 13.5l13.5 13.5q3 3 5.5 6t4.5 6l27 32q6 8 11 16.5t12 16.5q4 4 5 6
q4 6 7.5 12t8.5 12q0 1 2 5q1 6 4 10.5t7 9.5l11 18q8 13 13 27.5t11 28.5q1 2 1 7q2 5 3 10t3 10zM507 436v1q2 2 2 4.5v4.5l7 9q2 -5 0.5 -9t-3.5 -8q-1 -2 -2.5 -3t-3.5 -3v4zM575 543h-1q1 -1 1 0zM612 547h2v1h-2v-1zM533 561l1 1q1 -1 1 -2q-1 0 -1 -1q0 2 -1 2z
M537 595q1 -6 0 -11.5t-1 -13.5q-2 5 -3 8t0 8q0 7 4 9zM288 732h2q-1 0 -1 -0.5t-1 -0.5h-2q1 0 1 0.5t1 0.5zM701 532q5 -5 8 -14q-3 -4 -4 -9t-6 -8q-7 5 -9.5 6t-11.5 1q-13 0 -25.5 -2l-24.5 -4q-23 -5 -44.5 -12l-44.5 -14q-4 -1 -7.5 -2t-6.5 -2q-3 0 -4 -1.5
t-3 -3.5l-4 2q-5 -9 -5 -23q-2 -2 -2 -4.5v-4.5q-3 -3 0 -5q-1 -2 -2 -4.5t-2 -5.5q-2 -4 1 -7q2 -8 0 -15t-4 -15q-5 -15 -12 -26l-4 -8t-4 -9l-18 -36l-3 -6l-18 -24q-4 -5 -7 -10.5l-6 -10.5q-2 -2 -2 -7q-5 -2 -5.5 -3.5t-0.5 -5.5q5 5 6 9q5 3 7.5 7t4.5 9q2 4 4 6.5
t7 5.5v-3q-5 -10 -10.5 -18t-13.5 -15q-2 -3 -6 -3q-6 -2 -9 -7q-5 -8 -10.5 -15l-11.5 -14l-11.5 -14t-10.5 -15t-11 -12.5l-13 -9.5q-3 -3 -3 -2q-4 -6 -9 -9.5t-10 -7.5v-1q0 1 2 -3q-9 -4 -13 -9q0 -3 -2 -3q-5 0 -9 -3t-9 -3q-2 -2 -4 -3l-18 -18q-2 -2 -2.5 -3
t-2.5 -2q-5 -2 -8 -4.5t-7 -5.5q-12 -10 -22 -14l-10.5 -6.5t-10.5 -8.5q-5 -4 -10 -6.5t-10 -4.5t-8.5 -4t-8.5 -4q-5 -3 -10.5 -4.5t-10.5 -3.5q-4 -2 -7.5 -2.5t-7.5 -2.5l-23 -6q-5 -2 -10 0q-6 4 -17 2q-2 0 -4.5 -0.5t-4.5 0.5q-8 2 -15 3t-15 3l-12 4l-12 4l-7 12v-1
q0 6 -3.5 9t-7.5 5q0 8 2 12q2 3 1.5 7t-0.5 8v7t2 6q0 5 2 10l4 10q2 2 2 4q0 10 7 17q1 2 1 4t2 8q1 -1 3 -5q0 3 2 5t2 5q0 2 1.5 4.5t2.5 4.5q2 3 2.5 6t2.5 5t2.5 4.5t2.5 5.5q2 2 2.5 4.5t2.5 5.5q4 0 5 1q2 10 7 15q7 7 10 14q2 5 6 5q2 4 4 6l3 8q2 -2 3 -2q2 2 4 8
l6 8q3 0 2.5 -2t0.5 -3q4 1 6 8q2 0 2 2h1q1 2 0 5q1 7 9 12q0 2 1 3l4 3q1 1 1.5 2t1.5 2t1 5q3 0 5.5 -1t4.5 2q0 1 1 1q1 1 1 2h1q0 2 2 6q2 2 2 3q2 2 2 4t4 0q5 4 9.5 8t6.5 10l3 8q3 8 11 11l4 -4q2 2 3 4t3 4v6q1 1 1 1.5t1 1.5q3 2 5.5 3t5.5 2q2 1 4 3l4 4q1 1 2 1
t3 1q2 5 4.5 10.5t8.5 9.5l4 -3q2 1 2 4q0 7 6 3q5 8 11.5 13.5t13.5 10.5q3 3 4 3q6 -1 10.5 2.5t9.5 6.5l24 15l33 21l21 13q2 1 4.5 2.5t5.5 0.5q4 0 4 2q2 3 5 3.5t6 1.5q4 0 10 4q2 1 4 2.5t4 3.5q2 1 5 1t6 1l36 15q2 6 3 12t3 11q1 8 2 14.5t2 14.5q2 16 2.5 31.5
t-0.5 32.5q-2 18 -3.5 35.5t-6.5 34.5q-5 14 -10.5 27t-14.5 24q-5 6 -12 10q-2 -2 -5 -2t-6 -2q-8 -4 -14.5 -8l-13.5 -8q-6 -4 -8 -6l-14 -13.5t-13 -14.5q-6 -9 -11 -18t-7 -20l-5.5 -21t-3.5 -21q-1 -9 -1 -18v-18q0 -12 2 -24.5t3 -24.5q2 -4 2 -7q1 -4 1.5 -7t0.5 -7
q1 -1 0.5 -2t0.5 -2q2 -5 1.5 -10t-2.5 -10q-3 -14 -17 -14q-10 0 -15 2t-9.5 3t-9.5 3q-11 3 -15 13q-2 5 -3.5 9.5t-1.5 9.5q0 4 -1 7t-1 7q-1 8 -2 14.5t1 13.5q1 5 0.5 9t-0.5 9q0 28 4 51v3q-1 0 -2 0.5t-3 0.5q1 8 6 14q2 3 3 5.5t2 5.5q2 12 6.5 23t8.5 22q1 3 2.5 6
t3.5 6l10 16l10 16q3 4 6 7l6 6q7 7 13 16q2 4 5.5 7t8.5 5q2 2 4.5 3.5t5.5 3.5q1 1 5 3q5 2 11 3.5t11 3.5q6 2 13 2.5t13 0.5q8 -1 15 -2t14 -4q11 -4 21 -8.5t19 -12.5l6 -4q1 -1 3 -1q8 -10 17 -18t15 -19l7.5 -11.5t5.5 -13.5q0 -3 1 -6t2 -5q7 -23 4 -48
q0 -2 -0.5 -4.5t0.5 -4.5q1 -4 -1 -10q-1 -4 -1 -7.5t-1 -6.5q0 -4 -2 -12l-2 -12t-1 -13q0 -4 -1 -6q-3 -8 -3 -16.5t-2 -17.5q-1 -2 1 -8q5 0 8.5 0.5t8.5 1.5q17 5 35 7.5t35 4.5q25 4 49 0h7q7 0 14 -5q6 -3 11 -6.5t7 -10.5z" />
    <glyph glyph-name="K" unicode="K" horiz-adv-x="293" 
d="M82 -13v1l4 10t4 11q2 -8 0.5 -14.5t-5.5 -12.5q-2 2 -2 3t-1 2zM91 32q-2 4 -1.5 5.5t4.5 7.5q1 -4 0.5 -6t-3.5 -7zM117 54v-5.5t-5 -4.5q0 5 5 10zM118 54h-1v1h1v-1zM118 55v4q4 -4 0 -4zM102 177h-1v-1zM78 208v-1q0 -1 1 -3v1q0 1 0.5 1t0.5 1q-1 0 -2 1zM414 768
q6 -6 6.5 -14t-1.5 -17q-4 -8 -7 -15.5t-4 -16.5q0 -8 -3.5 -14.5t-5.5 -13.5q-2 -4 -3.5 -7.5t-2.5 -6.5q-3 -9 -8 -16t-11 -14q-26 -32 -49 -67q-2 -6 -4 -8q-9 -8 -17.5 -16.5l-16.5 -16.5q-11 -13 -22 -23t-19 -23l-13.5 -15.5t-14.5 -12.5q-11 -8 -18.5 -16.5
t-15.5 -19.5q-5 -5 -9.5 -10t-12.5 -7q-4 -1 -6.5 -4.5t-6.5 -5.5q-2 -2 -3 -4.5t-3 -4.5q-7 -4 -11 -10l-9 -13q1 -2 1 -5q-2 -5 -4.5 -10t-7.5 -9q-1 1 -3 1q1 9 7 13q4 5 3 10q-5 -4 -10.5 -7.5t-10.5 -8.5q0 -8 1.5 -15t6.5 -13q3 -4 4 -9t6 -8q2 0 3 2q0 -2 0.5 -2
t0.5 -1q0 -13 7.5 -22t16.5 -16l10.5 -6t11.5 -5q16 -7 31.5 -13t32.5 -10q19 -5 38 -9.5t39 -8.5l71 -12h13h5.5t5.5 -4q-2 -1 -2.5 -2t-2.5 -3q-5 -5 -10.5 -9t-11.5 -9q-13 -10 -31 -10q-14 0 -26.5 -3.5t-24.5 -5.5q-5 -1 -9 -2t-8 -1t-6.5 -0.5t-5.5 -0.5q-8 -1 -15 -1
t-15 2q-6 3 -12.5 3.5t-13.5 0.5t-14 2t-13 7q2 2 4 3t4 3q-6 2 -11.5 2.5t-10.5 1.5q-3 2 -6.5 2.5t-6.5 2.5q-8 1 -15 5t-14 7q-5 2 -13 1q-5 -8 -7 -17t-7 -18q-2 4 -2 7q-1 -4 -2 -6.5t-1 -4.5q0 -5 -4 -8.5t-6 -8.5q-2 -4 -2.5 -8.5t-4.5 -8.5q-10 -10 -8 -26
q0 -5 -0.5 -10.5t-0.5 -10.5l-2 -17.5t1 -17.5q1 -3 0.5 -7t-1.5 -9q0 -7 6 -14q-3 14 0 23.5t5 20.5t4.5 20.5t4.5 19.5q1 7 2 12t3 10q2 8 4.5 14.5t3.5 14.5q0 3 2 6t4 7q2 -4 3 -6.5t2 -4.5l-2 -8t-1 -9q-1 -8 -2 -17t-5 -17q-2 -5 -2.5 -10t-2.5 -10q-1 -2 -1.5 -5
t-3.5 -5q-5 -5 -6 -10.5l-2 -10.5q-2 -8 -2.5 -16t-2.5 -16l-2 -12t-3 -11q-1 -2 -2 -4.5t-1 -5.5q0 -18 -9 -34q5 -3 7 -5q-5 -5 -8 -10.5t-8 -11.5q2 -8 2 -14.5t-11 -11.5q-5 2 -10.5 0t-11.5 -1q-5 7 -6 15t-3 17l-5 35q-1 7 -1.5 13.5t2.5 14.5q1 3 0.5 5.5t-0.5 6.5
q-2 1 -4.5 1t-2.5 3q-1 5 8 10q-1 9 -1 18.5t-1 19.5q-1 15 -1 30t-1 30q0 5 0.5 10t-0.5 10q-2 5 -1.5 10t-1.5 10l-1.5 3l-1.5 3l-2 3q-1 5 -2 9.5t-1 9.5q-2 14 2 21q1 4 1 7.5t1 6.5q1 10 6 21q0 4 0.5 7t0.5 7q-1 -1 -2.5 -1t-2.5 -1q-2 9 1 14q1 5 1 12q-2 8 -2.5 16
t-3.5 15q-8 19 -13 42q-1 3 0 6.5t1 5.5q0 6 3 11q2 2 3 4t3 4q7 2 9 3t7 6l5.5 18.5t4.5 17.5l6 33h-5l4 23l4 23v7q1 6 1 11.5t2 10.5q1 2 2 5.5t1 5.5q-2 4 -0.5 6t2.5 5q2 7 4 17q2 6 2.5 12t1.5 11q0 4 3 7q5 4 4 11q-1 2 -0.5 3t0.5 3q5 16 8 31.5t8 32.5q2 5 5 10
l6 28l8 22t9 20q2 5 4 9t4 9q4 9 12 18q2 2 3 4t3 4q15 0 27 -12q6 -7 6 -21q0 -2 -2 -6l-2 -22t1 -22q2 -8 2 -16t1 -16q2 -8 2.5 -15.5t1.5 -15.5q2 -7 1 -9q-2 -8 0 -14t1 -13q-1 -2 0 -3.5t1 -3.5q0 -1 1 -2t-1 -3q-2 -8 -2 -16t2 -16q4 -23 -3 -45q-2 -6 -2 -10
q-2 -2 -1 -4t1 -4q4 -2 7 1q8 10 17 19t17 20q7 8 14.5 15.5t13.5 15.5l15 19.5t15 18.5q2 4 4 7.5t5 5.5q10 14 20.5 26.5l20.5 25.5l21.5 26.5t20.5 26.5l4 6t4 5q2 4 5 7.5t5 6.5q4 7 9 9q4 2 7 5l6 6l13.5 -4t15.5 -4z" />
    <glyph glyph-name="L" unicode="L" horiz-adv-x="320" 
d="M173 256v-2l1 1q0 1 -1 1zM179 267q-5 -2 -3 -5q5 2 3 5zM561 174l3 8q2 0 4 -0.5t4 -0.5q-3 -8 -10 -11q-4 -2 -7.5 -3.5l-8.5 -3.5q-24 -13 -48 -17q-10 -1 -16 -9q-8 2 -14.5 0l-13.5 -4q-8 -4 -16.5 -6t-16.5 -7q-8 -2 -15.5 -5.5t-15.5 -6.5l-6 -2t-7 -1
q-9 -1 -18.5 -3l-18.5 -4q-7 -2 -14 -2.5t-15 -1.5q-22 -1 -43 -3.5t-43 -1.5q-15 0 -30 2l-30 4l-26 3q-7 1 -12 -4q-3 -3 -6 -5.5t-5 -6.5q-2 -7 -13 -14q-7 2 -10 1q-8 -2 -15 0.5t-14 6.5q-5 3 -11 3q-10 -2 -18.5 1t-16.5 5q-4 2 -7.5 3.5l-8.5 3.5l3.5 3.5l3.5 3.5
q-2 2 -2.5 5t-2.5 6q3 5 0 6.5t-4 3.5q0 5 0.5 9.5t0.5 8.5q0 8 6 11q3 2 5 5q3 9 8 12q2 5 5.5 9t5.5 9l9 18q9 16 16 32q2 3 4 11l3 8q4 5 6.5 9.5t2.5 10.5q1 2 1.5 3.5t2.5 3.5q8 9 11 22q2 8 4 11q2 4 4 7t-1 8q0 1 2 5q7 9 9 21q0 2 1 4l2 4q4 9 7 18t8 17
q5 11 8.5 22.5t8.5 22.5t8.5 22.5t7.5 22.5l11.5 31.5l11.5 31.5q1 2 2 4.5t1 5.5q1 8 3.5 15t5.5 14q5 14 8.5 29.5t7.5 29.5q3 11 6.5 20.5t6.5 20.5l6 24q5 18 10 32q1 2 2 5t1 5q0 15 15 23q4 1 10 5q15 -5 25 -10h2q22 -9 22 -32v-28.5t-2 -28.5q-2 -16 -3 -31.5
t-3 -31.5q-2 -10 -4.5 -19.5t-4.5 -18.5q-2 -11 -6 -21.5l-8 -21.5l-12 -31.5t-11 -32.5q-2 -6 -4 -11q-4 -7 -6.5 -14l-5.5 -15t-6.5 -14.5t-6.5 -13.5l-5.5 -14.5t-4.5 -14.5q-2 -9 -5.5 -17.5l-7.5 -17.5q-2 -6 -4.5 -12t-5.5 -12l-15 -40q-2 -2 1 -6l6 12q2 7 4 13t5 12
l30 64l2 2q5 0 3 -5q-5 -11 -8 -23t-8 -23t-9 -21.5t-9 -21.5q-5 -13 -12 -25l-14 -24q-5 -11 -9 -21.5t-4 -24.5l14 -3q17 -4 35 -5t35 -3q8 -1 15 -1h14q19 -1 37.5 -2.5t37.5 -0.5q4 0 6 -1q27 -4 50 1q4 1 7 2t6 -1q7 -2 13.5 -1.5t12.5 1.5q15 3 27 2q3 0 11 2l31 7
q2 0 6 2q6 4 15 2q3 -1 6 0t7 1q-1 -3 -3.5 -4t-4.5 -4q4 0 10 -2q0 -2 -0.5 -3.5t-0.5 -3.5q5 1 14 1z" />
    <glyph glyph-name="M" unicode="M" horiz-adv-x="419" 
d="M306 -8q4 3 0 6l-1 1h-1q-1 0 -3 -2v-2q0 -1 1 -1zM266 197q2 5 2 6t-2 6q-2 -2 -2 -3t2 -9zM262 239q3 3 2 4v2h-4l-1 -2q0 -3 1 -4q0 -2 2 0zM-19 371v4q-2 -4 -4 -6.5t0 -6.5q2 3 4 9zM9 453q3 3 1 5q-2 1 -2.5 -0.5t-1.5 -2.5q-1 -2 -1 -3.5t-1 -3.5h3q2 4 2 5z
M23 494q10 7 7 15q-2 -4 -3.5 -7.5t-3.5 -7.5zM44 533q3 3 4 5l-3 7q-2 -5 -2.5 -8.5t-2.5 -7.5q3 0 3 1t1 3zM252 559q5 3 -1 11l-3 -15q0 -4 2 -4t2 4q-2 2 0 4zM60 568q0 2 2 4.5t0 7.5q-4 -3 -3.5 -6t1.5 -6zM273 594q2 5 4.5 10t2.5 10h-6q-2 -2 -2 -4q-1 -2 -1 -4
t-1 -5q-2 -2 3 -7zM274 622q5 -3 6 -3t5 3q-2 1 -3.5 1.5t-2.5 1.5q-2 2 0 4t0 4q-3 -2 -3 -5.5t-2 -5.5zM335 709v8l-3 1q0 -1 -2 -3q-2 -3 -1 -4zM477 -30l3 -3q2 -14 -4 -26q-5 -6 -8 -11.5t-8 -10.5q-10 -9 -22 -13q-5 -3 -12 -1q-4 1 -6.5 2t-5.5 2q-2 0 -3.5 1
t-3.5 -1q-3 -1 -6 2q-7 5 -17 8l-13.5 7.5t-13.5 6.5q-3 5 -8 7.5t-9 6.5q-2 2 -4 2t-4 3q-1 2 -7 4q-1 0 -1 1q-4 3 -7 6.5t-6 6.5q-2 2 -3.5 7.5t-1.5 10.5q-2 1 -6 1q-1 2 -2 4.5t-2 5.5q0 3 -4 5q-3 2 -1 4q2 3 0.5 6t-1.5 6q-2 -1 -5 -1q-2 0 -4 1q-2 8 -4.5 15
t-1.5 15q2 3 3 1t3 -3q4 3 0 7l3 1.5l3 1.5l-2 4q-1 0 -1 -1q-3 -1 -4.5 -2t-3.5 -2q-3 -3 -5 2q-1 6 -3 12t0 12q2 3 0.5 6t-1.5 6t0.5 7t-1.5 9q-1 -5 -1 -8.5v-5.5q0 1 -3 -2q-1 1 -1 2v2q0 1 1 1q-2 5 -1.5 8.5t-1.5 8.5v4q4 6 2.5 11.5t-1.5 10.5q0 2 -0.5 4t0.5 4
q1 4 0 6.5t0 5.5q1 5 -1 11q-2 2 0 4q2 7 1.5 9.5t-2.5 10.5l-2 1v1q4 5 2.5 10t1.5 10v4q-1 2 -3 3t-1 3q2 4 0 6.5t-1 5.5v5t3 4q1 0 1 3t-0.5 5.5t-0.5 5.5q0 2 2 6q5 3 4.5 7t0.5 9l-2 4q-3 6 0 10q2 2 3 4q0 2 -1 2t-2 -1t-2 -1q-2 6 0 11q1 2 0.5 5t0.5 6
q1 2 -0.5 3.5t-2.5 4.5q5 6 5.5 8.5t-1.5 10.5q4 4 8 6q-1 2 -2 3.5t-1 3.5q-1 6 6 8q1 4 3 8t0 9h-2q-2 0 -3 1q-2 1 1 4q1 3 5 7q2 2 2 4q0 1 -1 1.5t-2 2.5l-1 2q0 3 2.5 5t4.5 6q-3 3 -4 5q-1 1 -1 4l3 12q2 5 4 8t2 6q0 4 1 7l2 6q1 5 1 9.5t2 9.5q1 3 1 9l-2 3
q1 2 2.5 4t2.5 4q1 3 1 4.5t2 2.5l-3 4q1 4 2 7l2 6q0 4 0.5 6.5t1.5 5.5q0 5 0.5 8t1.5 6q5 11 7.5 22.5t5.5 22.5q1 4 4 8q1 2 -0.5 4t1.5 4q2 1 1.5 3t1.5 4t2 3.5t2 3.5q-1 3 -2 6.5t-2 7.5v8l2 10l2 10q2 5 0 8q0 2 -4 4q1 2 2 3.5t2 3.5v7l-1 1l-2 1l-1 -1q0 -1 -1 -1
q2 -4 0 -6t-3 -5q2 -6 4 -10q-1 -2 -1.5 -4.5t-1.5 -4.5h-7q1 -3 1 -6.5t1 -6.5q0 -5 -3 -5q-1 0 -3 2q-2 0 -2.5 -0.5l-3.5 -3.5q4 -4 3.5 -7.5t-2.5 -7.5q-1 -1 -2 -1t-2 -1q-3 -5 -6 -12q-3 0 -3 1v3t-1.5 3t-2.5 2q-3 -3 -1 -10v-5q-4 -7 -2 -10q-4 -4 -2 -8
q-3 -5 -5 -9.5t-4 -7.5t-4 -5.5t-2 -6.5q-2 -7 -5.5 -12t-5.5 -11q-2 -5 -5 -8q-1 -5 -4 -9q-1 -1 -1.5 -2t-2.5 -3q2 -4 -2 -7.5t-7 -3.5l-1 -1q1 -5 -3 -11q-2 -2 -3 -4t-3 -4q-3 -3 -3.5 -7t-2.5 -8q-4 -5 -5.5 -11t-5.5 -11q-1 -2 -1 -3.5t-1 -3.5l-2 -4t-3 -4
q-6 -9 -8 -25q0 -5 -3 -8t-7 -5q-2 0 -4 1q0 -1 -1 -1.5t-2 -2.5q-4 -4 -9 -7.5t-11 -2.5q-2 0 -4 -1t-4 -1q-3 0 -10 5q-2 2 -2.5 0.5t-2.5 -2.5q-2 8 -2 10q-4 7 -9 2q-2 -2 -4 -2h-4q-9 -3 -9 8q0 1 1 2t-1 2q-5 2 -6 5l-2 6q-1 4 -6 11q-1 0 0 5q3 0 5 -1v2q-2 5 -4.5 8
t-4.5 8l-2 6t1 6q-1 4 -1.5 6.5t-0.5 5.5t-0.5 5t-1.5 4q-2 2 -2 5.5v6.5q-1 4 -1 7.5t-1 7.5l-3.5 8.5t-0.5 8.5v1q0 1 -0.5 1t-0.5 1q-3 5 -3.5 11t-1.5 12q-1 -2 -1 -6q-2 -5 -7 -5q-4 1 -5 6v3l-2 2q-6 -7 1 -13q1 -1 1 -4q2 0 2.5 2t2.5 0q-2 -11 -6 -15t-2 -5
q0 -1 -0.5 -1.5t-0.5 -2.5q-5 -8 -8.5 -16.5t-7.5 -16.5l-3.5 -8.5t-3.5 -7.5q-2 -6 -3 -7.5t-6 -5.5q1 -3 1.5 -5.5t-1.5 -4.5q-1 0 -1 -1q-1 -2 -1.5 -4.5t-1.5 -4.5l-3 -8q-2 -7 -6 -14t-7 -15q-2 -2 -4.5 -1.5t-4.5 -1.5l4 -2q-3 -16 -10 -27q-2 -5 -3 -9.5t-6 -6.5
q2 -4 -2 -10q-2 -5 -4.5 -9.5t-2.5 -10.5q-5 -11 -9 -22t-12 -20l-1 -1q3 -7 -1.5 -11.5t-2.5 -10.5q-2 -4 -3.5 -7.5t-3.5 -7.5q-2 -2 -2 -6q-3 -17 -9 -31q-5 -10 -8 -22l-6 -18t-5 -18q-2 -5 -3 -10.5l-2 -10.5q0 -7 -4 -11q-4 -11 -6.5 -22t-5.5 -23q0 -5 -5 -7
q-2 -2 -5 -3t-5 -5q0 -2 -4 -2q-7 -4 -13.5 -5t-13.5 -3h-6q-4 4 -11 0q-7 -2 -11 3q-2 2 -5.5 2.5t-1.5 5.5q-2 2 -2.5 1t-1.5 -1q-2 0 -3.5 1.5t0.5 3.5l4 10.5t2 11.5q3 9 5.5 19t4.5 19q2 8 5 14.5l7 14.5q2 4 2.5 7t2.5 8q1 3 1.5 6t4.5 6q1 1 1 2t1 2l3 15q2 4 3 7
l2 6q0 4 3 6t2 6q5 10 5 18q4 4 5 8.5t3 9.5q2 4 3.5 8l3.5 9q1 1 1 4q7 23 20 47q2 6 4 10t3.5 7.5t3.5 6.5q2 4 3 7t2 7q4 8 6.5 16.5t7.5 16.5q2 2 2.5 4t1.5 4q2 5 3.5 10.5t4.5 9.5l1 2q4 8 7 16l6 16q2 8 8 13h1l1 2q-1 5 3 7.5t3 7.5q0 1 2 7q4 8 10 17q1 2 -0.5 4.5
t1.5 4.5q2 2 2 6q3 7 5 13t7 12q2 4 2 9q3 9 9 18q2 5 4.5 8t2.5 8q0 4 2 4q3 2 4.5 5l3.5 7q4 6 7 13l6 14q2 5 5.5 10t6.5 10l3.5 9t6.5 9q1 1 3 7q3 11 11 16q0 1 2 5q-2 1 6 11q-2 2 -3 2q1 7 4.5 10.5t6.5 7.5h1l1 -1q2 -2 6 -1q4 0 7.5 -2t8.5 -1q0 2 3 -1
q1 0 1.5 -0.5t2.5 -0.5q4 -1 7 -1.5t5 -4.5q1 -2 6 -2q8 -3 10.5 -5.5t4.5 -10.5l2 -3q1 -2 3 -4q1 -3 1 -11q2 -3 2 -10q-2 -6 -1 -11t-1 -10q-1 -4 0.5 -7t-0.5 -7q-3 -5 -3 -12q1 -4 0.5 -8t-0.5 -9q-1 -3 -1.5 -5.5t-0.5 -5.5q-1 -2 -1 -4v-4q2 -4 1.5 -8t-1.5 -8v-13
t1 -12q1 -3 1 -10q-1 -5 -0.5 -10.5t1.5 -10.5q2 -2 3.5 -1t2.5 2l14 23q7 11 13 23t14 23q0 1 2 3q9 9 11 17q6 13 15 24q4 5 5 9q2 5 3 8t3 7q1 5 6 8q6 4 6 12q0 4 4 10q8 8 9 15l2 6l2 6q2 1 3.5 1.5t2.5 1.5q2 3 2.5 6.5t2.5 6.5q1 1 2.5 1t2.5 2q4 7 8.5 13t8.5 13
q2 6 4.5 10.5t4.5 10.5q0 2 5 5l4 4t0 5q0 1 1.5 1.5t2.5 1.5q2 2 3 3.5t3 3.5q3 0 3.5 2.5t1.5 4.5q2 6 6 8q6 3 6 10q2 5 7 7q5 3 6 7q6 7 13 10l11.5 2t11.5 0q2 -4 5 -7t6 -7h6q11 -1 16 -13q1 -4 1.5 -6.5t-0.5 -5.5q3 -2 3 -5.5t2 -5.5q2 -4 0 -8q0 -3 -1 -6t1 -7
q-2 -6 -2 -12.5v-13.5v-2q-4 -8 -5 -15.5t-4 -14.5q-1 -4 -1 -10q0 -5 -0.5 -8t-0.5 -6q0 -4 -0.5 -7t-4.5 -5q-2 -1 -3.5 -4t-0.5 -5q2 -8 0.5 -14.5t-3.5 -13.5q-1 -4 -2 -7.5t1 -7.5q0 -3 -1 -5q0 -5 -3 -11q-2 -6 -2.5 -12t3.5 -11q-2 -5 -4 -8t-2 -8q0 -2 -2 -4
q-4 -4 -2 -8q0 -10 -4 -18l-1 -4q-1 -11 -3.5 -20.5t-4.5 -20.5q-5 -9 -6 -19t-6 -20q-1 -4 -2 -7.5t1 -6.5q-2 -3 -1 -6.5t-1 -5.5q-3 0 -1 -3t0 -6t-1 -7q0 -2 1 -2q3 -2 2 -5t0 -6q-3 -2 -2.5 -5t1.5 -7v-4q-2 -5 -2 -10.5v-11.5q-2 -4 -2 -8q2 0 3 -1q2 -3 0 -5
q-5 -5 -5 -11.5t2 -14.5q2 -4 -2 -6q-3 -5 -1 -8q3 -5 1.5 -10t-0.5 -10l-1 -5q-2 -2 -2 -4v-4q0 -5 -0.5 -10t-2.5 -10q1 -8 -0.5 -14.5t0.5 -14.5q0 -5 -0.5 -9t1.5 -9v-3q-2 -8 -2 -14t2 -14q0 -2 -0.5 -4.5t0.5 -4.5q1 -3 0 -5t-1 -4q-1 -6 1 -13q1 -7 1 -13.5t2 -12.5
t2.5 -12.5t2.5 -12.5l2 -11.5t3 -10.5v-3q-2 -3 -1 -5l2 -4l2 -5q2 -7 4 -13t4 -11t3 -8.5t3 -8.5l5.5 -9t4.5 -9t5 -9l6 -8q2 -3 4 -5.5t4 -4.5q5 -6 11.5 -10.5l13.5 -9.5q1 0 1.5 -0.5t1.5 -0.5q6 -1 12 -4.5t13 -5.5q5 0 7 8q3 3 5 1z" />
    <glyph glyph-name="N" unicode="N" horiz-adv-x="572" 
d="M32 -78v1q0 -1 -0.5 -1.5t-0.5 -1.5q1 1 1 2zM119 151v1h-1q0 -1 1 -1zM121 160h1v1zM124 167h1v1zM336 268v-1q0 1 0.5 1.5t0.5 1.5q-2 -2 -1 -2zM275 368v6t-2 5q2 4 2 5v22q0 3 -1 5q0 3 -3 2v-10q1 -6 0.5 -12t1.5 -12q0 -6 -1 -9q0 -2 3 -2zM234 428v2q0 1 -1 1v-2
q1 0 1 -1zM231 440q0 -3 3 -2q0 2 -0.5 3t-0.5 3q-1 -1 -1 -2t-1 -2zM232 445v7q0 -1 -0.5 -1.5t-0.5 -1.5t0.5 -1.5t0.5 -2.5zM259 443q2 13 -1 14l-4 -2q2 -9 5 -12zM250 457q-3 -3 2 -5q-2 4 -2 5zM269 466q1 3 -1 5q0 -2 0.5 -2.5t0.5 -2.5zM250 458q2 5 4 5v7
q1 3 1.5 5.5t1.5 5.5l-3 9q-4 3 -6 12v2q-1 -2 -1 -3.5t-1 -3.5q1 -7 1 -13.5t2 -13.5v-2q-2 -3 -1 -5.5t2 -4.5zM253 503l1 1l-2 3q0 -3 1 -4zM253 513v5l-1 -4q0 -1 1 -1zM467 516q0 2 0.5 3t0.5 2q-2 -2 -1 -5zM454 527v-1l1 1h-1zM469 522q2 1 2 7q-2 -6 -2 -7zM474 537
l1 -1v1h-1zM475 576v-1l1 1h-1zM479 582q1 2 1 3t1 3q-2 -2 -2 -6zM564 735q0 -6 0.5 -11.5t0.5 -11.5q0 -2 0.5 -3.5t-0.5 -3.5q-2 -4 -2 -7.5v-8.5q0 -8 -3 -12q-2 -2 -1.5 -6t-0.5 -7q-2 -8 -3 -14.5t-4 -14.5q-2 -3 -1.5 -7t-1.5 -7q-4 -8 -5 -12q-2 -9 -5 -17.5
t-5 -17.5q-6 -10 -9 -20.5t-7 -20.5q-4 -11 -8 -20.5t-8 -20.5l-18 -48q-2 -6 -4.5 -12t-5.5 -12q2 0 2.5 -0.5t1.5 -0.5v-6.5t-5 -5.5q0 4 -1 6q-1 -1 -3.5 -5.5t-4.5 -12.5h1q-5 -4 -2 -7l-3 -3t-2 -3q-2 -6 -4 -9l3 -2q0 -2 -2 -1.5t-3 -1.5l-6 -14q2 -2 2 -3q0 -3 -5 -3
l-31 -70q-2 -5 -3.5 -9.5t-3.5 -9.5q-1 -3 -1 -11q-5 -2 -9 -12l-10 -24.5l-10 -25.5l-4 -14t-5 -15t-7 -17t-8 -17v-2v-1q0 -7 0.5 -14t0.5 -14v-10.5t2 -11.5q2 -8 2 -16.5t-1 -16.5q-1 -7 -1 -13.5t-1 -14.5l-4.5 -4.5t-6.5 -2.5t-8 -0.5t-8 2.5q-4 2 -10 4q-7 3 -7 11
q-1 15 -3.5 29.5t-4.5 28.5q-2 9 -3.5 17.5t-3.5 16.5l-2 3q-1 2 -1 5q-1 2 -1 3.5t-1 3.5v1q-2 16 -8 26q-1 2 -0.5 4t0.5 4q0 5 -0.5 9.5t-3.5 9.5q-6 9 -6 20q0 5 0.5 10t-1.5 10l1 4q-2 8 -3 16t-3 16l-5 -2q0 11 -1 16q0 6 -0.5 11.5t-0.5 11.5q-1 2 -1 3t-2 3
q-4 5 -4.5 11.5t-1.5 12.5q-1 5 -1 9v9q-2 1 -4 1q-1 1 -1 2q-1 11 -2.5 21t-3.5 21l-2 12.5t1 13.5q0 2 -0.5 4.5t-0.5 4.5h-4q0 5 -0.5 9.5t-1.5 9.5l-8 -26q-4 -9 -7.5 -18t-9.5 -17q-2 -4 -2.5 -7.5t-2.5 -7.5q-1 -2 -0.5 -2.5t-0.5 -2.5q-3 -5 -4.5 -11t-3.5 -12
q-3 -8 -6.5 -16.5t-6.5 -16.5l-17 -47q-3 -8 -6.5 -16.5t-6.5 -17.5l-6 -18q-4 -9 -6 -19l-3 -8q-2 -4 -2 -6q0 -6 -2.5 -10.5t-4.5 -9.5q-1 -2 -2.5 -3t-3.5 -3l-3.5 -9t-1.5 -9q0 -2 -2 -4l-6 -18t-7 -17q-1 -3 -2 -5.5t-2 -5.5q-2 0 -3 -1q-1 3 -1.5 6.5t1.5 5.5
q3 5 3 9.5t1 9.5q-2 0 -2.5 -1t-1.5 -2l-9 -34q-2 -8 -3.5 -15t-4.5 -15q-4 -10 -6 -20l-4 -21q-1 -3 -1 -6t-2 -6q-1 -2 -2 -3.5t-3 -3.5v16q-3 -16 -6.5 -31l-6.5 -29h2q6 2 4 -3q-1 -5 -1 -9t-3 -9q-5 1 -6.5 -2t-3.5 -6q-1 2 -1 2.5t-2 2.5q-2 -10 -4.5 -18.5
t-2.5 -18.5v-4.5t2 -4.5q0 -3 -1 -4q-1 -8 -2 -14.5t0 -13.5q0 -5 -4 -8l-3 2l-2 4q-1 -5 -1 -9.5t-1 -9.5l-4 11.5t0 12.5q0 2 -0.5 3t-0.5 3l-4 25q-1 5 -1 9v9q-1 9 -1 18v18q2 11 0 22q0 5 0.5 9.5t1.5 9.5q0 3 0.5 6t0.5 6q0 7 0.5 13.5t1.5 13.5l1 4q-2 17 1.5 33.5
t5.5 33.5l1 7q-1 5 0 9.5t3 9.5l1 7q1 2 1 5t1 5q5 11 7 21.5t5 21.5q2 9 5 18.5l6 19.5q2 2 2.5 4.5t2.5 4.5q1 1 1 2t1 3q2 5 2.5 9t3.5 8q1 1 1 4q2 14 6 26q2 5 2.5 9t2.5 9l9 26q2 8 5 15t6 15l9 25l10 28.5l10 28.5q7 15 11 28l33 87l16.5 39.5l17.5 39.5q2 5 3.5 9.5
t3.5 9.5q4 7 7 13.5t7 12.5q16 27 31 49q2 1 2.5 2t1.5 2q13 2 23 -4q12 -5 18 -12q8 -10 4 -20l-4 -10.5l-4 -10.5q-2 -7 -4.5 -13t-3.5 -13q0 -1 -0.5 -1.5t-0.5 -2.5l6 -30q2 -8 2 -14v-2q-3 -4 -2 -8t2 -9q1 -8 1.5 -15t3.5 -14h3q2 -6 0 -9l-1 -4q1 -2 1.5 -3.5
t3.5 -0.5l3 -14q2 -7 2 -14t2 -15q-2 -2 -0.5 -3t1.5 -3q2 -7 3 -13.5t4 -13.5v-3v-13t2 -13q1 -1 1 -3q-1 -10 5 -18l-4 -12t5 -13q2 0 4 -0.5t2 -3.5q-1 -5 0 -9.5t0 -9.5q-1 -2 -1 -3.5t-2 -3.5q2 -4 2 -6q0 -3 -2 -7q2 -2 2.5 -4t1.5 -4q-3 -5 2 -6q3 -5 2.5 -10.5
t1.5 -10.5q1 -2 1 -4.5t1 -4.5l3 19q0 1 0.5 2t0.5 2l9 25q2 2 2 4q-1 5 5 11q0 2 -1 2.5t-2 1.5q-2 5 1 13q3 4 3 14q1 2 1 5t2 5q8 16 11 33l-2 2q2 11 7 19q4 6 6.5 12.5t4.5 12.5q2 4 3 5q4 7 6.5 13.5t4.5 13.5l9 20q1 2 2 3.5t1 3.5q3 9 11 13q0 4 2 10q1 6 5 13
q2 3 3.5 5.5t3.5 5.5q2 -5 -3 -12q-6 -7 -6 -21l4 2l3.5 8.5t3.5 7.5l9 22q4 8 6.5 16.5t6.5 17.5l14 36l15 37v2q2 2 4 4.5t4 5.5v-10.5t-2 -9.5q-2 -4 -2 -7q-3 -17 -11 -35q-2 -5 -3 -11t-3 -11l3 4q1 -1 1 -2l-3 -16l6 12q2 5 4 11t4 11l3 11q2 6 3 12t3 11t4 15
q2 8 3.5 16t3.5 16q1 4 5 12q9 16 9 36q0 5 0.5 11t-1.5 12q0 6 2 16q1 6 9 9l11 -9.5t8 -12.5q2 -5 4 -9t4 -9t2 -10t-3 -10q-1 -1 -1 -5z" />
    <glyph glyph-name="O" unicode="O" horiz-adv-x="465" 
d="M112 120l1 1q0 -1 1 -1h-1h-1zM86 129h4q4 -2 8 -3.5t8 -3.5q-8 -1 -11.5 0t-8.5 7zM77 134q2 3 4 1l5 -6q-4 -1 -8 1q-3 2 -1 4zM319 190q4 2 2 5q0 -1 -2 -5zM322 195q4 0 4 4q-1 -1 -2 -1.5t-2 -2.5zM20 251q1 -3 1 -6t3 -5q0 5 -4 11zM19 255q-2 -3 1 -3q-1 0 -1 1v2
zM373 271l12 12q2 2 3.5 4.5t1.5 5.5l-9 -8q-2 -3 -4.5 -6t-3.5 -8q-2 -1 -6 -8q4 2 4.5 4t1.5 4zM393 296q1 1 1 2t1 2q-2 -1 -2 -4zM11 299h-1v1zM403 305h-1q1 0 1 1v-1zM241 327h6q-3 -4 -6 0zM236 330h-5v2q1 0 5 -2zM216 335q-2 8 -7 9q0 -3 2.5 -5t4.5 -4zM204 352
q0 -7 5 -7q0 2 -1.5 3.5zM12 318q-5 -1 -8 -8q-1 2 -2 2.5t-1 1.5q1 8 2 14.5l2 13.5q1 9 10 9q2 0 2 1q3 -9 -4 -10q-4 -2 -2 -5q1 0 1.5 0.5t1.5 0.5q2 -5 0.5 -10t-1.5 -10v-1zM223 361h-1q0 1 1 1v-1zM15 362q-1 0 -1 1l2 4h1v-1q2 -4 -2 -4zM24 368v-1q0 -1 -1 -1
q1 1 1 2zM200 370q1 5 -1 6q0 -3 1 -6zM218 381v1q0 -1 1 -1h-1zM209 386l1 1q0 -1 1 -1q-1 0 -1 -1q0 1 -1 1zM218 392v-10q-4 5 0 10zM22 381q0 -1 -4 -5q2 9 4.5 16.5t4.5 15.5q1 0 2 1q0 -8 -2.5 -14.5t-4.5 -13.5zM31 415q-1 0 -1 1q1 0 1 1v-1v-1zM199 447
q-2 -4 -1 -11q0 8 1 11zM35 425l-1 -4q-4 3 0 5q1 6 3.5 11.5t4.5 10.5l2 2v-3q-2 -4 0 -9q-4 -2 -5.5 -6t-3.5 -7zM192 473v-1q-1 0 -1 -1v1zM57 477q0 -4 -3 -5q0 3 3 5zM224 479h1q-1 -2 -1 0zM223 479l1 1v-1h-1zM237 489v1h-1zM63 488l-1 1q1 0 1 1v-1v-1zM241 511v5
q3 -2 0 -5zM229 551l-1 -1l-1 1q0 1 2 1v-1zM236 507q3 3 5 4v-7q5 2 9 11q2 6 5.5 11.5t6.5 11.5l4 8t4 9q-7 -2 -8 -4q-3 -5 -7 -9.5t-5 -11.5l-1 -1q-1 0 -1 -1q-7 -2 -7 -12q-5 -3 -5 -9zM239 569v3.5t3 3.5q0 -2 0.5 -3t0.5 -3q-2 0 -4 -1zM275 589h-1v-2q1 0 1 2z
M282 597q-1 -1 -2.5 -1t-0.5 -4q2 2 2 3t1 2zM284 602q-1 -1 -1 -4q0 1 0.5 1.5t0.5 2.5zM289 608q-5 -1 -4 -6q2 4 4 6zM279 633h-2l-1 1l2 2q0 -1 0.5 -1.5t0.5 -1.5zM288 641l1 1v-1h-1zM317 673q-1 0 -1 -1q0 1 1 1zM319 676l-2 -3q0 1 2 3zM336 695v-2q-1 1 0 2z
M339 695h-3q1 3 3 0zM356 702q-4 0 -4 -3q2 1 4 3zM368 715q-4 -2 -3 -4q1 2 3 4zM489 673q1 7 0 15q-2 7 -4 12.5t-2 12.5q0 4 -3.5 6.5t-7.5 1.5q-5 0 -9 -3q-5 -2 -9 -4t-9 -4q-18 -10 -32.5 -24.5l-28.5 -28.5q-11 -12 -20.5 -25t-21.5 -24q0 -1 -0.5 -1t-0.5 -1
q-11 -16 -23 -30.5l-24 -30.5l-16 -21l-7.5 -13t-6.5 -13q-4 -6 -6 -13q-3 -6 -4.5 -12t-3.5 -12q-3 -3 -4 -1q0 4 1 6q-5 0 -7 -5q-7 -15 -11 -31t-3 -33v-6.5t1 -6.5q0 -7 -3 -9q-4 0 -4.5 0.5t-0.5 5.5q0 3 2 5q0 9 0.5 17.5t0.5 16.5q0 2 -0.5 4t-0.5 4q-2 -2 -2 -3
q-1 -6 -1.5 -12t-0.5 -12l-2 -4q-2 7 -2.5 13t-1.5 12q-1 3 1 9q1 4 2 7t3 7q2 7 5 13t5 13q1 1 1 5q-1 9 6 18q2 2 3.5 1.5t2.5 1.5q-2 2 -3.5 4t-0.5 5q-5 -6 -8 -12.5t-5 -14.5l-1 -2q2 -5 0.5 -9t-4.5 -8q-2 -2 -4 -6q-2 -9 -4.5 -18t-0.5 -18q2 -6 1 -11.5l-2 -11.5
q-2 6 -2 9v10q0 6 -1 10q-3 -11 -1 -17q-2 -6 -1 -12.5t1 -12.5q0 -8 5 -18q0 -1 1 -1t1 -1q2 3 -0.5 6t2.5 5q4 -4 4 -9t4 -9q6 0 9 -6q1 -2 2.5 -3t2.5 -3q3 -3 4 -5t2.5 -2.5t1.5 -3.5q-4 2 -5 2q-6 4 -11 8.5l-11 9.5q1 -4 5 -8q2 -3 4.5 -6t5.5 -6h-2l-1 -1q0 -1 1 -1
h2q2 -3 5 0l4 -3q-1 -1 -5 -3q4 -2 7 -4t7 -3q6 0 4 -7q-2 1 -3.5 0.5t-3.5 0.5l-23 9q-2 2 -4 2q2 -2 4 -2l-2 -4q7 -6 16.5 -7t17.5 -8q-7 -2 -12 -1.5t-10 2.5q-9 3 -20 8q-8 2 -11 9l-3 3t-2 3q-5 3 -6.5 7.5t-3.5 8.5q0 8 -3.5 14.5t-2.5 14.5q-2 5 -1.5 9.5t-1.5 9.5
q-3 12 2 25q2 4 2 7.5t1 7.5t3 7.5t0 8.5q-1 0 -0.5 1.5t1.5 1.5q4 1 4.5 4t1.5 5l6 21q2 5 3 9.5t6 7.5q2 2 2 4q2 5 4 11l6 10.5t5 10.5l3 10q2 3 3 5.5t2 4.5l5.5 9.5t4.5 9.5l5 2q3 3 5 7t4 7q2 2 2 5.5t5 4.5q2 0 2 3q-1 5 4 8q2 1 4 6q3 5 4 6q5 5 8.5 9.5l7.5 9.5
q3 5 4 6q5 2 9 12l5 6q2 4 5.5 6.5t4.5 7.5q8 8 14 17l3 2q6 6 8 9q3 3 2 5q-19 -3 -28 -15q-1 -1 -2 -1.5t-2 -2.5q-16 -12 -33 -29q-17 -19 -32.5 -39.5l-29.5 -40.5q-6 -9 -11 -18l-10 -18l-33 -57q-5 -10 -11 -20.5t-11 -21.5l-4 -10t-5 -10q-1 -1 -1 -2q0 -8 -3 -14
t-7 -12q1 -2 2 -4.5t-1 -4.5t-2 -4t-1 -4l-4 -13.5l-4 -13.5q0 -10 -3 -17q-3 -3 -1 -4q1 -10 -3 -19t-2 -19q-2 -8 -1 -17t1 -17q2 0 3 -0.5t3 -0.5q0 -3 -0.5 -6t-0.5 -5q3 -23 17 -37q5 -6 13 -7h21q5 -6 14 -1l20 9l15 7.5t14 9.5q1 1 2.5 1t2.5 1l10 7q8 5 14 11l12 12
q9 8 17 16.5t18 16.5q1 1 2 1.5t2 2.5l15 18q1 -1 5 -3l13 15l33 51l11.5 18l10.5 17q3 5 6 9.5t5 9.5l21 44q5 11 10.5 21t8.5 22l3 5q3 5 5 10q4 8 6.5 17.5t7.5 17.5q0 2 1 2l6 25q1 0 2 -0.5t2 -0.5q3 12 5.5 23.5t2.5 24.5q1 7 1 14t2 14zM407 761l-1 -1q0 1 1 1z
M407 762q1 0 3 2l-3 -3v1zM412 766l-2 -2zM413 767l-1 -1zM558 675q-1 -5 -2 -8.5t-3 -8.5v-7q1 -7 -2 -14q-1 -3 -2 -5.5t-1 -5.5q-1 -6 -7 -10q0 -2 0.5 -3.5t0.5 -3.5q-1 0 -1.5 0.5t-1.5 0.5l-2 -2l-6 -14q-2 -8 -5.5 -14.5t-6.5 -13.5l-7 -14.5t-5 -14.5
q-7 -18 -13 -35.5t-13 -34.5q-5 -11 -9 -22t-10 -22q-3 -5 -3 -9q-3 -14 -10 -25q-3 -7 -6.5 -13t-6.5 -13q-5 -10 -11 -19t-12 -17q-7 -7 -10 -17q3 -1 0 -4l-1 4q-2 -2 -3.5 -3t-0.5 -4q1 1 2 1t2 1q0 -4 -2 -7t0 -7q0 -2 -3 -5l-18 -30q-1 -2 -1.5 -2.5t-1.5 -2.5l-2 -4
t-3 -4q-2 -3 -5 -6l-5 -5q-4 -3 -6.5 -7t-4.5 -8q-6 -8 -10 -11l-12 -13q-2 -2 -3 -3.5t-3 -2.5q-3 -3 -5 1l-25 -23q-8 -8 -17.5 -13.5t-20.5 -7.5q-6 -2 -11.5 -5t-11.5 -5q-2 -2 -4.5 -2.5t-5.5 -2.5q-1 0 -2.5 -0.5t-3.5 0.5q-9 1 -14 0t-12 -6q-13 -7 -28 -7
q-13 -1 -29 2q-10 2 -14 5q-5 3 -10 5.5t-10 4.5q-11 3 -19.5 9t-16.5 11l-4 2t-4 3q2 -5 6 -8q9 -7 11 -14l-2 -1q-16 9 -26 28q-1 3 -1 10q8 0 11 -4h1q1 0 1 0.5t1 0.5q-2 5 -5.5 7.5t-5.5 6.5q-4 9 -11 18q-1 5 -4 14t-7 14q-1 -7 1 -12q4 -8 6 -11q2 -4 2 -7.5t1 -7.5
l5 -9q4 -4 4 -10q-10 0 -14 11q-3 5 -5.5 11l-4.5 11q1 3 1 6t1 7q-3 5 -5.5 10.5t-2.5 11.5q0 4 -1.5 7l-3.5 7q2 7 3.5 14.5t3.5 15.5q2 5 2.5 11t1.5 12q0 2 0.5 4t0.5 4q1 12 3 23.5l4 22.5q2 12 5 24t8 24q0 4 1 6q4 5 4 14q3 2 1 8q4 0 6 6q0 5 3 8q3 5 -1 9
q-3 -2 -4 -5.5t-4 -5.5q-1 5 1.5 9t5.5 8l2 5v-5q7 1 9 9q-2 1 -6 1q1 2 4 5q7 6 7 13q0 12 10 24l3 6q5 8 8.5 16.5t8.5 16.5q7 10 12 21q6 7 10 14t10 14q2 4 4.5 7t2.5 8q2 2 3.5 4.5t3.5 4.5q6 6 7 10q1 2 4 5q12 7 17 17q1 3 4 4q8 7 14.5 15.5t13.5 16.5q1 0 3 5h4
q5 5 11 10t11 10q2 2 3.5 3t-0.5 4q3 4 6.5 7t8.5 3q1 0 1 -1q-2 -2 -5 -4t-5 -4q10 3 18 11q0 2 -2 2l12 11q5 0 10 -0.5t10 -0.5l2 3l1 1q5 0 11 1t11 -1q6 -2 12 -3l12 -2q6 -2 12.5 -3.5t13.5 -3.5q3 0 5 -3q5 -3 2 -8q0 -2 -1 -2.5t1 -2.5q5 5 11.5 8.5t10.5 9.5
q1 1 5 3q5 2 9.5 5.5l9.5 7.5l2 4q-5 3 0 6l7 -3q2 1 3.5 1t3.5 2t2 3.5t1 3.5q3 -2 11 -6l7.5 5.5t8.5 5.5q3 -2 9 -3q2 1 4 1.5t4 2.5l14 -9q4 -2 6 -2t4.5 0.5t4.5 0.5q1 -8 9 -6q2 0 4 0.5t4 0.5q1 0 3 -2l15 -12q5 -5 8 -11q1 -5 2 -11t3 -12q1 -5 0.5 -10t0.5 -10
q2 -8 1 -15t-2 -15zM457 790q0 -3 -0.5 -3.5t-5.5 -2.5q0 3 0.5 3.5t5.5 2.5z" />
    <glyph glyph-name="P" unicode="P" horiz-adv-x="598" 
d="M177 166q-2 8 -1 11t6 11q-2 -5 -2.5 -10t-2.5 -12zM171 208v3h-1q0 -2 1 -3zM184 215v2h2v-2l-1 -1q-1 0 -1 1zM186 217q0 1 1 1zM200 230v-2v-2q0 1 -0.5 1t-0.5 1t1 2zM201 216v10q2 2 2.5 3t2.5 3q2 -7 -5 -16zM210 236q2 4 7 9q1 -5 -1 -8t-4 -8l-6 3v6t3 5
q0 -2 0.5 -3.5t0.5 -3.5zM211 245l-2 -2l1 2v2zM171 277q5 2 4 4q0 3 -0.5 6.5t-0.5 6.5q-1 -5 -3 -8.5t0 -8.5zM238 306v9q8 0 8 -7t-7 -10q0 2 2 8l2 2q-1 1 -1 2l-1 -1v-3h-3zM75 333v1h-3v-2q1 1 3 1zM61 341v2q-4 0 -6 -1v-1h6zM69 347q6 -2 8 2l-2 3q-3 -3 -6 -5z
M35 350h3.5t6.5 -1q-5 3 -6.5 3t-3.5 -2zM48 350h8q-2 2 -4 3.5t-4 -3.5zM141 353h-1v1h1v-1zM94 347q6 0 7 4l-11 3q-3 0 -6 -1t-6 -1v-3q4 -1 7.5 -1t8.5 -1zM264 356q-5 2 -11 -4q3 -2 4.5 -1.5t6.5 5.5zM284 365h-1q-1 0 -1 -0.5t-1 -0.5h2zM109 366q-1 0 -1 -1l1 -1v2z
M117 368v-1h6v1h-6zM219 353q1 5 2.5 10t-0.5 11q0 -7 -4 -11.5t-4 -11.5q2 1 3 1t3 1zM157 363v15q-8 2 -12 -2l3 -7q-2 -1 -4 -1.5t-4 -1.5q-1 -2 -7 -6q-5 -2 -10.5 -3.5t-11.5 -3.5q7 0 10 -1q4 0 3 -3q-8 -2 -15 -5t-14 -8v-1q5 1 9 2t9 1q13 2 19 8q-3 3 -1 4
q2 2 4 -1h18q-3 7 -2.5 8.5t6.5 5.5zM323 382v-1l2 1h-2zM155 384v1h-3q1 0 1.5 -0.5t1.5 -0.5zM275 390h1q0 1 -1 1h-1zM273 405l-8 -3q7 -2 8 3zM211 410l2 -2q1 1 1 4h-2zM289 407q2 2 4 2.5t4 2.5h-4t-4 -5zM298 412q6 0 8 3h-4t-4 -3zM307 415l11.5 2t10.5 6
q-10 -1 -22 -8zM283 427q1 0 1 -1zM276 472v-1q1 -1 2 -1q0 1 -1 1q0 1 -1 1zM383 477l1 1q0 -1 -1 -1zM525 617q3 25 -9 47q-7 16 -17 22l-11.5 6t-12.5 4q-16 2 -32 4.5t-33 0.5q-5 -1 -9 -1.5t-9 -0.5q-17 -2 -29 -7q-5 -2 -9 -2.5t-8 -1.5q-4 3 -1 5t0 5l-8 -4t-8 -5
q-5 -4 -10 -6.5t-10 -6.5q-3 -3 -11 -7q-2 -12 -5 -24.5l-6 -24.5q-1 -4 -0.5 -8t-0.5 -9q0 -2 0.5 -4t-0.5 -4q-2 -7 -2 -13.5v-13.5q-1 -15 0.5 -30t-2.5 -29v-2q2 -6 0.5 -12t-3.5 -11l4 -6q-2 -2 -2.5 -4.5t-2.5 -4.5q-1 -5 -1 -9t-2 -9l-2 -11.5t-3 -12.5q4 -1 7 -2
t7 1q22 5 39 16q6 4 12.5 7.5t14.5 5.5t11 5q2 2 8 4q3 2 6.5 3.5t6.5 3.5q5 2 5 6q-1 0 -1.5 0.5t-1.5 0.5q4 4 9 6.5t7 7.5q4 2 6 5t5 5q4 4 8 6.5t9 4.5t8.5 5t5.5 8l4 4q8 4 13.5 9l11.5 10q18 15 30 28q11 13 19 27q2 3 3 6.5t2 6.5zM597 612q-2 -3 -2.5 -5.5
t-2.5 -4.5q-5 -6 -3 -12q3 -6 -4 -13q-11 -11 -17 -28h10l-12 -19.5t-12 -17.5q-15 -21 -32.5 -39t-39.5 -33q-27 -17 -59 -33q-1 -1 -2 -1q-13 -3 -25 -9.5t-24 -11.5q-2 0 -4 -1q0 2 -0.5 2.5t-0.5 2.5l-7 -3.5t-7 -2.5q-4 -2 -7 -2.5t-6 -2.5q-5 -2 -9.5 -4.5t-10.5 -0.5
q-2 1 -5 0t-6 -1q2 3 2.5 6.5t-1.5 6.5q-11 3 -23 -4l-4 -2t-4 -1q-7 0 -11 -3t-8 -8q-4 -2 0 -5q8 6 17.5 7t17.5 6q2 -4 2 -5q3 1 6 1t6 1q-4 -4 -6 -5q-5 -2 -9 -4t-9 -4q-13 -3 -17 -13l-17 -5q-2 -3 -3 -6.5t-5 -5.5q-5 -3 -7 -11l-9 -34q-2 -7 -4.5 -13.5t-7.5 -13.5
q1 10 3 17t4 15t4 15t3 15q-8 -8 -10.5 -17.5t-8.5 -18.5q1 6 1 11.5t1 12.5q-5 -6 -5 -7q0 -8 -3 -14.5t-5 -13.5q-3 -8 -10 -11q5 9 6 19q1 3 2 5.5t3 5.5q1 4 0.5 7.5t1.5 6.5q2 2 2 3t1 3q6 -2 7.5 -0.5t-0.5 6.5l-1 -1l1 1q-1 2 -2 4.5t1 4.5q2 3 1.5 5.5l-1.5 7.5
q-5 -6 -6 -10q-2 -5 -3.5 -10.5t-2.5 -11.5q-5 -22 -15 -41q-1 -2 -1 -7q0 1 3 -2l-7 -13q1 -3 1.5 -6.5t1.5 -8.5q0 10 3.5 16t8.5 12q2 -2 1.5 -4t-0.5 -4q-5 -8 1 -14q-2 -2 -4.5 -5t-4.5 -5q-3 -4 -4 -8q-8 -13 -11 -26q-4 -13 -6.5 -25.5t-5.5 -25.5q-1 -5 -0.5 -9
t-1.5 -8q-2 -10 -2 -15t-1.5 -9t-2.5 -9q-1 -6 -1.5 -11.5t-4.5 -10.5q-3 -5 -4.5 -11t-3.5 -13q-3 -10 -10 -14q-2 -1 -5 -4q-6 6 -9 17q-2 8 -2 17t2 18q2 8 2 17t1 18l2 30.5t3 30.5q2 21 5.5 41.5t7.5 41.5l6 33t7 32q-3 3 -7 1q-2 -1 -5 -2t-6 1q1 4 7 7l10 3q8 3 2 9
q-2 2 -3 2.5t-2 1.5q-3 -2 -2 -3.5t0 -3.5q-2 -2 -5.5 -2.5t-7.5 -1.5q-8 0 -14.5 -0.5t-14.5 -3.5q-2 -2 -5.5 -2t-5.5 4q4 0 5 3q-4 0 -5 -3q-8 -5 -12 -6.5t-8 -2t-8.5 0.5t-13.5 2q-1 0 -5 2q-5 1 -6.5 4t-6.5 4q-4 1 -7 3.5t-6 4.5q-8 6 -12 10q-1 1 -1.5 2t-2.5 3l6 5
q-2 2 -2 3q2 4 2.5 8t-1.5 8q7 4 13 3.5t11 -1.5q4 0 7 -1.5l7 -3.5l-1.5 -3l-1.5 -3l2 -1q3 -1 5 1t4 2t4 -1.5t4 -0.5q7 0 13.5 0.5t13.5 1.5q10 2 16 2q8 0 12 2q2 2 5 2t5 1l37 9q3 2 3.5 5.5t1.5 6.5l20 86q2 9 5 18t5 18l6 22q5 17 9 32.5l8 32.5l3 14q-5 -3 -9 -5
l-8 -4l-36 -21q-14 -9 -25 -17q-1 -1 -5 -7t-7 -9h-24l-13.5 10l-13.5 10q-2 2 -5 3t-1 6q-1 1 -2 1t-1 1l-6 6q7 7 8 13q0 3 1.5 5.5t3.5 4.5l34 33q19 18 40 32.5t44 27.5q14 8 28 14l28 12q15 6 30.5 11.5t32.5 8.5q5 2 11 2t11 2q6 2 9 4q4 5 12 3q5 -2 9.5 -1.5
t9.5 1.5q3 2 6 1.5t5 -0.5q3 1 5 2t4 1q6 0 12 -1t11 -1q3 -1 6.5 -1t6.5 -1q16 -1 31.5 -5t30.5 -10q8 -4 17 -7t17 -8q5 -2 8 -6t7 -8l3 -3l3 -3q2 -1 4 -0.5t3 -1.5l8 -12t6 -14q2 -1 5 -1t7 -1q0 -2 0.5 -4.5t0.5 -4.5v-9q1 -2 2 -3t2 -3t-1.5 -3.5t1.5 -3.5
q-1 -5 1 -9.5t4 -9.5q2 -6 2 -9q1 -6 1 -12v-11z" />
    <glyph glyph-name="Q" unicode="Q" horiz-adv-x="440" 
d="M98 155v-1h1zM37 223q0 -4 5 -7q0 5 -5 7zM7 283h1v-1zM158 299q1 0 1 1q1 -1 -1 -1zM160 325l-1 1l1 1l1 -1q-1 0 -1 -1zM3 329h2q0 -2 -1 -6q-1 4 -1 6zM3 354h7q-2 -5 -3 -6.5t-7 -4.5q2 4 2 6.5t1 4.5zM23 369v8h-1v-8h1zM164 387l1 1q0 -1 0.5 -1.5t0.5 -1.5
q-1 0 -1 -1q0 1 -0.5 1.5t-0.5 1.5zM26 389v9h-1q-1 -4 -1.5 -7.5t-1.5 -8.5q4 3 4 7zM12 402l1 -1q0 -1 -0.5 -1t-0.5 -1l-1 1q0 1 0.5 1t0.5 1zM243 458h-1q1 0 1 1v-1zM200 459h-2q2 2 2 0zM228 462h-1v1h1v-1zM238 467v-1h-1v1h1zM233 481q0 -6 -0.5 -7.5t-4.5 -5.5
q1 4 1 7.5t1 6.5q2 0 3 -1zM206 482v-5q-2 -4 -3 -5q-3 4 2 11q1 0 1.5 1t1.5 1h2v-2q-1 -1 -4 -1zM237 498q-2 -1 -2 -5q2 1 2 5zM216 503q2 -5 2 -6t-5 -3q0 3 0.5 4zM216 503v1h1zM223 511q-1 -5 -6 -7q2 2 2.5 4t3.5 3zM243 511q-7 -4 -5 -13q5 7 5 13q0 1 0.5 1t0.5 1
t-1 2v-1v-3zM224 519v-2l-2 -2l-2 2l2 2h2zM224 519l1 1zM230 526q-1 -4 -5 -6q1 4 5 6zM50 529v-4q-5 2 0 4zM253 536l3 4q-2 -1 -2 -2t-1 -2zM191 540l1 -1h-1v1zM227 546v-1q-1 0 -1 -1q0 1 0.5 1t0.5 1zM264 553q-6 -4 -8 -12q6 2 8 12zM236 554l1 -1h-1v1zM268 560v1
q-1 -1 -1 -2zM246 565q0 1 5 4v-10q-2 2 -2.5 3t-2.5 3zM244 575v1l2 -2l-1 -1q-1 1 -1 2zM257 602h2q1 -1 1 -2l-4 -4q1 3 1 6zM300 647v-2q0 -1 -2 -1q-1 1 -1 2q2 0 3 1zM289 640h-6q4 5 6 8l4 6q2 0 2.5 -1.5t-0.5 -2.5q-4 -6 -6 -10zM124 664h-2q0 4 2 0zM306 666
q-1 -7 -6 -6q0 1 0.5 1.5t0.5 1.5q2 2 5 3zM314 677q-1 -1 -1 -2q-2 2 1 2zM508 621l15 37q2 5 2 10t-1 12q-6 -9 -6 -16q-1 -6 -3.5 -11.5t-5.5 -10.5q-2 -2 -4 -8q0 -5 -2 -10l-4 -10l-3 -8q1 0 1 -0.5t1 -0.5q1 2 2.5 3t2.5 3q2 2 2.5 4.5t2.5 5.5zM315 678q0 1 0.5 1
t0.5 1l3 3q-1 -1 -1 -1.5t-1 -1.5zM319 683q2 2 3 2v-2h-3zM340 693q-3 0 -5 -5q5 0 5 5zM336 699v1l-1 -1h1zM348 703q-2 -2 -4.5 -3.5t-3.5 -5.5q7 3 8 9zM467 696q2 2 2 3q0 7 -3 10q-2 2 -4 2.5t-4 2.5q-8 -4 -11 -6q-9 -9 -20 -16t-19 -17l-46 -51l-6 -6t-5 -7
q-4 -3 -12 -11q-5 -7 -10.5 -13.5t-10.5 -14.5q-11 -15 -20 -29q-2 -3 -6 -7q-1 -3 -6 -5q-7 0 -12 -9l-6 -13.5t-7 -13.5l-18 -36q1 11 3.5 20.5t5.5 19.5q1 1 1 6q-7 -7 -10 -9q0 -1 1 -1h-1q-2 -2 -2.5 -5t-5.5 -4v6q-4 -6 -6 -10h1q-6 -8 -9 -17.5t-7 -19.5q-2 -4 -2 -8
h1q3 4 5.5 8t5.5 8q3 -2 3 -5q-1 0 -3 -5l-1 -1v-1q0 1 0.5 1t0.5 1l3 5q2 4 3.5 7.5t3.5 7.5l3 3q0 -7 -1 -12q2 0 4 -2q2 -1 1 -2.5t2 -1.5q3 3 4 7t3 8t3.5 7.5t6.5 5.5q1 -5 -3 -11q-5 -10 -8.5 -20l-7.5 -21q-2 -6 -4 -9l-4.5 -7t-0.5 -9q0 -3 -1 -3q-3 -3 -3 -6.5
t-1 -7.5t-1 -7.5t-2 -7.5q-4 -12 -4 -28l2 -8q2 -5 2.5 -9t2.5 -9l6 -14q2 0 3 -1l5 6q7 8 13 16.5t13 16.5l13 15t11 15q1 2 3 4q7 4 11 10t8 11l21.5 28.5l20.5 29.5l30 45l18 30q5 11 11 21.5l12 21.5q13 27 24 54q4 9 6 18.5t5 18.5q4 8 4 19q0 5 0.5 9t1.5 9zM461 778
q-1 -1 -5 -1q3 -5 5 1zM555 740q6 -10 4 -23q-1 -4 -2.5 -8t-0.5 -9q0 -1 -1 -2q-5 -5 -5.5 -11.5t-0.5 -13.5v-1q-6 -15 -9.5 -30.5t-11.5 -30.5q-5 -10 -9.5 -20t-9.5 -20l-3.5 -8.5t-3.5 -7.5q-4 -6 -6 -10q-2 -2 -2.5 -5t-2.5 -5q-3 -3 -3.5 -6.5t-2.5 -6.5
q-1 -3 -3 -5.5t-4 -5.5q-1 -2 -1 -6q0 -3 -2 -5q-4 -7 -8.5 -13l-9.5 -13q3 -8 -7 -15q-3 -3 -5 -9q0 -5 -5 -12q-3 -3 -4 -7q-3 -7 -7 -12.5t-9 -11.5q-2 -2 -3 -4q-5 -10 -12 -18.5l-14 -17.5q-4 -5 -7 -10l-6 -10q-3 -7 -7 -13t-8 -13q-3 -5 -6 -9.5t-4 -9.5l-3 -5
q-11 -10 -18.5 -21.5l-15.5 -23.5q-10 -17 -22 -26q-3 -2 -6 -5.5t-6 -6.5h-1q11 -11 26 -21q13 -10 26 -17q2 0 3 -1t3 -2l19.5 -11.5t19.5 -10.5h1q5 -4 10.5 -6.5t10.5 -5.5t10.5 -5.5t10.5 -4.5q4 -1 2 -5q-1 -2 -1 -3.5t-1 -3.5q-8 -5 -17 -3q-8 2 -15 3t-15 1l-10 2
t-10 3q-3 0 -5.5 0.5t-5.5 1.5q-7 2 -9 6q-1 1 -5 3q-8 3 -14.5 6.5t-14.5 6.5t-11 9q-15 3 -20 14q-3 6 -9 9q-2 2 -5 4t-5 4l-2 -2q2 -1 3.5 -2.5l3.5 -3.5q-5 1 -8 5q-7 -7 -15 -11q-6 -5 -12.5 -8t-14.5 -8l2 8q-4 0 -6 -1l-9 -6q-3 -2 -6 -3.5t-7 -2.5q-8 -1 -14.5 -3
t-14.5 -5t-15 -2q-5 2 -10.5 2.5t-10.5 2.5q-5 1 -9 0.5t-9 1.5q-21 7 -39 21q-2 2 -3 3.5t-3 9.5q2 2 4 0q5 -5 8.5 -9t8.5 -8q11 -10 25 -11q-6 5 -12.5 9.5l-13.5 9.5l-2 2q-8 6 -11 11.5t-3 16.5q-4 2 -5.5 6t-6.5 6q1 -2 2 -4.5t2 -4.5l5 -14h-12q-2 4 -2 7q-1 5 -6 10
q-6 8 -8 12q-2 3 -3 6t-3 7q0 1 2 3q-2 3 -3.5 5.5t0.5 6.5q-2 6 -3 12.5l-2 12.5q0 2 -1.5 3.5t-2.5 3.5q3 5 2 10.5t-3 11.5q-1 -3 -4 -9v16l6 3q0 1 0.5 1.5t0.5 1.5q-3 8 -2 14.5t3 13.5q3 11 4 22.5t3 22.5q2 6 2 12t1 12h-6q-1 3 1 4t4 3q1 4 4 7l-2 1q-1 0 -1 -1
q-2 0 -4 -1q0 9 3 12q3 4 3 10l4 12t7 11l6 10t2 11q-3 2 -2 5l5 8q1 -1 1 -3l1 1l-2 2q2 4 2 5q-2 2 -1 6l2 4l2 4q1 1 3 5h1v1l-1 -1h-3q2 4 3.5 7.5t3.5 7.5t4 7t4 7l12 31q2 2 2 4t2 4q0 4 3 4q5 1 7 7l7.5 13.5t8.5 13.5q3 5 5.5 10.5t4.5 11.5q0 1 2 3v1q2 0 2 2v-2h1
l2 2q6 6 9.5 13t8.5 14q2 2 2.5 4.5t4.5 1.5q1 0 1 1l1 1q2 5 5.5 8t7.5 6q12 11 25.5 20t27.5 17q7 4 14 7t14 7q3 2 6.5 3.5t7.5 3.5q8 -3 18 -4t19 -5l7 -3q6 -3 3 -9q-10 -17 -23 -22t-21.5 -14t-16.5 -20q-8 -9 -14.5 -18.5l-13.5 -19.5l-24 -36q-3 -5 -5 -9t-4 -9
l-24 -52q-8 -16 -12 -31q-4 -11 -7 -23l-6 -23q-2 -8 -4 -15t-4 -15q0 -3 -1 -5q-5 -6 -6 -13t-3 -14v-5q3 -4 1 -13l-6 -48q-3 -20 0 -40q1 -3 1 -9q-1 -11 1.5 -21t5.5 -19q4 -18 22 -33q5 -4 12 0q5 2 10.5 5l10.5 6q5 4 9.5 8t9.5 9q-3 5 -5.5 10.5t-4.5 10.5l-4 2
q-1 5 -1.5 10t-8.5 6q-5 25 -4.5 43t3 30t5 18t2.5 8q1 3 0 6.5t0 6.5q2 5 7 9t7 10q0 2 2 6q1 5 1 9.5t3 9.5q1 2 0.5 3.5t-0.5 3.5q0 4 2 5q2 -2 2 0v1h1v-1h4q2 2 2.5 3.5l2.5 7.5q-2 -2 -3 -2.5t-2 -1.5q-1 1 -1 2q-1 1 -1 5q3 1 3 5q4 0 6 -1q1 2 2 3.5t2 3.5q4 4 4 8
q4 12 10 23t11 23q-2 2 -4 3l9 9q-3 3 -5 4q1 3 5 3q4 -1 5 3q3 3 3.5 7.5t2.5 8.5q2 0 -1 3l9 8q2 2 3 4.5t3 5.5t3.5 5.5t2.5 6.5q1 3 4 5.5t6 6.5q0 1 -1.5 3.5t3.5 3.5v1q0 1 0.5 1t0.5 1l8 8t6 10q1 4 7 6q1 0 3 2q-5 2 -1 4q1 2 2 2t3 2l-4 3q4 6 6 10q1 2 1 3t1 3h1
l-1 2q1 5 5 7q2 1 5 4q-3 2 -1 4q2 3 5 5.5t5 5.5l2 -5h-1v-1l1 1q4 3 6.5 6t4.5 8q2 0 4 1.5t4 3.5q5 6 10.5 11t12.5 10q2 2 2 4t2 4q4 2 9 3.5t3 9.5l7 3q4 2 6 2q1 0 1 -0.5t1 -0.5t2 1h-2h-2q3 3 6 4l6 2q3 -2 6 -0.5t6 2.5l2 -4l10 3q0 2 -0.5 4t-0.5 4q3 2 5.5 0.5
t5.5 -2.5q-2 -3 -0.5 -4t2.5 -3q8 -1 15 7q4 -2 3.5 -4t-0.5 -4q0 -1 2 -1q5 2 10.5 2h10.5q10 0 15 -6q4 -1 9 -6q1 -1 3.5 -0.5t4.5 -0.5v-1q0 -1 1 -1q8 -4 11 -10.5t8 -12.5z" />
    <glyph glyph-name="R" unicode="R" horiz-adv-x="493" 
d="M178 121l13 25q1 -8 -1.5 -14.5l-5.5 -14.5q0 -2 -7 -7q0 2 -0.5 4t-0.5 3t1 1.5t1 2.5zM164 156h1l1 4q-1 -1 -1 -2t-1 -2zM191 168v2h1v-2h-1zM166 161q4 3 1 10q0 -8 -1 -10zM172 177v6h-2v-6h2zM161 185v5q-5 -4 -7 -10t-9 -7q0 -8 -1 -15.5t-4 -14.5v-4
q0 -11 -1 -21.5l-2 -20.5q0 -7 4 -8q-1 4 0 7t-1 8q1 5 0.5 9t0.5 9q1 8 2.5 15.5t3.5 15.5l2 6q6 5 7.5 11.5t4.5 14.5zM176 198h1v4q0 -3 -1 -4zM186 185q2 5 3 11.5t7 11.5q0 -14 -10 -40q-4 8 0 17zM181 207q1 2 1 6q-1 -2 -1.5 -2.5t0.5 -3.5zM173 221q0 1 1 1h1h-1
q-1 0 -1 1v-1v-1zM178 233l1 1q-1 -1 -2 -1l-1 -1v-3l1 1v3h1zM180 241v1l-1 2v-3h1zM211 262q8 2 4 -2q-6 -12 -6 -21q0 -4 -5 -8q-2 10 1.5 17t5.5 14zM198 282v6q-2 0 -2 -4q-4 -13 -9 -22q-2 -2 -1.5 -4t0.5 -5q4 7 6 12.5l4 11.5q2 0 2 5zM200 297h1v4h-1v-4zM622 224
q11 2 14.5 1t10.5 -6v-12q0 -3 -0.5 -5.5t-0.5 -6.5q-5 -6 -9.5 -12.5t-10.5 -11.5q-2 -1 -5 -4q-14 -21 -41 -34q-8 -3 -13.5 -6t-12.5 -5q-4 -2 -7.5 -2.5t-6.5 -1.5q-8 0 -16 -5q-5 -1 -10.5 -2.5t-11.5 -1.5q-1 0 -7 -2q-5 0 -8.5 -0.5t-8.5 0.5q-3 1 -6.5 0.5
t-5.5 -0.5q-3 1 -4.5 2t-6.5 -1q-1 -2 -6 -2q-9 5 -20 7t-22 7q-12 5 -24 12l-23 14l-39 25q-5 5 -12 9t-12 9q-6 5 -11.5 10.5l-10.5 10.5l-32 31q-2 3 -5.5 6.5t-5.5 7.5q-7 13 -11.5 26.5t-8.5 27.5q-2 -3 -3.5 -6.5t-1.5 -7.5q-1 -3 -3 -6.5t-2 -7.5q-1 -9 -4 -18.5
t-7 -17.5q-2 -8 -4.5 -15.5t-4.5 -15.5q2 -3 2 -9q-3 -11 -6 -18q-2 -10 -3 -19t-3 -18q-2 -11 -3.5 -21t-5.5 -21q-2 -5 -2 -10.5t-2 -12.5q-2 -9 -2.5 -17.5t-2.5 -19.5l-2 -3q-2 -3 -3.5 -6.5t-2.5 -5.5q-5 1 -4 4t-2 4q-2 0 -2 -1q0 -2 -1 -3t1 -3q-1 -5 -3 -8.5
t-4 -7.5t-4 -8.5t-6 -9.5q-3 -5 -8 -9t-10 -9q-4 4 -4 7q-1 5 -3.5 9.5t-4.5 9.5q-5 15 -9 30.5t-3 31.5q1 9 0 18t-2 17v9.5t2 9.5q1 5 2 11t1 13q4 29 9 56.5t11 54.5l9.5 39t8.5 38q3 14 4.5 27.5t4.5 27.5q3 16 6.5 31t7.5 30q1 7 1.5 13.5t2.5 12.5q0 6 1 12t2 13
q5 23 11.5 44t11.5 44q2 8 5 16.5t5 16.5l3.5 9t1.5 9q1 5 1 15q4 4 10 5.5t11 3.5q2 0 4.5 -0.5t4.5 -0.5q14 -5 26.5 -11.5t22.5 -17.5q12 -14 12 -30q1 -14 1 -27.5v-27.5q0 -9 -1 -18.5t-3 -18.5q-1 -3 -1 -10q0 -12 -5 -21q-2 -7 -3 -13t-3 -12q-4 -11 -6.5 -19.5
t-6.5 -18.5q46 16 85 45q13 9 26 20l13 12.5t11 11.5q11 11 19 23t16 26q2 5 5 10.5t5 10.5q10 19 0 45q-1 9 -7 16q-6 12 -15 20.5t-20 15.5q-11 4 -20 9t-19 10q-5 3 -10 4.5t-10 2.5q-15 5 -33 7q-6 3 -12 3h-13h-35h-4q-8 -2 -14.5 -3t-14.5 -2q-10 -2 -18.5 -5.5
t-16.5 -7.5l-7.5 -2.5t-8.5 -3.5q-8 -3 -15 -6.5t-15 -5.5q-2 -2 -3.5 -4t-3.5 -4q-3 -2 -5.5 -5t-5.5 -3q-8 -3 -13 -8l-10 -10q-6 -6 -7 -10q-5 -11 -14 -12q-8 -5 -12.5 -10t-4.5 -13q-5 -7 -5 -13t-3 -11q2 -12 13 -12q3 1 4 0t6 -5q0 -2 -1 -2q-5 -4 -9 -6t-9 -5
q-3 1 -5.5 2.5t-4.5 0.5q-8 -3 -16 0t-14 11q-1 0 -1.5 0.5t-1.5 0.5q-5 8 -5.5 15t-2.5 16q-2 6 1 13q4 14 10 28.5t17 28.5l16.5 18t18.5 17q12 8 24 14.5l25 13.5l16 8l16 8q36 18 75 24q8 1 14.5 1.5t14.5 2.5q6 -2 12 -0.5t13 0.5q9 -2 18.5 -2t19.5 -1q11 -2 21.5 -3
t20.5 -6q10 0 18 -4.5t16 -8.5l17 -7.5t15 -8.5q9 -6 17.5 -12.5t17.5 -14.5l8 -7q5 -5 9 -10t9 -10t8 -10.5t8 -10.5q2 -2 4 -6q18 -27 31 -57q5 -12 7.5 -23.5t2.5 -23.5l-3 -25q-2 -11 -5 -21.5t-5 -19.5q-1 -5 -4 -10t-5 -10q-8 -11 -15.5 -23t-16.5 -23q0 -1 -3 -3.5
l-6.5 -5.5l-7 -6t-4.5 -3l-16.5 -10t-15.5 -12q-2 -3 -4.5 -4.5t-4.5 -3.5q-11 -4 -17 -13q-5 0 -9 -1q-4 -2 -7 -5.5t-8 -3.5q-6 -4 -13 -8t-14 -7q-4 -1 -9 -6q-5 0 -9 -2.5t-9 -3.5l-17 -6q-3 -1 -5.5 -2t-5.5 -2q0 -4 2 -5.5t4 -3.5q13 -12 26 -22l27 -20q4 -4 9 -5
q14 -8 28.5 -15.5l30.5 -15.5h1q14 -5 26.5 -10t26.5 -10q8 -2 16.5 -4.5t17.5 -2.5q8 -1 15.5 -1t14.5 -2h24.5t23.5 4q8 2 14 6.5t11 9.5l6 5q1 5 2.5 9t3.5 7z" />
    <glyph glyph-name="S" unicode="S" horiz-adv-x="564" 
d="M401 149v-1q-1 0 -3 -2l2 3h1zM402 150q0 -1 -1 -1q0 1 1 1zM69 225v-2q-1 0 -2 1q1 0 2 1zM71 225h-2l2 2v-2zM229 356v-2q-1 1 0 2zM272 385q1 2 4 2v-2h-4zM279 390q-2 -2 -2 -3h-1zM281 390h-2q1 1 2 0zM357 401q-5 0 -4 -4l3 2q1 1 1 2zM364 406q-4 1 -6 -4
q6 -1 6 4zM341 420h-1v-1h2zM391 441q-4 1 -4 -1q2 0 4 1zM429 447l-2 -2q2 0 2 2zM440 453l-5 -2.5t-5 -3.5q4 1 7.5 2t7.5 4h-5zM452 454l5 3q-4 0 -5 -3zM483 452q1 2 0.5 3.5t0.5 3.5q-2 -1 -3 -1t-3 -1q-14 -5 -27 -10.5l-27 -11.5q-5 -2 -10 -3.5t-9 -6.5h-3
q-8 -4 -15 -7t-15 -7q-2 -1 -4 -1.5t-3 -3.5q4 0 4 -3q-6 -7 -18 -14q-5 -2 -8 -5q-3 -5 -7 -7.5l-9 -5.5l-17 -11q-4 -2 -4 -4q-3 -6 -7 -9.5t-9 -6.5l-22 -15.5l-22 -15.5q-4 -2 -10 -8q-3 -5 -7 -7.5t-8 -5.5l-30 -24q-7 -5 -13.5 -11t-13.5 -11q-17 -13 -32 -26.5
t-28 -30.5q-8 -10 -15 -20.5t-12 -21.5q-7 -16 -4 -29l6 -32q2 -6 3.5 -11t6.5 -10q5 -4 8 -8t8 -8q14 -13 34 -8q4 2 14 2q3 1 6 1t5 1q5 3 9.5 4t9.5 3l8 3q10 4 18.5 9.5t17.5 10.5q2 1 4 3q5 5 10.5 9l10.5 8q8 6 14 10q4 2 6 5.5t6 5.5q3 2 5.5 5.5t5.5 6.5q2 3 8 9
q11 11 21 22.5l20 22.5q5 5 11 13q3 4 5.5 7t6.5 6q2 2 3.5 4.5t3.5 4.5l7.5 13.5t6.5 13.5q2 2 2.5 4t2.5 4l29 45q2 3 3 6t3 6q2 5 4 9.5t4 9.5q5 11 11 21.5t11 21.5q3 7 6.5 13.5t5.5 14.5q3 7 5 14l4 14q2 8 5 15t5 14zM461 458l8 5q-6 0 -8 -5zM470 464q10 -3 18 6
q-5 -2 -9.5 -2.5t-8.5 -3.5zM461 470h-1v-1h1v1zM631 776q1 -14 -1 -27l-4 -27q-1 -8 -3.5 -15.5t-4.5 -15.5q-3 -10 -7 -19.5t-9 -18.5q-4 -8 -9.5 -11.5t-12.5 -5.5q-5 -2 -11 2l-18 15l-2 4q1 8 4 14.5t5 13.5q4 13 7.5 25.5t6.5 26.5q5 17 5 32q-1 14 -4 26t-11 23
q-12 17 -33 20q-12 2 -22.5 -0.5t-21.5 -6.5q-15 -5 -28 -13.5l-26 -17.5q-10 -7 -19 -15t-17 -19q-1 -1 -1.5 -2t-2.5 -2q-8 -8 -13 -16.5t-12 -17.5l-20 -27q-8 -11 -14.5 -22l-13.5 -22l-13.5 -22l-13.5 -23q-18 -32 -27 -69q2 0 3 -0.5t3 -0.5q4 1 8 1.5t8 2.5
q21 6 42.5 9.5t42.5 7.5l23 4t23 3q20 2 39.5 1.5t39.5 -5.5q11 -3 21.5 -6.5l21.5 -7.5l6 -4l3.5 -3.5l3.5 -3.5q10 -5 15 -14.5t9 -20.5q1 -2 1 -6q-1 -6 -1.5 -12.5t-0.5 -13.5q0 -5 -1.5 -10t-2.5 -10l-5.5 -20.5t-7.5 -19.5l-9 -18q-3 -5 -5.5 -11t-4.5 -12
q-5 -15 -12.5 -29l-15.5 -28l-8 -15q-2 -4 -5 -7.5t-5 -7.5l-3 -3q-5 -12 -13 -23t-14 -22l-3 -6q-2 -3 -4 -5.5t-4 -5.5q-6 -8 -12.5 -15t-11.5 -16q-5 -8 -10 -15t-10 -15q-2 -1 -4.5 -0.5t-4.5 -2.5q-2 -2 -2.5 -4.5t-2.5 -5.5q1 0 1.5 -0.5t2.5 -0.5q-2 -1 -3.5 -2
t-3.5 -2q-1 -1 -2 -1.5t-2 -2.5q-4 -8 -10.5 -13t-12.5 -11l-36 -30q-6 -6 -12.5 -11l-13.5 -10q-5 -5 -11 -8.5t-11 -7.5q-2 -2 -3.5 -2t-3.5 -2q-4 -2 -4 -3q-1 -2 -2.5 -2.5t-3.5 -2.5t-5.5 -3t-4.5 -5q4 1 7.5 2t8.5 2q-5 -5 -9 -6q-8 -5 -18 -8t-19 -6q-6 -1 -8 -5
q-3 -3 -5 -3q-11 -1 -20 -4.5t-19 -6.5q-2 -1 -7 -1q-3 0 -4 -1q-5 -4 -11 -3t-12 1q-5 0 -8 1q-15 1 -30 3.5t-29 9.5q-5 2 -9.5 3.5t-9.5 3.5v5q-5 2 -8.5 0t-8.5 0l-4.5 6.5t-0.5 8.5q-5 3 -7.5 7t-8.5 4q-2 8 -4 11q-11 20 -9 41q1 9 2.5 17.5t6.5 16.5q2 2 1 5
q-2 5 0.5 8.5t3.5 8.5q2 5 5.5 9.5t5.5 9.5q-2 2 -2 4q16 27 39 51q2 -2 4 -3l3 3q1 1 1 1.5t1 1.5q2 2 0 2q4 7 6 9l6 7l1 2q5 3 9 7t9 7q8 5 14 13q2 4 4.5 7.5t6.5 5.5q6 2 8 2l-2 4q5 2 12 9l4.5 4.5t6.5 2.5q5 4 9.5 7t9.5 7q13 11 25 18q3 2 5.5 3.5t5.5 3.5q6 4 18 8
q1 1 0 2q8 7 19 14q5 4 10.5 7.5l10.5 6.5l2 1q0 -1 -2 -5q5 0 7 5q3 0 3.5 1.5t1.5 3.5l11.5 7.5t11.5 6.5q12 8 24.5 15.5t26.5 12.5l7 -1q2 2 4 3q11 8 28 15q14 5 26.5 10t26.5 10l11.5 4t11.5 3v-1v-2q1 0 2 1h1l-1 1h-2q2 2 4 2q5 0 9 2t9 3l4 16.5t-1 16.5
q-5 1 -10.5 1.5t-10.5 -0.5l-36.5 -6t-36.5 -8l-18 -4l-18 -4l-23 -6q-14 -4 -28 -6.5t-28 -4.5h-22t-22 5q-2 2 -5 2.5t-5 2.5q-4 2 -7.5 4t-7.5 4q-7 4 -12.5 8.5t-9.5 12.5q-2 2 -2 4q-8 12 -3 21q1 2 1 7q0 4 1 6l6 17q1 5 3.5 8.5t4.5 7.5q6 8 11.5 16.5l10.5 16.5
l12 21.5t13 21.5q12 21 26 40.5l29 39.5v1q11 10 19.5 21t19.5 21q4 5 9.5 9t8.5 11l11 8.5t12 8.5q7 5 14.5 9t15.5 7q5 2 10 4.5t10 7.5q8 4 15.5 7t16.5 5l24 4t25 2h2l13.5 -2t13.5 0q2 0 3 -1q5 -3 11.5 -4.5t12.5 -3.5q14 -5 28 -19q7 -7 12 -15l10 -16q0 -1 0.5 -1.5
t0.5 -1.5q2 -7 3.5 -14t1.5 -15z" />
    <glyph glyph-name="T" unicode="T" horiz-adv-x="398" 
d="M235 181l-1 -1l-1 1q1 0 1 0.5t1 0.5v-1zM241 208v5q-2 -3 0 -5zM257 235q-1 0 -1 1q1 -1 2 -1q-1 -1 -1 0zM260 241v-1l-1 1q-1 1 -1 2h2v-2zM312 331l1 1v-1h-1zM545 700v1h-1q0 -1 1 -1zM753 762q-1 0 -1 1q1 0 1 -1zM752 764v-1h-1zM765 764v1h2h1q-1 -1 -3 -1z
M759 764h-1v1zM894 813h4l-1 -2q-8 -2 -15.5 -4.5t-15.5 -4.5q-7 -2 -13.5 -3.5t-12.5 -6.5l-9 -3.5l-9 -3.5q-3 -1 -5.5 -1.5t-4.5 -2.5q0 -1 -4 -1q-9 -1 -17.5 -3l-17.5 -4q-4 -2 -8 -2t-8 -1l-13.5 -2t-12.5 -3q4 -3 10 -1q5 4 10 -1q-5 -1 -10 -2.5t-11 -2.5
q-10 -2 -19.5 -3.5t-18.5 -3.5q-12 -2 -20 -7q-7 -4 -14 -6.5l-15 -5.5l-16 -6t-16 -5l-10.5 -2t-10.5 -3q-10 -4 -19.5 -7t-20.5 -6q1 -4 4 -3.5t5 -1.5l-1 -1q-7 -3 -13 -5t-13 -5q-11 -5 -23 -9.5t-24 -9.5q-3 -2 -11 -6l-4 -16q-2 -8 -4.5 -14.5t-4.5 -13.5l-3 -8
q-1 -5 -2.5 -9l-3.5 -9l-6 -16q-4 -8 -6.5 -15t-5.5 -14q-3 -6 -5.5 -12t-6.5 -11l-12 -25q-7 -16 -20 -32q-5 -7 -9.5 -14l-9.5 -15q0 -1 -0.5 -1.5t-0.5 -1.5q-2 -11 -7.5 -20.5t-11.5 -18.5l-12 -18t-11 -19q-2 -5 -5.5 -8.5t-5.5 -8.5q-5 -5 -5 -11q-2 -1 -5 -6
q-3 -7 -7 -12.5t-6 -13.5q-2 -5 -5 -7q-4 -2 -5 -5t-3 -7l-18 -34q-2 -2 -3 -2v1q-1 1 -1 2q0 -2 -0.5 -2.5t-0.5 -1.5q-3 -1 -3 -7q-4 -2 -6 -10q-2 -5 -3.5 -9.5t-4.5 -9.5q-2 -4 -5 -7t-1 -8q0 -1 -1 -1.5t-1 -1.5q-5 -4 -5 -12v-3q-2 -3 -2 -9t-5 -9q-5 -5 -6 -11
t-4 -12q2 -4 0 -7t-3 -6q0 -4 -1.5 -7t-2.5 -7q-2 -3 -2 -6.5t-3 -6.5q-5 -12 -21 -17h-3q0 2 -0.5 5t0.5 5q4 7 4.5 14t0.5 15v2q5 7 4 13.5t0 13.5q2 14 6 24q5 13 7.5 26t5.5 27q1 3 1.5 6.5t2.5 6.5q2 7 4.5 13.5t4.5 14.5q0 2 1 3q4 8 6 15t5 15q4 8 7.5 17.5l6.5 17.5
q8 18 14.5 35.5l12.5 34.5l12 32.5t12 29.5l9 21q2 6 4.5 11.5t3.5 11.5q0 1 2 5q11 23 20 47t20 47l6 13.5t5 12.5t2 7q-1 0 -1.5 0.5t-1.5 0.5q-6 -2 -12.5 -3t-12.5 -4q-4 -2 -6 -2q-7 0 -12.5 -2.5t-11.5 -3.5q-1 0 -1.5 -0.5t-1.5 -0.5q-2 -2 -4 -3t-5 -2
q-2 -1 -5 -0.5t-5 0.5q-2 -1 -4 -1t-4 -2q-6 -3 -12.5 -5.5t-12.5 -4.5q-16 -5 -31.5 -10.5t-32.5 -9.5q-17 -5 -34 -9.5t-34 -10.5q-9 -4 -21 -4q-6 -2 -12 -1t-13 1h-5q-10 3 -19.5 5.5t-18.5 5.5q-4 2 -13 11t-11 13t-1 5q1 3 -3 9q-5 6 -2 15q5 0 8.5 2t8.5 1
q2 -1 4.5 0t4.5 2q20 10 40 17t40 15t39.5 14t39.5 11l59 15l87 21q14 3 28 6.5t28 6.5l16 3q5 9 8.5 18t7.5 18l16 35q2 4 4 10t7 4q29 -8 43 -30q3 -3 2 -9v-21q5 -2 15 0q7 2 13.5 2.5t14.5 1.5l10.5 2l10.5 2q20 2 39 5l39 6q13 2 26 3.5t27 4.5q12 2 24 3t24 3t23.5 3
l23.5 2l21.5 2t21.5 1h6.5t6.5 1q6 2 12.5 2.5t12.5 0.5q8 1 15.5 1.5t15.5 2.5z" />
    <glyph glyph-name="U" unicode="U" horiz-adv-x="380" 
d="M305 273l-8 -14q-3 6 5 15h1q1 0 1 -0.5t1 -0.5zM306 299h2h-2zM309 300v-1h-1zM309 302v-1l-1 1h1zM434 658v1h-1zM434 665l3 2q0 -2 -2 -2h-1zM437 667l1 1q0 -1 -1 -1zM463 703q0 2 0.5 2.5t0.5 1.5h2q-2 -2 -3 -4zM463 707v1h1v-1h-1zM460 706q-1 4 3 6v-4
q-1 -1 -1.5 -1t-1.5 -1zM468 736q4 1 3 5q-3 -3 -3 -5zM525 843q5 -12 2 -23l-3 -6q-7 -10 -9 -18q0 -3 -1 -4q-5 -6 -8 -13t-8 -13q-7 -7 -10 -14q-1 -2 -2.5 -2.5t-2.5 -2.5l-6 -10l-6 -10q0 -2 -0.5 -2.5t-0.5 -2.5q1 -6 -4 -14q0 4 -2 4q2 6 2.5 11.5t1.5 11.5l-8 -13.5
t-6 -14.5q-5 -11 -15 -26q-2 -3 -3 -7t-3 -8l1 -1l3 -3q4 -5 10 -2l4 3l4 4q-2 -3 -2 -4.5t-1 -3.5q-6 -8 -11.5 -17l-11.5 -18q-2 -3 -3.5 -6t-2.5 -6q-3 -8 -7 -15t-6 -15q0 -2 -1.5 -2.5t-2.5 -2.5q-2 -2 -3 -4t0 -5v-2q-5 -8 -8.5 -15.5t-8.5 -15.5q-14 -22 -20 -45
q-2 -11 -5 -20.5t-5 -20.5q-1 -2 -2 -5l-2 -6q-5 -15 -9.5 -30t-9.5 -30v-1q-5 -9 -7 -18.5t-5 -19.5q0 -3 -2 -7q-1 -2 -2.5 -4t-2.5 -4t-0.5 -4t-0.5 -4l-3 -8q-1 -2 -1 -3t-1 -3q0 -2 -2 -2v-1q-1 -2 -4 -5q-3 -5 -4 -6q-7 -2 -5 -8q1 -5 -0.5 -9l-3.5 -9q1 -4 2 -7.5
t-1 -7.5q0 -1 0.5 -2t0.5 -3q2 -8 -1 -15q-4 -8 1 -13q0 -3 0.5 -6.5t-0.5 -7.5q0 -8 1 -12q1 -2 1 -4q1 -5 0.5 -10t1.5 -10q1 -5 2.5 -9t3.5 -8q2 -5 5 -9.5t5 -9.5q2 -2 3.5 -4.5t3.5 -5.5q4 -4 4 -7q1 -5 3.5 -8t5.5 -7q1 -1 1.5 -2.5t1.5 -3.5q0 -1 -0.5 -1.5
t-0.5 -1.5l-2 -6q-6 2 -11 5.5t-10 6.5l-13 9.5l-13 9.5q-9 6 -15 16q-2 2 -2.5 3t-2.5 2q-6 3 -9 12l2 3q0 3 -2.5 3t-4.5 2l-2 4t0 5t0 5.5t-2 4.5q-4 8 -4.5 15.5t-1.5 15.5q0 7 -1 10q0 5 -1 8.5t0 8.5q1 2 0.5 3.5t-0.5 4.5q-5 -4 -8 -8l-15 -27q-2 -2 -2.5 -3t-2.5 -3
l-16.5 -16t-17.5 -15q-3 -2 -7 -3.5l-9 -3.5l-14 -6q-1 0 -1 -0.5t-1 -0.5q-11 -2 -22.5 -4.5t-23.5 -0.5q-26 5 -49 16q-18 8 -28 24q-2 4 -5 7t-5 6q-5 7 -4 11q2 7 -2 15q-6 16 -5 30q1 6 1 12v12q2 23 5 45.5t9 44.5q2 5 1.5 8.5t1.5 7.5t2.5 7.5t2.5 7.5q2 5 2.5 11
t2.5 11q5 10 6 18q0 2 1 3t2 3l7 16l9 21q2 7 5.5 13.5t5.5 12.5l12 30q2 5 4 11t5 11q4 5 6 11t5 11l20 39l21 38q19 32 43 62q4 5 7.5 10.5l6.5 10.5l3 3q8 6 13 2q6 -5 12.5 -6.5t12.5 -5.5q2 -2 4 -1.5t4 -1.5q18 -9 21 -29q1 -4 -1 -8q-11 -35 -28 -64q-4 -8 -5 -11
q-3 -5 -5.5 -10t-4.5 -10q-3 -3 -4 -7q-4 -10 -7 -20t-8 -21q-5 -12 -9.5 -25t-11.5 -25q-1 -9 -5 -16.5t-6 -16.5q-2 -8 -6 -15.5t-6 -15.5q-3 -9 -5.5 -18.5t-5.5 -18.5l-9 -31q-4 -13 -6.5 -25t-4.5 -25q-2 -10 -3 -19.5t-3 -19.5l-2 -10.5t0 -12.5q3 2 6 5q5 8 10 14.5
l10 13.5l30 47q10 15 18.5 29.5l17.5 29.5q8 14 16.5 26.5t16.5 25.5l20 33l19.5 31l20.5 31l10.5 18.5t11.5 18.5l11.5 19.5t11.5 18.5q7 11 14 20.5t14 20.5l17.5 26l17.5 26l46 67l9 13t8 14q3 6 7.5 11.5l8.5 10.5q4 4 7.5 8t5.5 9q1 3 3.5 5.5l4.5 4.5q6 -2 9 -5.5
t5 -8.5z" />
    <glyph glyph-name="V" unicode="V" horiz-adv-x="272" 
d="M354 774l7 6v2l-7 -1q-1 -1 -1.5 -2t-1.5 -2q-1 -3 -5 -5q4 -2 5.5 -0.5zM378 784h3l2 4q0 1 -1 2q-2 -1 -4.5 -1t-4.5 -1q-4 -2 -3 -5q6 0 8 1zM391 793q9 -3 15 -2q-5 2 -15 2zM461 765q0 -2 2 -10q-2 -3 -2.5 -6t-2.5 -7q-2 -5 -8 -2l-4 4q-4 3 -11 1q-4 -2 -8 -3
t-9 -3q-23 -7 -41 -31q-3 -5 -7.5 -9.5l-9.5 -9.5l-4 -4q-5 -10 -12 -18.5t-12 -18.5q-4 -6 -7 -12t-8 -11q0 -1 -1 -1.5t-1 -1.5q-1 -5 -3.5 -8t-4.5 -7q-2 -6 -7 -12q-3 -9 -7 -17.5t-9 -17.5q-2 -5 -4 -9t-4 -9q-6 -11 -11 -22l-3 -7q-8 -18 -12 -32l-3.5 -8.5t-3.5 -7.5
q-1 -5 -2.5 -9t-1.5 -9q0 -1 -1 -2q-4 -5 -5.5 -11t-3.5 -12l-6 -19v-2q-1 -11 -8 -24q-2 -2 -4 -8q-2 -2 -2 -6q-2 -8 -5.5 -16.5t-5.5 -17.5q-2 -3 -2.5 -6.5t-1.5 -6.5q0 -2 1 -2q1 -3 0 -5l-3 -11q-1 -4 -1.5 -6.5t-0.5 -4.5q2 -9 -3 -15q-2 -5 -2 -9.5t-2 -9.5l1 -7
q0 -9 -1 -17t-6 -16q3 -7 0 -13q-5 -8 -5 -17t-2 -18q0 -2 1 -3q2 -8 -3 -13q-1 -2 -1 -5q0 -5 -1 -7q-2 -3 -3 -6t-3 -8q-2 -6 -7 -9q-3 -3 -6.5 -6t-8.5 -2q0 -1 -1 -2q0 -2 -5 -2q-5 -1 -6.5 -1.5t-4.5 -3.5q-3 0 -5.5 1t-4.5 1q-10 2 -12 8q0 1 -2 3q-2 -2 -1 -3
q0 -5 -4 -8q0 -2 -4 -2q-1 0 -2 1t-1 -1q-2 -1 -2.5 -2t-2.5 1q-3 1 -5.5 1.5t-4.5 4.5q-1 2 -3 4q0 10 -3 19q-2 3 -2 7q0 3 -0.5 6.5t-0.5 6.5q0 14 -2.5 28t-5.5 28q-2 5 -2 11.5t-1 12.5q-2 11 -3.5 21t-3.5 21l-6 56v2q-3 2 -2 5.5t-1 7.5v6.5t-1 7.5t-1 14q0 3 -1 4
l-2 10l-2 10v9.5t-1 9.5q-1 7 0 14q0 6 -1 9q0 9 -1 17.5t-1 16.5v35q0 8 -0.5 16.5t-0.5 16.5v13.5t1 14.5v3q-4 4 -1.5 8.5t1.5 8.5q-1 1 -2.5 1t-1.5 1q-2 1 0 3q2 15 0 29q0 4 -0.5 7t0.5 6v13v13q0 2 0.5 5.5t-0.5 5.5v3v28v13t-1 13q4 2 7.5 3t5.5 5q9 2 12 4h4
q3 -2 5.5 -4t5.5 -5q2 -2 5.5 -3t6.5 -3q8 -2 14 -6t13 -7q5 -2 7.5 -6.5t4.5 -9.5q1 -5 1 -15q-2 -5 -1 -10t-1 -10q-1 -5 -1.5 -9t1.5 -9q0 -6 -1 -10q-2 -13 -2 -19.5t2 -22.5q0 -2 -0.5 -4t-0.5 -4q0 -5 -1 -8.5t1 -7.5q1 -3 0.5 -5t-0.5 -4v-24q0 -2 0.5 -2.5t0.5 -2.5
q-3 -11 -3 -22.5t2 -22.5q1 -6 0.5 -11.5t-0.5 -10.5q0 -8 0.5 -14.5t1.5 -13.5q1 -9 1.5 -18t0.5 -18v-4q3 -7 3.5 -15t2.5 -16q0 -2 1 -4q2 1 1.5 2t1.5 2q2 2 2 4l4 12.5t4 11.5q5 11 8 21.5l6 21.5l8 22l8 23q5 14 11 24q2 3 2.5 6.5t2.5 5.5q1 3 3 5.5t1 6.5l6 12.5
t7 12.5q2 2 2 5t2 5t2.5 5t2.5 6q2 2 2.5 4t2.5 4q2 0 2 2t2 4q1 0 -1 4q4 4 7.5 7t1.5 9q1 2 4 5l6.5 6.5t1.5 9.5q0 3 2.5 5.5t4.5 5.5q4 3 2 8q8 3 10 13q0 5 4 9q2 2 2.5 5t5.5 5q1 1 1 2q0 7 8 15l4 2q0 4 4 4q3 5 6 9t7 8q1 2 1 5q-2 4 1 7q2 1 2 3t1 4q1 1 6 3
q0 -2 1 -2q6 0 7 6q-2 0 -6 -2q0 5 3 8t7 6t6 8q2 4 6 -2q5 5 6 7q-4 0 -5 -1l-1 2q5 7 10 11t11 7q2 2 3.5 2.5t3.5 1.5q2 2 2 4q0 4 4 2q1 0 1.5 -0.5t1.5 -0.5q5 -1 5 7q1 1 2.5 -0.5t2.5 0.5q8 2 16.5 1.5t16.5 -1.5h3q2 2 4 3t4 3q9 -2 16 -5.5t14 -8.5q4 -2 4 -3
q1 -4 3.5 -5.5t4.5 -3.5q-1 -5 -1 -7t2 -8z" />
    <glyph glyph-name="W" unicode="W" horiz-adv-x="526" 
d="M388 122q0 3 2 1v-2h-1zM290 144q0 1 1 2q-3 0 -1 -2zM292 152l1 2q0 1 -1 1q-2 0 -2 -2v-1q0 -2 2 0zM304 172q-2 -2 -2 -4zM226 172q0 -1 -2 -5q-1 0 -2 -1v1v6q0 2 3 2q2 -2 1 -3zM413 186l1 -1l1 2q0 1 -1 1q0 -1 -1 -2zM439 188v1q0 6 5 9q0 -5 -1 -8q-2 -2 -4 -2z
M445 202l1 -1v-1l-2 -2v3zM222 195q-1 2 -0.5 3t0.5 3q0 1 1 1t1 1l2 -1q3 -5 -2 -8h-1q-1 0 -1 1zM449 216h-1q0 3 2 1l1 -1q-1 -1 -2 0zM454 228q0 -1 1 -1l-1 -2q-1 0 -1 1v1q0 1 1 1zM280 229v1h-1l-1 -1l1 -1q1 0 1 1zM222 234l2 3q2 0 2 -2t-1 -2q-3 -3 -3 1zM252 212
v28l-1 1l-1 -1v-16v-6.5t-2 -7.5q-3 -5 0 -11q2 4 3 6.5t1 6.5zM461 245q1 0 0 -3q0 -2 -1 -4q0 -2 -1 -2q-3 0 -3 3q0 1 1 1q0 2 2 4q0 3 2 1zM288 244h2q2 2 1 5q0 1 -1 1q-2 -2 -2 -6zM253 248q2 2 -1 5q-1 0 -2 -1v-3l1 -2zM432 253v4q-1 0 -3 -2q0 -2 -2 -4
q0 -5 -4 -13q-2 -4 -2 -6l-4 -3q-1 -2 -2 -5t-1 -6h-1l1 -1q0 -2 2 0q6 6 5 11v4q5 0 6 3q1 2 2 4.5t1 4.5q-1 4 2 9zM225 257v1q2 0 2 -1v-7v-7l-1 -1l-1 1q-1 4 -0.5 7t0.5 7zM433 257q2 1 2 6q0 1 -2 1q-2 -1 -2 -3t2 -4zM227 268l-1 -1q-1 0 -1 2q1 0 1 1q1 -1 1 -2z
M229 285v-1q-3 0 -1 2l1 1v-2zM228 293q-2 2 1 2v-1v-2zM444 288q6 3 5 8q-5 -1 -5 -8q-2 -2 -3 -3.5t-3 -3.5q-4 -4 -2 -9v-2q2 0 2 1q1 4 4 8q2 3 2 9zM483 300h2q3 0 0 -3q-2 -1 -2.5 -2t-2.5 -1q0 1 -1 1v1q1 1 1.5 2t2.5 2zM451 298l1 1l-1 1q-1 1 -1 -1l-1 -2z
M233 310v-3q0 -3 -2 -3l-1 2v4l1 1h1q0 -1 1 -1zM490 318h1h1l1 -1q-2 -3 -2.5 -5.5t-2.5 -4.5q0 -2 -2 0q-1 0 -1 1l-1 1zM54 320l1 1q0 2 -1 2h-1q0 -2 1 -3zM299 331q-1 -1 -1 -2q0 -2 0.5 -2.5t0.5 0.5q1 0 1 2zM482 329l1 1q0 1 -1 2l-1 -1q-2 -2 1 -2zM236 334v-2
q2 0 2 1l-1 1h-1zM52 328h1q4 2 2 5v1q-2 0 -2 -1l-2 -4q1 0 1 -1zM495 332v1q1 5 6 7l1 -1v-1q-1 -4 -5 -6h-2zM4 330q0 -1 -1 -1q-1 1 -2 1v2q1 3 1 9l1 1q2 0 2 -1v-6q0 -3 -1 -5zM462 329h1q4 4 6 11q0 1 -0.5 1.5t-0.5 1.5l-1 -1q-2 -3 -3.5 -6t-2.5 -6zM57 346
q1 0 1 1v4h-1l-1 -1q0 -4 1 -4zM57 390l-1 -1q0 -4 1 -4l1 1v4h-1zM5 392h3l-2 -2h-2v1zM13 403l-3 -9l-2 -2v8q0 2 2 4l1 1q2 0 2 -2zM16 426v-4l-2 -1q-1 0 -1.5 0.5t-1.5 0.5q0 5 4 5q1 0 1 -1zM441 450v-2q1 0 2 1v2q-1 0 -2 -1zM27 457q0 -1 -1 -2l-1 1q0 2 1 2t1 -1z
M37 465v1q1 2 4 2q0 -3 -3 -4q-1 0 -1 1zM68 478q-1 0 -1 -2l1 -1l1 1q0 2 -1 2zM104 527v1h2q0 -2 -1 -2t-1 1zM47 532q0 -2 -2 0v1q0 2 3 4q1 0 1 -1q1 -1 0 -1q0 -1 -2 -3zM89 538q0 2 -2 2l-1 -1q0 -1 -0.5 -1t-0.5 -1l1 -1q3 0 3 2zM45 546v1v1l2 2v-3q0 -1 -2 -1z
M58 548q0 -2 -2 -6l1 -2h2q2 2 2 8q0 1 -1 2q0 2 -2 -2zM78 590h-1h-1q0 -2 1 -2t1 2zM66 604h2q1 0 1 -1q1 -1 1 -3q-1 0 -4 -3l-1 -1q0 1 -0.5 1t-0.5 1q0 2 2 6zM81 631l1 -1q1 0 1 1q1 1 1 3l2 2v1q0 1 -1 1h-1v-2v-2l-2 -2q-1 0 -1 -1zM584 845q10 -5 14 -15v-6v-49v-4
q-2 -3 -2 -6t-1 -6q1 -2 1 -7q1 -5 -1 -14v-2v-2q2 -5 1 -10.5l-2 -10.5q-2 -5 -1 -7q1 -3 0 -6l-2 -6q-4 -10 -2 -18q1 -2 -1 -7q0 -4 -3 -5q-3 -3 -2 -6q0 -2 -1 -3q0 -1 -0.5 -1.5t-0.5 -2.5q1 -5 0 -9.5t-2 -9.5l-3 -3v3v1h-1q-1 -1 -1 -2l2 -2q0 -1 -0.5 -1.5
t-0.5 -1.5q-3 0 -3 -5q-2 -4 1 -5l3 -3q2 -4 1 -5q0 -3 -0.5 -6t0.5 -5t0.5 -2.5t-0.5 -1.5q-2 -2 -2.5 -5t-2.5 -6q-2 -4 -4 -10l-3 -6q-2 -2 -3.5 -4.5t0.5 -5.5q0 -2 -1 -3q-1 -2 -2 -4.5t-3 -5.5q-2 -5 -4.5 -9.5t-3.5 -9.5q0 -3 -1 -5q0 -2 -1 -3q-4 -10 -4 -16
q0 -2 -1 -3q-3 -3 -4 -6.5t-3 -7.5q-3 -6 -3 -13q0 -2 -1 -4.5t-2 -4.5q0 -4 -2 -8q-2 -3 0 -6q3 -5 -1 -9q-1 -1 -1.5 -2.5t-1.5 -3.5q-1 -1 -1 -4q2 -2 0 -5q-4 -4 -8 -14q1 -4 -0.5 -7t-3.5 -6q-2 -2 -2.5 -3.5t-2.5 -3.5q-1 -3 0 -4v-4q-2 -4 -2 -5l-2 -4q1 -5 -1 -9
t-4 -9l-3 -10q0 -3 1 -4q-3 -2 -3.5 -4.5t-1.5 -5.5q0 -1 -2 -5t-3.5 -7.5t-3.5 -7.5q-2 -5 -4.5 -9t-2.5 -9q0 -2 -1 -3.5t-2 -3.5q-5 -6 -7 -13t-6 -13q-1 -1 -1 -4q0 -4 -1.5 -7.5t-1.5 -7.5q0 -1 -1 -1.5t-1 -2.5q-2 -2 -2 -3q1 -6 -5 -12q-4 -4 -4 -5q2 -4 -4 -8
q-5 -5 -8.5 -11t-5.5 -13q0 -1 -1 -2t-1 -3q-2 -6 -4 -9q-2 -2 -2 -3q-1 -5 -3.5 -9t-4.5 -9q-3 -6 -8 -10q-3 0 -3 -2q-2 -3 -4.5 -4.5t-4.5 -3.5q-2 -1 -4 -3q-3 -1 -7 0h-2q0 -1 -0.5 -2t-0.5 -3q-1 -2 -1.5 -5t-2.5 -5q-1 -2 -1 -7q0 -4 -1.5 -7.5t-2.5 -6.5q0 -3 -3 -3
q-2 -2 -6 -4l-3 -1.5t-3 -4.5l2 -2q1 -1 1 -4q0 -5 -6 -13l-1 -1q-4 0 -8 -3q-5 -5 -12 -3q-3 1 -10 1l-1 -1q-3 -5 -10 -5q-3 0 -6 -3t-8 -1q-2 1 -3 -0.5t-3 -0.5t-7 1q-7 0 -13 4l-15 15q-1 2 -1.5 2.5t-1.5 2.5q0 4 -4 6q-4 3 -4 8v5q-1 2 -1 4t-2 4q-3 3 -3 8v5
q1 5 0 9.5t-3 9.5q-3 6 -3 13q1 2 -1 8l1 1q2 0 2 -2q1 -1 1 -8q0 -2 1 -4.5t2 -4.5l1 -1q1 0 2 1q0 3 1 4q2 5 -2 9q-3 3 -1 6q1 1 0 3q-1 3 2 8q2 2 2 3v4q-1 1 -3 1t-2 1v3v27q0 5 4 8v1q-4 6 -4 12v13l1 4q1 2 0 5q-2 7 0 11q2 6 2 8v13v5q2 5 2 9v9q1 5 0.5 9t0.5 8
q0 5 1 7q0 2 -3 2q-4 0 -4 3v8q0 5 2 7q1 3 0 7q0 1 -0.5 1.5t0.5 2.5q1 3 1 11q0 6 1 8q1 3 -1 5q-3 3 -2 6q2 4 2 7.5t2 6.5v3q-2 4 -2 6l-2 1h-1q-2 -2 -2 -3q-1 -1 -0.5 -2t-0.5 -2q-6 -8 -8 -19l-2 -3q-5 -7 -9 -16q-2 -5 -4 -7t-3 -4q0 -1 -2 -5q-4 -16 -14 -32
l-13 -21q-2 -2 -4 -6q-3 -6 -8 -11q-6 -8 -8 -12q-4 -7 -9.5 -11t-11.5 -9q-4 -1 -7.5 -2.5t-7.5 -1.5q-8 0 -11 -1q-1 -1 -3 -1l-1 1q-3 2 -6.5 1t-5.5 1q-3 2 -6 1.5t-5 1.5l-22 6q-9 2 -17 7l-16 10q-3 2 -5 5t-4.5 6t-4.5 6t-1.5 7t-0.5 7q0 3 -2 5l-2 4t-1 4
q0 3 -0.5 5.5t-1.5 5.5v1l3 3h1l1 -1q1 -1 1 -1.5t2 -1.5v-2q0 -1 1 -2l1 2l-2 2q0 2 0.5 3.5t0.5 3.5q1 1 0.5 2t0.5 3q2 3 0 7q-3 5 -1 12q1 2 1 4.5t2 4.5v2q-3 7 3 11q3 2 2 4q-3 7 3 13q0 1 0.5 1t0.5 1q2 4 -2 6l-1 2q1 4 5 10q3 4 0 8q-2 5 2 7q1 1 1 2t1 2
q3 9 4 11.5t5 8.5q1 0 1 1q2 2 2 3q-1 4 0.5 6.5t3.5 5.5q2 2 -1 4l4 7q-1 2 -2.5 2.5t-0.5 3.5q2 3 2 6.5t2 6.5q1 2 1 7l-4 3q-3 3 -1 6l3 5q5 4 5.5 5l1.5 3q0 6 2 8v3q-2 4 -3 8t-4 7l-1 1q1 3 4 4h2l1 1l3.5 9l3.5 9q1 7 9 12q5 2 1 6q-1 3 -1 9l2 2l3 8q2 7 7 11
q1 1 1 3q-1 1 -3 1q-1 0 -2 -1q-2 0 -2 2q-2 2 0 5l3 8q2 4 2 7q2 4 2.5 8t4.5 8l3 6q1 5 5 13q1 2 1 3t1 3q1 10 6 19l7.5 14.5t6.5 13.5q2 5 4.5 9.5t4.5 9.5q1 4 5 10l3.5 7l3.5 7q2 3 3.5 6t3.5 6q2 4 4.5 7.5l5.5 7.5l6 6t5 7q2 2 5 2q3 1 11 1l4 -1q4 -2 7 -3
q7 -2 11 -7q3 -1 4 -4q4 -3 4 -8v-6q0 -4 -2 -5q-5 -2 -7 -6t-5 -8q-2 -2 -3 -5.5t-4 -6.5q0 -1 -0.5 -1.5t-0.5 -2.5q-3 -10 -9 -17q-2 -2 -2 -6q-1 -4 -1 -12q0 -4 -3 -7l-3 -3q-2 -4 -2 -5q-2 -12 -7 -20q-3 -3 -5 -11q0 -2 -0.5 -3t-0.5 -3q-2 -2 -2.5 -5t-1.5 -5
t-2.5 -4t-3.5 -4q-2 -5 -4 -9t-5 -8q-2 -2 -2 -7q0 -6 -3 -9q-1 -1 -1 -3q-1 -7 -6 -13q-1 -4 -2 -7t-3 -7t-3 -8t-3 -9v-2q1 -3 0 -4q-5 -3 -6 -7.5t-2 -9.5q0 -4 -3 -5q-1 -1 -1 -2q-1 -2 -2 -4.5t-1 -4.5q-1 -3 -2 -5t-3 -4q-1 -1 -1 -4q0 -1 1 -1q0 -2 2 0q1 0 1 0.5
t1 0.5q1 1 3 0v-2q0 -1 -0.5 -2t-0.5 -2q-6 -6 -8 -10t-1 -7q1 -2 0.5 -2.5t-0.5 -2.5q-1 -3 -1 -5.5t-3 -4.5l-1 -1l3 -8q0 -1 1 -1q2 -2 1 -3q-2 -2 -3 -2q-3 1 -3 -1v-3q0 -2 2 -4q0 -3 -2 -3q-3 1 -3 -2q2 -3 -1 -6q-1 0 -1 -3q0 -2 1 -2.5t0 -1.5q-2 -4 -2 -8v-9
q-1 -2 -3 -4q-8 -5 -8 -13q0 -2 -1 -2q-2 -4 -2 -8t-2 -7q-1 -2 1 -6v-4q-2 -3 -2 -9q0 -4 -1 -5q-2 -4 -2 -10v-21q0 -2 0.5 -3t-0.5 -3q-2 -5 -2 -9.5t-1 -9.5q0 -11 3 -17q0 -2 0.5 -3t0.5 -3q0 -3 5 -8q7 -4 12 1q1 2 4 5q5 8 10.5 15.5t10.5 15.5q1 2 2 2.5t3 2.5
q3 4 7 7.5t6 8.5l3.5 3.5l3.5 3.5q3 5 6.5 9t7.5 8q2 4 5 7t5 7l12 13q3 3 5 7t5 7q3 2 5.5 5t5.5 6q2 5 7 9.5t7 9.5l11 9l5 5q1 3 3.5 5t4.5 4q5 2 8 5.5t5 6.5l5 6q4 4 4 8q1 6 4 11q4 10 6 21q0 4 5 4q1 -1 3 -1h1q1 -1 1 0q3 3 6.5 3.5t7.5 1.5q1 0 1.5 0.5t2.5 0.5
t4 -2q6 -3 14 -3q5 0 11 -4q3 -2 3 -3q1 -6 7 -12q3 -3 3 -6v-8.5t-2 -8.5t-3 -9.5t-3 -9.5v-4q0 -5 -1.5 -10.5t-3.5 -11.5q0 -2 -0.5 -4.5t-0.5 -4.5v-6.5t-1 -6.5q0 -4 -1 -7q-2 -2 0 -5q3 -6 0 -11q0 -1 -0.5 -1.5t-0.5 -2.5q-1 -3 0 -6t-1 -6t-1.5 -6.5t-1.5 -6.5
q-1 -1 2 -3v-2v-4v-4q-1 -2 -1 -7v-7.5t-2 -7.5q-1 -1 -1 -4v-12q0 -2 -1 -4.5t-1 -4.5t1 -2h1q0 2 2 2v-1l1 -2q0 -3 -1 -5q0 -2 -0.5 -3t0.5 -3q2 -4 -1 -8q-2 -3 0 -6q1 -3 2 -5.5t2 -5.5v-3q0 -1 0.5 -2t-0.5 -3t-5 -2l-1 -1q0 -1 1 -1q1 -1 2 -1q4 -1 4 -5q-1 -2 -1 -3
t-1 -3q-2 -10 -2 -16q0 -3 2 -5q1 0 -1 -2q-1 -1 -3 -4q0 -2 2 -4q2 0 2 -2q-3 -6 -8 -9q-4 -1 -2 -5q1 -2 -0.5 -3.5t-1.5 -3.5h-3h-1v-1q0 -1 2 -1l2 2q2 0 4 0.5t4 -1.5t1 -4q1 1 1 2q4 7 7 14.5l6 15.5l4 4q1 1 0.5 2.5t0.5 2.5q5 2 5.5 7t3.5 8q2 5 3.5 8l3.5 7
q2 3 4 9q1 4 4 7l2 2q2 5 4 8.5t3 8.5q1 6 3.5 11t4.5 10l3.5 9t5.5 8q2 4 2 7q1 6 5 11q2 3 3.5 6t2.5 7q2 3 2.5 6.5t2.5 6.5q1 2 1 3t1 3q2 5 4.5 9t3.5 9q2 2 2.5 5t2.5 5t4 8q4 10 11 11q2 1 2 5q-2 2 0 4q2 3 2.5 6.5t1.5 6.5q1 6 8 11q1 1 3 1l-2 -5q-1 -3 0 -5
q0 -2 1 -2q2 -2 2 2q4 3 2 8q0 1 -1 2h-2q0 3 0.5 5.5t1.5 5.5q1 4 1.5 8t3.5 8q1 6 3.5 11t5.5 10q2 5 4.5 10t2.5 11q0 2 2 4q0 2 4 4q2 0 2 -1q1 0 1 -2l-4 -10q0 -2 0.5 -3.5t-0.5 -3.5l-2 -2q-1 -1 0 -2q2 -2 2 -7q0 -2 -0.5 -3t0.5 -3h1q1 1 1 4q2 6 4 8v1q0 5 3 8
q0 1 0.5 1t0.5 1h-1q-1 1 -3 1q-1 1 -1 3l3 7q1 1 3 1q1 1 4 1q0 3 1 4l2 4t1 4q-2 2 1 2q1 0 1.5 0.5t2.5 0.5q1 1 1 3q-2 6 0 9v5q-4 -2 -6 -2q0 2 -1 3q-2 3 1 6q2 4 4 10q0 3 2 5q2 4 3.5 8t3.5 7q0 5 2 8t3 6q1 5 4 4q0 2 0.5 3t0.5 3q0 5 3 11q3 11 5.5 21.5t5.5 21.5
q0 6 1.5 11.5t3.5 11.5q2 5 2.5 10.5t2.5 11.5q2 4 1 6q0 5 1 9t3 9q0 2 1 4t-1 4v2q2 4 2 8.5v9.5v1q0 1 1 1v3v2q1 1 1 2q1 2 -1 6q-1 2 -1.5 5t-2.5 5q0 2 -2 4q-4 2 -4 5q0 2 1 2.5t1 2.5q3 8 10 9l3 3h3q0 5 1 8q-1 3 -1 11q0 3 3 6q4 2 7.5 3t8.5 3h1q4 -2 8 -2.5
t8 -2.5z" />
    <glyph glyph-name="X" unicode="X" horiz-adv-x="412" 
d="M434 80q-2 -1 -2 1q1 -1 2 -1zM432 81l-1 1q1 1 1 -1zM425 83h2l-1 -1zM425 88l-2 2zM422 92l-1 -1h2zM429 108v1l-1 -1h1zM424 134l1 -1h-1v1zM402 168q0 -1 -1 -1v2zM538 757q8 -8 6 -18l-3.5 -14.5l-3.5 -14.5q-1 -1 -1 -2t-1 -2q-5 -8 -9 -17t-9 -17q-6 -8 -10 -17.5
t-9 -17.5q-3 -4 -4.5 -8.5t-3.5 -8.5q-4 -5 -7 -10l-6 -10q-14 -24 -32 -50q-3 -5 -6 -9t-5 -9l-24 -35q-1 -2 -2 -3.5t-2 -3.5l-11.5 -18t-12.5 -17q-2 -4 -4.5 -8t-5.5 -7q-8 -12 -17 -23.5l-18 -23.5l-12 -15q3 -13 6.5 -25t7.5 -24q4 -13 11 -29q1 -2 1 -4t1 -4
q2 -5 2.5 -9t3.5 -8q2 -2 2 -4.5t1 -5.5q2 0 2.5 -0.5t1.5 -0.5q2 -5 2.5 -7.5t-0.5 -10.5v-2q3 -4 3.5 -7.5t1.5 -7.5l3.5 -9t3.5 -8q3 -7 6.5 -13l7.5 -13l2 -4t3 -4l3 -9q-1 -1 0 -2q-2 -4 -1 -6l6 -12t8 -11q4 -5 7.5 -10.5t8.5 -9.5q1 -1 1 -4l4 -6q0 -1 -1 -2t-1 -3
l4 -13l-4 -2t-4 -1q-1 -1 -3 1q-1 -2 -1 -5q-2 0 -2 1l-19.5 16t-17.5 17l-50 59l-22 30l-22 30q-7 9 -13 18.5l-12 19.5l-4 4q-7 -4 -9 -6t-5 -7q-5 -10 -12 -14q-4 -2 -7 -5.5t-8 -5.5l-3 -3q-12 -15 -21 -33q-2 -3 -8 -9q-8 -11 -16 -20.5t-16 -20.5q-2 -4 -5 -5t-5 -6
q-2 -4 -4.5 -6t-5.5 -4l-6 -7q1 -2 1 -4l-14 -18q-3 -4 -6 -7.5t-7 -6.5q-3 -3 -5.5 -6t-4.5 -7q-10 -2 -17 -15q-2 -4 -4.5 -7.5t-5.5 -6.5q-4 -5 -8 -9.5t-9 -6.5l-6 -6q-4 -2 -5 -3q-9 -1 -15 -9l-9 -6h-8t-9 2q5 10 9 20t9 20q5 13 11 25.5t11 25.5q4 7 7 14t7 14
q8 14 14.5 27.5t14.5 27.5l9 15l27 43.5t25 43.5l15 27q4 6 7.5 12.5t7.5 12.5l12 19.5t11 19.5l10 15q-2 5 -4 9.5t-4 9.5q-1 2 -2 2.5t-2 2.5q-2 8 -7 15.5l-10 15.5q-3 5 -5.5 11l-4.5 11q-4 8 -7 17l-12 23l-12 24q-2 4 -2 6l-10 28.5t-9 28.5q-4 12 -6 25l-4 26l-5 35
q-2 11 -1 22.5t1 23.5q0 1 1 2q2 5 2.5 10.5t0.5 11.5q1 10 11 15q8 0 14.5 -2.5t13.5 -5.5q8 -3 16 -7t16 -9q18 -12 31 -32q10 -16 18 -35q6 -14 6 -27q1 -39 14 -80q2 -9 4.5 -18t5.5 -17q2 -5 3 -11t3 -11q1 -5 2 -9t3 -8q2 -1 4 3l42 69l24.5 39t23.5 39l26 45
l15.5 25.5t15.5 24.5q6 10 12 19l13 19l4 6q4 9 14 19q4 2 12 -2q14 -9 25 -17q6 -4 9 -5q17 -5 32 -22z" />
    <glyph glyph-name="Y" unicode="Y" horiz-adv-x="351" 
d="M179 126q1 1 1 4q0 -2 -0.5 -2.5t-0.5 -1.5zM210 163q-1 5 4 9q0 -6 -4 -9zM219 202v-2q0 1 1 1zM155 215q4 4 2 8q-2 -2 -4 -6v-1zM150 221q2 2 2 4q-2 0 -2 -4q-3 -4 -4 -8q0 -1 1 -2q2 2 2 4.5t1 5.5zM155 233q-3 -2 -3 -7q6 2 3 7zM161 243l2 2q-5 -2 -5.5 -2.5
t-1.5 -5.5q4 4 5 6zM254 263v1l1 -1q0 -1 -0.5 -1t-0.5 -1v2zM222 282q0 2 1 3l1 1v-1q0 -1 -2 -3zM169 267q-6 -5 -8 -15q4 -2 6 -2q2 -1 2 -2t1 -2l4.5 6.5t4.5 7.5l2 4q2 5 2.5 9.5t2.5 9.5v5l-10 -9v-1q1 -1 2.5 -0.5t2.5 -2.5q-3 -3 -4.5 -7t-6.5 -7q0 4 -1 6zM269 292
q0 -6 -3 -8q0 4 3 8zM272 299q3 -1 0 -4l-3 -3q1 2 1 4q0 1 2 3zM185 301l-4 -2q2 -2 1 -4.5t1 -4.5q3 3 4 6t2 7q-2 -2 -4 -2zM177 304l1 1v-2v-1q-1 1 -1 2zM231 304v1l2 2q0 -2 1 -3h-3zM253 312v-1h-1v1h1zM226 319v-1q0 -1 -0.5 -1t-0.5 -1v2q0 1 1 1zM240 323h-1v1z
M187 329q0 -2 0.5 -4t0.5 -4l-4 -8t-6 -8q0 5 3 11q1 2 2 4.5t1 5.5zM239 338v1l1 -1h-1zM199 354q3 0 2 3q-2 -2 -2 -3zM180 149q0 -1 -0.5 -1.5t-0.5 -1.5q-7 -7 -9.5 -15.5t-6.5 -16.5l-4 -8l-4 -8q-7 -13 -14.5 -25.5t-15.5 -24.5q-4 -4 -6 -5q-7 -4 -11 -9t-8 -12
l-5 -6q-1 2 -1 2.5t-1 2.5q-2 -3 -4 -5.5t-4 -4.5q-4 -4 -6 -5q-5 -2 -10 -3.5t-10 -3.5l-15 -3q-2 1 -3 2t-3 2q-1 8 1.5 18t6.5 16l3 -3q2 4 4 7.5t2 8.5q3 3 4.5 7t4.5 7q7 7 7 16q0 10 8 18q8 6 12 14.5t7 16.5q2 5 4 8.5t4 7.5l5 11l3 6l6 10.5t5 10.5t3 6.5t6 4.5
q-2 2 -4 3l7 16q5 9 8 17q1 5 3 8.5t4 8.5q5 10 8 19.5t8 19.5q2 4 3 7.5t5 5.5q1 2 2 2t2 1q1 0 1 2q2 4 5 7.5t6 7.5q1 -2 1 -3t2 -3q6 6 8 14t5 16.5l6 16.5q1 1 1.5 1t1.5 2q1 -6 -1 -14q-2 -4 0 -7q1 -4 -2 -9q-11 -12 -6 -27q-4 -8 -5 -11q-5 -13 -13 -21q-1 -1 -5 -7
q-3 -7 -6.5 -13.5t-5.5 -14.5q-2 -6 -4 -14q1 0 1.5 -0.5t1.5 -0.5q0 -3 -1 -4q-4 -8 -7 -11q2 -2 4 0l13 21q2 4 4 5q4 2 5 5.5t3 6.5q2 5 4 9t4 9l10 25q4 15 14 29q1 -6 -0.5 -12t-3.5 -11l-2 -4q-3 -13 -7.5 -25t-8.5 -24l-3 -7q-3 -7 -4.5 -13t-4.5 -12q-2 -5 -3 -10
t-3 -10l-2 -8t-3 -7q-2 -4 -3 -7t-1 -7l7 7t5 8q2 2 3 2l-2 -6t-2 -7q-2 -3 -3.5 -6.5t-3.5 -7.5zM305 391h1v3q-1 -1 -1 -3zM226 396q1 6 6 9q2 0 2 -3q-4 -8 -6.5 -17.5t-7.5 -17.5q0 -1 -2 -3q-1 0 -1 0.5t-1 0.5q0 4 1 6q4 6 5.5 12t3.5 13zM233 410q-3 3 0 8q1 -1 2 -1
t3 -1v-5q-4 0 -5 -1zM243 436h3v-1q-1 -1 -3 1zM242 436q-1 -2 -6 -9q0 5 1.5 7.5t0.5 5.5q3 0 3 -1.5t1 -2.5zM106 682v-2q-1 1 -2 1q0 1 0.5 1t0.5 1zM378 739q4 -24 -2 -50l-8 -38q-2 -11 -5 -21.5l-6 -21.5l-11.5 -39.5t-10.5 -39.5l-2 -8l-2 -10.5t-3 -10.5t-3 -10
l-2 -10q2 -1 4 3t4.5 8t4.5 9q0 2 4 2q0 -14 -6 -29q-3 -6 -4.5 -12.5t-3.5 -13.5q-2 -13 -7 -21q1 -7 0 -13q-2 -5 -3 -8.5t-2 -8.5q-2 -9 -5 -12q-2 -2 -2 -4q-2 -4 -4 -7.5t-2 -8.5q-1 -3 -3.5 -3t-0.5 -3q1 -3 -3 -5q-2 -2 -2 -4q0 -6 -2.5 -11.5t-4.5 -11.5v-8l6 12
l3 5q1 -1 1 -3q-4 -7 -5.5 -14.5t-4.5 -15.5q-1 -1 -2 -1q0 1 -1 1.5t-1 1.5q1 3 1 5.5t1 4.5h-1q-2 0 -2 -1l-6 -6q-3 0 -5 1q0 4 2 6q1 -1 1 -2v-1q0 1 0.5 1t0.5 1q-1 0 -2 1q0 2 -1 5l-2 -4q-2 -6 -4.5 -11.5t-4.5 -11.5q-5 -14 -10 -32q-1 -2 -1 -4.5t-1 -5.5l2 4
q2 5 5 7q-1 -2 -0.5 -4t-0.5 -4q-4 -10 -8.5 -20t-11.5 -19q-6 -8 -8 -13l-6 -12q-2 -2 -4 -3t-3 -4l-11.5 -23.5t-11.5 -22.5q-2 -4 -4 -7l-4 -6q-2 0 -2 1t-1 2q-3 3 -2 5q6 12 11 24.5t12 23.5q1 3 2 5.5t2 4.5q4 8 7.5 16.5t8.5 16.5q2 4 3 7t2 7q0 1 2 2q-2 -12 -4 -18
q-3 -5 1 -8q2 1 1.5 2.5t0.5 2.5q2 4 2 5q1 2 1.5 3.5t1.5 2.5q4 6 5.5 13t3.5 13q3 6 5.5 12.5t4.5 12.5q2 5 3 9t0 9q0 3 1 4l9 30q1 2 1.5 4t1.5 4q1 5 2 9t3 9q2 3 1.5 6.5t0.5 8.5q-3 -2 -3.5 -5t-2.5 -5l-6 -9q-5 0 -3 3q5 8 8.5 16.5t5.5 16.5q2 3 2.5 6.5t1.5 6.5
q2 8 5 15.5t5 15.5l3 12l-1 1q-2 -2 -2.5 -5t-1.5 -5q-2 -3 -2.5 -6t-2.5 -5q-2 2 -2 4v4l-4 -10.5l-4 -10.5q-5 -11 -8.5 -23t-8.5 -23q0 -3 -3 -7q-2 4 -1 6.5t2 5.5l15 46q2 7 4.5 14t4.5 15l3 9q2 4 4 12q0 7 3 13l2 10.5l2 10.5v6t-2 6q-2 2 -4.5 1t-3.5 2q-1 0 -2 -1
q-2 -4 -3.5 -7.5t-3.5 -6.5q-1 -2 -1.5 -2t-1.5 -1q-2 -5 -3 -8.5t-2 -8.5q-4 4 -5 6q-4 -4 -6 -14q0 -9 -6 -13q-1 -1 -1 -3q-5 -5 -6.5 -10t-3.5 -11l-6 -17q-1 -3 -1.5 -5.5t-0.5 -5.5t-2 -7q-2 -3 -3 -5.5t-1 -6.5v-3q-3 -4 -3.5 -8.5t-3.5 -9.5q-1 -1 -1.5 -2t-2.5 -2
q2 -1 4 -3q2 -3 0 -5q-3 -8 -6.5 -15l-7.5 -15q-6 2 -10 4q2 6 5 11v-7q3 3 4 5l2 2v2q-2 0 -3 -1l-1 -1h-2q1 6 1.5 12t2.5 12q1 3 7 9l-2 1q0 7 6 11v-5h2q0 9 4 16q2 4 2.5 8t2.5 8q-2 2 -1.5 4.5t0.5 4.5q-1 7 0 13t3 12q1 2 2.5 4.5t3.5 4.5q-2 7 -0.5 14t3.5 14
q3 11 6 20.5t5 20.5q1 5 1 9t1 9l6 34q0 1 -1 2q-2 -3 -8 -9q-6 -7 -10.5 -13.5t-11.5 -12.5q-2 -2 -4 -8q-7 -2 -12 -6t-11 -7l-2 -2q-4 -6 -9.5 -10t-10.5 -9t-11 -9t-13 -6q-8 -4 -22 -7l-4 -1q-5 0 -6.5 0.5t-5.5 5.5q-6 0 -10 -3.5t-9 -5.5q-8 1 -16 4t-16 7
q-19 10 -31.5 24.5t-20.5 34.5q-3 2 -1 4q1 5 0 8.5t-2 7.5v9.5t1 9.5q2 10 3 20t1 21q0 7 1.5 13.5t3.5 13.5l6 19.5t7 20.5q2 8 5 16.5l6 16.5q2 4 2 5q2 5 4.5 10t4.5 10t4.5 10t6.5 9q9 11 20 6l14 -6q10 -4 12 -16q1 -5 1 -10.5v-10.5q-1 -16 -2.5 -31.5t-1.5 -32.5
q0 -4 -2 -14q0 -10 -1 -19t-3 -18q-2 -11 -2.5 -23t-0.5 -23q0 -14 10 -29q6 2 7 3q5 3 8.5 6.5t7.5 6.5q5 5 11 9.5t11 9.5l47 49l6 8l6 8l2 3q9 8 14 17.5t11 18.5q10 15 19 30.5t19 30.5l5.5 9.5t4.5 9.5q3 7 8 11q3 2 8 7q3 4 6 12q1 0 5 2q0 4 2 8l2 1q12 -4 27 -4
q7 0 13.5 -2l12.5 -4q2 0 3.5 -1t3.5 -2q1 -1 2 -2.5t0 -2.5q-1 -3 0 -5.5t2 -5.5l1 -7q1 -7 1.5 -14t1.5 -14z" />
    <glyph glyph-name="Z" unicode="Z" horiz-adv-x="464" 
d="M927 53v-3h-1q0 1 0.5 1.5t0.5 1.5zM851 51v2h-10v-1q3 0 5.5 -0.5t4.5 -0.5zM986 66q1 0 1 0.5t1 0.5q0 -1 -2 -1zM906 67q0 1 2 1q-2 0 -2 2l-1 -2q0 -1 1 -1zM946 71h-2l-1 1q1 0 1.5 -0.5t1.5 -0.5zM882 73h3l-1 1zM845 77h-3q1 -2 3 0zM979 72q1 -6 7 -6
q-2 -4 -6.5 -4.5t-8.5 -0.5l-8 -2t-7 -5q-9 -8 -17 0l-2 2h-1q-3 -3 -5.5 -1t-3.5 -2q-3 0 -5 -1q-4 0 -5 -1l-3 7h-5q-9 -2 -12 -4l-10 -2t-10 -6q-2 6 -2 7q-2 1 -4 -1.5t-6 0.5h-1l-2 -1q-5 -2 -11 -2.5t-12 -1.5h-21q-1 1 -1 3l-1 1h-1q-17 -2 -33 -2.5t-33 -0.5
q-12 0 -24.5 -0.5t-25.5 -0.5q-2 0 -2 -1q-11 -3 -20.5 -1.5t-20.5 3.5h-1q-5 3 -11 6t-13 4q-7 0 -13.5 1l-12.5 2q-6 0 -8 2q-8 4 -15.5 5.5t-15.5 3.5l-29 9.5t-28 9.5l-22.5 8t-23.5 7q-14 5 -26.5 10.5l-25.5 11.5l-40 19q-5 2 -13 4q-2 2 -4 2t-4 2q-13 8 -26 14
t-27 14q-10 4 -22 6q-8 1 -16 1.5t-16 0.5q-4 0 -7 -1l-6 -2q-6 -9 -16 -17l-18 -20q-8 -11 -18 -21q-8 -7 -14 -14t-15 -13q-2 -2 -3.5 -2.5t-3.5 -2.5q-5 -5 -10 -8t-10 -8q-6 -4 -11 -7t-12 -5l-13 -6q-8 -4 -16 -4.5t-16 1.5q-4 1 -10 5q-8 4 -13.5 9t-12.5 10
q-6 3 -9 9q-1 3 -4 4.5t-5 3.5l6 3q2 2 2 3.5t1 3.5l10 13l3 3l3 3q18 26 43 47q11 9 21.5 16.5t22.5 12.5l13 7q23 13 51 19q6 2 11.5 5.5t10.5 9.5q9 11 19 21l20 21q6 8 11.5 14.5l12.5 14.5q1 2 5 6q8 7 13 13.5t12 17.5q4 7 9 12.5t10 12.5q3 3 5.5 6.5l4.5 6.5l26 39
q4 5 8 11t8 11q8 8 13 21q4 5 7.5 11.5t7.5 12.5q13 17 23.5 35.5l21.5 37.5q2 2 2.5 4t1.5 4q-1 3 -2.5 3t-2.5 -1q-2 -2 -6 -4q-10 -7 -20.5 -12l-21.5 -10q-14 -7 -28 -11.5t-28 -10.5q-10 -3 -19.5 -4.5t-20.5 -3.5q-10 -2 -19 -3t-19 -2q-7 -1 -13.5 -0.5t-13.5 0.5
q-14 0 -26.5 3t-26.5 6q-5 1 -8 3.5t-8 4.5q-13 7 -22.5 16.5t-17.5 20.5l-4.5 6.5t-4.5 5.5q-11 14 -12 31t8 31l10 13q4 0 6 -1q5 -4 11 -7.5t8 -11.5l4 -10.5l4 -11.5q0 -6 1.5 -11.5t3.5 -10.5q8 -7 19 -7q15 -2 28.5 -2t27.5 1q20 2 41 5t41 8q38 9 75 21t74 29
q27 13 53 34q5 5 8 9t4 10q0 6 3.5 9.5t9.5 6.5q4 1 7 2t8 2q8 0 13 -2q8 -5 17.5 -9.5t17.5 -11.5q2 -2 3 -4q-7 -5 -7 -14q0 -4 -6 -12q-2 -4 -3 -8.5t-3 -8.5q-5 -13 -12.5 -25l-15.5 -25q-3 -4 -6.5 -7t-6.5 -8l-21 -27l-14.5 -17t-14.5 -16q-6 -8 -13 -15.5t-13 -15.5
q-8 -5 -12 -10.5l-9 -12.5l-9.5 -11.5l-9.5 -11.5q-4 -4 -6.5 -7.5t-5.5 -8.5l-1 -1q-2 -4 -6 -6.5t-6 -8.5q-1 -4 -4.5 -7.5t-6.5 -7.5q-2 -2 -2.5 -4.5t-2.5 -5.5q-4 -5 -7 -10.5t-7 -10.5q-4 -4 -6 -7.5t-4 -7.5l-17.5 -26.5l-17.5 -25.5q0 -1 -1 -2q-11 -11 -18.5 -25
t-17.5 -27q0 -2 -1 -2q1 -2 5 -4q28 -7 55 -20l13 -6q48 -23 96 -42q19 -8 38 -15t37 -13l32.5 -11.5t31.5 -10.5q8 -2 14.5 -4t14.5 -5l21 -5.5l21 -5.5l25 -6t26 -5q11 -2 22.5 -4.5t22.5 -4.5q12 -3 23 -3q4 0 7.5 -1t8.5 -1q9 -2 17.5 -2.5t16.5 -2.5q8 0 11 -5l4 -1
q4 2 7 2h7l46 -3q6 -1 13 -2l14 -2q0 -2 0.5 -3.5t0.5 -2.5h12.5t14.5 1q-3 1 -6 4q5 2 7.5 2.5t12.5 -0.5z" />
    <glyph glyph-name="bracketleft" unicode="[" horiz-adv-x="292" 
d="M122 316q-1 0 -1 2l2 2q2 2 2 -1v-1q-2 -2 -3 -2zM122 339q0 1 2 1l1 -1q0 -3 -2 -1zM135 336q-2 2 -2 3t2 3q0 -1 1 -1v-4zM136 356l-1 -1q-3 0 -1 2l1 1q1 0 1 -2zM121 364q1 0 1 1q1 -1 1 -3l-1 -1q-2 2 -1 3zM76 362v-1q2 2 1 3v1q-2 -2 -1 -3zM133 378q0 -2 -3 -5
h-5h-5l-1 1q0 2 1 3l3 2q2 1 3.5 1t3.5 1q3 0 3 -3zM77 376l1 4q0 1 -0.5 1.5t-0.5 1.5q-1 1 -1.5 0t-0.5 0v-6q0 -1 1 -1v-1zM73 397h1q4 2 2 4q0 2 -2 2q-2 2 -2 -3q0 -1 0.5 -1.5t0.5 -1.5zM77 412q0 3 1 5q-1 2 -0.5 3t-0.5 3q-3 4 0 10l-2 2l-1 1l-1 -1q-1 -3 -1 -10
l-2 -2l-1 1q-3 3 -4 2q-2 -2 -2 -4q0 -3 1 -3q2 -3 7 -8q4 -4 6 1zM272 228q0 -2 0.5 -3t-1.5 -3q-3 -6 -7 -10h-3q-5 2 -8.5 4t-7.5 4q-8 4 -13 4q-2 0 -3.5 1t-3.5 2q-4 2 -7.5 3.5t-7.5 3.5q-2 0 -4 2q-6 0 -11.5 1.5t-10.5 2.5h-25q-2 0 -3 -1q-2 0 -3 -1q-2 -2 -5.5 -3
t-7.5 -3q-5 -2 -8 -5t-10 -3t-15 -6q-3 -2 -9 -8q-4 -4 -8 -2q-6 3 -11 0l-6 -3q-6 4 -9 5q-2 1 -2.5 2t-2.5 1q-4 1 -7 3.5t-5 4.5q-3 3 -5 7t-7 6q-4 2 -6 5t-7 5q0 1 -1 1q-2 1 -1.5 3.5t2.5 3.5q4 1 6.5 3t5.5 4q5 3 9 6t9 6q3 2 5.5 3t5.5 3q7 3 5 14q-1 2 -2 4.5
t-1 4.5q1 8 -1 14t-4 13q-1 5 -1 9v9q4 5 0 12q-1 2 -1 5t-2 6q-1 2 -0.5 4.5t-0.5 4.5q-2 3 -1 5.5t-1 5.5q-1 3 -1 11v33q0 3 2 9l3 11q2 2 0 4q-2 5 -2 9t-2 8q-1 4 -1 12v8l-6 6v11t2 11q0 4 0.5 7.5t0.5 7.5v35q0 5 5 10q4 2 6 2q8 2 15 -1q8 -3 17 0q2 1 8 1t12 3
q3 2 7 0q7 -3 15 2q2 2 7 4q8 2 14.5 5.5t14.5 5.5q5 2 10 4.5t10 4.5q2 2 4.5 3.5t5.5 2.5q4 2 7.5 4t7.5 5q8 7 21 5l6 -4q2 -5 5 -8l7 -7q0 -1 1 -1q4 -5 0 -9q-10 -11 -24 -17q-2 0 -4 -2q-6 -5 -16 -8q-4 0 -7 -3q-6 -5 -13.5 -7t-14.5 -5q-7 -1 -13.5 -2.5t-13.5 -3.5
q-2 -1 -8 -1q-2 -1 -5 -4q-1 -3 -6 -1q-4 3 -9 1q-2 -2 -4 -2q-13 -3 -9 -14q2 -14 4 -22q1 -1 1 -2q1 -3 1 -6.5t1 -6.5q1 -2 2 -4.5t3 -5.5v-5q0 -4 4 -8q3 -1 4 -4q1 -2 -1 -4q0 -1 -1 -1.5t-1 -2.5q-2 -2 -1.5 -4t2.5 -3q4 -4 4 -6q0 -3 2 -5q7 -9 3 -19v-3q0 -1 0.5 -1
t0.5 -1q2 -2 3 -4q2 -4 -1 -7q-4 -4 -5 -6q-2 -2 -1 -5q2 -4 -1 -5q-4 -4 -4 -5q-1 -4 -7 -6q-9 0 -7 -10q0 -2 0.5 -4t0.5 -4q0 -3 2 -9q1 -2 0.5 -4t-0.5 -4t1 -3q0 -5 -3 -7q-1 0 -1 -1l-1 -1q0 -1 -1 -1q0 -1 4 -1h3q2 -2 -2 -4l-2 -2q-3 -2 -3 -5q2 -6 4 -16q0 -2 2 -4
q0 -1 2 -1q1 0 1 1q0 4 1 6l1 2l2 -2q2 -1 2 -6q-1 -3 3 -4q3 0 6.5 0.5t7.5 -1.5q2 -1 2.5 -0.5t2.5 0.5q7 3 16 0q8 -2 12 -2q9 2 18 0t17 -6q8 -3 16 -7t15 -9q2 -2 8 -6q4 -3 7 -6.5t5 -8.5q2 -6 4.5 -11.5t4.5 -10.5q0 -1 0.5 -1t0.5 -1z" />
    <glyph glyph-name="backslash" unicode="\" horiz-adv-x="167" 
d="M96 268q-2 3 -3 3q-2 4 -5 7.5t-5 7.5q-1 4 3 8v-3q0 -1 2 -1v2l-2 2q-3 3 -4 3q-8 6 -9 15q-1 6 -3 11.5l-4 11.5q-2 2 -2 4.5t-1 4.5q-1 5 -2 8.5t-2 8.5l-3 7q-2 2 -1 4.5t-1 5.5q-1 2 -1 4.5t-2 4.5t-2.5 4.5t-2.5 5.5q-2 4 -2 7q0 9 -5 19l-3 11v3q1 4 -2 7
q-1 2 -2 3.5t-1 3.5q0 8 -1 14t-5 13q0 1 -0.5 1.5t-0.5 1.5q0 3 -2 9q-1 3 -2 5.5t-2 5.5t-1 6t-2 6v2v1q0 3 -0.5 6t-0.5 6t-1 4q-2 5 -2 15q0 6 -3 12q-5 8 -3 17q0 8 -1 11q-2 4 -2 7t-1 6q-2 4 1 9q7 12 17 13q4 2 6 2q7 -3 11 -10l6.5 -10.5t5.5 -10.5l9.5 -17.5
t7.5 -18.5q2 -4 3 -7.5t2 -8.5q1 -4 2.5 -8t0.5 -9q0 -4 3 -7q2 -3 4 -9q1 -7 3 -13.5l4 -12.5q1 -5 2.5 -8l3.5 -7l6 -20q2 -5 3 -10t3 -10l3.5 -9t0.5 -9q0 -3 1 -4q3 -4 3 -7.5t1 -7.5q1 -7 5 -14q2 -2 2 -4t1 -4q0 -7 2 -11q2 -8 5 -11l4 -10t2 -10q-1 -7 4 -12
q2 -4 2 -6q0 -5 3 -9q4 -8 4 -14q0 -2 2 -4q4 -5 4 -12q0 -3 0.5 -6.5t2.5 -6.5q1 -8 3 -15.5t1 -15.5v-2q0 -7 2 -11q2 -6 0 -11q-3 -14 -15 -18q-9 -5 -16 1q-8 6 -8 15q1 2 0.5 3t-0.5 3q-2 7 -3.5 13.5t-3.5 13.5q-1 2 -0.5 3t0.5 3q-4 9 -9 11q-1 1 -1 3q3 5 -4 7
q-4 0 -4 4q-2 5 -3 5z" />
    <glyph glyph-name="bracketright" unicode="]" horiz-adv-x="292" 
d="M170 316q1 0 1 2t-2 2q-2 2 -2 -1q0 -1 1 -1q0 -2 2 -2zM170 339q0 1 -2 1l-1 -1q1 -2 2 -1zM158 336q0 1 0.5 1.5t0.5 1.5t-0.5 1.5t-0.5 1.5l-1 -1q-2 -2 0 -4q0 -1 1 -1zM156 356l1 -1q3 0 1 2q0 1 -1 1t-1 -2zM215 364q-1 -1 1 -3l1 1q0 2 -1 3zM171 364l-1 1
q-1 -1 -1 -3l1 -1q2 2 1 3zM159 378q0 -3 4 -5h5h4l1 1q0 2 -1 3l-2 2q-2 1 -4 1t-4 1q-3 0 -3 -3zM215 383v-3v-4q0 -1 1 -1l1 1v1v6q0 -1 -0.5 0t-1.5 0zM218 397h1q1 1 1 3q0 5 -2 3q-2 0 -2 -2q-2 -2 2 -4zM214 417l2 -5q0 -2 2 -2.5t3 1.5l8 8v1v2q0 2 -2 4q-3 1 -3 -2
q-1 0 -1 -0.5t-1 -0.5t-1 2q-1 4 -1 10q-1 0 -1 0.5t-1 0.5t-1 -1q-2 -2 -1 -2q2 -6 -1 -10q0 -4 -1 -6zM21 222q-1 2 -1 6q1 1 1 2q2 5 5 10.5t5 11.5q3 8 11 15q6 4 8 6q14 10 31 16q9 4 17.5 6t17.5 0q3 0 6 0.5t7 1.5q7 3 16 0h4q4 2 7.5 1.5t7.5 -0.5q3 1 3 4q-2 5 1 6
q0 -1 3 2v-2q1 -2 1 -6l1 -1q2 0 2 1q2 2 2 4q1 5 2 8.5t2 7.5q2 3 -3 5l-2 2q-4 2 -2 4h3q3 0 4 1q-1 0 -1 1l-1 1q0 1 -1 1q-4 3 -2 7q0 1 0.5 1.5t0.5 1.5q0 2 -0.5 4t-0.5 4l3 9q0 6 1 8q2 10 -8 10q-6 2 -7 6q0 2 -1 2.5t-2 2.5q-4 2 -2 5t0 5l-6 6q-3 3 -1 7q1 2 3 4
q0 1 0.5 1t0.5 1v3q-3 11 3 19q2 2 2 5q1 2 5 6q4 2 1 7q-1 2 -3 4q-3 2 -1 4q1 2 2 2.5t2 1.5q4 4 4 8v5q2 3 3 5.5t2 4.5q2 8 2 13q0 1 0.5 1t0.5 1q2 8 4 22q4 11 -8 14q-1 0 -5 2q-5 2 -9 -1q-5 -2 -6 1q-1 2 -5 4q-6 0 -8 1q-7 2 -13.5 3.5t-13.5 2.5q-7 3 -14 5t-14 7
q-3 3 -7 3q-10 3 -16 8q-2 2 -4 2q-15 7 -23 17q-2 2 -2 4.5t2 4.5q0 1 1 1q3 4 6 7t5 8l6 4q13 2 21 -5q4 -3 7.5 -5t8.5 -4q2 -1 4.5 -2.5t4.5 -3.5q5 -2 10 -4.5t11 -4.5q7 -2 13.5 -5.5t14.5 -5.5q4 -2 7 -4q8 -5 16 -2q2 2 6 0q6 -3 12 -3t8 -1q9 -3 18 0q5 3 14 1
q2 0 6 -2q5 -5 5 -10v-18t1 -17v-15q2 -5 2 -11v-11l-6 -6v-8v-12q-2 -4 -2.5 -8t-2.5 -9v-4l3 -11q2 -3 2 -9v-33q0 -8 -1 -11t-0.5 -5.5t-0.5 -5.5q-2 -2 -1.5 -4.5t-0.5 -4.5q-2 -3 -2 -6t-1 -5q-1 -3 -1.5 -6t1.5 -6q2 -10 -1 -18q-2 -7 -4 -13t-1 -14q0 -2 -1 -4.5
t-2 -4.5q-1 -5 0 -8.5t6 -5.5q2 -2 5 -3t6 -3l17 -12q3 -2 5.5 -4t6.5 -3q2 -1 2.5 -3.5t-1.5 -3.5l-1 -1q-4 -2 -6.5 -5t-6.5 -5q-5 -2 -6.5 -6t-5.5 -7l-4.5 -4.5t-7.5 -3.5q-2 0 -2.5 -1t-2.5 -2q-3 -1 -9 -5l-6 3q-5 3 -10 0q-6 -1 -9 2q-6 6 -9 8q-8 6 -14 6
q-8 0 -11 3q-4 3 -8 5t-7 3t-6 3q-1 1 -3 1q-1 1 -3 1h-25q-5 -1 -10.5 -2.5t-11.5 -1.5q-2 -2 -4 -2q-4 -2 -7.5 -3.5t-7.5 -3.5q-2 -1 -3.5 -2t-3.5 -1q-4 0 -6.5 -1t-5.5 -3q-5 -2 -8.5 -4t-7.5 -4h-4q-4 4 -7 10z" />
    <glyph glyph-name="asciicircum" unicode="^" horiz-adv-x="332" 
d="M50 344l-11 -9q-2 -2 -8 -2q-3 1 -6.5 4t-3.5 7q-1 5 -1 14v8q0 4 0.5 7.5t2.5 7.5q0 5 2.5 9.5l5.5 9.5t6.5 9.5t8.5 9.5l3 3q3 3 5 7t5 6q8 8 10 13q1 0 3 2q5 3 9 7.5t9 8.5l3 3q8 5 15 12t13 15q3 3 5 4l10 6q5 5 10 8t10 8q2 9 10 9h1v1q3 0 7 -2q3 -2 5.5 -5
t5.5 -5q5 -2 7.5 -5t6.5 -6q5 -4 9 -8.5t9 -7.5q2 -1 2.5 -2t2.5 -2q8 -7 14 -14t14 -13q1 0 3 -2q3 -5 7.5 -9t8.5 -9l6 -8q7 -9 13 -22q2 -4 4 -7.5t4 -6.5q5 -6 6 -13q2 -5 3.5 -10t4.5 -10q2 -4 2 -8v-11q0 -8 -9 -13h-3q-2 2 -4.5 4t-4.5 5q-5 5 -10.5 8t-10.5 8
q-2 2 -4.5 3t-4.5 3q-4 2 -5 4q-6 8 -13 14.5t-15 12.5q-2 2 -4 3q-5 4 -9 8.5t-9 7.5l-2 3q-2 4 -5 6.5t-6 5.5t-5 6.5t-4 6.5q-2 1 -4 3q-5 5 -8 10t-7 10q0 1 -2 3q-1 0 -1 -2q-3 -3 -5 -6.5t-4 -7.5l-12 -22q-2 -2 -3.5 -4t-3.5 -4q-4 -5 -8.5 -8.5t-7.5 -9.5l-2 -2
q-8 -5 -14.5 -12.5t-14.5 -13.5q-2 -3 -5 -5q-5 -3 -9 -7l-9 -9q-4 -2 -6.5 -5.5t-7.5 -5.5z" />
    <glyph glyph-name="underscore" unicode="_" horiz-adv-x="557" 
d="M403 241q-2 0 -4 -2l-8.5 -3.5t-8.5 -1.5t-7 5q2 0 3 -1l2 1q0 1 -1 1q0 1 -0.5 1t-0.5 -1q-1 0 -1.5 -0.5t-1.5 -0.5q-1 -1 -2 -1t-2 -1q-5 -7 -16 -5q-13 2 -24 -1q-6 0 -10 1h-8.5t-8.5 1q-2 0 -4 -0.5t-4 -0.5q-2 -1 -4.5 0.5t-5.5 0.5h-9q-3 -1 -6 -1t-5 -1h-8
q-9 4 -19 2q-4 -1 -12 -1q-1 0 -1.5 0.5t-1.5 0.5q-3 2 -7 1q-6 -2 -8 -1q-14 5 -27 2h-3q-3 1 -10 1q-3 -1 -11 -1q-8 2 -13 1h-1q-1 0 -2 1l-11 3h-5q-4 -1 -7 0t-7 2q-5 3 -13 1q-7 -1 -17 2q-3 1 -5.5 1.5t-5.5 0.5t-6.5 0.5t-6.5 0.5q-5 0 -8 4q-4 5 -6.5 9.5
t-1.5 10.5q1 2 0.5 3.5t-0.5 2.5q7 7 13 8t12 2.5t12 2.5l19.5 4t20.5 2q4 0 7.5 0.5t8.5 -0.5q4 -1 8 -0.5t9 -1.5q4 -1 8 0q3 1 9 1q8 -1 14.5 -1h13.5q4 0 7.5 1t8.5 0h10.5t10.5 1t10.5 0t10.5 -1q9 2 17 -1h5q4 2 7.5 1t8.5 -2q9 0 14 1q4 1 8 0q7 -2 11 -1q9 0 13 2
q5 0 10.5 0.5t10.5 -1.5q6 -3 12 0q2 1 6 1q4 -1 10 -1q10 2 14 0q4 0 5 1q6 3 13 0q8 -2 12 -1q8 -1 16 -1.5t16 -3.5q1 0 2 -1q6 -2 11 -1q5 0 11 -3q10 -6 12 -19q1 -10 -6 -16q-8 -6 -16 -2q-2 1 -7 1q-7 -1 -13.5 0t-13.5 1q-2 0 -3 1t-3 1q-9 0 -13 -5q-2 -2 -3 0
q-5 3 -8 -2q-2 -3 -5 -3q-4 0 -6 -1z" />
    <glyph glyph-name="a" unicode="a" horiz-adv-x="235" 
d="M166 437l18 52q-1 5 -3 13q-2 7 -9 7q-4 -7 -8 -9q-6 -4 -10 -9t-9 -10q-22 -26 -40 -53t-29 -59q-5 -15 -8 -30t-5 -30q0 1 2 -5l17 21l16 21l28.5 37l28.5 37q7 8 11 17zM369 508q2 0 3 -1.5t3 -2.5q-8 -14 -14.5 -27.5t-14.5 -25.5l-21 -31l-21 -31l-36 -51
l-17.5 -24.5t-19.5 -22.5l-14.5 -15t-14.5 -13q-18 -12 -38 0q-5 3 -10 7t-10 7q-2 14 -2.5 27t-2.5 26q-4 -2 -5 -4.5t-3 -4.5l-30 -43q-11 -15 -28 -26q-11 -6 -20 -5.5t-18 5.5q-6 3 -12 7t-11 8q-8 7 -10.5 16t-1.5 19q1 5 2 11t1 11q1 4 0.5 7.5t-0.5 7.5q2 3 3.5 7
t3.5 8q2 5 4.5 10t9.5 7q4 2 4.5 6t1.5 8h-1q5 4 6.5 9.5t2.5 10.5q1 8 4 15t7 14q1 1 3 5q11 8 18 19t15 22q2 5 4.5 9.5l5.5 9.5q2 4 3 5q7 5 11.5 11.5t10.5 12.5q2 2 3.5 4t3.5 4q3 2 3 4t1 4q1 1 5 3l1 -1q1 0 1.5 0.5t1.5 0.5h-1q5 2 5.5 5t1.5 8l10 3q2 1 5 1
q5 -1 10 -2.5t12 1.5q5 2 10 0l10 -4l10.5 -4t10.5 -5q21 -10 12 -33q0 -1 -2 -5q4 -6 3 -12.5t-3 -13.5l-10 -31l-10 -31q-6 -19 -11 -37.5l-10 -38.5q-4 -10 -4 -15q0 -8 -0.5 -15.5t1.5 -16.5q2 2 3.5 2.5t3.5 2.5q6 7 13 13.5t13 14.5l64 79q10 12 17.5 24.5t14.5 26.5
q9 19 23 34q10 12 27 10z" />
    <glyph glyph-name="b" unicode="b" horiz-adv-x="258" 
d="M120 249q2 6 5 12t1 12q-5 -5 -8 -10t-8 -10q-11 -12 -19.5 -25.5l-17.5 -27.5q-7 -11 -7 -24q4 -5 8 -1q11 8 19 19t13 23q4 8 7.5 16t6.5 16zM127 274h1v2zM199 472q2 6 4 13t2 16q-14 -8 -25.5 -15.5t-19.5 -20.5q-2 -3 -5 -5.5t-5 -5.5l-10.5 -14t-9.5 -15
l-15.5 -29.5t-13.5 -29.5l-12.5 -34.5t-11.5 -34.5l-6 -22t-9 -22q0 -2 1 -4q4 3 6.5 6.5t4.5 7.5q31 46 73 88q9 8 16 17t9 23q0 2 1 3q6 20 12.5 39zM350 507l2 -3q-1 -6 -4.5 -11t-7.5 -10q-10 -2 -17 -8t-13 -14q-12 -14 -26 -26l-29.5 -26.5t-27.5 -27.5
q-8 -10 -12 -20q-3 -10 -7 -19.5l-8 -19.5l-5.5 -15l-5.5 -15l-5.5 -13t-5.5 -12l-24 -48l-15.5 -29t-17.5 -28q-11 -14 -24 -24q-14 -11 -30 -7l-19.5 4l-19.5 4q-1 16 2 36q7 27 21 51l7 13q-8 2 -15.5 -1.5t-13.5 -1.5q-7 2 -14 6.5t-12 9.5q4 11 -2 17q-2 8 -1.5 15
t2.5 15l8 41.5t9 40.5q2 8 4 15t4 15l22 64t24 64q5 12 11 24t11 24q5 8 6 13q5 15 12 28t15 26q12 18 20 35l3 4q5 11 13 18.5t24 6.5q2 -2 6 -3.5l9 -3.5q7 -11 2 -25l-15.5 -41.5l-14.5 -41.5q-5 -12 -8 -24t-8 -24l-12 -31q-3 -8 -6.5 -16t-4.5 -17q-1 -1 -0.5 -1
t-0.5 -1v-1l2 2q6 3 10.5 8t9.5 10q17 13 35.5 20.5t40.5 5.5q1 0 1 -1q9 -1 14 -4.5t7 -14.5q4 -26 -5 -51l-3.5 -8.5t-0.5 -7.5q4 1 7 4q7 5 13.5 10.5t12.5 11.5q10 9 21 16.5l22 14.5q12 8 28 3z" />
    <glyph glyph-name="c" unicode="c" horiz-adv-x="192" 
d="M273 494q6 0 8.5 -5.5t0.5 -10.5q-10 -22 -25 -41q-2 -2 -6.5 -12t-6.5 -13l-8 -13l-10.5 -16.5l-11 -16.5t-8.5 -12q-10 -12 -18 -25l-16 -26q-2 -5 -10 -11l-39 -30q-2 -2 -3.5 -4t-3.5 -4q-2 0 -3 -0.5t-3 -0.5q-13 -6 -26.5 -7.5t-27.5 -0.5l-9 3q-4 1 -7.5 2t-7.5 2
q-18 6 -33 22q-14 16 -17 41q-1 10 -1 19v19q0 5 2 13q6 24 15 47t24 44q8 11 15.5 23t16.5 23q6 8 13 14.5l15 13.5t16 13t16 13q8 8 16 7q2 0 3 1q10 6 21 0q5 -3 11 -5.5t11 -5.5q14 -7 17 -27q0 -3 -1 -4q-1 -9 -6 -20l-2 -4q-13 -1 -20 9q-1 9 0.5 18t-6.5 16
q-5 -2 -9.5 -7.5t-8.5 -11.5t-7 -11t-4 -4q-2 0 -2 -2q-6 -13 -13.5 -25.5t-14.5 -25.5q-2 -6 -5 -12l-6 -12t-5.5 -12t-5.5 -12q0 -3 -2 -7q-5 -5 -7 -11t-4 -13q-1 -1 -0.5 -2t-0.5 -2q-5 -9 -7 -19t-6 -19q-3 -11 -3 -22v-20q5 -8 11.5 -9.5t14.5 -0.5q11 0 19.5 4.5
l17.5 9.5q7 4 12.5 8.5t10.5 9.5q8 9 17 17.5t16 18.5l5 6l32.5 48l32.5 48q2 3 7 12.5t7 11.5q3 5 8 10t11 7q1 1 4 1z" />
    <glyph glyph-name="d" unicode="d" horiz-adv-x="320" 
d="M167 438q8 11 17.5 21t18.5 21q-10 -2 -19.5 -0.5t-18.5 2.5q-9 0 -14 5q-4 4 -8 7q-2 -2 -5 -2.5t-5 -2.5q-4 -2 -7.5 -5.5l-6.5 -6.5q-5 -5 -9 -10t-7 -10q-9 -17 -16 -34l-14 -34l-6 -18t-5 -18q-2 -5 -2 -10.5t5 -11.5q3 2 6 3.5t5 3.5q5 5 10 9.5t10 9.5l36.5 40z
M444 765q1 -8 -6 -17q-4 -6 -8 -10q-11 -10 -18.5 -21.5t-13.5 -24.5q-2 -5 -5 -9t-6 -9l-42 -64l-13.5 -19t-12.5 -19q-3 -5 -5.5 -11t-6.5 -11q-3 -6 -7 -11.5t-6 -11.5l-24 -70q-2 -2 -2.5 -5t-1.5 -5q-2 -3 -4 -9q-2 -19 -7 -36.5l-10 -35.5q-3 -14 -5.5 -28.5
t-3.5 -28.5q0 -2 -0.5 -3t-0.5 -2q-5 -14 -5 -27.5v-30.5l20 35l19.5 34l18.5 34l10 18.5l10 18.5q5 10 11 19t11 18l17.5 30t15.5 31q7 5 12.5 12t13.5 12q7 5 18 6t12 -10q1 -1 1 -3v-1q-12 -17 -21.5 -35.5t-20.5 -36.5t-20 -36.5l-18 -36.5q-8 -15 -14.5 -30t-14.5 -30
l-19 -39q-2 -3 -3.5 -6l-3.5 -7q-10 -18 -14 -36q-2 -7 -4.5 -13.5t-5.5 -13.5q-4 -9 -9 -13q-6 -6 -12.5 -11.5t-12.5 -11.5q-8 -6 -20 -3q-12 2 -22 6q-6 1 -11 5q-14 11 -17 19t2 25q1 3 -0.5 4.5t-2.5 3.5q4 8 3 16.5t1 17.5q2 10 2 19.5t2 20.5q2 14 5 29l6 29
q2 10 3.5 19t3.5 18q0 5 1 9q-3 -3 -5.5 -5t-4.5 -4q-9 -13 -20 -23l-22 -21q-10 -10 -20.5 -17.5l-21.5 -15.5q-17 -13 -40 -5q-9 4 -17.5 8.5t-15.5 12.5q-2 3 -4.5 6t-4.5 7q-4 8 -1 14q5 8 5.5 16t2.5 16q2 11 4.5 20.5l5.5 20.5q5 19 15 35.5l20 33.5q14 23 34 40
q7 5 14 8.5t15 5.5h8q6 -2 8 -1q7 2 13.5 1.5t13.5 -0.5q30 0 49 -18l6 -4q1 2 1.5 4t1.5 4l12 41.5t15 41.5q4 8 6.5 17t6.5 17q6 15 13.5 28.5l15.5 27.5q5 8 10.5 14.5t10.5 14.5q8 11 17.5 20.5l19.5 20.5q6 6 13 11t16 7q23 5 44 -6l13 -6l4 -2t4 -3z" />
    <glyph glyph-name="e" unicode="e" horiz-adv-x="222" 
d="M125 425q17 11 28 23q8 9 14 19t11 20q3 8 2 15q0 9 2 13q0 2 -0.5 3t-0.5 3q-9 -1 -13.5 -6t-6.5 -11l-3.5 -7t-3.5 -6q-4 -7 -6.5 -13.5t-6.5 -13.5l-8 -15q-3 -5 -5.5 -10.5t-2.5 -13.5zM238 343q-1 0 -2.5 -2.5t-3.5 -4.5q-12 -9 -21 -20.5t-20 -22.5q-3 -2 -5 -5.5
t-5 -5.5q-8 -8 -16 -14.5t-17 -11.5q-7 -5 -15 -7l-16 -4q-13 -4 -25.5 -3.5t-26.5 -0.5q-2 0 -5 1l-6 2q-14 5 -24 14t-17 22q-14 27 -13 56q1 21 7 40t15 38l8 17.5t9 16.5q17 34 45 65l26 29q7 8 16 14.5t19 11.5q5 -1 9.5 -2t9.5 -4q2 -1 3.5 -1t3.5 -1q11 -1 20.5 -5.5
t17.5 -11.5q13 -11 15 -30q1 -33 -15 -60q-4 -5 -7.5 -11t-8.5 -11q-5 -4 -9 -8t-8 -9q-1 -1 -6 -4q-11 -4 -23 -14q-6 -4 -8 -4q-5 -1 -9 -2t-8 -3q-2 -1 -4 -0.5t-4 0.5q-6 -5 -9.5 -11t-5.5 -13q-5 -11 -9 -21.5l-8 -21.5q-1 -2 -1 -7q0 -11 -5 -19q1 -5 1.5 -8.5
t0.5 -8.5q9 -9 21 -5l10.5 4t10.5 5q28 14 49 35l19.5 19t18.5 20l21.5 27t19.5 28q14 23 33 49q3 5 6.5 8.5l7.5 7.5q5 6 9 2t6 -9q2 -8 0.5 -14.5t-5.5 -12.5l-14 -22.5t-15 -22.5q-7 -9 -13 -18.5t-13 -18.5q-1 -2 -6.5 -8.5t-5.5 -7.5z" />
    <glyph glyph-name="f" unicode="f" horiz-adv-x="186" 
d="M-6 93l4 4q5 10 9.5 20l9.5 21q9 19 17 38l17 39q16 33 25 71l4 21t6 21l3 16v66q0 6 -0.5 12t-5.5 12q-7 -3 -10 -12l-13.5 -32.5t-14.5 -31.5q-8 -15 -14 -31l-12 -33q-3 -9 -6.5 -18.5t-6.5 -19.5q-2 -7 -5.5 -13t-3.5 -14q1 -3 -1 -6t-2 -6q2 -6 0 -11.5t-2 -10.5
q1 -6 0 -11.5l-2 -10.5q-1 -8 -1 -15.5t-2 -15.5q-1 -2 -0.5 -4t0.5 -4q1 -7 1 -13.5t1 -13.5q1 -3 1 -7t4 -7zM114 495q3 0 6 0.5t6 0.5t5 1q8 0 11 7l6 10l11.5 20l11.5 20l28 49l10 16.5l10 16.5q5 6 7 13l4 14q1 2 -1 3.5t-4 1.5q-2 -1 -3.5 -1t-2.5 -2q-3 -2 -7 -8
l-20 -31t-21 -29q-3 -5 -6 -9t-5 -9q-9 -14 -16.5 -29t-17.5 -29q-2 -2 -2 -4q0 -6 -3 -10t-7 -8v-4zM-53 201q2 2 2 5.5t2 6.5q3 10 5.5 20t5.5 20q14 49 33 91q3 7 5 14t5 13q7 14 12 28t13 28l10 20l10 21q4 8 7.5 16.5t8.5 16.5l34 57l35 56q2 4 4 7t3 8q2 4 4 7t4 7
l10 16.5t8 12l8.5 11.5t12.5 14l11 15q18 7 36 3q5 -2 11 -1.5t11 -0.5q14 -11 9 -31q-3 -15 -5 -23.5t-4.5 -16t-6.5 -16t-10 -24.5q-9 -21 -15 -42q-3 -13 -8.5 -25t-14.5 -23l-4 -4l-4 -4l-18 -17q10 0 13 1q16 4 31.5 7.5t30.5 8.5q8 2 15 4t15 -2q1 -1 5 -3l-2 -8
t-2 -9l-25.5 -16t-27.5 -12q-10 -2 -19 -6t-19 -6q-21 -5 -42 0q-4 1 -7.5 2t-8.5 2h-7q1 -8 1 -16t1 -16q1 -5 2 -9t2 -9q5 -26 0 -52q-2 -8 -2 -15t-2 -15v-7.5t2 -6.5q2 -5 1 -9t-2 -9q-3 -21 -9 -46q-1 -4 -2.5 -8t-2.5 -8l-21 -82q-3 -11 -7.5 -20.5l-9.5 -19.5
q-4 -7 -7.5 -14t-8.5 -14q-12 -14 -25 -26t-29 -21q-8 -6 -17 -3q-2 1 -8 1h-11q-16 9 -21 23q-1 2 -2.5 4t-3.5 4t-2 3l-6 30v16q0 2 0.5 4.5t0.5 4.5q-1 14 0.5 27.5t3.5 27.5q1 3 0 6.5t-1 6.5q2 5 2.5 9t1.5 6q1 3 2 4z" />
    <glyph glyph-name="g" unicode="g" horiz-adv-x="235" 
d="M111 233q3 9 5.5 17.5t0.5 17.5q-10 -9 -16.5 -20l-12.5 -22q-5 -8 -8.5 -16.5t-7.5 -16.5q-2 -5 -4.5 -8.5t-4.5 -7.5q-8 -11 -15 -22l-14 -22q-8 -13 -12.5 -26.5l-9.5 -27.5l-9 -26q-2 -7 4 -11q10 4 15 14q4 8 9 14l10 12l12 14.5t10 15.5q14 28 27 62q6 15 11 30z
M114 320q5 5 6 9q-4 -2 -6 -9zM145 357q2 4 2 7.5t2 8.5q-8 -7 -16 -20t-12 -23q3 0 4 1q3 5 6.5 9t8.5 8q3 2 5 9zM157 465q13 10 17 23.5t6 29.5l-8 9q-6 6 -13 0l-6 -7q-10 -12 -19 -24.5t-17 -25.5l-16 -28t-13 -30q-2 -5 -5 -10q-5 -14 -11 -27.5t-8 -28.5q-2 -4 2 -5
l5 5l26.5 33t26.5 32q2 4 5 7q9 8 15 17.5t13 18.5q2 2 1 4.5t-1 6.5zM333 508q9 -2 11 -7q0 -11 -10 -19l-12.5 -10l-12.5 -10q-8 -5 -15.5 -10.5l-14.5 -10.5t-13 -11l-12 -12q-8 -8 -17 -15.5t-17 -15.5l-28 -30q-4 -6 -6 -13l-10 -36l-10 -36q-3 -10 -6 -19t-5 -19
q-2 -7 -5.5 -12.5t-3.5 -13.5q-6 -8 -8.5 -18t-7.5 -19q-5 -10 -8.5 -20.5t-8.5 -20.5q-7 -14 -13.5 -28.5l-12.5 -28.5q-8 -16 -18 -27.5t-22 -22.5q-6 -6 -12.5 -10.5l-13.5 -9.5q-16 -15 -36 -9q-3 2 -6 2.5t-6 2.5t-5.5 4.5l-4.5 4.5q-2 5 -2.5 9.5t-1.5 9.5q0 6 1 8
q5 29 15 56t23 53l10 21l10 20q9 18 20 33.5l22 31.5q2 3 5 5.5t5 5.5q5 5 9 10.5t9 11.5q2 2 2 5t1 6q-4 -5 -8.5 -8.5t-8.5 -8.5q-8 -6 -16 -6q-12 0 -22.5 3t-19.5 13q-2 5 -3.5 10t0.5 11q-2 5 -4.5 12t2.5 12t3 16q0 8 3 17q8 24 17 47t21 46q5 8 9.5 16t6.5 17
q1 4 3.5 7t5.5 7l32 44q3 3 6 5.5t6 5.5v-1l7 3q7 5 13.5 6.5t14.5 -1.5q5 -2 11 0q9 2 17.5 -0.5t16.5 -4.5q3 0 5 -2q5 -5 10.5 -9t13.5 -3q1 -5 1 -11q0 -26 -8 -55q-5 -14 -8.5 -27t-8.5 -27q0 -5 -1 -8l11.5 9.5t9.5 11.5q2 3 5 5t5 4l22 18q22 18 48 33q10 7 24 7z
" />
    <glyph glyph-name="h" unicode="h" horiz-adv-x="291" 
d="M97 426q2 2 4 3h-3q0 -1 -0.5 -1.5t-0.5 -1.5zM101 470h-3q0 -1 -3 -5q3 2 5 4q1 0 0.5 0.5t0.5 0.5zM129 526l-2 2q-2 -1 -2 -2.5t-1 -3.5h5v4zM133 551q-2 -6 -3 -11.5l-2 -10.5q5 2 9 12q2 3 2.5 6.5t2.5 7.5l-2 6q-2 -4 -3.5 -6t-3.5 -4zM375 479q2 -5 -0.5 -7.5
t-4.5 -5.5q-7 -8 -13 -16l-12 -16q-2 0 -2 -2q-13 -10 -21.5 -23t-18.5 -25q-2 -2 -3 -5t-3 -5q-3 -8 -7.5 -15.5l-9.5 -15.5q-10 -15 -17 -29q-4 -9 -9 -16.5t-8 -16.5q-2 -3 -4.5 -6t-4.5 -5l-18 -13.5t-20 -11.5q-10 -5 -20 -1q-18 8 -31 28q-2 4 -2 8v14t2 15
q3 17 9 33.5l12 33.5q7 22 16 38q4 8 7 16.5t7 16.5q-3 2 -5 1.5t-4 -1.5l-14.5 -10l-14.5 -10l-20 -17.5t-19 -19.5q-11 -12 -20.5 -25t-14.5 -28q-1 -3 -2 -5.5t-2 -4.5l-4 -10.5l-4 -10.5q-2 -3 -2.5 -6t-2.5 -6v-2q-1 -6 -4.5 -10.5t-4.5 -10.5q0 -3 -2 -9q-1 -6 -1 -12
t-1 -13q-2 -2 -4.5 -3.5t-6.5 -3.5q-3 -1 -6.5 -1.5t-6.5 -2.5q-4 -4 -7 -6q-1 0 -2 1q0 -1 -2 -3l-7 -2q-14 10 -34 15q-13 3 -16 18q-1 4 0 10q2 2 2 9q1 1 0.5 2.5t0.5 2.5q6 5 6.5 12.5t3.5 15.5l4 13.5t5 13.5q0 1 0.5 1.5t0.5 1.5q1 4 0.5 7.5t3.5 6.5q3 3 4 7.5
t2 8.5t5 8q3 6 5.5 12t4.5 12q4 9 7.5 18t6.5 18q3 7 5 13q4 15 10 28.5l12 27.5q2 2 2.5 5t1.5 5q7 26 18.5 49l23.5 46q2 3 3.5 6.5t2.5 7.5q2 11 7 21.5l10 20.5q8 12 14 24.5t13 25.5l12 22t11 22q5 10 14 10q7 -1 13.5 -1.5t13.5 -4.5q5 -4 10 -7t9 -8q7 -7 4 -17
l-6 -16l-5.5 -14.5t-6.5 -14.5q-6 -14 -12.5 -27t-12.5 -27q-2 -4 -8 -10q-2 -2 -3.5 -4t-1.5 -4q-3 -9 -8.5 -15.5l-11.5 -13.5q-2 -2 -3 -4q3 0 5.5 0.5t5.5 0.5q0 -4 -1 -5q-2 -6 -5 -13q-2 -7 -5 -8q-6 -5 -8 -10.5l-4 -11.5q0 -6 -4 -12l-15 -31q-2 -3 -8 -9
q3 -10 -1 -18q-2 -3 -8.5 -15.5t-14.5 -25.5q2 2 3.5 2t2.5 1q18 18 38.5 32t42.5 27q31 19 66 2q13 -6 15 -21q1 -11 -3 -21q-5 -13 -9 -26t-10 -25q-3 -6 -4.5 -12.5t-3.5 -12.5l-2 -8t-3 -9q-4 -9 -4 -23q16 22 35 44q4 5 8 9.5t9 9.5l28.5 34t25.5 36q11 20 29 25h2
q12 3 14 -2z" />
    <glyph glyph-name="i" unicode="i" horiz-adv-x="136" 
d="M45 217q-7 2 -11.5 4t-9.5 5q-12 8 -19 24q-6 12 -6 23.5t2 22.5l4 33.5t7 32.5q2 7 5 19t7 24.5l7.5 24t6.5 17.5q1 4 4.5 12t6.5 16.5t6 16t5 11.5q4 6 4 10q0 6 1 9q16 9 33 -1l9 -5q17 -7 13 -26q-1 -3 -4.5 -14.5t-8 -25t-8 -25t-4.5 -14.5q-4 -6 -5 -10
q-7 -22 -11.5 -44l-9.5 -45v-8q5 4 8 7.5t6 7.5l37 43t35 46q5 8 5.5 9.5t2.5 5.5l6.5 9.5l9 13.5t8.5 12.5t4 7.5q2 4 5 5.5t5 3.5q18 8 33 7q4 -6 1 -9q-7 -8 -15 -21l-16 -26.5l-16 -26t-15 -20.5q-5 -10 -10.5 -18.5l-12.5 -19.5q-8 -14 -14 -25.5t-18 -28.5
q-4 -6 -9 -12t-8 -13t-7.5 -13t-9.5 -12l-5 -5t-6 -5q-14 -9 -28 -10zM87 580q2 6 8 8t14.5 2.5t14.5 0.5q17 -2 26 -11q3 -3 1 -7q0 -4 -4 -8q-2 -2 -4.5 -4t-4.5 -5q-5 -5 -11 -7l-12 -4q-5 -2 -10 2q-7 4 -13.5 14.5t-4.5 18.5z" />
    <glyph glyph-name="j" unicode="j" horiz-adv-x="149" 
d="M8 240q-14 -8 -23.5 -18.5t-18.5 -21.5q-13 -15 -24.5 -31t-22.5 -33q-17 -23 -26 -50q-4 -11 -6.5 -22t-6.5 -22q-5 -16 -7 -35.5t1 -37.5q8 0 15 10q10 14 19 28.5t17 29.5l15.5 33t14.5 33q8 17 14.5 33.5l13.5 33.5q6 15 11 29.5l10 29.5q1 3 2 5.5t2 5.5zM-15 27
l-3 -4q-3 -3 -5.5 -6.5l-4.5 -6.5l-9.5 -15t-9.5 -13l-22.5 -27.5t-27.5 -23.5q-9 -4 -20 -6q-14 -2 -26.5 2.5t-25.5 10.5q-6 3 -8 9t-2 13q0 4 1 8t1 9q0 29 8 57t19 55q6 16 13 31t16 30q8 14 18 28.5t21 28.5q14 19 29 36t32 33q11 11 22.5 21t24.5 18q5 4 7.5 8.5
t4.5 9.5q3 7 5 13.5t4 14.5q5 21 11 42.5l12 43.5l3 23q5 20 9.5 40.5t9.5 40.5q2 8 3 16t3 19q0 1 2 2.5t4 3.5q7 0 12.5 0.5t10.5 -0.5q5 -2 9.5 -5t9.5 -6q0 -4 0.5 -7.5t-0.5 -7.5q-2 -8 -2 -14.5v-14.5l-2 -34t-5 -34q-1 -5 -1 -9t-1 -8q-2 -17 -6 -32.5l-8 -31.5
q0 -5 -1 -9l14 7q17 8 34.5 13.5t35.5 9.5q6 1 12.5 1.5t12.5 2.5q15 3 28 -1.5t24 -13.5q4 -3 3 -9q-1 -5 -8 -5q-5 1 -9.5 1t-9.5 1q-21 1 -41 -4t-39 -13q-11 -5 -21.5 -11.5t-20.5 -13.5q-8 -5 -14.5 -9.5t-12.5 -10.5q-7 -7 -8 -13l-9.5 -31.5l-9.5 -31.5
q-7 -20 -13 -40t-17 -38q-2 -4 -2 -5q-2 -8 -5.5 -15.5t-6.5 -15.5t-6.5 -16.5t-7.5 -16.5l-6 -14t-7 -15q-1 -2 -2.5 -4t-3.5 -4q-3 -5 -6.5 -9.5t-6.5 -9.5q-3 -4 -3.5 -8.5t-2.5 -9.5zM100 669q1 4 10 5q8 2 15.5 0.5t14.5 -3.5q10 -4 13.5 -16t-4.5 -20q-5 -5 -17.5 -4
t-17.5 5q-6 3 -10.5 12.5t-4.5 16.5q0 2 0.5 2.5t0.5 1.5z" />
    <glyph glyph-name="k" unicode="k" horiz-adv-x="265" 
d="M190 445l17 14q7 5 12.5 11.5t9.5 14.5q-7 0 -10 -1l-20.5 -9.5l-19.5 -9.5q-5 -2 -16 -8.5t-19 -13.5q-10 -8 -18.5 -15.5t-16.5 -16.5q-1 -1 -2 -2.5t1 -3.5q9 3 18 4.5t18 5.5q5 2 9.5 5t9.5 5q16 7 27 21v-1zM281 505q7 -4 6 -13q-2 -10 -5 -14q-7 -10 -13 -19.5
t-14 -17.5q-2 -2 -1.5 -4.5t-3.5 -3.5q-2 0 -3.5 -2t-3.5 -4l-7 -7q-3 -2 -8 -7l-9 -6q-2 -2 -4 -3t-4 -3q-2 -1 -4.5 -2t-4.5 -2t-3.5 -2t-3.5 -2q-10 -7 -20 -10.5t-21 -5.5q-6 -2 -12 -3t-11 -5q0 -5 4 -11l27 -43q3 -5 6.5 -9l7.5 -9q2 -2 3.5 -2t3.5 -1q6 -4 10 -6
q-1 -2 -1.5 -3.5t-1.5 -2.5q-4 -2 -6 -5l-4 -6q-7 -12 -24 -10q-10 2 -14 4q-23 10 -39 27l-12.5 14t-11.5 16q-3 -9 -7 -16t-2 -16q2 -10 -6 -16q-7 -5 -7.5 -10.5t0.5 -11.5q0 -15 3 -30q2 -5 1 -9.5t-1 -9.5q-5 -5 -9 -9.5t-12 -4.5q-9 7 -19 18q-1 2 -3 4q-17 20 -17 46
v5q3 12 2 20q-2 20 0 40.5t6 40.5q3 18 7 36l8 36l2 10.5t3 10.5q1 2 2.5 7.5t4 12t4.5 12.5t4 9l6 16t5 16q3 8 6 15t3 16q0 2 1 5t2 5q22 46 43 95q2 3 2.5 8t2.5 10q4 8 9 9t10.5 0t9.5 -4q6 -4 12 -7t13 -8q8 -17 1 -38q-3 -12 -7 -24.5l-8 -25.5t-5 -24q-3 -15 -10 -29
q-9 -17 -10 -33q-1 -5 -2 -8.5t-2 -7.5q0 -2 -0.5 -4t-0.5 -5l6 2q14 10 29.5 17.5t31.5 14.5q37 17 75 5q4 -2 7.5 -4t7.5 -4z" />
    <glyph glyph-name="l" unicode="l" horiz-adv-x="151" 
d="M153 552q4 4 7 2q-1 -2 -1 -3t-1 -2q-2 -2 -4 -2q-4 0 -1 5zM190 582l2 2l1 -1l-2 -2zM176 601q2 4 4 10q2 2 2.5 3.5t2.5 3.5q-5 -2 -5 -7q-5 -4 -5.5 -5t1.5 -5zM212 640q-5 -4 -8 -9t-7 -10l-11.5 -15.5t-11.5 -14.5q-3 -4 -5 -8t-5 -8q-5 0 -7 -4t-4 -7
q-4 -5 -6.5 -11t-4.5 -12q-1 -2 0 -4t1 -4l-10.5 -22t-8.5 -23q0 -4 -2 -6q-7 -9 -10.5 -21t-3.5 -19l1 -6q-1 -8 -4 -18t-4 -20q-1 -9 -8 -19q-4 -6 -6.5 -12.5t-1.5 -14.5q0 -4 -0.5 -7.5t0.5 -7.5q1 -5 -0.5 -9.5t-3.5 -8.5q-4 -7 -3.5 -14t-0.5 -14v-3q3 -6 4 -13l2 -14
q1 -4 5 -10q6 4 10 13q11 17 21.5 35t22.5 36q23 35 48.5 68t54.5 63l7 9t7 8q6 8 16 4q-2 -9 -7 -19t-10 -17l-40 -47q-8 -10 -15 -21t-18 -24q0 -2 -2 -4q-8 -16 -17.5 -29t-17.5 -28t-11 -28q-1 -5 -3 -10.5l-4 -10.5q-5 -11 -7.5 -21.5t-0.5 -22.5q0 -10 -4 -18
q-2 -2 -2.5 -5.5t-1.5 -5.5l-17.5 -7.5l-16.5 -6.5q-2 -1 -7 -1q-9 2 -18 4.5t-17 6.5q-6 1 -10 9l-18 42q-2 4 -2.5 7.5t-2.5 7.5q-5 8 -2 16q1 3 0 6t-1 5q-1 3 -1.5 5.5t-0.5 5.5l2 18.5t-1 18.5v2v1q5 8 5.5 16t2.5 16l13.5 51.5t16.5 51.5q5 12 8.5 24.5t8.5 24.5
q2 3 3.5 6.5t3.5 6.5q3 5 5.5 8.5t1.5 9.5q-3 3 2 5q6 6 7.5 14t6.5 15q2 2 1 5q-2 5 -0.5 8.5t3.5 7.5l21 46t19 46q10 27 21 51q4 8 6.5 15.5t5.5 15.5q2 5 4 11t5 11q5 11 12 15t20 3q4 -1 7 0t6 -4q1 -1 5 -1q22 -2 30 -19q2 -5 5 -9.5t5 -9.5q5 -15 -1 -32
q-11 -26 -25 -49q-3 -5 -5.5 -11.5t-6.5 -11.5q-3 -4 -5.5 -7t-6.5 -6z" />
    <glyph glyph-name="m" unicode="m" horiz-adv-x="461" 
d="M134 496q-5 0 -6 -9q2 4 4.5 5t1.5 4zM141 510v2q-2 0 -3 -1l1 -2q2 0 2 1zM596 506v-7q1 -15 -11 -21q-21 -12 -39 -30l-33 -32t-31 -33q-8 -9 -14 -19.5t-11 -21.5q-2 -2 -2 -4.5t-2 -4.5q-6 -5 -9 -12t-8 -14l-12 -18t-13 -17q-2 -3 -5.5 -6t-6.5 -5q-4 -2 -8 -2
t-8 0.5t-9 -1.5h-3q-7 2 -20.5 9.5t-21.5 13.5q-1 5 2 8.5t1 8.5t-1 9t0 9q0 4 0.5 8t3.5 7q1 1 1 3q3 15 8 28t11 27l12 28q8 20 18 39.5l20 39.5q-8 -2 -11.5 -3t-8.5 -6l-16.5 -14t-15.5 -15q-3 -4 -6 -7l-6 -6q-11 -9 -19 -20l-16 -22q-3 -4 -6 -7.5t-5 -8.5
q-6 -8 -12 -17l-12 -18q-5 -2 -13 -4q-17 3 -33 17l1 4q-2 13 1 24.5t7 22.5l9 28l6 22l6 22q0 2 2 10q-5 0 -8.5 -1.5t-7.5 -3.5q-3 -2 -7 -4t-6 -5q-15 -15 -31 -29.5t-28 -32.5v-3q-4 -5 -7 -9.5t-8 -9.5q-12 -14 -21.5 -28.5t-17.5 -30.5q-2 -4 -3.5 -8t-3.5 -8l-12 -25
q-2 -5 -4.5 -10.5t-5.5 -10.5q-3 -8 -6 -11.5t-11 -8.5q-7 -3 -14 -5.5t-15 -4.5q-11 -2 -18 2.5t-13 11.5q-13 16 -7 31q1 2 1 5q-3 9 0 16t5 15q5 11 6 22q0 10 4 15q5 7 6.5 14t3.5 15t5 14.5t4 14.5q2 11 7 18q7 9 10.5 18.5l7.5 20.5q2 6 4.5 11.5t4.5 10.5q2 3 4.5 5
t4.5 4q-2 2 1 6.5t5 6.5q0 2 0.5 3t0.5 2q-1 14 8 30l14.5 22t12.5 24q1 3 4 4.5t5 3.5q7 0 15 -5q4 -3 8 -5.5t8 -5.5q6 -4 8 -7.5t0 -11.5l-6 -21.5t-11 -19.5q-2 -1 -5 -6q5 -13 -3 -25q-4 -6 -4 -11q0 -7 -3.5 -12.5t-5.5 -10.5l-3.5 -7t-0.5 -8q1 -1 -1 -5
q-3 -5 -4.5 -10.5t-3.5 -10.5q-5 -8 -7 -17t-5 -20l20 22l28.5 30.5t30.5 29.5q3 3 4 5q10 12 22 20t26 15q4 2 7.5 4t8.5 4q12 6 18 7t22 -1l8 -11q4 -8 3 -15q-2 -14 -3 -27t-5 -26q-1 -2 -0.5 -4t-0.5 -5l18.5 17l17.5 16l31.5 26t33.5 24q21 13 43 9q20 -3 29 -18
q-1 -17 -6.5 -32.5t-12.5 -30.5q-5 -11 -9.5 -22t-8.5 -23q-7 -22 -18 -46q2 0 3.5 1.5l3.5 3.5l20 19.5t19 20.5l28.5 27.5l29.5 27.5q5 5 10.5 8.5t10.5 8.5q2 3 4 5.5t4 4.5q6 3 10.5 5.5t9.5 4.5t10 3.5t10 3.5q3 0 9 -2z" />
    <glyph glyph-name="n" unicode="n" horiz-adv-x="304" 
d="M252 339q1 0 1 0.5t1 0.5h1v2zM401 511q4 -2 5 -6t1 -7q-6 -8 -9 -11q-14 -12 -25 -26.5l-22 -29.5q-7 -9 -13 -19t-14 -19q-5 -8 -9.5 -16.5t-6.5 -18.5q-2 -5 -3.5 -9.5t-5.5 -9.5q-3 -3 -5.5 -6.5t-4.5 -7.5q-6 -11 -12.5 -21t-15.5 -18q-2 -2 -2 -5v1q-7 -7 -15 -10
t-16 -8q-11 1 -21.5 4.5t-21.5 8.5q-5 2 -8 9q-7 12 -11 23q-2 8 -1 13t3 12q2 5 2.5 10.5t1.5 10.5q6 27 15 50q3 8 6.5 15.5l7.5 15.5l10 19.5l10 19.5q4 8 0 12q-5 -1 -7.5 -3.5t-4.5 -5.5q-7 -10 -14.5 -18.5t-12.5 -19.5q-5 -8 -12 -14q-8 -9 -16 -19t-13 -21
q-3 -7 -9 -13q-11 -14 -18.5 -28.5t-14.5 -30.5q-3 -7 -5 -13.5t-7 -12.5q-4 -6 -6 -14q-2 -12 -11 -13q-2 -1 -4 -3q-12 -8 -24 -3l-17 7l-10 4t-10 5q-7 5 -7.5 8.5t-0.5 11.5q-2 6 -2 10q0 5 0.5 10t1.5 10l13 52q8 33 19.5 64.5t27.5 61.5l4.5 9t6.5 12l14 21l14 20l4 5
l2 1q3 1 6 -2q5 -4 10.5 -7.5t10.5 -8.5q8 -7 10 -18q1 -5 1.5 -9.5t0.5 -9.5q1 -1 -1.5 -6t-3.5 -10q-1 -8 -1.5 -16t-2.5 -16t-4 -17t-4 -17q0 -2 1 -4l5 3q18 20 34 40t37 37q0 1 2.5 1.5t2.5 2.5q6 1 12.5 2.5t12.5 1.5q7 0 13 -1t13 -2q13 -13 20 -27q8 -12 3 -28
q-2 -8 -3.5 -16.5t-3.5 -16.5q-5 -18 -9 -35.5l-8 -35.5q-1 -2 -0.5 -4t0.5 -4q5 7 10 13l10 12l5.5 7.5t6.5 6.5q12 13 22.5 27l21.5 28q5 6 8.5 11.5t8.5 10.5l36 39q2 2 3.5 4t3.5 4l3 3q2 1 6 1z" />
    <glyph glyph-name="o" unicode="o" horiz-adv-x="212" 
d="M106 381q-5 -2 -10.5 -2.5t-11.5 -2.5q-11 -19 -15.5 -34l-10.5 -35q0 -1 -0.5 -1.5t-0.5 -1.5q7 5 16.5 15.5t19 22.5t17.5 23.5t13 20.5q-7 -3 -17 -5zM62 442q2 4 5 7t5 7q7 15 24 15h5q8 -4 11 -6q19 -13 6 -32l-10 -12v-2l19.5 9.5l19.5 9.5q11 4 14 16l6 17
q5 13 5 24t-5 16q-8 6 -15.5 12.5t-15.5 12.5q-2 2 -5 3t-5 3q-17 -9 -27 -20t-21 -32q-16 -29 -16 -48zM286 488l-15.5 -11.5t-15.5 -10.5q-16 -7 -30 -15.5l-28 -17.5q-8 -5 -11 -14l-10 -23t-13 -22q-2 -2 -4 -6q-6 -17 -16.5 -31t-23.5 -27q-8 -8 -15.5 -16.5
t-14.5 -18.5l-7 -6q-3 -3 -3 -8q-23 -24 -47 -9q-20 11 -26 32q-11 32 0 62l10 24.5t13 23.5l4 6q-2 3 -4 5.5t-4 5.5q-3 4 -6 12q-2 7 2 13q0 6 -0.5 12t-0.5 12q-1 16 6 31q25 52 73 91q1 0 1 0.5t1 0.5q-1 0 3 2q8 -5 16.5 -6.5t17.5 -2.5q6 0 12 -2l12 -4
q11 -5 17 -12.5t10 -16.5q8 -16 8 -32v-24v-10t-2 -10q11 5 19.5 9.5l17.5 9.5q7 5 14 9.5t14 9.5q8 6 15.5 6t15.5 -2q4 -8 1 -12.5t-6 -6.5z" />
    <glyph glyph-name="p" unicode="p" horiz-adv-x="267" 
d="M233 490q8 11 14.5 23.5t9.5 26.5q-3 0 -4 -1l-30 -19.5t-27 -22.5q-7 -8 -14 -14.5t-14 -14.5q-5 -7 -10.5 -13t-10.5 -14l-17.5 -37.5l-17.5 -37.5v-3q2 1 3 1t3 1q8 4 14.5 9.5t12.5 11.5l18 18l15 14.5t12 14.5q5 5 9 11.5l8 12.5l13.5 16t12.5 17zM306 553
q2 -6 2 -9l-2 -10.5t-3 -9.5l-11.5 -21l-11.5 -20q-8 -13 -16.5 -24.5l-16.5 -22.5q-5 -8 -12 -14.5t-13 -13.5l-18 -18t-19 -18q-24 -23 -50 -37q-8 -4 -18 -1q-4 1 -7.5 2t-8.5 3l-7.5 -15.5t-5.5 -15.5q-3 -9 -5.5 -18.5t-4.5 -19.5q2 -10 -1.5 -18.5t-1.5 -17.5
q0 -4 -1 -5q-4 -8 -4.5 -15.5t-1.5 -15.5q0 -5 -1 -7q-6 -13 -4 -30q0 -6 -1 -10l-10 -4q-7 -4 -14 -1q-18 6 -36 15q-12 6 -8 20l12 52q2 5 1.5 10.5t1.5 10.5l6 26q2 5 2 9.5t1 9.5q7 35 14.5 68.5t17.5 66.5l10 31.5l10 32.5q5 15 9.5 30.5t9.5 30.5q4 12 8.5 24l8.5 23
q11 8 20.5 7.5t20.5 -5.5l8 -5q6 -2 7.5 -5t1.5 -8q-1 -2 -1 -5q-4 -14 -7.5 -28t-8.5 -28q-3 -9 -6.5 -18.5t-5.5 -19.5v-3q2 -2 3 -0.5t3 3.5q13 14 27 27t31 24q24 14 46 24q11 5 21.5 4.5t21.5 -2.5q12 -3 18 -15z" />
    <glyph glyph-name="q" unicode="q" horiz-adv-x="216" 
d="M133 91q0 15 -2.5 29.5t-5.5 29.5q-1 1 -4 7q-2 -20 -3 -37.5l-2 -35.5q-1 -12 0.5 -24.5t0.5 -25.5q0 -2 0.5 -4t0.5 -4l3 -24q1 -3 1.5 -6t5.5 -6q1 8 1 14t1 13q5 36 3 74zM159 490q9 13 9 31q-20 -2 -32 -14q-18 -18 -31 -38q-24 -38 -39 -81q-5 -14 -9 -28t-6 -29
q-3 -15 3 -31q5 5 8 10.5l6 10.5l53 99l19.5 35.5zM226 545q3 0 4.5 -1.5t5.5 -6.5v-3q-8 -13 -14 -26.5t-11 -27.5q-8 -20 -15 -41t-15 -41q-3 -8 -6.5 -16.5t-6.5 -16.5l-10.5 -28.5t-8.5 -28.5q-5 -18 -10.5 -35.5t-6.5 -37.5q7 -2 13.5 -1.5t13.5 -0.5q11 0 16 -8
q-2 -2 -3 -3.5t-3 -2.5q-10 -2 -16 -2q-3 -1 -6 -1t-6 -1q-1 -5 1 -7.5t3 -4.5q1 -4 4.5 -5.5t1.5 -6.5q4 -2 4.5 -5.5t2.5 -6.5q1 -4 2.5 -7t2.5 -7l3 -14q2 -10 3.5 -19.5t4.5 -18.5q5 -18 6 -37q0 -4 -0.5 -8.5t3.5 -8.5q1 -1 1 -4q-2 -11 -1.5 -22.5t-0.5 -22.5
q-2 -11 -2 -22.5t-1 -22.5q0 -2 -0.5 -2.5t-0.5 -2.5q-2 -18 -12.5 -28.5t-26.5 -15.5q-6 -2 -14.5 -4t-14.5 2q-6 3 -14 14t-10 18q0 3 -2 5q-5 7 -6.5 14.5t-2.5 15.5l-4 42t0 42v13.5t3 13.5q2 5 2 16q-1 21 2 42t7 41v8q-12 12 -30 15q-5 1 -9.5 1t-7.5 5q-3 17 13 23
q3 2 9 4q8 5 16 5.5t17 -4.5q2 4 2.5 8t1.5 8t2 7.5t2 7.5q-3 2 -4 0.5t-3 -2.5q-17 -17 -43 -17h-8q-20 0 -31 12l-9 29q-2 8 -2.5 16.5t5.5 16.5q2 2 2 8l3 21q1 2 1 3t1 3q7 13 11.5 26.5t10.5 27.5q2 4 4.5 8t4.5 9t2 9t2 9q4 7 5.5 13t6.5 13q7 13 18 27q2 2 4 4.5
t4 5.5q15 23 44 25q9 0 13 1q15 3 29 -3q8 -3 17 0q9 4 18 2.5t19 -1.5z" />
    <glyph glyph-name="r" unicode="r" horiz-adv-x="281" 
d="M124 557q-8 -2 -11.5 -6t-8.5 -8q-12 -10 -22 -22q-4 -5 -5.5 -10t0.5 -13q15 5 24 15t16 22q3 5 6.5 9.5t0.5 12.5zM243 233q0 -3 -3 -4.5t-3 -2.5q-10 -11 -25 -18q-5 -3 -11 -5.5t-12 -4.5q-8 -3 -15 -3.5t-15 4.5l-9.5 5.5t-9.5 4.5q-14 8 -18.5 17.5t-7.5 24.5
l-2 18.5t-1 19.5q1 18 3.5 33.5t6.5 26.5l13.5 39.5t8 21.5t7 14l9.5 17q-9 0 -17 1.5t-16 -1.5q-14 0 -28 2.5t-26 11.5q-8 5 -9 11t-8 12q-5 5 -5.5 11t-4.5 11q-1 9 -2 14t-1 9t1 9t5 15q1 4 3 6q6 9 10 13.5l7 8t6 6t9 6.5q12 9 27 5q5 -2 9 -2t9 -2q11 -3 22 -12
q10 -9 9 -20q-1 -6 -1.5 -12t-2.5 -11q-5 -12 -6 -22q-1 -4 -2 -7.5t-3 -8.5q2 -1 7 -1q9 -2 18 -2t18 -2q2 0 4.5 -1t4.5 -2q11 -5 25 -17q8 -6 12 -15.5t-3 -16.5q-2 -2 -2.5 -6t-2.5 -10q-2 -5 -5 -15l-6 -21l-7 -29t-3 -30q0 -5 -0.5 -8.5t-1.5 -8.5q-1 -13 -1 -25
t2 -25q0 -1 2 -7q8 6 13.5 13.5t10.5 15.5l20 36q3 6 3 11.5t4 3.5q2 3 3 6.5t4 6.5q5 5 8 11.5l6 13.5l20 44q6 13 11 22l13 23q3 5 5 10t10 8q2 -1 5 -1l7 -4q-1 -2 -1 -3t-1 -3q-6 -8 -7.5 -15.5t-3.5 -18.5q-4 -3 -5 -6t-1.5 -6t-1.5 -7t-4 -8q-5 -7 -6 -15.5t-4 -17.5
q-6 -17 -12 -28t-13 -26q-8 -12 -12.5 -24t-12.5 -23q-2 -3 -2 -6.5t-2 -6.5t-2.5 -6.5t-5.5 -6.5q-3 -2 -4 -5.5t-4 -7.5z" />
    <glyph glyph-name="s" unicode="s" horiz-adv-x="222" 
d="M91 298q4 6 7.5 12t4.5 14q-7 -4 -12 -13q-5 -8 -13 -11q-9 -5 -12 -13q-4 -7 -8 -10q-7 -4 -9 -14q0 -4 -1 -7q0 -3 3 -4q5 5 10 9t10 9l10 13.5t10 14.5zM303 502q2 -4 1 -8l-3 -4q-3 -3 -5.5 -6t-5.5 -6l-18 -18t-20 -16t-21 -15l-20 -16l-3 -29q0 -4 -1 -5
q-8 -16 -13.5 -32t-15.5 -30q-7 -10 -12.5 -20l-11.5 -20q-4 -6 -9 -11.5l-10 -10.5q-5 -3 -8 -8q-2 -4 -5 -7l-6 -6q-4 -2 -7.5 -5t-7.5 -6q-7 -5 -15.5 -7.5t-16.5 -3.5q-5 -1 -8.5 -1.5t-7.5 -2.5t-13 -1t-13 3t-7.5 4.5t-6.5 5.5q-5 5 -7.5 10t-4.5 10q-3 13 5 23
l5.5 5.5t4.5 6.5q0 1 2 3q17 15 32 30.5t32 29.5q8 6 14 13.5t14 12.5q3 2 9 8q10 6 10 17q1 7 1 13t1 12h-25q-15 0 -29 8q-1 0 -3 2l-22 17.5t-19 19.5q-5 9 -4 15q2 10 3.5 19t6.5 18q4 7 6.5 14t7.5 13q5 11 13 19.5l16 16.5q10 10 20 18.5t22 15.5q10 6 18 1
q7 -4 12.5 -8t10.5 -10l7 -6q17 -15 4 -32l-9 -12l-14 -18t-13 -18q-2 -2 -2.5 -4t-2.5 -4q-9 -9 -13 -22q8 -2 15.5 -2.5t14.5 -2.5q8 -3 14 -7t13 -7q7 -4 12.5 -8.5t12.5 -9.5l31 22q8 6 17 12t17 12q12 7 20 15q2 2 3.5 2t3.5 1q4 1 7 -2z" />
    <glyph glyph-name="t" unicode="t" horiz-adv-x="147" 
d="M111 477q17 23 17 44q-2 -5 -4.5 -8t-4.5 -7q-2 -8 -5 -14.5t-3 -14.5q-7 -7 -6 -14q-6 -6 -3 -12q4 6 3 12q3 3 5.5 6t0.5 8zM126 538q3 2 1 4q-1 -2 -1 -4zM154 601l1.5 3l1.5 3q-16 -8 -17 -27q0 -3 -2 -11q4 2 4 3q4 8 6.5 15t5.5 14zM163 620q1 1 -1 3v-2v-2
q-6 -4 -4 -11q5 5 4 10zM311 741q1 -2 6 -3q-4 -5 -5 -6q-10 -6 -27 -8q-16 0 -31 -0.5t-30 -1.5q-1 -2 -1 -5q-2 -5 -3 -9t-4 -9l-3.5 -9l-3.5 -9q-4 -11 -9 -21l-10 -21q-3 -7 -7 -13t-6 -14q3 -2 5 1q2 2 2.5 4t3.5 2q1 -5 0 -11t-3 -9q-5 -8 -7.5 -16t-6.5 -16l-8 -18
t-9 -18l-17 -29q-3 -5 -5 -9.5t-4 -9.5l-6 -13.5t-7 -13.5l-11.5 -26t-9.5 -27q0 -2 -1 -4t-2 -5q-2 2 -2 2.5t-1 1.5q-6 -14 -5 -28q0 -7 -0.5 -13t1.5 -13q1 -5 -1 -15q-1 -11 2.5 -21t9.5 -21l3.5 3.5t2.5 3.5q14 21 26 43.5t25 44.5l25.5 45t28.5 42l10 13q1 2 2 5l2 6
l3.5 3.5t2.5 3.5t5 8.5t6 7.5t3 -4.5t2 -5.5t-1 -3.5t-2 -5.5q-2 -4 -3 -9q0 -1 -3 -6l-7 -12q-4 -8 -10 -17l-12 -17l-17 -26q-5 -11 -9 -21.5t-9 -21.5q-4 -10 -3 -18q0 -6 -3 -12q-2 -7 -4 -13t-4 -13q-2 -6 -3.5 -11.5t-1.5 -11.5q-1 -8 -3.5 -15.5t-5.5 -15.5
q-4 -7 -5 -13l-3 -13q-4 -2 -8 -4.5l-9 -5.5q-5 -1 -9 -1t-8 -1q-11 -2 -21 0t-20 6q-6 2 -10.5 6.5t-8.5 10.5q-5 8 -9 19q-8 27 -10 56q0 5 1 6q4 8 2 20q0 3 1 4q4 7 3.5 14t0.5 15q2 7 2.5 14t3.5 14q2 6 2.5 12t2.5 12q0 5 2 9q5 12 7.5 24.5t5.5 25.5q2 11 5.5 21.5
t6.5 21.5q4 15 7.5 30t8.5 30l6 21t7 21l14 40.5t15 40.5h-35q-9 0 -18 2t-17 7q-3 2 -3.5 4t-2.5 8q4 2 6 2q1 2 1 3t1 3q1 1 3 1q9 -3 17.5 -3t17.5 2q11 2 21 2.5t21 2.5l15 44q1 2 2 3.5t2 3.5l6 10.5t5 11.5q3 5 5 11t5 13q2 0 5.5 -0.5t5.5 1.5q4 2 6 0t5 -2
q20 0 38 -12l3.5 -3.5l3.5 -3.5q5 -8 6.5 -15.5t2.5 -15.5q1 -2 -2 -7q-6 -10 -9 -23q-1 -4 -5 -12q31 0 63 -6l6 -2z" />
    <glyph glyph-name="u" unicode="u" horiz-adv-x="253" 
d="M357 503q5 -14 -9 -25q-3 -2 -5.5 -4.5t-5.5 -4.5q-21 -16 -33 -41l-3 -4q-9 -15 -15 -31l-12 -33q-5 -11 -9 -21t-7 -21q-3 -12 -8 -28q-8 -27 -19 -49q-4 -7 -6.5 -14t-6.5 -15q-17 -2 -29 11q-9 10 -11 20l-9 33q-2 9 -1.5 18.5t0.5 19.5q1 34 9 69l6 18.5t5 18.5
q2 6 4 14q-9 -9 -14.5 -19l-11.5 -21t-11.5 -22.5l-10.5 -22.5l-18 -42.5l-19 -41.5q-2 -5 -5 -9.5t-5 -9.5q-7 -8 -18 -13l-11 -3q-10 5 -21 7.5t-21 10.5l-11 9q-6 5 -7 13l-4 16l-4 16q2 5 2.5 11.5t1.5 12.5q1 17 3.5 32.5t7.5 31.5q5 17 11 34.5l12 34.5q5 16 12.5 31
l15.5 30q2 3 4 9q3 6 3.5 8.5t-0.5 10.5q11 11 25 6q6 -2 9 -2q5 2 7.5 0t4.5 -4q8 -8 12.5 -18t1.5 -22q-2 -9 -6 -17t-6 -17l-3 -5l-7.5 -21.5l-7.5 -21.5q-2 -8 -5 -16t-5 -16q-5 -15 -8.5 -30t-7.5 -29q-1 -3 -1 -12q9 6 14 17q6 8 11 17.5t11 17.5q2 5 5.5 9t6.5 8
q9 13 17 26t19 24q2 2 3 4l2 4q13 21 29 33q4 3 11 10t16 6q10 -1 23 -5q5 -2 7.5 -8t-0.5 -11q-5 -8 -6.5 -17.5t-3.5 -18.5q-3 -11 -6.5 -22.5t-7.5 -22.5q-5 -18 -9.5 -36t-5.5 -38q0 -6 -0.5 -12t-1.5 -13q4 2 5 5t3 5q2 3 3.5 5.5t3.5 5.5l41 83q4 8 8.5 16t9.5 16
q6 11 13.5 21t13.5 21q9 14 18 22q6 6 12.5 9t15.5 -1z" />
    <glyph glyph-name="v" unicode="v" horiz-adv-x="259" 
d="M308 529q1 -2 2.5 -4t3.5 -4q-6 -6 -9 -8q-14 -7 -26 -16t-25 -17q-8 -5 -13.5 -12t-11.5 -13q-5 -5 -8.5 -11t-8.5 -11q-11 -11 -19.5 -23.5t-14.5 -27.5q-1 -3 -6 -8q-14 -15 -15 -30q0 -8 -3.5 -14l-6.5 -11q-8 -11 -14 -22.5t-16 -21.5q-2 -2 -2.5 -5t-2.5 -6
q-5 -1 -10 -1.5t-11 -2.5q-4 2 -8 4.5t-9 1.5q-5 0 -9 3q-8 4 -17 10q-2 6 -3 13t-1 14q-1 14 -1 29t3 29q0 18 3.5 35.5t4.5 34.5q0 8 1.5 16t3.5 16q2 11 5 22.5t5 23.5q2 7 3 13.5t4 12.5q2 3 1 6.5t-1 8.5q1 0 3 2q11 7 21 4.5t20 -7.5q18 -7 16 -29q0 -7 -1.5 -13
t-2.5 -12l-4 -24l-4 -24l-2 -10.5l-2 -10.5q-1 -4 -1 -14q8 8 14.5 16.5t14.5 16.5q9 10 18.5 19.5t20.5 18.5l22 17.5t23 16.5q2 1 6 5q5 5 10 8.5t10 7.5q1 2 6 2q11 4 21 1.5t21 -3.5q1 -4 1 -6.5t1 -5.5z" />
    <glyph glyph-name="w" unicode="w" horiz-adv-x="325" 
d="M335 539q0 -7 -2 -17t-4.5 -19.5t-5 -17t-2.5 -8.5q-1 -8 -3.5 -14.5t-4.5 -14.5q-1 -3 -3.5 -11.5l-5.5 -18t-5 -18t-3 -11.5l-15 -51q-1 -1 -6 -12l-11.5 -25t-11.5 -27.5t-6 -18.5q-2 -8 -5 -15.5t-9 -13.5q-2 -2 -2 -3.5t-1 -3.5q-2 -3 -2 -6.5t-2 -5.5q-2 -8 -10 -8
q-2 1 -3 0.5t-3 -0.5l-10 -3q-4 0 -10 -2q-13 -5 -24 3q-1 1 -1.5 2.5t-1.5 2.5q-3 4 -5 8t-5 7l-2 2q-3 8 -6 15t-3 15l-2 14q-1 1 -1 5v44q0 6 0.5 12t0.5 12q1 3 1 10t2 19.5l4 26t3.5 25t2.5 15.5l-1 -1q-8 -14 -13 -28t-11 -28q-3 -8 -6.5 -14.5t-5.5 -14.5
q-2 -5 -5 -9.5t-5 -9.5q-5 -11 -12 -18q-2 -1 -4 -5v-2q-10 -18 -27 -17q-7 0 -11 -1h-8.5t-8.5 2q-18 4 -26 24q-2 5 -3.5 10.5t-2.5 11.5q-2 8 -2.5 16.5t1.5 17.5q2 5 2 11t1 12q2 15 5 29.5t7 29.5q4 16 8.5 31.5l9.5 31.5q2 5 3 8.5t2 8.5q9 29 23 55q5 1 8.5 2t8.5 2
q4 -1 8.5 -1t9.5 -2q4 -2 7 -4t7 -4q2 -2 2 -4q2 -5 2 -10t-2 -10q-3 -8 -4.5 -16.5t-4.5 -16.5q-2 -2 -2 -5.5t-1 -6.5l-9 -34l-4 -16.5t-5 -16.5q-5 -14 -7.5 -28t-6.5 -28q-1 -3 -1 -7t-1 -9l4 7q5 8 10.5 15l11.5 14q5 6 9 11.5t9 10.5q2 2 4 4.5t4 5.5q3 6 7 10l9 9
t9.5 9t9.5 8q3 3 6 9t8 10q7 5 15 4l12 -2t11 -3q1 -1 3 -5q2 -6 -1 -10q-3 -5 -4 -9.5t-3 -9.5l-6 -41q-1 -7 -1 -13.5v-12.5q-1 -11 -4 -28t-4 -28v-21.5t1 -21.5q1 -7 1.5 -14t4.5 -14l4 7q8 19 14.5 37.5t14.5 37.5q2 6 8.5 20.5l14.5 31.5l15.5 33.5l12.5 27.5q0 2 1 3
q2 5 4 13t5 17q0 2 1 4q1 3 0.5 6.5t-0.5 7.5q0 1 2 7q-1 2 2 4.5t2 5.5l6 12q6 2 14 4q5 2 11 2t10 -4z" />
    <glyph glyph-name="x" unicode="x" horiz-adv-x="267" 
d="M149 442q2 3 5 6q14 22 30 42l33 40l7.5 9t8.5 7q2 1 3 3t3 4q9 13 21 4q4 -3 7.5 -7l7.5 -9q2 -2 4 -6q-1 -10 -6.5 -16t-10.5 -14q-2 -3 -4.5 -6t-4.5 -7l-27 -48l-15.5 -25.5l-15.5 -25.5q-2 -3 -5 -5.5t-5 -5.5q-8 -10 -4 -20l4 -13.5t6 -12.5q2 -4 2 -6
q5 -18 14 -33.5l18 -31.5l2.5 -5l2.5 -5q3 -9 -5 -16q-8 -6 -15 -1l-19 15l-27.5 27.5t-24.5 29.5q-1 2 -2 2.5t-3 2.5l-9 -9t-8 -9l-15.5 -19.5l-15.5 -19.5q-6 -8 -13 -12l-15.5 -12t-15.5 -11q-10 -7 -20 3v5q5 10 8.5 19t8.5 18q3 5 5 11.5t7 11.5q7 7 14 19l37 63
l-6.5 17t-7.5 18q-4 7 -6.5 14t-6.5 14q-9 17 -11.5 34t-2.5 35q0 14 4 26.5t9 25.5q2 -1 3.5 -0.5t3.5 -0.5l17.5 -9.5t16.5 -11.5q13 -12 16 -25l7.5 -27t5.5 -27l2 -6t3 -8z" />
    <glyph glyph-name="y" unicode="y" horiz-adv-x="234" 
d="M124 240q2 6 0 11q-2 0 -2 -1q-6 -10 -10.5 -20t-9.5 -20q-2 -4 -3 -7l-2 -6q-1 -4 -1 -7.5t-1 -6.5q-3 -11 -4 -20.5t-1 -19.5q0 -5 0.5 -6.5t2.5 -6.5q1 4 2 5l5 10l5 10q2 6 2 11q0 8 3 16t4 16l3 14q2 7 3 14t4 14zM288 509q5 2 14 -2q0 -5 -1.5 -8.5t-2.5 -8.5
q-1 -4 -4.5 -6.5l-6.5 -4.5q-5 -2 -7 -4l-4 -4q-3 -2 -4.5 -4t-4.5 -2q-2 0 -4 -5q-1 -2 -2 -3.5l-3 -4.5q-5 -4 -8 -9t-8 -10q-2 -3 -4 -5.5t-5 -5.5l-16 -18t-13 -20q-1 -3 -5 -7q-8 -11 -8 -23q0 -2 -1 -3q-2 -5 -2 -9.5t-1 -9.5q-3 -6 -3 -12l-2 -10t-1 -10
q1 -11 -2 -21q-5 -20 -6.5 -40t-3.5 -39q0 -2 -0.5 -3.5t-0.5 -3.5q-9 -17 -10 -32q-3 -14 -9.5 -30t-11.5 -30q-4 -10 -9 -24t-16 -19q-5 -2 -8 -5.5t-8 -5.5q-4 -2 -9 -2t-10 1q-8 1 -17 4.5t-11 13.5q-3 24 0 52t8 52q1 8 3 16l4 16l3 6q2 4 3 7.5t2 7.5q2 4 2.5 8t5.5 7
q2 7 5 13.5l6 13.5q1 1 1 2t1 2q5 11 10 20.5l11 20.5l3 5l5.5 9t6.5 9q3 6 6.5 12t5.5 12q2 4 2 8t1 8q0 8 2 16.5t3 17.5q-1 -5 -7 -17.5t-8 -17.5l-31.5 -49.5t-41.5 -42.5q-14 -9 -31 -3.5t-23 21.5q-2 4 -4 11.5t-3 15t-0.5 14.5t2.5 11q1 1 1 2t1 3v19q2 8 2 10
q1 25 9 48l10 31q2 6 3.5 11.5t3.5 10.5q2 7 5 15q9 25 19 47l6 11.5t5 11.5q1 4 5 6q11 8 16.5 9.5t18.5 0.5q5 0 9 -2l8 -4q-1 -5 -0.5 -9.5t-1.5 -9.5q-1 -2 -1 -3t-1 -2q-5 -8 -8 -16.5l-6 -17.5l-13 -37q-1 -4 -5 -12q-2 -5 -4.5 -10.5t-0.5 -10.5q2 -8 -1 -19t-5 -19
q0 -2 -1 -3q-2 -5 -2.5 -10t-0.5 -10v-12q2 -2 2 1q8 11 16.5 21l17.5 20q10 11 19 22.5t20 23.5q4 6 6 10q4 4 4 8q1 4 5 12q2 2 3 4.5t3 6.5q8 3 16.5 2t16.5 -1q2 0 4 -0.5t3 -2.5v-9.5t-2 -8.5q-2 -3 -2 -9q-2 -14 -2.5 -26.5t-2.5 -25.5q0 -2 0.5 -2.5t0.5 -1.5
q2 2 4 3.5t3 3.5q2 5 5 8t7 8q3 3 6 7t6 7q2 2 3.5 4t3.5 4q8 6 14 13t11 15q9 9 19 14q2 1 5 1z" />
    <glyph glyph-name="z" unicode="z" horiz-adv-x="289" 
d="M200 255q4 13 7 26.5t1 28.5l-9 -7l-8 -6q-2 -2 -2.5 -4t-1.5 -4l-3 -3q-4 -3 -7 -6t-8 -6q-14 -8 -27 -23q-10 -11 -18.5 -22.5t-16.5 -23.5q-5 -8 -7 -16t-3 -16q0 -2 4 -6q4 6 10 9t11 5q12 5 19 11q3 3 11 7q7 4 12.5 8t9.5 11q1 2 2 2.5t3 2.5q15 12 21 32zM112 530
q2 3 2.5 6.5t-1.5 6.5h-2q-6 -6 -8.5 -14.5t-4.5 -16.5v-5q6 5 9 11t5 12zM367 499q9 2 18 -7q-2 -5 -9 -9t-10 -8q-6 -10 -20.5 -19.5t-28.5 -22.5q-12 -11 -23.5 -23.5t-21.5 -26.5q-1 -1 -5 -6t-10 -11q-1 -10 -1.5 -18t-0.5 -12q0 -7 -1.5 -13t-2.5 -13q0 -5 -0.5 -9.5
t-3.5 -9.5v-5q1 -1 1 -4q-4 -7 -4 -17q0 -4 -1 -8t-2 -9l-3 -7q-2 -8 -5 -15t-6 -15q-8 -18 -20 -32q-8 -9 -17 -18l-18 -18l-3.5 -3.5l-3.5 -3.5q-3 -2 -5 -5q-4 -8 -10 -13t-13 -9t-13 -8t-13 -8q-9 -7 -23 -5q-11 0 -19.5 4.5t-18.5 8.5q-8 4 -13 5q-3 0 -5 2t-4 2h-4
l-4 2l2 4l2 4t0.5 4t-0.5 4q1 6 1 11.5t1 11.5q1 2 1.5 5t2.5 6l10 18.5t11 18.5l14 22.5t15 22.5q2 4 5 7.5t6 7.5q8 9 17 17.5t17 18.5q7 7 12.5 14t12.5 14q12 11 24 20.5l24 19.5l6 6q-1 11 -3 21.5t-9 20.5q-16 -7 -25 -14l-22 -19.5t-22 -20.5q-9 -9 -19 -9q-5 3 -9 8
l-8 10t-3.5 11.5t2.5 12.5q1 4 5 8l14 28t15 28q0 2 0.5 3t0.5 2q-2 3 -7 0q-8 -3 -15 -3q-11 0 -17.5 5t-13.5 12l-3 6q-5 14 -3.5 26t8.5 24q3 6 6.5 11.5l6.5 10.5l7 13q4 10 16 13q14 2 33 -1q10 -2 10 -11q1 -8 0 -15q-3 -20 -15 -41q12 3 17 3.5t17 -1.5q20 -3 17 -23
q0 -10 -6 -19q-2 -2 -2.5 -5t-2.5 -6q-3 -8 -6 -18q2 1 3 0.5t3 0.5q13 7 26 6t27 -6q17 -6 23 -23l2 3q9 14 29.5 29.5t36.5 26.5q27 19 49 22z" />
    <glyph glyph-name="braceleft" unicode="{" horiz-adv-x="265" 
d="M254 579q-3 1 -11 5q-13 6 -25 2l-9 -3q-3 -2 -10 -2q-2 0 -8 -2q-3 -2 -7 -3t-8 -3q-11 -4 -22 -15l-1 -1q-11 -11 -15 -21q0 -5 3 -6l5 -3q5 -1 9.5 -2t9.5 -2q8 -1 15.5 -4t14.5 -7q5 -1 9 -7l6 -13q2 -5 -1 -8l-2 -4t-3 -4l-4 -6t-5 -5q-5 -2 -8 -6t-7 -6l-15 -9
q-2 -2 1 -2q2 -2 8 -6q4 -2 6.5 -4.5l5.5 -5.5q6 -6 6 -11q0 -2 2 -6v-5q-2 -4 -2 -5q-1 -8 -12 -15l-16.5 -10.5t-17.5 -10.5q-4 -4 -8 -5q-4 -2 -5 -3q-5 -5 -10 -8l-10 -6q-12 -10 -22 -16l-3 -3q-2 -4 -5 -6t-6 -5q-3 -5 -6.5 -10t-6.5 -10q-4 -6 -7 -12l-6 -12
q-5 -8 -6 -15q-2 -6 0 -10l1 -4q-1 -7 5 -15l3 -4q1 -1 1.5 -2t1.5 -2q5 -3 9.5 -6.5t10.5 -5.5q5 -2 10.5 -3.5t10.5 -0.5h19q7 0 13 3l7 4q2 2 2 4q1 2 1 6q1 4 7 4q4 -2 7 -2q7 -2 5 -9q-1 -1 -1 -2t-1 -2q-4 -4 -4 -7q-1 -7 -8 -10q-4 -2 -12 -8q-10 -5 -19 -4h-9
q-4 0 -8 -2q-4 -1 -8 0l-35 12q-6 2 -8 4q-7 7 -11 10q-7 4 -16.5 14.5t-13.5 16.5q0 1 -0.5 1t-0.5 1q-1 8 -3.5 15t0.5 15q1 1 1 3q-3 4 1 9q3 1 3 5q2 5 3.5 8l3.5 7q1 1 1 2t1 2q5 5 8.5 9.5l7.5 9.5q8 9 17 17q6 5 12.5 9.5l13.5 9.5q1 1 2 1t2 1q10 10 20 15l10 6
t11 6q5 2 8 7q1 4 5 6q6 3 10 7.5t9 9.5q1 1 1 3q2 5 -3 5q-6 1 -12.5 1t-12.5 -3q-2 -1 -3 -0.5t-3 0.5q-10 -2 -10 8q-2 7 -7 13q-1 1 -3 5q-2 2 -1 4.5t3 4.5q9 7 22 13q5 0 8 2.5t6 4.5q1 1 2 1t2 2q5 5 10 7.5t10 7.5q-16 5 -27 4q-4 0 -8 4q-5 5 -9.5 9t-6.5 9
q-2 2 -3.5 4t-2.5 4q-6 6 -6 15v1q0 18 12 33l5 6q4 6 6 8q11 10 23 17l13 6q6 3 12 4t11 4q10 0 18.5 2.5t18.5 4.5q5 4 9.5 1.5t9.5 -3.5q1 0 3 -2q5 -4 9 -9t9 -10q2 -2 4 -8q3 -7 2 -9.5t-8 -7.5z" />
    <glyph glyph-name="braceright" unicode="}" horiz-adv-x="265" 
d="M8 223q4 -1 12 -5q10 -5 25 -2l9 3q3 2 9 2q4 0 8 2l15 6q7 3 12.5 6.5t10.5 8.5q0 1 1 1q9 8 14 21q2 4 -2 6l-6 3q-5 1 -9.5 2t-9.5 2q-8 1 -15 4t-15 6q-5 3 -8 8l-6 13q-2 3 0 8l6 8q2 3 3.5 6t5.5 5t7 6t8 6l15 9q0 2 -1 2l-8 6q-4 2 -7 4.5t-6 5.5q-5 5 -5 11
q0 2 -2 6q-2 3 0 5q2 4 2 5q1 5 4 8.5t7 6.5q9 5 17.5 10.5l16.5 10.5q6 4 9 5q1 1 2.5 1.5t2.5 1.5q5 5 10 8l10 6q5 5 10.5 9t11.5 7q2 2 2 3q2 4 5.5 6t5.5 5l14 20q3 6 6.5 12t6.5 12q2 4 3 7.5t3 7.5q1 4 0 10q-1 1 -1 4q0 9 -6 15q-1 1 -1 2t-1 2l-3 4q-5 3 -10 6.5
t-11 5.5q-5 2 -10 3.5t-10 0.5h-20q-6 0 -12 -3q-2 -1 -3.5 -1.5t-3.5 -2.5t-3 -4q0 -4 -1 -6q0 -4 -6 -4q-6 2 -8 2q-7 2 -4 9q0 2 2 4q1 2 2 3.5t2 3.5q0 6 7 10q5 2 13 8q9 5 18 4h10q2 0 8 2q3 2 8 0l35 -12q4 -1 8 -4q3 -4 11 -10q7 -4 16.5 -14.5t13.5 -16.5v-2
q1 -8 3.5 -15t-0.5 -15v-3q1 -4 -2 -9q-1 -1 -3 -5q-1 -5 -2.5 -8l-3.5 -7l-3 -4l-7.5 -9.5l-7.5 -9.5q-8 -9 -17 -17l-13 -9.5l-13 -9.5l-5 -2q-7 -8 -19 -15l-21 -12q-5 -2 -8 -7q-2 -5 -6 -6q-5 -3 -9.5 -7.5t-8.5 -9.5l-2 -3q0 -5 3 -5q7 -1 13 -1t13 3q1 1 2.5 0.5
t3.5 -0.5q10 2 10 -8q0 -5 6 -13q2 -1 4 -5q2 -5 -2 -9q-9 -7 -22 -13q-5 0 -8 -2.5t-6 -4.5q-2 -1 -2.5 -1t-2.5 -2q-4 -5 -9.5 -7.5t-10.5 -7.5q16 -5 27 -4q5 0 9 -4l9 -9t7 -9q1 -2 2.5 -4t3.5 -4q6 -8 5 -15v-1q0 -19 -11 -33q-4 -4 -5 -6q-4 -6 -6 -8l-11.5 -9.5
t-12.5 -7.5l-13 -6q-5 -2 -11 -3.5t-12 -4.5q-9 0 -18 -2.5t-18 -4.5q-5 -4 -10 -1.5t-10 3.5q-2 0 -2 2q-5 4 -9 9t-9 10q-2 2 -2.5 4t-2.5 4q-3 7 -2 9.5t8 7.5z" />
    <glyph glyph-name="asciitilde" unicode="~" horiz-adv-x="390" 
d="M302 367q-6 -2 -11.5 -2.5t-10.5 -2.5q-21 -4 -39.5 1.5t-35.5 14.5l-7 3.5l-7 3.5q-35 17 -60 -12l-5 -6q-35 -1 -46 30q5 9 11.5 16t14.5 14q8 8 18.5 11t21.5 3q13 0 25 -1.5t23 -9.5q5 -4 11.5 -5.5t11.5 -4.5q4 -2 7.5 -4.5l7.5 -5.5q7 -6 20 -6q11 2 21.5 3t20.5 7
q6 7 9.5 15l7.5 17q5 -1 16 -1q4 -6 8.5 -11t4.5 -13q-1 -7 -1 -16t-6 -14q-3 -5 -7.5 -9.5t-23.5 -14.5z" />
    <glyph glyph-name="Euro" unicode="&#x20ac;" horiz-adv-x="421" 
d="M350 350l13 6l14 -10q1 -3 2 -7t1 -9q0 -6 -0.5 -12t-1.5 -11q0 -4 -4 -8l-15 -21.5l-15 -21.5q-11 -15 -31 -23q-8 -3 -15.5 -5t-15.5 -1q-5 0 -7 -1q-9 -4 -18.5 -4t-18.5 2q-13 2 -26 3.5t-25 5.5q-24 8 -43 21.5t-33 33.5q-10 14 -14.5 29t-6.5 31q-2 0 -2.5 0.5
t-2.5 0.5q-1 1 -2 1t-2 1q-4 1 -7 -1t-7 0q-7 2 -13 0h-6q-6 0 -10.5 3.5l-9.5 7.5q-1 1 -3 5q-2 2 -2.5 4t-2.5 4q-3 3 2 5l10 4t10 1q9 -2 14 1q5 -2 9.5 0.5t9.5 1.5t9 -0.5t9 0.5q1 15 6 30h-9q-1 0 -5 2l-4 1q-4 2 -7 0t-7 0q-7 2 -13 0q-2 -1 -6 -1q-6 1 -10.5 4
t-9.5 7l-3 5q-2 2 -2.5 4t-2.5 4q-2 4 2 6q12 5 20 4q10 0 14 2q5 -2 9.5 0t9.5 2q5 -1 9.5 -0.5t9.5 0.5h11q6 0 9 1v1l13.5 27t16.5 26l14 18.5t15 18.5q5 5 9.5 8t11.5 5q10 3 13 5t12 10q4 1 8.5 -0.5t8.5 3.5q2 2 9 2q16 -4 35 -1q6 1 12 -0.5t12 -2.5q10 -2 19 -3.5
t19 -3.5q11 -2 18.5 -8t14.5 -13q7 -5 8 -12q2 -5 5 -10l6 -10l3 -9q1 -6 1.5 -12t2.5 -13q-8 -9 -18.5 -10.5t-20.5 -2.5q-11 -1 -20.5 3l-20.5 9q3 7 5 11t2 8.5t-1.5 10.5t-4.5 15q-6 6 -14 8l-16 4q-7 2 -12.5 -1t-11.5 -5q-6 -3 -10.5 -6.5t-6.5 -10.5q-5 -14 -14 -23
q-6 -5 -9.5 -12t-6.5 -14q-3 -4 -4 -8h2q5 0 8.5 -0.5t8.5 -2.5h5t10 -0.5t10 -0.5h6.5t6.5 -2q4 0 7 -0.5t7 -0.5q6 0 10 -4q4 0 1 -3q0 -3 -2 -7q-2 -3 -5 -5q-6 -2 -8 -4q-5 -5 -14 -7q-10 -2 -15 -4q-4 -2 -8 -2t-8 -2h-1q-1 0 -1 1q-3 1 -9 1h-23q0 -2 -0.5 -3.5
t-0.5 -3.5q0 -5 -0.5 -10t-0.5 -10h16h8.5t8.5 -2q1 -1 5 -1h20q3 0 6.5 -0.5t6.5 -2.5h14q7 -2 10 -5q1 0 1.5 -1t-0.5 -1q0 -2 -2 -8q-2 -3 -5 -5q-4 0 -8 -4t-14 -6q-5 -1 -15 -5q-4 -2 -8 -2t-8 -2l-2 1q-3 1 -9 1q-7 1 -14 1h-14q0 -20 10 -42q4 -8 10.5 -13t14.5 -9
q11 -5 21.5 -9t21.5 -6q14 -2 24 3q28 11 36 43q1 4 2 7t2 7l4 10t4 11z" />
    <glyph glyph-name="ellipsis" unicode="&#x2026;" horiz-adv-x="312" 
d="M243 405v7q0 5 4 9q3 4 7 7q2 2 3 2q8 0 12 2q9 2 15 -2q5 -3 5 -9q0 -4 2 -10q1 -6 0 -13q0 -3 -1.5 -5.5t-3.5 -4.5l-2 -2l-6 -3q-6 -3 -13 -3q-8 0 -13 5l-1 1q-7 7 -7.5 8.5t-0.5 10.5zM132 405v7q0 5 4 9q3 4 7 7q2 2 3 2q8 0 12 2q9 2 15 -2q5 -3 5 -9q0 -4 2 -10
q1 -6 0 -13q0 -3 -1.5 -5.5t-3.5 -4.5l-2 -2l-6 -3q-6 -3 -13 -3q-8 0 -13 5l-1 1q-7 7 -7.5 8.5t-0.5 10.5zM20 405v7q0 5 4 9q3 4 7 7q2 2 3 2q8 0 12 2q9 2 15 -2q5 -3 5 -9q0 -4 2 -10q1 -6 0 -13q0 -3 -1.5 -5.5t-3.5 -4.5l-2 -2l-6 -3q-6 -3 -13 -3q-8 0 -13 5l-1 1
q-7 7 -7.5 8.5t-0.5 10.5z" />
    <glyph glyph-name="perthousand" unicode="&#x2030;" horiz-adv-x="383" 
d="M110 218q1 0 1 -1q0 -2 -1 -2q-3 0 -1 2q0 1 1 1zM110 225q-1 2 0 3t2 0q1 0 1.5 -0.5t1.5 -0.5q0 -3 -3 -3zM158 269h1v2l-2 2v-3q1 0 1 -1zM118 278q0 1 1 1l1 -4l-2 -2l-1 1q0 3 1 4zM270 285l1 2l-1 1q-1 0 -1 -2q1 0 1 -1zM161 286l1 -1v2q0 1 -1 1q-1 -1 0 -2z
M130 310q-3 0 -3 3q3 0 4 1l1 -1v-1zM232 289q3 7 1 13q1 4 -0.5 7t-3.5 6q0 3 -2 3q-2 1 -3.5 2t-3.5 2t-4 -1q-3 -2 -7 -6q-3 -2 -3 -7v-6q-1 -5 -1.5 -9t-1.5 -8q-4 -10 -3 -20q0 -2 -1 -4q0 -5 1 -7l3 -5q2 -3 5 -1q6 4 11 12q1 2 1.5 3.5t2.5 3.5t2.5 5t2.5 5q2 8 4 12
zM341 289q2 8 1 13q0 4 -1.5 7t-2.5 7q-2 2 -3 2q-3 2 -7 4q-2 2 -4 0q-4 -4 -7 -6q-4 -4 -2 -7v-7q-1 -5 -1.5 -9t-2.5 -8q-3 -10 -2 -19q0 -2 -0.5 -2.5t-0.5 -1.5q-1 -4 1 -8l2 -5q2 -3 6 -1q7 6 10 12q2 2 2.5 3.5t1.5 3.5q2 2 3 5t3 6q1 2 1.5 5t2.5 6zM163 322v1l1 1
l1 -1q0 -1 -2 -1zM89 343l1 -1q-1 -2 -6 -7q-3 -2 -3 0q-1 1 -1 3q1 2 2 3.5t2 3.5q1 3 3 0zM248 329l2 -4q1 -4 1.5 -7.5t2.5 -7.5v-5q-1 -5 -2 -9.5t-2 -9.5l-3 -12q-2 -11 -6 -20q-1 -2 -2 -5t0 -5v-2q-2 -2 -3.5 -5t-3.5 -6l-5 -5t-6 -5q-2 -1 -4 -6q-1 -3 -6 -5
q-2 1 -4 0l-4 -2q-6 -5 -16 -3l-10 1l1 2q2 2 0 2q-2 1 -3 0.5t-2 1.5q-2 3 -6 7q-4 3 -6 10q0 5 -3 7q-3 3 -3 8q-1 2 -1 6q-2 8 -4 14q-2 2 0 5q1 3 5 3l1 1q0 1 -4 3q-3 2 -1 4q0 2 0.5 3t0.5 2l4 6q1 2 1 3t1 3q0 1 2 1q1 0 1 -0.5t1 -0.5q0 -2 1 -3q1 0 2 1t1 3
q1 2 0.5 4t0.5 4q1 3 1 9q1 2 2 3.5t2 3.5v3q0 3 2 3q5 1 5 7q0 5 6 7q3 0 5 1l4 3q7 5 14 5l21 3q6 0 11 -3q3 0 3 -2q2 -2 3.5 -5t3.5 -5q-1 -1 -1 -3q-3 -3 -1 -7zM362 310q1 -1 1 -5q-2 -5 -2.5 -9.5t-2.5 -9.5q0 -3 -1 -6t-1 -6l-6 -20q-4 -6 -2 -10v-1q-2 -3 -3.5 -6
t-3.5 -5q-3 -4 -11 -10q-4 -4 -5 -7q-1 -2 -6 -4q-3 1 -7 -3q-7 -4 -16 -3q-4 1 -11 1l2 3q0 1 -1 2q-1 0 -2.5 -0.5t-2.5 1.5q-1 3 -5 7q-6 6 -6 10q0 5 -3 7q-2 2 -3 4t-1 5v5q-2 8 -4 14q-2 2 0 5q1 2 5 4h1l1 -2v-1l1 -1v3q-1 0 -2 1q-1 2 -2 2t-2 1q-2 1 -2 5q1 1 1 2
t1 2l4 6q1 2 1 3t1 3q0 2 2 2q1 -1 1 -2l1 -2q1 -2 3 0q0 1 0.5 1.5t0.5 1.5q0 6 1 8t0.5 4.5t0.5 4.5l3 7q1 1 1 3q0 3 2 3q5 2 4 7q0 5 7 7q3 0 5 1l4 3q7 5 13 5l22 3q3 1 5.5 0t5.5 -3q1 0 3 -2l6 -10q0 -2 -1 -3q-2 -4 0 -7q0 -1 0.5 -1.5t0.5 -1.5q2 -10 4 -16z
M103 400q2 2 2 -1v-6q-5 1 -3 6zM96 538q1 5 -3 6q-8 4 -11 6q-4 0 -5 -1l-3.5 -8.5l-3.5 -8.5q-2 -6 -4.5 -12.5t-2.5 -13.5v-6h-1q0 -9 -1 -13q0 -2 0.5 -3t0.5 -2q0 -2 2 -2q1 -2 3 0q2 4 5 7t5 8q6 6 8 10l3.5 7l3.5 7t2 8t1 8q0 1 0.5 1.5t0.5 1.5zM157 377l-4 -8
t-3 -9q-1 -7 -8 -12l-5 -5l2 -2q1 -2 0 -3q-3 -2 -4.5 -4.5t-3.5 -4.5t-2 -3q2 -3 0.5 -5.5t-2.5 -4.5v-3q-3 -2 -4 -4.5t-3 -4.5q-4 -6 -4 -8v-3h2l2 3l2 2h2q0 -1 1 -1q1 -3 -1 -6t-2 -6q0 -1 -1 -1h-2q-4 0 -4 -2l-4 -10.5t-2 -10.5q0 -7 -3 -13q-1 -1 -1 -3q2 -5 -1 -10
t-2 -10q0 -1 -0.5 -1.5t-0.5 -1.5q-4 -2 -5 -4.5t-3 -5.5q-2 -4 -4 -5q-1 -1 -2 0t-2 0q-4 -2 -7 -4t-7 -4h-2q-2 -2 -5.5 -0.5t-4.5 4.5q-1 2 -1 7q-1 3 -0.5 6.5t-0.5 7.5q-1 2 0 4.5t2 4.5q2 6 4 10q2 2 2 4.5t1 4.5q1 4 -0.5 7t0.5 6q2 2 2 5t1 6q2 3 -2 5l-3 3
q-3 3 0 3q2 2 7 4q5 5 3 10q0 1 0.5 1.5t0.5 1.5q1 2 -1 4q-5 4 -1 8q1 2 3 4q3 1 3 6q1 2 5 2q1 -1 3 1q3 3 5 9q1 2 -2 4q2 5 4 6t4 3l1 1q0 2 -2 2l-5 -2q-3 0 -3 3v3q0 4 2 7t2 6l6 6q1 1 1.5 2t1.5 2v1q-2 4 -0.5 6t3.5 5q4 1 6 8v3q-3 6 2 9q2 2 4 3q3 3 3 7
q0 2 0.5 2.5t0.5 2.5q1 8 1.5 11t4.5 10q5 7 7.5 14.5t5.5 14.5q2 3 2 10q1 2 2 4.5t2 4.5v3q-4 13 2 27q2 3 2.5 7t2.5 8q1 1 1 3q0 6 -6 6l-9 -3l-17.5 -4t-17.5 -3l-1 -1l-1 -1q0 -5 -0.5 -8.5t-1.5 -7.5l1 -7q3 -5 0 -11t-3 -12q-2 -8 -5 -12l-8 -10l-8 -10l-4 -3
l-12 -4t-13 -1q-12 1 -20 12l-6 13q-1 5 -0.5 9.5t-1.5 9.5q0 7 1 10q0 5 0.5 11t3.5 11q1 2 1 8q2 8 4 12t7 13q3 6 7 11.5l8 11.5l10 4q3 2 9 2q2 0 3.5 0.5t3.5 0.5q3 2 8 0q5 -4 10 -2h3q3 -2 6.5 -3t5.5 -3q4 -1 4 -6q0 -4 4 -4q3 0 5.5 -0.5t4.5 0.5q5 2 11 2.5
t11 1.5q2 0 10 2q1 0 3 3q4 4 4 12q0 5 3 11q5 5 10 5q2 -1 6 -1q6 2 12 1.5t12 -0.5q7 -2 10 -5q3 -2 3 -3q1 -4 1 -7t1 -6q0 -4 -1 -5q-2 -3 -2 -6t-1 -6q0 -4 -0.5 -7t-0.5 -6l-3 -9q-2 -6 -4.5 -12t-2.5 -13q0 -2 -2.5 -8t-4.5 -8q-5 -5 -5 -11q0 -13 -9 -22
q-1 -1 -1 -6q0 -2 -2 -4t-3.5 -4.5t-2.5 -5.5q-3 -7 -6.5 -13.5t-5.5 -14.5q0 -2 -2 -4q-1 -2 1 -6q1 -6 -2 -9l-6 -8q-5 -7 -2 -14q1 -4 -1 -11z" />
    <glyph glyph-name="guilsinglleft" unicode="&#x2039;" horiz-adv-x="239" 
d="M207 276q2 -3 5 -5.5t5 -5.5q2 -2 2 -8q-2 -9 -11 -11h-15h-8q-10 0 -14 2q-6 0 -10 2.5l-9 5.5q-5 4 -10 7t-9 8q-1 1 -2 1.5t-2 2.5q-3 2 -6.5 4t-6.5 5q-5 7 -12 11l-2 2q-4 5 -8 9l-9 9q-1 2 -3 4q-6 8 -12.5 15t-14.5 13q-3 3 -4 5q-2 2 -3 4.5t-3 4.5
q-4 5 -7.5 10.5t-8.5 9.5q-8 4 -9 11v1q0 5 2 6q6 8 10 11q2 5 5 8l6 6q4 5 8 9t7 10q1 2 5 4q6 8 13.5 14.5t12.5 14.5q2 2 3 2q5 3 9 7.5t9 8.5q3 4 7 7q6 3 11.5 6.5t11.5 6.5l14 8q6 5 13 6q12 3 19 7q3 2 8 2q3 0 6 0.5t6 0.5q8 0 12 -9q3 -3 0 -3q-2 -4 -8 -10
q-5 -5 -8.5 -10t-8.5 -10q-4 -6 -5 -10q-1 -2 -5 -4q-16 -13 -27 -28q0 -1 -3 -4q-4 -5 -8.5 -9t-7.5 -9q0 -2 -2 -2q-7 -4 -12 -11q-3 -3 -7 -5t-6 -5l-4 -3q-4 -5 -9 -8t-10 -7l-4 -3q2 0 2 -1l14 -8l23 -13l7 -6q5 -4 9 -8.5t9 -7.5q2 -2 2 -3q6 -8 13.5 -14t13.5 -14
q1 -2 2 -2.5t2 -2.5q3 -5 7.5 -9t8.5 -9q3 -4 6 -6.5t5 -7.5z" />
    <glyph glyph-name="OE" unicode="&#x152;" horiz-adv-x="783" 
d="M111 120l1 1q0 -1 1 -1h-1h-1zM85 129h4q4 -2 7.5 -3.5l8.5 -3.5q-8 -1 -11.5 0t-8.5 7zM76 134q2 3 4 1l5 -6q-5 -2 -8 1q-3 2 -1 4zM392 178v-2q-2 2 -6 4q-4 4 -5 6q1 3 3 1q6 -6 8 -9zM376 192h1q1 0 2 -1h-1q-1 0 -2 1zM318 190q2 1 2 5q0 -1 -2 -5zM321 195
q4 0 4 4q-1 -1 -2 -1.5t-2 -2.5zM570 201v-1l-1 -1v1zM371 204v2l1 -1q0 -1 -1 -2v1zM647 212q1 0 1.5 0.5t1.5 0.5q0 -1 1 -1l-1 -1q-1 0 -1.5 0.5t-1.5 0.5zM364 215v1q1 0 1 -1h-1zM19 251q1 -3 0.5 -6t3.5 -5q0 5 -4 11zM18 255q-3 -3 1 -3q-1 0 -1 3zM434 293v2
q0 -1 -1 -1v-1h1zM8 300h1q1 0 0.5 -0.5t0.5 -0.5h-1zM11 318h1v-1zM240 327h5q-2 -4 -5 0zM215 335q-2 8 -7 9q0 -3 2.5 -5t4.5 -4zM203 352q0 -7 5 -7q0 2 -1.5 3.5zM11 318q-4 0 -5 -2.5t-3 -5.5q-3 3 -3 4q1 8 2 14.5l2 13.5q1 9 10 9q2 0 2 1q3 -9 -4 -10q-4 -2 -2 -5
q1 0 1.5 0.5t1.5 0.5q2 -5 0.5 -10t-2.5 -10zM222 361h-1q0 1 1 1v-1zM197 363v1h-1zM492 360q2 2 3.5 3t0.5 4q-4 -1 -4 -7zM14 362q-1 0 -1 1l2 4h1v-1q0 -4 -2 -4zM23 368v-1q0 -1 -1 -1q0 1 1 2zM477 369v6q-5 -5 -6 -7q-2 -2 -2.5 -4t-2.5 -4q-2 -5 -5.5 -10t-6.5 -10
q-9 -12 -12 -28q-7 -7 -7 -16q4 3 5 7t2 9l2 2l14 23l7.5 13t7.5 12q1 2 2 3.5t2 3.5zM199 370q1 5 -1 6q0 -3 1 -6zM209 386v-1q0 1 -1 1l1 1v-1zM217 392v-10q-4 5 0 10zM21 381q-1 -3 -5 -5q2 9 5 16.5t5 15.5q1 0 2 1q0 -8 -2.5 -14.5t-4.5 -13.5zM30 415q-1 0 -1 1
q1 0 1 1v-1v-1zM198 447q-3 -5 -1 -11q0 8 1 11zM41 448l2 2v-3q-3 -5 0 -9q-4 -2 -5.5 -6t-3.5 -7l-1 -4q-4 3 0 5q1 6 3.5 11.5t4.5 10.5zM191 473v-1q-1 0 -1 -1v1zM56 477q-1 -2 -1 -3t-2 -2q0 3 3 5zM223 479h1q-1 -2 -1 0zM236 489v1h-1zM62 488l-1 1q1 0 1 1v-1v-1z
M239 504l-1 -1q1 0 1 1zM74 504v1h-1zM235 507l4 4v5q-4 -3 -4 -9zM228 551l-1 -1l-1 1q0 1 2 1v-1zM240 516q3 -2 0 -5v-7q5 2 9 11q2 6 5 11.5t7 11.5l4 8t4 9q-7 -2 -8 -4q-3 -5 -7 -9.5t-5 -11.5q0 -2 -3 -2q-6 -2 -6 -12zM238 569q-2 5 3 7q0 -2 0.5 -3t0.5 -3
q-2 0 -4 -1zM274 589h-1q0 -1 -1 -2h1q1 0 1 2zM281 597q-2 -1 -3 -1t0 -4q2 4 3 5zM283 602q-1 -1 -1 -2t-1 -2q2 2 2 4zM288 608q-5 -1 -4 -6q2 4 4 6zM278 633h-2l-1 1l2 2q0 -2 1 -3zM287 641v1l1 -1h-1zM870 673l-8 -3h4t4 3zM316 673q-1 0 -1 -1v1l3 3q-2 -2 -2 -3z
M335 695v-2q-1 1 0 2zM355 702q-4 0 -4 -3q2 1 4 3zM687 710v-1h2q-1 0 -1 0.5t-1 0.5zM699 711l1 1q1 0 1 -0.5t1 -0.5h-2h-1zM722 714q-1 0 -1.5 -0.5t-1.5 -0.5t-1 0.5t-1 0.5l2 1q2 0 3 -1zM367 715q-4 -2 -3 -4q1 2 3 4zM447 678q-2 2 -3 4.5t-2 8.5l9 9l8 -2t8 -3
q5 -2 10 -2.5t10 -0.5q-2 5 -3.5 10.5t-1.5 10.5q0 4 -3.5 6.5t-7.5 1.5q-5 0 -9 -3q-5 -2 -9 -4t-9 -4q-19 -10 -33.5 -24t-28.5 -29q-11 -11 -20 -24.5t-21 -24.5q0 -1 -0.5 -1t-0.5 -1q-11 -16 -23 -30.5l-24 -30.5l-16 -21l-7.5 -13l-7.5 -13t-5 -13l-4 -12t-4 -11
q-2 -4 -4 -2v6q-4 0 -6 -5q-14 -31 -14 -64v-13v-5t-2 -4q-4 0 -4.5 0.5t-1.5 5.5q2 4 2 5q1 9 1.5 17.5t0.5 16.5q0 2 -0.5 4t-0.5 4q-2 -2 -2 -3l-3 -24q0 -2 -1 -4q-2 7 -2.5 13t-2.5 12q0 3 2 9q1 4 2 7t3 7q2 7 5 13t5 13q1 1 1 5q-1 9 6 18q2 2 3.5 1.5t1.5 1.5
q-2 2 -3 4t0 5q-5 -6 -8 -12.5t-5 -14.5h1h-1l-1 -2q2 -5 0.5 -9t-4.5 -8q-2 -2 -4 -6q-2 -9 -4.5 -18t-0.5 -18q2 -6 1 -11.5l-2 -11.5q-2 6 -2 9v10q0 6 -1 10q-3 -11 -1 -17q-2 -6 -1 -12.5t1 -12.5q0 -8 5 -18l2 -2q2 3 -0.5 6t2.5 5q4 -4 4 -9t4 -9q6 0 9 -6
q1 -2 2.5 -3t2.5 -3q3 -3 4 -5t2.5 -2.5t1.5 -3.5q-4 2 -5 2q-6 4 -11 8.5l-11 9.5q1 -4 5 -8q2 -3 4.5 -6t5.5 -6h-2l-1 -1v-1h3q2 -4 4 0h-4v2q1 0 5 -2l4 -3q-1 -1 -5 -3q4 -2 7 -4t7 -3q6 0 4 -7q-2 1 -3.5 0.5t-3.5 0.5l-23 9q-2 2 -4 2q2 -2 4 -2l-2 -4q7 -6 16.5 -7
t17.5 -8q-7 -2 -12 -1.5t-10 2.5q-9 3 -20 8q-8 2 -11 9l-3 3h-1h1q-3 3 -2 3q-5 3 -6.5 7.5t-3.5 8.5q0 8 -3.5 14.5t-2.5 14.5q-2 5 -1.5 9.5t-1.5 9.5q-3 12 2 25q2 4 2 7.5t1 7.5t3 7.5t0 8.5q-1 0 -0.5 1.5t1.5 1.5q4 1 4.5 4t1.5 5l6 21q2 5 3 9.5t6 7.5q1 1 1 2t1 2
q1 6 4 11l11 21q1 4 3 10q1 3 2.5 5.5t2.5 4.5l5.5 9.5t4.5 9.5l5 2q3 3 5 7t4 7q2 2 2 5.5t5 4.5q2 0 2 3q-1 5 4 8q2 1 4 6q3 5 4 6q5 5 8.5 9.5l7.5 9.5q3 5 4 6q5 2 9 12l5 6q2 4 5.5 6.5t4.5 7.5q8 8 14 17l2 2h-2q1 3 3 0q6 6 8 9q3 3 2 5q-19 -3 -28 -15
q-1 -1 -2 -1.5t-3 -2.5q-17 -14 -32 -29q-17 -19 -32.5 -39.5l-29.5 -40.5q-6 -9 -11 -18l-10 -18l-33 -57q-6 -10 -11.5 -20.5t-10.5 -21.5q-3 -5 -4.5 -10t-4.5 -10q-1 0 -1 -2q0 -8 -3 -14t-7 -12q2 -6 1 -9q-2 -2 -2 -4t-1 -4l-4 -13.5l-4 -13.5q0 -10 -3 -17
q-2 -2 -2 -4q2 -10 -2 -19t-2 -19q-2 -8 -1 -17t0 -17q2 0 3.5 -0.5t3.5 -0.5q0 -3 -0.5 -6t-0.5 -5q1 -21 17 -37q5 -6 13 -7h21q4 -6 14 -1q5 3 10 5l10 4l15 7.5t14 9.5q1 1 2 1t3 1l10 7q8 5 13.5 11t12.5 12q9 8 17 16.5t18 16.5q1 1 2 1.5t2 2.5l15 18q1 -1 5 -3
l13 15l33 51l11.5 18l10.5 17q3 5 6 9.5t5 9.5l21 44q5 11 10.5 21t8.5 22l3 5q3 5 5 10q4 8 6 17.5t8 17.5v2q2 7 3.5 13t3.5 12q1 0 1.5 -0.5t2.5 -0.5q2 12 5 23.5t3 24.5q-9 4 -17 11q-6 5 -11 11t-10 11zM406 761q-1 0 -1 -1v1h1zM406 762q1 0 3 2l-3 -3v1zM411 766
l-2 -2q0 2 2 2zM412 767q-1 0 -1 -1q0 1 1 1zM987 715l7 -3l-7.5 -9t-7.5 -8q-2 -2 -3.5 -2.5t-3.5 -1.5l-12 -2l-12 -2l-50 -9h-8q-3 -1 -8 -1q-9 -2 -9 -9q-11 -4 -17.5 -5t-14.5 1q4 1 7 1t5 2q6 0 8 3l-22 -3l-10.5 -2l-10.5 -2q-3 -2 -8 0q-10 0 -20 -3q-5 -2 -11 -3
t-12 0h-5q-13 -4 -25.5 -7t-25.5 -8q-11 -5 -23.5 -8t-23.5 -7h-9q-8 -2 -12 -2q-5 -8 -8.5 -14.5t-8.5 -12.5q-2 -2 -2 -4.5t-1 -4.5q-2 -9 -7 -16q-2 -2 -2.5 -4t-2.5 -4q4 0 5 -3l-4 -6q-6 -7 -9.5 -14.5l-7.5 -15.5q-2 -4 -8 -12t-9 -18q3 -2 3 -7q-4 -1 -6.5 -3t-7.5 0
l-11.5 -14t-8.5 -17l15 11q-4 -14 -18 -15v2q-2 -2 0 -3q-2 -4 -4 -8.5t-4 -9.5q4 2 5.5 5t6.5 3q2 -2 -1 -3.5t-1 -4.5h9q9 0 18.5 1.5t19.5 2.5q18 2 36 3t36 3l18 2t18 3h5q0 -3 -1 -4q-12 -12 -27 -18q-17 -6 -34.5 -10.5l-35.5 -9.5q-8 -2 -15 -4t-15 -4
q-14 -4 -28.5 -5l-28.5 -2q-3 0 -5 -2v1q-12 -3 -15 -15q-4 -1 -4 -7q4 4 4 7q3 0 5 5q2 2 3 2q3 -2 0 -7q-8 -13 -15 -25.5l-14 -25.5q-1 -3 -2.5 -5.5t-3.5 -5.5l-4 -8q3 1 4 2.5t3 3.5q1 2 2.5 3.5t3.5 4.5v-5q-3 -5 -5 -10t-7 -7q-2 -2 -2 -3l-12 -25q-2 -3 -1.5 -5.5
t0.5 -5.5q-1 -1 3 -3q-4 -4 -4 -5q-1 -2 -1 -6v-5q0 -17 17 -23l16 -3q4 0 6 -1q-4 -5 -9 -3.5t-9 -3.5q12 -4 27 -4h43h3.5t2.5 -3l-1 -1q-5 0 -10 -0.5t-10 -1.5q25 -3 47 1l22.5 4l23.5 4l-3 1.5l-3 1.5l5 2.5t6 0.5q0 -2 0.5 -2.5t0.5 -2.5l17 2l10.5 2l11.5 2h1
q7 3 14 4t14 5q3 -3 8 -1l36 6l10 2l10 2l22 3q1 -2 -1 -4q-6 -6 -9 -8l-12 -9q-3 -3 -5 -4l-23.5 -9.5t-23.5 -8.5t-23 -9t-23 -9q-7 -2 -13 -5l-12 -6q-6 -2 -7 -2q-10 -2 -19 -5.5t-18 -6.5q-9 -4 -20 -4q-13 0 -22 -4q-4 -3 -9 -1q-4 2 -6 1q-5 -2 -11 -1.5t-11 -0.5
q-2 0 -3.5 -0.5t-3.5 0.5q-9 3 -20 1q-8 -2 -14 1q0 2 -0.5 2.5t-0.5 2.5q-5 0 -8.5 0.5t-8.5 0.5q-2 4 -4 4l-7 3.5t-8 1.5q-10 4 -19 8.5t-17 12.5q-5 6 -9.5 12l-9.5 13l-7.5 13.5t-5.5 14.5q0 1 -2 5q-1 0 -1.5 0.5t-1.5 0.5l-1 4q-1 -1 -1.5 -2t-2.5 -2q-3 -3 -5.5 -7
t-4.5 -8q-6 -8 -10 -11l-12 -13q-2 -2 -3 -3.5t-3 -2.5q-3 -3 -5 1l-25 -23q-16 -16 -38 -21q-6 -2 -11.5 -5t-11.5 -5q-2 -2 -4.5 -2.5t-5.5 -2.5q-2 0 -3 -0.5t-3 0.5q-9 1 -14 0t-12 -6q-13 -7 -28 -7q-13 -1 -29 2q-4 1 -7.5 2t-7.5 3q-4 3 -9 5.5t-10 4.5
q-11 3 -19.5 9t-16.5 11l-4 2t-4 3q2 -5 6 -8q9 -7 11 -14l-2 -1q-16 9 -26 28q-2 2 -1.5 5t0.5 5q8 0 11 -4h1q1 0 1 0.5t1 0.5q-2 5 -5.5 7.5t-5.5 6.5l-11 18q-1 5 -4 14t-7 14q-1 -7 1 -12q4 -8 6 -11q2 -4 2 -7.5t1 -7.5q1 -3 5 -9t4 -10q-10 0 -15 11l-9 22q1 3 1 6
t1 7q-3 5 -5.5 10.5t-2.5 11.5q-1 4 -2 7t-3 7q2 7 3.5 14.5t3.5 15.5q2 5 2.5 11t1.5 12q0 2 0.5 4t0.5 4q1 12 3 23.5l4 22.5q2 12 4.5 24t7.5 24q1 2 1 3t1 3h-1q3 3 3.5 6.5t0.5 7.5q4 2 2 8q5 0 5 6q2 6 4 8q3 5 -1 9q-4 -2 -4.5 -5.5t-4.5 -5.5q0 5 2.5 9t5.5 8l2 5
v-5q8 2 8 9q-2 1 -5 1q2 4 4 5q7 6 7 13t2.5 13t6.5 11q2 2 4 6l17 33l6.5 10.5t5.5 10.5q6 7 10 14t10 14q2 4 4.5 7t2.5 8q2 2 3.5 4.5t3.5 4.5q6 6 7 10q1 2 4 5q5 3 9.5 7t7.5 10q0 2 4 4q8 7 14.5 15.5t13.5 16.5q2 1 2 5h4q12 9 23 20q2 2 3.5 3t-0.5 4q3 4 6 7t9 3
l1 -1q-2 -2 -5 -4t-5 -4q10 3 18 11l-2 2l12 11q5 0 10 -0.5t10 -0.5l2 3q0 1 1 1q5 0 10.5 1t11.5 -1t12 -3l12 -2q6 -2 12.5 -3.5t13.5 -3.5q2 0 5 -3q4 -4 2 -8q0 -2 -1 -2.5t1 -2.5q5 5 11 8.5t11 9.5q1 1 5 3q5 2 9.5 5.5l9.5 7.5q1 1 1 4q-3 3 1 6l7 -3q2 1 3.5 1
t3.5 2l3 7q3 -2 11 -6l7.5 5.5t8.5 5.5q3 -2 9 -3q2 1 4 1.5t4 2.5l6.5 -4.5t7.5 -4.5t6 -2t4.5 0.5t4.5 0.5q1 -8 9 -6q2 0 4 0.5t4 0.5q1 0 3 -2l15 -12q6 -6 7 -11q4 -13 5 -23q1 -5 1 -10t1 -10v-7q10 1 19 1.5t18 1.5q2 2 3.5 4t3.5 4q8 11 14.5 21t14.5 20l8 10t7 10
q6 6 8 14q1 5 8 5q9 1 16 -6l6.5 -6.5t7.5 -6.5q12 -13 6 -29q-2 -6 -3.5 -12t-4.5 -11q-1 -1 -1 -4q6 -8 13 -3v-1q4 1 12 1q6 0 16 2q3 1 6 1t7 1q1 1 1 2q2 0 4 -0.5t4 -0.5q3 0 7 2q3 0 6 1t5 1l44 3q11 1 21.5 1.5t21.5 0.5q15 0 30.5 0.5t30.5 -0.5q10 0 19 -1.5
t19 -3.5l15.5 -2t15.5 -3zM456 790q0 -3 -0.5 -3.5t-5.5 -2.5q0 3 0.5 3.5t5.5 2.5z" />
    <glyph glyph-name="quoteleft" unicode="&#x2018;" horiz-adv-x="51" 
d="M43 575q-12 -6 -23 -3q-5 1 -9.5 1t-7.5 5q-1 2 -1 4.5t-1 4.5q0 3 -0.5 6t-0.5 5q0 14 1 26t6 25q9 31 35 48q4 0 6 -3t4 -5v-9t-2 -9q-2 -7 -1 -10q2 -4 2 -7q-1 -5 0 -11t0 -11q3 -3 3 -5q-1 -4 -2.5 -6.5t-0.5 -5.5q0 -5 -1 -10l-2 -10q-2 -4 -1 -6q1 -4 -0.5 -7.5
t-3.5 -6.5z" />
    <glyph glyph-name="quoteright" unicode="&#x2019;" horiz-adv-x="93" 
d="M26 691q5 4 11 5t11 1q5 -1 9.5 -0.5t8.5 -4.5q2 -6 2 -9l3 -11q2 -13 2 -25t-3 -26q-3 -15 -10 -28t-19 -23q-5 -1 -7 1.5t-4 4.5q-1 5 -1.5 9.5t0.5 9.5q2 5 0 9q-2 6 -2 7q0 6 -1.5 11.5t-1.5 10.5q-2 2 -2.5 3t-1.5 2q0 4 1.5 6.5t0.5 6.5q-1 5 0 9.5t1 9.5
q0 2 0.5 3t-0.5 3q-2 5 -0.5 8z" />
    <glyph glyph-name="quotedblleft" unicode="&#x201c;" horiz-adv-x="116" 
d="M104 575q-11 -6 -23 -3q-4 1 -8.5 1t-8.5 5q0 2 -0.5 4.5t-0.5 4.5q-1 4 -1 11q-1 26 6 51q11 31 35 48q5 0 7 -3t4 -5v-9t-2 -9q-2 -7 -1 -10q2 -4 1 -7q0 -5 0.5 -11t0.5 -11q2 -4 3 -5q-1 -4 -2.5 -6.5t-1.5 -5.5q1 -5 0 -10t-3 -10q0 -2 -0.5 -3t0.5 -3q1 -6 -5 -14z
M43 575q-12 -6 -23 -3q-5 1 -9.5 1t-7.5 5q-1 2 -1 4.5t-1 4.5q0 3 -0.5 6t-0.5 5q0 14 1 26t6 25q9 31 35 48q4 0 6 -3t4 -5v-9t-2 -9q-2 -7 -1 -10q2 -4 2 -7q-1 -5 0 -11t0 -11q3 -3 3 -5q-1 -4 -2.5 -6.5t-0.5 -5.5q0 -5 -1 -10l-2 -10q-2 -4 -1 -6q1 -4 -0.5 -7.5
t-3.5 -6.5z" />
    <glyph glyph-name="quotedblright" unicode="&#x201d;" horiz-adv-x="156" 
d="M89 691q5 4 11 5t12 1q4 -1 8.5 -0.5t8.5 -4.5l3 -9q2 -6 2 -11q5 -26 -1 -51q-3 -15 -10 -28t-19 -23q-5 -1 -7 1.5t-4 4.5q-1 5 -1.5 9.5t1.5 9.5q0 2 0.5 4.5t-1.5 4.5q-2 6 -2 7q0 6 -1 11.5l-2 10.5q-1 2 -4 5q1 4 2 6.5t1 6.5q-1 5 -0.5 9.5t1.5 9.5v6q-2 5 -1 8
t3 7zM26 691q5 4 11 5t11 1q5 -1 9.5 -0.5t8.5 -4.5q2 -6 2 -9l3 -11q2 -13 2 -25t-3 -26q-3 -15 -10 -28t-19 -23q-5 -1 -7 1.5t-4 4.5q-1 5 -1.5 9.5t0.5 9.5q2 5 0 9q-2 6 -2 7q0 6 -1.5 11.5t-1.5 10.5q-2 2 -2.5 3t-1.5 2q0 4 1.5 6.5t0.5 6.5q-1 5 0 9.5t1 9.5
q0 2 0.5 3t-0.5 3q-2 5 -0.5 8z" />
    <glyph glyph-name="bullet" unicode="&#x2022;" horiz-adv-x="176" 
d="M20 409v19q0 14 11 27q4 5 8.5 10t9.5 10q6 4 11 4q8 1 16.5 1t16.5 5q11 2 21 0.5t20 -7.5q15 -10 15 -24q0 -15 4 -27q3 -9 3 -18t-2 -18q-1 -8 -5 -15.5t-9 -14.5q-1 -2 -2 -2.5t-2 -1.5q-11 -5 -19 -10q-15 -8 -35 -8q-11 0 -19.5 3t-16.5 11l-4 4l-14 14t-6.5 9
t-1.5 10.5v18.5z" />
    <glyph glyph-name="endash" unicode="&#x2013;" horiz-adv-x="312" 
d="M7 429q19 -3 41 2q5 1 11 0.5t12 -0.5h45t45 1q13 0 25.5 1.5t25.5 0.5h13t13 -1l43 -3q34 -3 30 -39q0 -1 -2 -5q-10 -8 -21 -11t-24 -4q-14 -1 -27 -1.5t-26 -0.5h-24q-5 0 -8.5 -0.5t-8.5 -0.5q-5 -1 -8.5 -2t-8.5 0q-23 0 -47 -3q-6 -2 -12.5 -1t-12.5 0
q-11 -2 -22.5 -1.5t-22.5 -3.5q-2 -1 -5 0t-6 1q-20 16 -24 37q-2 8 -1 17t7 17z" />
    <glyph glyph-name="emdash" unicode="&#x2014;" horiz-adv-x="468" 
d="M459 429q7 -8 7.5 -17t-1.5 -17q-4 -21 -24 -37q-3 0 -5.5 -1t-5.5 0q-26 8 -58 9.5t-58 -0.5q-26 -1 -52 0l-52 2t-52 0.5t-52 -5.5q-6 -1 -12.5 -0.5t-13.5 -0.5q-11 -2 -22 -1.5t-22 -3.5q-2 -1 -5 0t-6 1q-20 16 -24 37q-3 17 2.5 24.5t16 10t24 2t24.5 -0.5
q28 1 55.5 1h55.5q54 1 108.5 0.5t107.5 -1.5q6 0 12 0.5t12 -0.5q21 -5 40 -2z" />
    <glyph glyph-name="trademark" unicode="&#x2122;" horiz-adv-x="351" 
d="M93 458q5 -2 3 -1t-5 -1q2 1 -0.5 2t2.5 0zM328 510q1 -3 2 -3.5t1 -5.5q-2 4 -3 9zM145 519l1 14l2 2q-1 -6 -1 -9t-2 -7zM66 539q0 5 1 3q-1 0 -1 -3zM64 540v-2l-2 8q1 -2 1 -3.5t1 -2.5zM269 555l1 -2q-1 0 -1 1v1zM272 557q-1 2 -0.5 3t0.5 2v1v-1v-5zM195 540l4 27
l1 2zM220 626l1 -1q0 1 -1 1zM35 630h-1h-1q-1 0 -1 0.5t-1 0.5q1 0 1.5 -0.5t1.5 -0.5h1zM41 631h2q4 0 6 1l1 -1q-2 0 -3 -0.5t-3 -0.5h-3h-6q4 0 6 1zM150 657q2 -12 -2 -16.5t-17 -4.5h-8q0 -1 -1 -1h-3v1q-5 0 -8.5 -0.5t-8.5 -0.5v-1l8 1l-3 -3q-2 0 -3 0.5t-2 0.5
v-12q1 -1 1 -5q2 -7 1.5 -13.5t0.5 -13.5t1 -14t1 -14l3 -29q0 -4 0.5 -7.5t0.5 -6.5l2 -15q0 -4 1 -7.5t1 -7.5q1 -3 0.5 -5.5t0.5 -4.5q-2 -3 -5 -6.5t-8 -5.5q-3 -1 -10 -1q0 2 -4 3h-3q-1 0 -2 1h-2q-2 0 -3 1v2q-4 0 -9 10q-2 4 -3 8t-2 7l2 -1q-1 2 -1 5l-1 4v8
q0 5 -0.5 8t-1.5 6q2 -2 1.5 1.5t-0.5 6.5l2 -4q-1 4 0.5 5t0.5 5l2 -4q1 5 -0.5 6.5t-0.5 6.5l-2 -1q2 6 1.5 8.5t1.5 10.5q-2 2 -3 2t-2 4l1.5 1.5t-0.5 5.5q-1 0 -1 -1v-3q-1 8 -2 18t0 19q1 -4 1.5 0t1.5 3q0 2 -0.5 2.5t-0.5 1.5v1q-1 1 -1 2v1q2 -2 2 -4q1 -2 1 -4.5
t1 -4.5q1 2 2 1.5t2 0.5v4q0 1 -1 2q1 4 0 9q-1 4 -8 4v-1l-2 2h-1q-5 -1 -10 -1h-10q-12 0 -17 11q-5 10 -0.5 16.5t15.5 6.5h3q4 1 14 1q6 1 12 1t11 1q-1 -2 -6 -1.5t-8 -0.5h18h3h16.5t16.5 1q4 0 7.5 0.5t7.5 0.5q15 3 18 -13zM325 500v-3q1 -1 1 -4q2 -9 -2 -15h-1
l-6 -3q-2 -2 -6 -4q-2 -1 -3 -1q-3 -1 -7 -1q-1 -1 -2 -1l-2 1q-1 0 -1.5 -0.5t-2.5 -0.5q-4 0 -8 2q-3 2 -4 4.5t-2 4.5q-1 3 -1 7q-1 5 -1.5 10t-1.5 8l2 -1q-2 6 -2 12.5t-2 13.5v6q-1 1 -1 3l-2 4q1 0 1 7q-1 0 -0.5 0.5t1.5 0.5h1q-1 2 0 5.5t-1 6.5q2 -2 2 -1
q0 4 -0.5 5t-0.5 2q-1 1 -1 8l-1 -8v6l-1 1h-1q0 -2 -2 -2l-2 -4t-3 -4q-1 -5 -0.5 -8.5t-1.5 -7.5q-1 0 -1 0.5t-2 -4.5q0 1 2 1l-3 -8v-1l-2 -3q-1 -2 -1.5 -2.5t-1.5 -2.5q-6 -6 -11 -7q-6 -2 -13 -2t-12 5q-5 4 -7 10.5t-3 8.5q2 -4 2.5 -3.5t0 2t-0.5 3.5v2q-2 4 -2 7
q-1 2 -1 3l-4 10q2 -4 5 -12.5t7 -16.5q0 3 1 2.5t3 -0.5v1q-2 4 -2 6l-2 4q-2 8 -4 13q-2 4 -3 8t-3 8v-1q-1 1 -1 4v1q-4 -20 -8.5 -40t-7.5 -40l-3 -23q-3 -11 -14 -10q-2 0 -3.5 0.5t-3.5 0.5t-3 0.5t-3 0.5q-6 2 -9 5q-2 3 -2 10q2 11 3.5 21t1.5 18q2 -2 0.5 -10.5
t-1.5 -13.5l6 35q3 16 5.5 31.5t5.5 31.5l4 31.5l4 31.5l10 3q16 5 24 -11l12 -27l4 -7h-1q2 -6 4.5 -11.5t4.5 -10.5l3 -3l1 1q-1 1 -2 1l-1 1q0 1 -0.5 1t-0.5 1q-1 1 -1 2l-2 4l5 -4l1 -2v-1q0 -1 0.5 -1t0.5 -1l9 19q1 2 2 4.5t2 4.5l9 20q2 3 2.5 5.5t2.5 5.5
q1 3 3.5 5t4.5 4q7 5 12 6q9 2 14 -1q7 -4 9 -10q0 -2 0.5 -4t0.5 -4l1 -6l2 -24l2 -24q2 -12 2 -24.5t2 -23.5q1 -11 3 -20.5t4 -11.5q0 -4 0.5 -8t1.5 -9zM80 675l2 -2q-4 0 -6 -0.5t-5 0.5z" />
    <glyph glyph-name="guilsinglright" unicode="&#x203a;" horiz-adv-x="239" 
d="M32 276q2 5 5 7.5t6 6.5q4 5 8 9t7 9q1 2 2 2.5t3 2.5q6 8 13.5 14t12.5 14l3 3q5 3 9 7.5t9 8.5q4 4 7 6l23 13q3 2 6.5 4t7.5 4q0 1 2 1q-2 1 -4 3q-5 4 -10 7t-9 8l-4 3q-3 3 -6.5 5t-6.5 5q-5 7 -12 11q-2 0 -2 2q-4 5 -8 9t-8 9q-3 1 -4 4q-10 16 -27 28
q-1 1 -2 1.5t-2 2.5q-2 3 -3 5.5t-3 4.5q-5 5 -8 10t-8 10q-6 6 -9 10v3q5 9 13 9q3 0 6 -0.5t6 -0.5q5 0 7 -2q9 -4 20 -7q7 -1 13 -6q4 -2 7 -4t7 -4q6 -3 11.5 -6.5t11.5 -6.5l3.5 -3.5l3.5 -3.5q5 -4 9 -8.5t9 -7.5q2 0 2 -2q6 -8 13.5 -14.5t13.5 -14.5q1 -1 2 -1.5
t2 -2.5q3 -6 7.5 -10t8.5 -9l6 -6t5 -8l5 -5t5 -6q2 -1 2 -6v-1q-1 -7 -9 -11q-5 -4 -8.5 -9.5t-7.5 -10.5q-4 -3 -6 -9q-2 -3 -5 -5q-16 -13 -27 -28q0 -1 -1 -1.5t-2 -2.5q-4 -5 -8.5 -9t-7.5 -9l-2 -2q-7 -4 -12 -11q-3 -3 -6.5 -5t-6.5 -4q-1 -2 -2 -2.5t-2 -1.5
q-4 -5 -9 -8t-10 -7l-9.5 -5.5t-9.5 -2.5q-4 -2 -14 -2h-9h-14q-9 2 -11 11q0 6 2 8q3 4 10 11z" />
    <glyph glyph-name="oe" unicode="&#x153;" horiz-adv-x="354" 
d="M54 297q7 5 18 16.5t22 25.5t19.5 27t11.5 21q-11 -6 -22.5 -8t-22.5 -5q-10 -16 -16 -33.5t-11 -35.5q-1 -2 -1.5 -4t2.5 -4zM275 425q17 11 28 23q8 9 14 19t11 20q3 8 2 15q0 9 2 13q0 2 -0.5 3t-0.5 3q-9 -1 -13.5 -6t-6.5 -11l-3.5 -7t-3.5 -6q-4 -7 -6.5 -13.5
t-6.5 -13.5l-8 -15q-3 -5 -5.5 -10.5t-2.5 -13.5zM73 487q-8 -16 -13 -29.5t-4 -24.5q1 0 1.5 0.5t1.5 0.5q3 5 6.5 8.5t6.5 8.5q5 12 21 14h4q8 -4 11 -6q17 -11 5 -28l-10 -13q-2 -4 1 -6q10 5 20 9.5l21 9.5l3 2q2 5 5 10.5t5 11.5l11 20q3 7 3 16q0 11 -7 17l-15.5 13.5
t-15.5 12.5q-2 2 -5 3t-6 3q-17 -9 -27.5 -20t-22.5 -33zM157 301q-5 6 -4.5 19t-3.5 20q-4 -5 -16.5 -16t-17.5 -16l-16 -16.5t-15 -18.5q-3 -4 -7 -7t-3 -8q-10 -10 -21.5 -12.5t-22.5 4.5q-18 10 -25 31q-5 15 -5 29.5t5 30.5q5 12 11 24l12 24q2 2 2.5 3.5t2.5 3.5
l-9 12q-3 5 -5.5 11t2.5 13q-1 6 -1 12t-1 12q0 16 7 30q25 52 72 90q1 0 3 2q16 -8 34 -8q5 -1 11 -3l12 -4q10 -4 15.5 -11.5t10.5 -15.5q3 -6 6.5 -27.5t-1.5 -60.5q17 34 45 65l26 29q7 8 16 14.5t19 11.5q5 -1 9.5 -2t9.5 -4q2 -1 3.5 -1t3.5 -1q11 -1 20.5 -5.5
t17.5 -11.5q13 -11 15 -30q1 -33 -15 -60q-4 -5 -7.5 -11t-8.5 -11q-5 -4 -9 -8t-8 -9q-1 -1 -6 -4q-11 -4 -23 -14q-6 -4 -8 -4q-5 -1 -9 -2t-8 -3q-2 -1 -4 -0.5t-4 0.5q-6 -5 -9.5 -11t-5.5 -13q-5 -11 -9 -21.5l-8 -21.5q-1 -2 -1 -7q0 -11 -5 -19q1 -5 1.5 -8.5
t0.5 -8.5q9 -9 21 -5l10.5 4t10.5 5q28 14 49 35l19.5 19t18.5 20l21.5 27t19.5 28q14 23 33 49q3 5 6.5 8.5l7.5 7.5q5 6 9 2t6 -9q2 -8 0.5 -14.5t-5.5 -12.5l-14 -22.5t-15 -22.5q-7 -9 -13 -18.5t-13 -18.5q-1 -2 -6.5 -8.5t-5.5 -7.5q-1 0 -2.5 -2.5t-3.5 -4.5
q-12 -9 -21 -20.5t-20 -22.5q-3 -2 -5 -5.5t-5 -5.5q-8 -8 -16 -14.5t-17 -11.5q-7 -5 -15 -7l-16 -4q-13 -4 -25.5 -3.5t-26.5 -0.5q-2 0 -5 1l-6 2q-14 5 -23 16.5t-16 24.5q-3 2 -4.5 8t-3.5 8z" />
    </font>
</defs>
</svg>
