<svg xmlns="http://www.w3.org/2000/svg" width="315" height="395" viewBox="0 0 315 395">
    <path fill="#000" fill-rule="evenodd" d="M276 93.68l22.238 250.558c-.238 18.801-18.558 34-41.117 34H56.961c-22.563 0-40.883-15.199-41.121-34L38.078 93.68h42.961v36.64a7.886 7.886 0 0 0 7.922 7.918 7.886 7.886 0 0 0 7.918-7.918V93.68h120.32v36.64a7.886 7.886 0 0 0 7.922 7.918 7.885 7.885 0 0 0 7.918-7.918V93.68H276zM96.879 76c0-33.199 26.961-60.16 60.16-60.16s60.16 26.961 60.16 60.16v1.84H96.879V76zm60.16-76c-41.918 0-76 34.078-76 76v1.84H30.801c-4.082 0-7.52 3.121-7.922 7.199L0 343.199v.723c0 27.68 25.52 50.156 56.961 50.156h200.238c31.442 0 56.961-22.476 56.961-50.156v-.723l-22.961-258.16c-.398-4.078-3.758-7.199-7.918-7.199h-50.242V76c0-41.922-34.078-76-76-76z"/>
</svg>
