<svg xmlns="http://www.w3.org/2000/svg" width="76" height="70" viewBox="0 0 76 70">
    <g fill="#18B3B2" fill-rule="evenodd">
        <path d="M19.61 4.806c-7.818 0-14.02 6.452-14.747 15.34C3.56 36.088 31.918 60.983 38 65.697c6.083-4.711 34.443-29.596 33.137-45.55-.726-8.888-6.928-15.34-14.746-15.34-6.123 0-12.084 3.968-16.79 11.173a1.913 1.913 0 0 1-3.203 0C31.693 8.774 25.732 4.806 19.61 4.806M38.08 70c-.114 0-.23-.01-.343-.031a1.872 1.872 0 0 1-.696-.21 2.002 2.002 0 0 1-.567-.448c-5.01-3.61-36.96-30.644-35.42-49.474C1.947 8.922 9.752 1 19.61 1 26.356 1 32.81 4.749 38 11.622 43.19 4.749 49.644 1 56.39 1c9.859 0 17.662 7.922 18.555 18.837 1.535 18.769-30.152 45.65-35.358 49.43A1.908 1.908 0 0 1 38.08 70"/>
        <path d="M18.5 37c-.829 0-1.5-.842-1.5-1.88V2.88C17 1.844 17.671 1 18.5 1s1.5.843 1.5 1.88v32.24c0 1.038-.671 1.88-1.5 1.88"/>
        <path d="M35.12 20H2.88C1.844 20 1 19.329 1 18.5S1.843 17 2.88 17h32.24c1.038 0 1.88.671 1.88 1.5s-.842 1.5-1.88 1.5"/>
        <path d="M19.5 3.86c-8.624 0-15.64 7.017-15.64 15.64 0 8.624 7.016 15.64 15.64 15.64s15.64-7.016 15.64-15.64c0-8.623-7.016-15.64-15.64-15.64m0 35.14C8.747 39 0 30.253 0 19.5 0 8.749 8.747 0 19.5 0S39 8.748 39 19.5C39 30.254 30.253 39 19.5 39"/>
        <path d="M7.912 33a1.913 1.913 0 0 1-1.352-3.264L29.736 6.56a1.91 1.91 0 1 1 2.704 2.704L9.264 32.44c-.374.373-.862.56-1.352.56"/>
        <path d="M31.088 33c-.49 0-.978-.187-1.352-.56L6.56 9.264A1.91 1.91 0 1 1 9.264 6.56L32.44 29.736A1.913 1.913 0 0 1 31.088 33M55.5 37c-.829 0-1.5-.842-1.5-1.88V2.88C54 1.844 54.671 1 55.5 1s1.5.843 1.5 1.88v32.24c0 1.038-.671 1.88-1.5 1.88"/>
        <path d="M71.12 20H38.88c-1.038 0-1.88-.671-1.88-1.5s.842-1.5 1.88-1.5h32.24c1.038 0 1.88.671 1.88 1.5s-.842 1.5-1.88 1.5"/>
        <path d="M56.5 3.86c-8.624 0-15.64 7.017-15.64 15.64 0 8.624 7.016 15.64 15.64 15.64s15.64-7.016 15.64-15.64c0-8.623-7.016-15.64-15.64-15.64m0 35.14C45.747 39 37 30.253 37 19.5 37 8.749 45.747 0 56.5 0S76 8.748 76 19.5C76 30.254 67.253 39 56.5 39"/>
        <path d="M43.912 33a1.913 1.913 0 0 1-1.352-3.264L65.736 6.56a1.91 1.91 0 1 1 2.704 2.704L45.264 32.44c-.374.373-.862.56-1.352.56"/>
        <path d="M67.088 33c-.49 0-.978-.187-1.352-.56L42.56 9.264a1.91 1.91 0 1 1 2.704-2.704L68.44 29.736A1.913 1.913 0 0 1 67.088 33"/>
    </g>
</svg>
