<svg xmlns="http://www.w3.org/2000/svg" width="51" height="83" viewBox="0 0 51 83">
    <g fill="#18B3B2" fill-rule="evenodd">
        <path d="M25.5 83c-.829 0-1.5-.853-1.5-1.906V21.906c0-1.052.671-1.906 1.5-1.906s1.5.854 1.5 1.906v59.188C27 82.147 26.329 83 25.5 83"/>
        <path d="M3.88 59C2.842 59 2 58.329 2 57.5S2.842 56 3.88 56h43.24c1.039 0 1.88.671 1.88 1.5s-.841 1.5-1.88 1.5H3.88z"/>
        <path d="M3.806 79.194h43.388V35.806H3.806v43.388zM49.097 83H1.903A1.903 1.903 0 0 1 0 81.097V33.903C0 32.852.852 32 1.903 32h47.194c1.051 0 1.903.852 1.903 1.903v47.194A1.903 1.903 0 0 1 49.097 83z"/>
        <path d="M45.183 38.817a15.629 15.629 0 0 0-10.759 4.604 15.72 15.72 0 0 0-4.607 10.762 15.634 15.634 0 0 0 10.761-4.605 15.72 15.72 0 0 0 4.605-10.76M29.44 58c-.542 0-1.09-.023-1.63-.068a1.905 1.905 0 0 1-1.742-1.741 19.537 19.537 0 0 1 5.66-15.466A19.423 19.423 0 0 1 45.557 35c.544 0 1.093.023 1.634.068a1.907 1.907 0 0 1 1.742 1.741 19.53 19.53 0 0 1-5.658 15.464A19.428 19.428 0 0 1 29.44 58"/>
        <path d="M7.817 38.817a15.72 15.72 0 0 0 4.605 10.76 15.634 15.634 0 0 0 10.761 4.606 15.72 15.72 0 0 0-4.607-10.762 15.632 15.632 0 0 0-10.76-4.604M23.56 58a19.428 19.428 0 0 1-13.834-5.727A19.53 19.53 0 0 1 4.068 36.81a1.907 1.907 0 0 1 1.742-1.741C6.35 35.023 6.9 35 7.444 35a19.426 19.426 0 0 1 13.828 5.726 19.537 19.537 0 0 1 5.66 15.465 1.905 1.905 0 0 1-1.741 1.741c-.54.045-1.09.068-1.631.068M45.183 3.817a15.629 15.629 0 0 0-10.759 4.604 15.72 15.72 0 0 0-4.607 10.762 15.634 15.634 0 0 0 10.761-4.605 15.72 15.72 0 0 0 4.605-10.76M29.44 23c-.542 0-1.09-.022-1.63-.068a1.905 1.905 0 0 1-1.742-1.741 19.535 19.535 0 0 1 5.66-15.465A19.42 19.42 0 0 1 45.557 0c.544 0 1.093.023 1.634.068a1.907 1.907 0 0 1 1.742 1.741 19.53 19.53 0 0 1-5.658 15.464A19.428 19.428 0 0 1 29.44 23"/>
        <path d="M7.817 3.817a15.72 15.72 0 0 0 4.605 10.76 15.634 15.634 0 0 0 10.761 4.606 15.718 15.718 0 0 0-4.607-10.76 15.629 15.629 0 0 0-10.76-4.606M23.56 23a19.428 19.428 0 0 1-13.834-5.727A19.53 19.53 0 0 1 4.068 1.81 1.907 1.907 0 0 1 5.81.068C6.35.023 6.9 0 7.444 0a19.426 19.426 0 0 1 13.828 5.726 19.537 19.537 0 0 1 5.66 15.465 1.905 1.905 0 0 1-1.741 1.741c-.54.046-1.09.068-1.631.068"/>
    </g>
</svg>
