<svg xmlns="http://www.w3.org/2000/svg" width="122" height="122" viewBox="0 0 122 122">
    <g fill="none" fill-rule="evenodd" transform="translate(1 1)">
        <circle cx="60" cy="60" r="60" fill="#FFF" stroke="#18B3B2"/>
        <g fill="#18B3B2">
            <path d="M61.326 79.36c-9.522 0-17.268-7.703-17.268-17.171 0-7.978 5.487-11.693 17.268-11.693s17.268 3.715 17.268 11.693c0 9.468-7.746 17.17-17.268 17.17M51.123 24.544c.576 1.284 1.638 4.613 2.781 12.994.494 3.613.885 7.35 1.145 10.48-3.25.489-5.938 1.392-8.053 2.709.226-3.51.698-8.455 1.344-13.189 1.145-8.381 2.207-11.71 2.783-12.994m17.625 12.994c1.144-8.381 2.206-11.71 2.782-12.994.576 1.284 1.638 4.613 2.783 12.994.645 4.734 1.118 9.678 1.344 13.189-2.116-1.317-4.803-2.22-8.053-2.708.259-3.131.65-6.868 1.144-10.48m12.773 24.65c0-3.598-.939-6.536-2.804-8.81-.105-3.683-.752-11.045-1.679-17.474C75.056 22.15 73.23 21 71.53 21c-1.7 0-3.526 1.15-5.508 14.904A206.107 206.107 0 0 0 64.695 47.7a48.22 48.22 0 0 0-3.369-.116c-1.175 0-2.295.04-3.368.116-.298-3.58-.76-7.863-1.327-11.797C54.649 22.15 52.823 21 51.123 21c-1.7 0-3.526 1.15-5.509 14.904-.926 6.429-1.573 13.79-1.679 17.474-1.865 2.273-2.804 5.212-2.804 8.81 0 11.074 9.06 20.082 20.195 20.082 11.136 0 20.195-9.008 20.195-20.081"/>
            <path d="M64.749 65.907a1.468 1.468 0 0 0-2.07 0l-1.353 1.345-1.353-1.345a1.468 1.468 0 0 0-2.069 0 1.448 1.448 0 0 0 0 2.058l1.353 1.345-1.353 1.346a1.448 1.448 0 0 0 0 2.057c.286.285.66.427 1.034.427.375 0 .75-.142 1.035-.427l1.353-1.345 1.353 1.345c.286.285.66.427 1.035.427.374 0 .749-.142 1.035-.427a1.448 1.448 0 0 0 0-2.057l-1.354-1.346 1.354-1.345a1.448 1.448 0 0 0 0-2.058M50.906 57.946c-1.82 0-3.3 1.471-3.3 3.28a1.46 1.46 0 0 0 1.463 1.456 1.46 1.46 0 0 0 1.463-1.455c0-.205.168-.37.374-.37s.373.165.373.37a1.46 1.46 0 0 0 1.464 1.455 1.46 1.46 0 0 0 1.463-1.455c0-1.81-1.481-3.281-3.3-3.281M71.747 57.946c-1.82 0-3.3 1.471-3.3 3.28a1.46 1.46 0 0 0 1.463 1.456 1.46 1.46 0 0 0 1.463-1.455c0-.205.168-.37.374-.37s.373.165.373.37a1.46 1.46 0 0 0 1.464 1.455 1.46 1.46 0 0 0 1.463-1.455c0-1.81-1.48-3.281-3.3-3.281M37.721 47.59l-4.675-3.814.016-.02 7.022.972 1.653-2.003-6.727-5.49-1.217 1.474 4.79 3.908-.017.019-7.198-.989-1.59 1.928 6.727 5.49zM27.902 51.307a2.82 2.82 0 0 1 .576-.968 2.508 2.508 0 0 1 1.86-.808c.364-.004.738.065 1.123.204.378.138.706.323.986.56.28.236.496.507.65.815.153.307.238.639.256.996.016.358-.045.728-.185 1.11a2.859 2.859 0 0 1-.577.969 2.503 2.503 0 0 1-1.867.807 3.216 3.216 0 0 1-1.116-.203 3.183 3.183 0 0 1-.991-.562 2.55 2.55 0 0 1-.644-.812 2.47 2.47 0 0 1-.257-.997 2.813 2.813 0 0 1 .186-1.11m-.635 4.369c.452.41 1.004.734 1.659.972.654.237 1.287.343 1.898.318a4.175 4.175 0 0 0 1.692-.421 4.306 4.306 0 0 0 1.37-1.078 5.357 5.357 0 0 0 .945-1.648 5.31 5.31 0 0 0 .344-1.866 4.241 4.241 0 0 0-.352-1.702 4.114 4.114 0 0 0-1.021-1.405c-.451-.41-1.005-.734-1.658-.972-.655-.237-1.288-.343-1.9-.317a4.16 4.16 0 0 0-1.691.42 4.292 4.292 0 0 0-1.37 1.078 5.339 5.339 0 0 0-.945 1.648 5.327 5.327 0 0 0-.344 1.866c.004.608.12 1.176.35 1.702.23.526.572.994 1.023 1.405M27.99 67.06l-.206-2.104 2.794.785-2.588 1.32zm5.036-2.293L24 61.884l.205 2.092 1.905.54.329 3.346-1.763.92.21 2.141 8.295-4.586-.155-1.57zM36.192 75.825l-5.528 2.44-.01-.022 4.027-5.803-1.058-2.369-7.954 3.513.778 1.742 5.662-2.5.01.022L28 78.8l1.016 2.28 7.955-3.512zM37.853 78.367l-6.956 5.201 1.154 1.525 6.955-5.203zM44.83 85.272l-5.102 3.19-.019-.015 1.946-5.667-2.277-1.788-5.392 6.794 1.505 1.182 4.135-5.21.02.015-2.41 6.566 1.15.9 5.93-3.8.018.014-4.134 5.21 1.505 1.182 5.392-6.794zM48.682 92.995l1.863-2.216.154 2.887-2.017-.671zm1.967-4.837l-6.331 7.018 2.005.668 1.273-1.51 3.205 1.068.125 1.976 2.052.683-.825-9.402-1.504-.5zM57.945 89.734l-1.913-.117-.533 8.64 5.46.332.109-1.757-3.547-.216zM71.084 87.672l-6.589 1.987.493 1.614 2.376-.716 2.034 6.667 1.836-.554-2.035-6.667 2.376-.717zM77.1 92.113l-.935-1.495 3.206-1.982-.936-1.494-3.204 1.981-.857-1.37 3.393-2.097-.935-1.495-5.021 3.104 4.596 7.35 5.209-3.22-.935-1.496zM86.251 83.162c-.372-.344-.736-.547-1.092-.609a2.294 2.294 0 0 0-1.038.052 3.966 3.966 0 0 0-.962.42c-.306.184-.599.351-.874.503a2.823 2.823 0 0 1-.767.3c-.236.05-.45-.015-.642-.192a.691.691 0 0 1-.223-.373.904.904 0 0 1 .015-.42c.038-.143.096-.279.172-.408.077-.13.162-.245.257-.347a2.28 2.28 0 0 1 .618-.455c.25-.13.5-.186.75-.166l-.157-1.932c-.492.047-.945.19-1.36.43a4.87 4.87 0 0 0-1.123.898c-.29.31-.528.652-.714 1.026a3.175 3.175 0 0 0-.332 1.135c-.035.386.014.765.146 1.137.133.373.37.718.712 1.033.355.327.709.518 1.061.572.353.052.7.03 1.036-.07.34-.098.668-.24.986-.424.317-.184.619-.351.903-.5.284-.149.55-.245.799-.29a.74.74 0 0 1 .66.202.698.698 0 0 1 .217.36.92.92 0 0 1-.002.415c-.033.143-.09.284-.172.425a2.126 2.126 0 0 1-.281.383 2.13 2.13 0 0 1-.79.53 1.999 1.999 0 0 1-.952.13l.17 2.01a3.965 3.965 0 0 0 1.533-.42c.456-.236.875-.56 1.26-.972.308-.328.557-.679.749-1.052.192-.373.305-.752.34-1.137a2.53 2.53 0 0 0-.16-1.14c-.141-.375-.39-.727-.743-1.054M86.876 73.504l-1.494-.8-3.264 6.027 1.492.8 1.179-2.174 6.168 3.305.91-1.678-6.168-3.306zM85.515 71.769l8.317 2.549.565-1.822-8.317-2.55zM95.74 63.246l.136-2.49-8.69-.47-.103 1.903 6.039.327-.002.025-6.24 3.346-.142 2.588 8.69.471.105-1.904-6.187-.335.002-.025zM86.412 56.723c.37.486.805.87 1.305 1.155a4.172 4.172 0 0 0 1.664.519 4.949 4.949 0 0 0 1.914-.207c.668-.2 1.239-.491 1.713-.875a4.123 4.123 0 0 0 1.102-1.344 4.25 4.25 0 0 0 .451-1.678 5.329 5.329 0 0 0-.234-1.882 8.925 8.925 0 0 0-.73-1.735 6.887 6.887 0 0 0-1.12-1.505l-4.357 1.3.98 3.244 1.694-.506-.447-1.487 1.353-.404c.146.143.308.346.485.608s.326.592.446.99c.117.39.158.764.12 1.12a2.455 2.455 0 0 1-.315.98 2.54 2.54 0 0 1-.69.774c-.29.218-.63.386-1.023.503-.384.114-.76.16-1.126.138a2.5 2.5 0 0 1-1.815-.914 2.828 2.828 0 0 1-.52-1c-.14-.468-.192-.877-.153-1.23a2.68 2.68 0 0 1 .335-1.018l-1.801-.867a3.72 3.72 0 0 0-.388 1.717 6.89 6.89 0 0 0 .311 1.904c.196.648.478 1.215.846 1.7"/>
        </g>
    </g>
</svg>
