<svg xmlns="http://www.w3.org/2000/svg" width="30" height="29" viewBox="0 0 30 29">
    <g fill="#000" fill-rule="evenodd">
        <path d="M5.159 13.865l-.051.57c-.01.11-.077.165-.184.156l-3.841-.355c-.11-.01-.163-.079-.155-.185l.179-1.975c.009-.108.077-.164.182-.155l.578.054c.108.01.165.078.155.184l-.111 1.23.774.071.1-1.12c.01-.113.079-.17.186-.16l.462.043c.109.01.165.077.154.19l-.1 1.121 1.52.14c.107.01.164.078.152.191M5.763 10.453L2.268 8.816c-.097-.046-.126-.13-.081-.227l.237-.509c.049-.103.132-.133.229-.088l3.493 1.64c.097.044.128.127.08.23l-.236.51c-.046.098-.13.128-.227.081M6.296 3.36l.41.412c.076.077.07.169-.006.245l-.513.51L8.38 6.73c.074.077.076.166-.002.24l-.408.407c-.075.076-.163.076-.241 0L5.538 5.172l-.511.51c-.078.077-.165.077-.241 0l-.408-.41c-.076-.076-.076-.165.002-.241l1.67-1.666c.079-.076.17-.08.246-.004M14.79 4.274c-.392.023-.786-.1-1.194-.356-.12-.073-.146-.156-.101-.26l.246-.515c.059-.1.142-.128.243-.066.259.144.502.215.696.204.237-.014.383-.142.373-.329-.021-.329-.487-.42-.91-.623-.534-.258-.814-.646-.82-1.128-.007-.699.55-1.19 1.3-1.2.302-.008.597.077.839.194.099.051.122.134.069.234l-.237.417c-.054.1-.132.122-.233.077a.901.901 0 0 0-.426-.088c-.25.013-.39.142-.38.312.015.272.392.363.742.513.344.144.989.464 1.038 1.24.045.731-.478 1.33-1.244 1.374M20.528 5.5l-.676-.28c-.086-.034-.14-.094-.15-.19L19.5 3.263l-.15.09-.52 1.262c-.043.099-.123.134-.228.09l-.525-.218c-.099-.04-.134-.122-.093-.222l1.477-3.57c.041-.1.122-.133.222-.091l.524.217c.105.043.14.125.1.224L19.91 2l1.154-.71a.24.24 0 0 1 .236-.018l.623.257c.138.058.146.159.02.236l-1.572.966.346 2.626c.02.13-.063.196-.189.144M22.318 6.687l2.692-2.766c.074-.077.163-.078.241-.003l.402.393c.084.08.084.168.008.245l-2.69 2.766c-.076.076-.165.077-.245-.002l-.404-.393c-.078-.075-.08-.163-.004-.24M28.998 9.602l.225.522c.043.099.012.18-.087.223l-3.545 1.52c-.099.043-.18.01-.224-.088l-.163-.377c-.035-.084-.035-.152.02-.23l1.527-2.418-2.11.905c-.102.042-.183.01-.228-.095l-.227-.528c-.043-.1-.01-.18.09-.223l3.544-1.52c.1-.043.181-.01.224.089l.155.36c.037.084.035.153-.019.23l-1.534 2.447 2.127-.912c.1-.043.182-.01.225.095M27.409 18.638l-.152.387a.386.386 0 1 0 .72.282l.148-.387-.716-.282zm-3.008.798l.244-.62c.035-.09.091-.141.186-.153l1.675-.243.046-.116-1.32-.517c-.101-.04-.136-.12-.095-.226l.21-.536c.038-.1.12-.136.22-.096l3.595 1.405c.099.039.134.12.095.22l-.426 1.087a1.305 1.305 0 0 1-1.686.744 1.3 1.3 0 0 1-.822-1.047l-1.776.283c-.131.029-.198-.053-.146-.185zM22.635 23.827l.943.523-.337-1.028-.606.505zm-2.152-.342l.498-.406c.074-.062.148-.07.231-.023l.554.303 1.176-.976-.192-.606c-.033-.093-.01-.164.064-.225l.497-.413c.097-.08.187-.052.228.07l1.288 3.963c.033.091.01.163-.064.225l-.336.278c-.076.063-.15.071-.233.024l-3.689-1.975c-.11-.062-.117-.159-.022-.239zM16.841 28.822l-.56.094c-.107.018-.177-.034-.196-.14l-.639-3.809c-.02-.106.033-.178.137-.196l.405-.068c.09-.015.155.002.22.072l1.988 2.063-.38-2.269c-.019-.107.032-.179.144-.197l.564-.095c.107-.019.181.033.196.14l.642 3.81c.017.105-.033.176-.14.195l-.387.065c-.089.014-.155-.003-.22-.072l-2.01-2.076.382 2.286c.02.106-.033.177-.146.197M8.943 25.401l.11-.29c.459-1.064 1.63-1.56 2.673-1.158 1.12.43 1.607 1.652 1.188 2.74a2.132 2.132 0 0 1-2.758 1.223c-.537-.207-.896-.588-1.137-1.13-.045-.103-.018-.178.078-.232l.449-.252c.093-.055.18-.027.233.073.17.314.365.558.703.69a1.222 1.222 0 0 0 1.573-.702c.246-.645-.047-1.323-.655-1.558a1.144 1.144 0 0 0-1.306.36l1.16.447c.105.04.142.12.1.227l-.164.428c-.037.102-.12.137-.224.096l-1.92-.74c-.107-.04-.142-.12-.103-.222M6.25 20.655l.436-.379c.082-.07.17-.063.239.017l1.36 1.576c.07.081.063.17-.02.24l-2.908 2.523c-.082.07-.17.063-.24-.018l-1.36-1.575c-.07-.082-.062-.17.018-.24l.437-.378c.082-.07.169-.064.24.017l.868 1.007.587-.508-.8-.925c-.073-.086-.067-.174.015-.245l.352-.303c.08-.07.169-.065.243.021l.798.925.585-.508-.866-1.006c-.072-.083-.066-.17.017-.24M3.378 18.562a.465.465 0 0 1 .603.274.46.46 0 0 1-.269.596.465.465 0 1 1-.334-.87"/>
    </g>
</svg>
