<svg xmlns="http://www.w3.org/2000/svg" width="64" height="62" viewBox="0 0 64 62">
    <g fill="#18B3B2" fill-rule="evenodd">
        <path d="M47.985 45.015a14.011 14.011 0 0 0-9.834 4.131 14.095 14.095 0 0 0-4.136 9.838 14.022 14.022 0 0 0 9.837-4.132 14.093 14.093 0 0 0 4.133-9.837M33.865 62c-.475 0-.956-.02-1.428-.06a1.506 1.506 0 0 1-1.378-1.377 17.118 17.118 0 0 1 4.96-13.549A17.013 17.013 0 0 1 48.134 42c.475 0 .957.02 1.43.06.735.06 1.317.642 1.377 1.377a17.11 17.11 0 0 1-4.956 13.547A17.021 17.021 0 0 1 33.864 62"/>
        <path d="M15.015 45.015a14.093 14.093 0 0 0 4.133 9.837 14.021 14.021 0 0 0 9.837 4.132 14.096 14.096 0 0 0-4.134-9.837 14.014 14.014 0 0 0-9.836-4.132M29.135 62a17.025 17.025 0 0 1-12.12-5.016 17.112 17.112 0 0 1-4.955-13.547 1.505 1.505 0 0 1 1.377-1.377c.473-.04.955-.06 1.43-.06 4.58 0 8.882 1.781 12.115 5.015a17.116 17.116 0 0 1 4.959 13.548 1.506 1.506 0 0 1-1.378 1.377c-.472.04-.953.06-1.427.06M43.952 33.894c-2.867.355-5.489 1.698-7.338 3.792-1.852 2.097-2.756 4.744-2.567 7.42 2.867-.357 5.49-1.7 7.339-3.794 1.851-2.096 2.756-4.744 2.566-7.418zM32.727 48c-.727 0-1.354-.482-1.486-1.148-.773-3.895.333-7.882 3.035-10.94 2.699-3.057 6.697-4.848 10.972-4.912.743.004 1.375.475 1.51 1.147.775 3.894-.331 7.881-3.034 10.94-2.698 3.056-6.697 4.847-10.972 4.913h-.025z"/>
        <path d="M20.048 33.894c-.19 2.674.714 5.322 2.566 7.417 1.85 2.095 4.471 3.438 7.339 3.794.188-2.675-.716-5.322-2.567-7.417-1.85-2.096-4.472-3.439-7.338-3.794M31.273 48h-.025c-4.275-.066-8.274-1.857-10.973-4.914-2.702-3.057-3.808-7.045-3.033-10.939.135-.672.77-1.143 1.51-1.147 4.274.064 8.273 1.855 10.972 4.912 2.702 3.058 3.808 7.046 3.035 10.94C32.627 47.518 32 48 31.273 48M41.924 27.076a8.476 8.476 0 0 0-5.37 2.477 8.535 8.535 0 0 0-2.478 5.371 8.484 8.484 0 0 0 5.372-2.475 8.543 8.543 0 0 0 2.476-5.373M33.398 38c-.322 0-.643-.013-.964-.04a1.526 1.526 0 0 1-1.394-1.393 11.59 11.59 0 0 1 3.357-9.171 11.573 11.573 0 0 1 9.17-3.355 1.524 1.524 0 0 1 1.393 1.393 11.59 11.59 0 0 1-3.355 9.17A11.524 11.524 0 0 1 33.398 38"/>
        <path d="M21.076 27.076a8.538 8.538 0 0 0 2.477 5.373 8.48 8.48 0 0 0 5.371 2.475 8.532 8.532 0 0 0-2.476-5.371 8.482 8.482 0 0 0-5.372-2.477M29.601 38a11.52 11.52 0 0 1-8.205-3.396 11.588 11.588 0 0 1-3.356-9.17 1.526 1.526 0 0 1 1.393-1.394c.323-.027.646-.04.97-.04 3.1 0 6.012 1.206 8.2 3.396a11.588 11.588 0 0 1 3.357 9.17 1.526 1.526 0 0 1-1.394 1.394c-.321.027-.642.04-.965.04"/>
        <path d="M32.05 18.383c-1.303 1.407-2.04 3.208-2.058 5.099-.018 1.891.684 3.704 1.959 5.134 1.303-1.408 2.04-3.208 2.057-5.099.018-1.892-.683-3.705-1.958-5.134M31.932 32a1.55 1.55 0 0 1-.978-.342c-2.543-2.063-3.984-5.052-3.954-8.201.03-3.15 1.53-6.115 4.113-8.132a1.567 1.567 0 0 1 1.932.016c2.544 2.061 3.985 5.05 3.955 8.2-.03 3.15-1.528 6.115-4.112 8.134a1.55 1.55 0 0 1-.956.325M9 18.402a4.2 4.2 0 0 1-.254 1.381c-.162.448-.383.88-.664 1.299a4.305 4.305 0 0 1-2.487 1.769 4.755 4.755 0 0 1-1.61.131 5.39 5.39 0 0 1-1.701-.434c-.57-.245-1.034-.542-1.394-.893-.36-.351-.611-.733-.753-1.145a2.582 2.582 0 0 1-.096-1.294c.078-.45.266-.897.563-1.341a5.359 5.359 0 0 1 1.05-1.17c.395-.324.856-.56 1.385-.705l.613 1.402a2.768 2.768 0 0 0-.89.363c-.258.165-.494.408-.71.73-.18.268-.286.535-.317.8-.032.266.003.521.102.764.101.243.263.466.49.67.225.204.502.376.83.517.336.144.67.234 1.003.27.334.036.656.02.964-.048a2.56 2.56 0 0 0 .852-.353c.26-.168.48-.386.66-.655.182-.273.302-.525.358-.756.056-.231.083-.423.082-.575l-1.156-.496-.684 1.02-1.448-.62 1.493-2.226L9 18.402zM4 14.196L5.127 13l4.608 3.826 2.088-2.217 1.177.978L9.784 19zM18.3 8.835c.274.37.47.75.585 1.142.116.39.144.78.085 1.166-.058.388-.21.764-.455 1.129-.245.364-.59.7-1.035 1.007-.451.311-.895.52-1.332.626a3.016 3.016 0 0 1-1.253.052 2.915 2.915 0 0 1-1.118-.455 3.754 3.754 0 0 1-.932-.902L10 8.767l1.426-.985 2.805 3.78c.143.195.309.352.495.472s.381.201.586.242c.205.04.413.04.626-.005.211-.044.411-.131.6-.262.189-.13.338-.283.446-.46a1.43 1.43 0 0 0 .202-.566c.026-.2.01-.405-.048-.614a1.85 1.85 0 0 0-.303-.604l-2.805-3.78L15.455 5 18.3 8.835zM18.395 4.995l-1.872.87L16 4.41 21.191 2l.523 1.454-1.873.87L22 10.327 20.554 11zM23 .745L27.632 0l.242 1.272-3.129.504.223 1.165 2.956-.475.243 1.272-2.956.476.243 1.271 3.303-.53L29 6.227 24.195 7zM31.55 0l2.038.157L36.1 4.9l.018.002.383-4.519L38 .5 37.45 7l-1.961-.151L32.91 1.99l-.02-.002-.391 4.629L31 6.5zM42.869 3L47 4.984l-.583 1.292-2.775-1.334-.583 1.292 2.565 1.233-.583 1.291-2.565-1.233L41.356 10 40 9.348zM48.387 8.247l.656.556c.1.085.208.17.325.258.117.086.234.148.352.186.118.037.236.039.354.006.117-.034.229-.126.335-.279a.78.78 0 0 0 .157-.404.788.788 0 0 0-.065-.362 1.235 1.235 0 0 0-.214-.326 2.874 2.874 0 0 0-.29-.283l-.727-.618-.883 1.266zM48.882 5l1.953 1.657c.256.218.48.453.672.703.193.25.33.513.414.789.084.276.1.566.051.87-.049.304-.187.619-.414.943-.274.393-.6.649-.977.767-.377.117-.77.062-1.177-.167L49.047 14l-1.332-1.13.497-3.12-.549-.466-1.552 2.224L45 10.565 48.882 5zM56.767 10L60 13.997l-1.173.986-2.185-2.7-1.075.905 2.064 2.551-1.173.987-2.063-2.55-1.174.987 2.306 2.85-1.173.987L51 14.854zM61.706 18L64 21.936l-1.364.593-1.55-2.66-1.25.545 1.464 2.512-1.364.593-1.465-2.512-1.363.594 1.636 2.806L57.38 25 55 20.917z"/>
    </g>
</svg>
