<svg xmlns="http://www.w3.org/2000/svg" width="71" height="61" viewBox="0 0 71 61">
    <g fill="#18B3B2" fill-opacity=".502" fill-rule="evenodd">
        <path d="M36 48C20.344 48 7.995 33.859 7.476 33.257a1.957 1.957 0 0 1 .238-2.788 2.039 2.039 0 0 1 2.836.231c.137.16 11.693 13.343 25.452 13.343 13.81 0 25.335-13.208 25.449-13.341a2.035 2.035 0 0 1 2.837-.233c.849.705.955 1.953.238 2.787C64.006 33.86 51.659 48 36 48"/>
        <path d="M35 61c-1.105 0-2-.872-2-1.949V47.949c0-1.077.895-1.949 2-1.949s2 .872 2 1.949v11.102C37 60.128 36.105 61 35 61M47.994 60a2.009 2.009 0 0 1-1.88-1.331l-3.988-10.912c-.386-1.058.142-2.234 1.18-2.628a1.997 1.997 0 0 1 2.58 1.201l3.988 10.912c.386 1.058-.142 2.235-1.18 2.629-.23.087-.467.129-.7.129M68.958 47c-.549 0-1.096-.208-1.499-.622l-7.914-8.114a1.878 1.878 0 0 1 .108-2.745c.828-.73 2.12-.684 2.887.102l7.915 8.115c.767.786.72 2.016-.109 2.746a2.095 2.095 0 0 1-1.388.518M59.003 54c-.668 0-1.32-.343-1.699-.968l-6.003-9.905c-.582-.961-.294-2.223.644-2.82a1.97 1.97 0 0 1 2.75.66l6.004 9.906c.583.96.294 2.222-.644 2.82a1.958 1.958 0 0 1-1.052.307M22.006 60c-.233 0-.47-.042-.7-.13-1.038-.393-1.566-1.57-1.18-2.628l3.989-10.911a1.996 1.996 0 0 1 2.58-1.202c1.037.394 1.565 1.57 1.178 2.628L23.886 58.67A2.009 2.009 0 0 1 22.006 60M2 47.958c-.487 0-.975-.18-1.36-.542a2.053 2.053 0 0 1-.106-2.87l7.749-8.484a1.979 1.979 0 0 1 2.826-.107c.81.763.857 2.047.106 2.87l-7.748 8.483c-.395.431-.93.65-1.468.65M10.997 54c-.36 0-.724-.1-1.052-.309-.938-.596-1.227-1.857-.644-2.818l6.003-9.905a1.97 1.97 0 0 1 2.751-.66c.938.597 1.226 1.858.644 2.82l-6.003 9.904a1.987 1.987 0 0 1-1.7.968M34.997 5.655c-3.945 5.714-8.847 13.917-8.847 17.263 0 4.804 3.969 8.71 8.847 8.71s8.847-3.906 8.847-8.71c0-3.346-4.902-11.55-8.847-17.263m0 29.974c-7.118 0-12.91-5.703-12.91-12.71 0-6.38 10.11-20.351 11.263-21.924a2.04 2.04 0 0 1 1.647-.829 2.04 2.04 0 0 1 1.647.83c1.152 1.572 11.263 15.544 11.263 21.922 0 7.008-5.792 12.71-12.91 12.71"/>
    </g>
</svg>
