<svg xmlns="http://www.w3.org/2000/svg" width="29" height="29" viewBox="0 0 29 29">
    <g fill="#000" fill-rule="evenodd">
        <path d="M.59 13.476l.022-.44c.004-.085.058-.132.14-.128l3.017.162c.085.005.13.057.126.14l-.023.442c-.006.09-.055.135-.14.131L2.54 13.72l-.05.95 1.193.062c.085.005.13.057.126.146l-.022.441c-.005.085-.058.131-.14.126l-3.018-.16c-.085-.005-.13-.057-.126-.142l.023-.44c.004-.09.058-.136.141-.13l1.193.062.05-.949-1.194-.064c-.085-.005-.13-.056-.126-.146M4.45 9.598l.42.17c.08.031.105.095.074.173l-.616 1.512c-.031.079-.095.107-.174.075l-2.8-1.139c-.078-.03-.105-.095-.072-.173l.617-1.511c.03-.08.095-.107.173-.075l.42.171c.077.031.105.095.072.175l-.392.964.562.23.362-.886c.035-.084.097-.11.175-.08l.34.138c.076.031.103.095.07.178l-.36.888.562.229.395-.966c.03-.079.095-.105.172-.073M6.025 6.298l-.786-.31.364.764.422-.454zm1.706.047l-.346.366c-.05.054-.107.07-.177.04l-.46-.177-.816.878.213.45c.033.07.023.127-.029.182l-.343.373c-.069.07-.14.057-.184-.033L4.185 5.476c-.035-.067-.025-.125.027-.181l.233-.25c.052-.056.106-.07.178-.041L7.687 6.16c.095.038.11.112.044.184zM10.586 4.72l-1.396.697c-.076.038-.14.016-.178-.06L7.667 2.65c-.04-.075-.017-.14.06-.178l.403-.202c.078-.04.144-.018.182.058L9.395 4.51l.873-.434c.074-.038.14-.017.177.06l.203.405c.037.077.014.142-.062.18M13.024.849l.089.443c.016.083-.027.142-.11.159l-.554.11.472 2.39c.016.083-.023.14-.106.157l-.44.088c-.085.018-.143-.021-.157-.104l-.474-2.39-.554.11c-.083.019-.141-.02-.157-.102l-.089-.444c-.017-.084.023-.141.105-.16l1.814-.361c.082-.017.146.02.161.104M17.39.896l.435.065c.085.012.126.067.114.151l-.44 2.994c-.013.084-.07.125-.154.113l-.436-.065c-.087-.013-.128-.068-.115-.152l.175-1.184-.938-.139-.176 1.185c-.013.084-.066.125-.155.112l-.437-.065c-.082-.012-.124-.068-.111-.15l.44-2.994c.013-.084.068-.125.153-.113l.434.063c.089.014.13.07.118.153l-.175 1.185.938.137.174-1.183c.012-.085.068-.125.157-.113M22.756 3.285l-1.669.982-.65 1.15c-.042.073-.11.092-.183.05l-.39-.222c-.075-.04-.094-.107-.05-.18l.65-1.15-.018-1.938c-.004-.103.067-.145.16-.093l.498.283a.173.173 0 0 1 .095.16l-.014 1.036.88-.545a.172.172 0 0 1 .184-.002l.505.284c.093.053.093.134.002.185M24.332 9.832c-.143-.273-.18-.595-.128-.969.012-.107.066-.154.155-.155l.447.014c.09.01.136.061.124.152-.021.231.006.428.078.563.085.166.224.23.354.162.229-.118.147-.48.155-.848.014-.465.202-.787.546-.945.498-.228 1.029.014 1.275.55.102.213.137.452.13.66-.006.088-.057.131-.146.125l-.374-.037c-.091-.008-.131-.058-.131-.143a.702.702 0 0 0-.072-.333c-.091-.175-.227-.235-.345-.173-.191.098-.135.395-.131.695.007.291-.014.856-.556 1.135-.508.263-1.104.081-1.381-.453M25.618 14.332l-.083-.57c-.008-.07.01-.13.07-.175l1.11-.846-.121-.063-1.055.152c-.084.012-.138-.029-.153-.117l-.062-.44c-.012-.085.029-.14.112-.153l2.992-.433c.085-.013.14.03.153.113l.062.442c.012.087-.03.142-.114.155l-.8.116.939.495c.062.031.095.08.105.151l.075.525c.016.115-.05.16-.151.107l-1.276-.675-1.631 1.285c-.081.066-.158.036-.172-.069M25.649 16.06l2.992.428c.083.01.126.067.114.15l-.065.438c-.012.088-.068.129-.15.118l-2.992-.427c-.083-.011-.124-.066-.112-.155l.062-.436c.012-.084.068-.126.15-.115M27.22 21.506l-.188.404c-.037.077-.104.101-.18.064l-2.738-1.282c-.074-.036-.099-.1-.064-.176l.137-.292c.031-.064.072-.099.147-.109l2.214-.367-1.63-.764c-.078-.036-.1-.1-.063-.18l.19-.41c.037-.076.101-.1.18-.064l2.735 1.282c.077.035.102.1.064.177l-.13.28a.17.17 0 0 1-.143.11l-2.237.376 1.644.77c.076.035.1.1.062.181M21.716 25.59l-.277.169a.302.302 0 1 0 .312.516l.277-.17-.312-.515zm-2.25-.928l.447-.272c.064-.04.124-.045.188-.006l1.158.642.083-.051-.577-.95c-.043-.071-.027-.14.05-.184l.384-.235c.07-.044.14-.03.182.044l1.57 2.58c.043.073.026.14-.046.185l-.78.476a1.02 1.02 0 0 1-1.416-1.38l-1.238-.664c-.095-.047-.1-.128-.005-.185zM16.431 26.855l.436.725.176-.827-.612.102zm-1.327-1.073l.496-.08c.076-.012.13.01.167.076l.26.42 1.18-.199.107-.486c.014-.075.058-.114.132-.126l.501-.085c.095-.015.146.04.126.137l-.679 3.187c-.014.075-.057.113-.132.126l-.337.058c-.076.011-.128-.01-.167-.077l-1.733-2.779c-.052-.087-.019-.156.08-.172zM10.818 28.469l-.432-.1c-.083-.018-.12-.076-.101-.158l.678-2.95c.018-.082.078-.118.16-.1l.31.072c.072.017.115.05.14.119l.82 2.087.404-1.755c.018-.083.076-.12.165-.1l.436.1c.083.02.12.079.102.16l-.678 2.95c-.02.08-.08.118-.16.1l-.3-.07c-.07-.016-.111-.048-.136-.117l-.837-2.105-.406 1.769c-.018.082-.078.119-.165.098M5.95 24.165l.144-.199c.558-.715 1.546-.857 2.257-.345.763.55.892 1.572.356 2.315a1.674 1.674 0 0 1-2.336.376c-.366-.263-.563-.624-.637-1.084-.015-.086.02-.138.105-.159l.39-.102c.084-.022.144.016.164.102.067.272.164.496.397.662a.957.957 0 0 0 1.332-.217c.316-.439.229-1.012-.188-1.312a.899.899 0 0 0-1.063.012l.792.57c.072.053.085.121.03.194l-.208.291c-.05.068-.118.08-.19.027l-1.311-.943c-.07-.052-.083-.12-.033-.188M4.56 20.248l.38-.247c.068-.047.136-.03.183.04l.887 1.368c.046.071.031.138-.039.185L3.442 23.24c-.07.046-.138.032-.184-.04l-.887-1.368c-.045-.072-.03-.14.038-.185l.38-.247c.07-.047.14-.03.184.04l.567.875.51-.332-.52-.804c-.05-.075-.036-.142.035-.189l.305-.198c.071-.047.14-.03.187.043l.521.804.508-.33-.566-.876c-.046-.07-.03-.139.04-.185M2.996 18.307a.366.366 0 1 1 .227.694.36.36 0 0 1-.46-.227.37.37 0 0 1 .233-.467"/>
    </g>
</svg>
