<svg xmlns="http://www.w3.org/2000/svg" width="22" height="22" viewBox="0 0 22 22">
    <g fill="#000" fill-rule="evenodd">
        <path d="M11 0C8.013 0 7.638.013 6.465.066c-1.171.054-1.97.24-2.67.511a5.391 5.391 0 0 0-1.949 1.27A5.392 5.392 0 0 0 .577 3.794c-.272.7-.457 1.499-.51 2.67C.012 7.638 0 8.013 0 11s.013 3.362.066 4.535c.054 1.171.24 1.97.511 2.67a5.392 5.392 0 0 0 1.27 1.949 5.391 5.391 0 0 0 1.948 1.269c.7.271 1.499.457 2.67.51C7.638 21.988 8.013 22 11 22s3.362-.013 4.535-.066c1.171-.054 1.97-.24 2.67-.511a5.391 5.391 0 0 0 1.949-1.27 5.392 5.392 0 0 0 1.269-1.948c.272-.7.457-1.499.51-2.67.054-1.173.067-1.548.067-4.535s-.013-3.362-.066-4.535c-.054-1.171-.24-1.97-.511-2.67a5.392 5.392 0 0 0-1.27-1.949A5.391 5.391 0 0 0 18.206.577c-.7-.271-1.499-.457-2.67-.51C14.362.012 13.987 0 11 0m0 1.982c2.937 0 3.285.011 4.445.064 1.072.049 1.655.228 2.042.379.514.2.88.438 1.265.823.385.385.624.751.823 1.264.15.388.33.97.379 2.043.053 1.16.064 1.508.064 4.445 0 2.937-.011 3.285-.064 4.445-.049 1.072-.228 1.655-.379 2.043-.2.513-.438.88-.823 1.264a3.407 3.407 0 0 1-1.265.823c-.387.15-.97.33-2.042.379-1.16.053-1.508.064-4.445.064-2.937 0-3.285-.011-4.445-.064-1.072-.049-1.655-.228-2.042-.379-.514-.2-.88-.438-1.265-.823a3.41 3.41 0 0 1-.823-1.264c-.15-.388-.33-.97-.379-2.043-.053-1.16-.064-1.508-.064-4.445 0-2.937.011-3.285.064-4.445.049-1.072.228-1.655.379-2.043.2-.513.438-.88.823-1.264a3.408 3.408 0 0 1 1.265-.823c.387-.15.97-.33 2.042-.379 1.16-.053 1.508-.064 4.445-.064"/>
        <path d="M11 14.713a3.713 3.713 0 1 1 0-7.426 3.713 3.713 0 0 1 0 7.426m0-9.433a5.72 5.72 0 1 0 0 11.44 5.72 5.72 0 0 0 0-11.44M17.6 5.72a1.32 1.32 0 1 1-2.64 0 1.32 1.32 0 0 1 2.64 0"/>
    </g>
</svg>
