<svg xmlns="http://www.w3.org/2000/svg" width="495" height="77" viewBox="0 0 495 77">
    <g fill="#FEFEFE" fill-rule="evenodd">
        <path d="M0 .43v3.301h4.833v13.64h3.733V3.731h4.833v-3.3zM26.054.43h3.733v6.318h7.25V.43h3.734v16.94h-3.734v-7.32h-7.25v7.32h-3.733zM55.121.43h11.511v3.446h-7.778v3.158h7.347v3.447h-7.347v3.446h8.21v3.444H55.12zM105.676 5.358l-2.058 5.266h4.14l-2.082-5.266zM104.24.43h3.087l7.37 16.942h-4.21l-1.461-3.589h-6.58l-1.412 3.59h-4.116L104.24.428zM138.237 4.834c-.74-.886-1.817-1.389-3.206-1.389-2.823 0-4.904 2.298-4.904 5.456 0 3.16 2.081 5.456 4.785 5.456 1.508 0 2.728-.669 3.494-1.819l3.11 2.321c-1.412 2.01-3.804 2.945-6.126 2.945-5.288 0-9.14-3.471-9.14-8.903 0-5.43 3.852-8.901 9.14-8.901 1.891 0 4.283.647 5.72 2.489l-2.873 2.345zM157.594 3.731h-4.833V.43h13.399v3.302h-4.834v13.64h-3.732zM178.766 17.37h3.732V.43h-3.732zM194.986.43h4.26l4.187 11.104h.048L207.741.43h3.994l-6.985 16.94h-2.993zM224.414.43h11.511v3.446h-7.778v3.158h7.346v3.447h-7.346v3.446h8.21v3.444h-11.943zM268.1.43h3.733v13.497h6.917v3.444H268.1zM291.523 17.37h3.733V.43h-3.733zM307.744.43h4.26l4.187 11.104h.05L320.497.43h3.996l-6.987 16.94h-2.992zM336.98 17.37h3.732V.43h-3.732zM354.875.43h5.075l7.201 11.773h.048V.43h3.734v16.94h-4.882l-7.395-12.057h-.048V17.37h-3.733zM400.478 16.176c-2.2 1.148-4.617 1.628-7.105 1.628-5.287 0-9.14-3.471-9.14-8.903 0-5.43 3.853-8.901 9.14-8.901 2.68 0 5.048.599 6.749 2.178l-2.634 2.87c-1.005-1.052-2.226-1.602-4.115-1.602-3.183 0-5.264 2.297-5.264 5.455 0 3.16 2.08 5.457 5.264 5.457 1.627 0 2.824-.455 3.517-.84v-2.75h-3.038V7.322h6.627v8.854zM443.447 4.834c-.742-.886-1.818-1.389-3.206-1.389-2.824 0-4.906 2.298-4.906 5.456 0 3.16 2.082 5.456 4.785 5.456 1.51 0 2.728-.669 3.494-1.819l3.11 2.321c-1.41 2.01-3.802 2.945-6.124 2.945-5.288 0-9.14-3.471-9.14-8.903 0-5.43 3.852-8.901 9.14-8.901 1.89 0 4.283.647 5.72 2.489l-2.873 2.345zM467.755 14.357c3.184 0 5.264-2.297 5.264-5.456 0-3.158-2.08-5.456-5.264-5.456-3.183 0-5.264 2.298-5.264 5.456 0 3.16 2.08 5.456 5.264 5.456m0-14.357c5.288 0 9.142 3.47 9.142 8.901 0 5.432-3.854 8.902-9.142 8.902-5.287 0-9.141-3.47-9.141-8.902 0-5.43 3.854-8.9 9.14-8.9M492.015 13.112c1.22 0 2.2.982 2.2 2.202s-.98 2.201-2.2 2.201a2.197 2.197 0 0 1-2.202-2.2c0-1.22.982-2.203 2.202-2.203"/>
        <g>
            <path d="M99.037 55.545h2.105v7.609h3.898v1.942h-6.003zM116.911 63.396c1.793 0 2.965-1.295 2.965-3.075 0-1.781-1.172-3.075-2.965-3.075-1.795 0-2.97 1.293-2.97 3.075 0 1.78 1.175 3.076 2.97 3.076m0-8.095c2.98 0 5.152 1.956 5.152 5.02 0 3.061-2.172 5.017-5.152 5.017-2.982 0-5.155-1.955-5.155-5.017 0-3.065 2.173-5.02 5.155-5.02M129.56 55.545h2.862l4.059 6.637h.027v-6.637h2.105v9.55h-2.751l-4.17-6.798h-.028v6.799h-2.104zM148.727 63.154h1.096c1.957 0 3.425-.742 3.425-2.914 0-1.876-1.5-2.753-3.277-2.753h-1.244v5.667zm-2.103-7.609h3.156c3.078 0 5.653 1.308 5.653 4.802 0 3.09-2.522 4.748-5.37 4.748h-3.44v-9.55zM167.573 63.396c1.793 0 2.965-1.295 2.965-3.075 0-1.781-1.172-3.075-2.965-3.075-1.796 0-2.97 1.293-2.97 3.075 0 1.78 1.174 3.076 2.97 3.076m0-8.095c2.98 0 5.152 1.956 5.152 5.02 0 3.061-2.172 5.017-5.152 5.017-2.982 0-5.155-1.955-5.155-5.017 0-3.065 2.173-5.02 5.155-5.02M180.224 55.545h2.859l4.062 6.637h.027v-6.637h2.102v9.55h-2.75l-4.17-6.798h-.027v6.799h-2.103zM296.459 55.545h2.856l4.062 6.637h.027v-6.637h2.105v9.55h-2.751l-4.169-6.798h-.028v6.799h-2.102zM317.474 58.324l-1.162 2.967h2.336l-1.174-2.967zm-.81-2.779h1.74l4.157 9.55h-2.377l-.822-2.022h-3.71l-.796 2.022h-2.32l4.128-9.55zM330.192 57.406h-2.726v-1.86h7.554v1.86h-2.724v7.69h-2.104zM350.21 61.413c0 2.252-1.377 3.927-4.02 3.927-2.658 0-4.034-1.675-4.034-3.927v-5.868h2.106v5.787c0 1.174.809 2.064 1.928 2.064 1.107 0 1.917-.89 1.917-2.064v-5.787h2.104v5.868zM360.324 59.497h1.242c.77 0 1.77-.026 1.77-1.064 0-.958-.866-1.107-1.636-1.107h-1.376v2.171zm-2.102-3.952h3.697c1.954 0 3.6.675 3.6 2.9 0 1.336-.716 2.373-2.064 2.618l2.427 4.033h-2.52l-1.999-3.817h-1.039v3.817h-2.102v-9.551zM376.984 58.324l-1.162 2.967h2.336l-1.174-2.967zm-.81-2.779h1.738l4.16 9.55h-2.378l-.822-2.022h-3.709l-.797 2.022h-2.322l4.13-9.55zM389.177 55.545h2.105v7.609h3.898v1.942h-6.003zM228.123 62.496h29.359v-4.351h-29.359z"/>
        </g>
    </g>
</svg>
