<svg xmlns="http://www.w3.org/2000/svg" width="48" height="78" viewBox="0 0 48 78">
    <g fill="#18B3B2" fill-rule="evenodd">
        <path d="M0 9.389l1.688-1.387 5.633 1.93.016-.012-3.235-3.9L5.345 5 10 10.611l-1.625 1.335L2.6 9.972l-.016.013 3.313 3.995L4.655 15zM11.409 5.365l.099 2.581 1.618-.76-1.717-1.82zM10 3.568L11.207 3 17 8.733l-1.647.774-1.188-1.234-2.573 1.21.064 1.761-1.61.756L10 3.568zM17.359 1.92l-2.055.389L15 1.079 20.697 0 21 1.23l-2.054.389 1.253 5.08L18.61 7zM27.922 4.266c-.008.403-.078.771-.21 1.108a2.447 2.447 0 0 1-.577.87 2.577 2.577 0 0 1-.938.567A3.599 3.599 0 0 1 24.914 7a3.607 3.607 0 0 1-1.286-.233 2.573 2.573 0 0 1-.916-.6 2.422 2.422 0 0 1-.544-.89 3.14 3.14 0 0 1-.167-1.114L22.079 0l1.547.028-.077 4.104c-.004.211.027.406.093.587a1.314 1.314 0 0 0 .73.783c.173.076.362.116.567.119.205.004.395-.03.568-.1a1.343 1.343 0 0 0 .753-.757 1.6 1.6 0 0 0 .115-.582l.077-4.105L28 .104l-.078 4.162zM30.744 3.5l.94.262c.143.04.295.075.458.11.164.034.316.042.46.026a.756.756 0 0 0 .386-.156c.115-.087.2-.232.253-.434.05-.188.052-.348.007-.48a.79.79 0 0 0-.218-.335 1.3 1.3 0 0 0-.366-.231 3.428 3.428 0 0 0-.431-.153l-1.043-.29-.446 1.682zM29.963 0l2.799.777c.367.102.707.235 1.018.4.31.164.568.367.77.606.204.24.34.523.41.853.07.329.048.71-.067 1.142-.139.521-.39.928-.752 1.22-.362.291-.813.415-1.349.37L33.802 9l-1.91-.53-.727-3.373-.787-.218-.785 2.954L28 7.39 29.963 0z"/>
        <path d="M38.447 6.263l-1.762 1.62 1.454.917.308-2.537zM38.916 4L40 4.685 39.244 13l-1.479-.934.196-1.739L35.65 8.87l-1.205 1.102L33 9.06 38.916 4zM46.829 8L48 9.147l-3.847 4.563 2.168 2.126L45.34 17 42 13.728zM24 78c-1.105 0-2-.677-2-1.512V53.512c0-.835.895-1.512 2-1.512s2 .677 2 1.512v22.976c0 .835-.895 1.512-2 1.512"/>
        <path d="M37.18 39.82a11.548 11.548 0 0 0-7.953 3.404 11.617 11.617 0 0 0-3.406 7.955 11.554 11.554 0 0 0 7.953-3.404 11.618 11.618 0 0 0 3.405-7.954M25.542 54c-.4 0-.806-.017-1.204-.05a1.408 1.408 0 0 1-1.288-1.288 14.44 14.44 0 0 1 4.185-11.43A14.35 14.35 0 0 1 37.455 37c.4 0 .807.016 1.208.05.686.058 1.23.602 1.287 1.287a14.436 14.436 0 0 1-4.183 11.43A14.359 14.359 0 0 1 25.542 54"/>
        <path d="M8.821 39.82a11.618 11.618 0 0 0 3.403 7.955 11.56 11.56 0 0 0 7.955 3.404 11.617 11.617 0 0 0-3.405-7.954A11.552 11.552 0 0 0 8.82 39.82M20.46 54h-.001a14.364 14.364 0 0 1-10.226-4.233 14.434 14.434 0 0 1-4.181-11.43 1.41 1.41 0 0 1 1.286-1.287c.4-.034.807-.05 1.21-.05 3.861 0 7.49 1.503 10.22 4.232a14.443 14.443 0 0 1 4.183 11.43 1.408 1.408 0 0 1-1.288 1.288c-.398.033-.804.05-1.203.05"/>
        <path d="M14.56 21.032c-3.957 0-7.099 3.27-7.47 7.773C6.422 36.887 20.756 49.6 24.5 52.567 28.243 49.6 42.577 36.89 41.91 28.805c-.37-4.504-3.513-7.773-7.471-7.773-3.133 0-6.207 2.049-8.653 5.768-.283.43-.767.69-1.286.69a1.538 1.538 0 0 1-1.286-.69c-2.447-3.72-5.52-5.768-8.654-5.768M24.456 56a1.546 1.546 0 0 1-1.161-.525c-1.484-1.084-6.032-4.89-10.255-9.507-6.357-6.948-9.388-12.806-9.008-17.41C4.537 22.442 8.964 18 14.56 18c3.636 0 7.107 1.895 9.94 5.385C27.332 19.895 30.804 18 34.439 18c5.597 0 10.024 4.44 10.53 10.559.379 4.604-2.653 10.46-9.01 17.41-4.322 4.724-8.982 8.6-10.353 9.577a1.45 1.45 0 0 1-.339.247c-.117.063-.24.11-.366.142a1.563 1.563 0 0 1-.445.065"/>
    </g>
</svg>
