<svg xmlns="http://www.w3.org/2000/svg" width="89" height="51" viewBox="0 0 89 51">
    <g fill="#18B3B2" fill-rule="evenodd">
        <path d="M1.876 49c-.384 0-.77-.118-1.105-.363A1.897 1.897 0 0 1 .36 46l25.502-35.222a1.872 1.872 0 0 1 3.034 0L39.64 25.613c.61.844.426 2.025-.411 2.64a1.87 1.87 0 0 1-2.623-.415l-9.227-12.741L3.394 48.223A1.87 1.87 0 0 1 1.876 49"/>
        <path d="M23.885 51c-.36 0-.723-.102-1.044-.316a1.873 1.873 0 0 1-.525-2.603L53.93.838a1.89 1.89 0 0 1 3.14 0l31.615 47.242a1.873 1.873 0 0 1-.525 2.604 1.894 1.894 0 0 1-2.616-.52L55.5 5.265 25.457 50.162a1.888 1.888 0 0 1-1.572.838"/>
        <path d="M58.039 25c-2.776 0-4.26-1.491-5.342-2.58-.92-.927-1.476-1.486-2.742-1.486-1.265 0-1.821.559-2.741 1.485C46.132 23.51 44.65 25 41.877 25 40.84 25 40 24.12 40 23.033c0-1.087.84-1.967 1.877-1.967 1.262 0 1.818-.559 2.737-1.484C45.697 18.492 47.178 17 49.955 17c2.776 0 4.259 1.491 5.342 2.58.92.927 1.476 1.486 2.742 1.486 1.265 0 1.821-.559 2.74-1.485C61.863 18.49 63.346 17 66.123 17 67.16 17 68 17.88 68 18.967c0 1.086-.84 1.967-1.877 1.967-1.267 0-1.823.559-2.745 1.486-1.081 1.089-2.565 2.58-5.34 2.58M31.039 33c-2.776 0-4.26-1.491-5.342-2.58-.92-.927-1.476-1.486-2.743-1.486-1.264 0-1.82.559-2.74 1.485C19.132 31.51 17.65 33 14.877 33 13.84 33 13 32.12 13 31.033c0-1.087.84-1.967 1.877-1.967 1.262 0 1.818-.559 2.737-1.484 1.083-1.09 2.564-2.582 5.34-2.582 2.777 0 4.26 1.491 5.343 2.58.92.927 1.476 1.486 2.742 1.486 1.265 0 1.821-.559 2.74-1.485C34.863 26.49 36.346 25 39.123 25 40.16 25 41 25.88 41 26.967c0 1.086-.84 1.967-1.877 1.967-1.267 0-1.823.56-2.745 1.486-1.081 1.089-2.565 2.58-5.34 2.58"/>
    </g>
</svg>
