<svg xmlns="http://www.w3.org/2000/svg" width="42" height="72" viewBox="0 0 42 72">
    <g fill="#18B3B2" fill-rule="evenodd">
        <path d="M35.21 28.874c-2.237 1.603-6.101 6.326-6.4 19.875 3.63-.868 6.4-5.212 6.4-10.424v-9.451zM27.473 52h-.079c-.77 0-1.395-.692-1.395-1.547 0-23.686 10.001-25.38 10.427-25.44.4-.058.798.079 1.1.372.3.294.473.717.473 1.162v11.778C38 45.865 33.278 52 27.474 52z"/>
        <path d="M19.79 28.846v9.48c0 5.211 2.77 9.555 6.4 10.423-.218-9.839-2.317-14.932-4.093-17.495-.824-1.188-1.637-1.938-2.306-2.408M27.605 52h-.08C21.722 52 17 45.865 17 38.325V26.546c0-.444.173-.867.474-1.16.3-.294.7-.43 1.099-.373.426.06 10.427 1.754 10.427 25.44 0 .855-.625 1.547-1.395 1.547"/>
        <path d="M35.546 28c-.803 0-1.454-.674-1.454-1.506 0-1.884-.791-5.982-2.115-9.575-1.503-4.081-3.08-5.907-3.977-5.907-.897 0-2.474 1.826-3.977 5.907-1.324 3.593-2.115 7.69-2.115 9.575 0 .832-.65 1.506-1.454 1.506-.803 0-1.454-.674-1.454-1.506C19 22.534 22.276 8 28 8s9 14.535 9 18.494c0 .832-.65 1.506-1.454 1.506M28 58c-1.105 0-2-.637-2-1.423v-9.154c0-.786.895-1.423 2-1.423s2 .637 2 1.423v9.154c0 .786-.895 1.423-2 1.423"/>
        <path d="M21.254 28.9c-.114 0-.23-.018-.346-.057a14.797 14.797 0 0 1-1.191-.449c-.592-.26-.873-.989-.629-1.624.244-.634.921-.938 1.512-.676.018.009.383.167 1 .375.61.205.95.903.759 1.56-.155.53-.612.872-1.105.872m12.52.093c-.468 0-.91-.31-1.084-.81-.224-.644.08-1.36.68-1.601.33-.132.661-.282.98-.442.58-.29 1.27-.024 1.54.598.272.622.022 1.363-.557 1.654-.375.19-.764.365-1.153.522-.134.053-.27.079-.405.079m-7.989.918a1.07 1.07 0 0 1-.125-.008c-.416-.047-.82-.106-1.207-.17-.63-.108-1.062-.745-.962-1.425.1-.678.693-1.139 1.326-1.034.349.06.713.112 1.09.156.636.073 1.097.685 1.028 1.37-.063.637-.565 1.11-1.15 1.11m3.468.089c-.605 0-1.115-.505-1.155-1.163-.042-.686.442-1.278 1.08-1.323.355-.025.715-.061 1.077-.113.635-.085 1.216.39 1.3 1.071.083.682-.364 1.307-.999 1.397-.398.055-.81.099-1.227.129a1.067 1.067 0 0 1-.076.002M26.549 33.673c-.103 0-.208-.015-.312-.047a9.353 9.353 0 0 1-1.43-.548c-.666-.337-.983-1.272-.708-2.088.274-.815 1.033-1.204 1.697-.87.004.001.414.204 1.062.4.698.21 1.126 1.076.954 1.935-.146.73-.678 1.218-1.263 1.218m3.874.327c-.645 0-1.205-.589-1.29-1.396-.092-.877.413-1.678 1.126-1.79.37-.059.727-.152 1.062-.276.689-.252 1.415.224 1.623 1.07.208.846-.182 1.738-.87 1.994-.472.175-.971.304-1.483.385a1.086 1.086 0 0 1-.168.013M23.156 25.091a.933.933 0 0 1-.32-.057c-.707-.256-1.134-.466-1.151-.475-.565-.28-.834-1.058-.6-1.736.233-.679.877-1.003 1.444-.721.02.01.368.178.945.387.586.21.917.953.741 1.655-.144.575-.584.947-1.06.947m7.66.66c-.524 0-.99-.447-1.088-1.086-.111-.723.285-1.415.886-1.55.333-.074.664-.167.98-.274.59-.198 1.199.214 1.365.921.166.707-.177 1.44-.766 1.64-.38.128-.776.238-1.175.327a.971.971 0 0 1-.203.022M27.51 26c-.019 0-.037 0-.056-.002a15.24 15.24 0 0 1-1.172-.114c-.607-.083-1.044-.74-.975-1.47.068-.73.621-1.255 1.224-1.172.332.045.678.08 1.033.101.61.037 1.081.66 1.05 1.394-.029.71-.518 1.263-1.104 1.263M24.542 17.353c-.115 0-.231-.017-.348-.053a12.21 12.21 0 0 1-1.388-.509c-.664-.305-.982-1.153-.707-1.893.273-.74 1.032-1.092 1.699-.79.017.01.426.192 1.09.397.694.213 1.1 1.012.909 1.784-.16.642-.684 1.064-1.255 1.064m4.08.647l-.253-.003c-.719-.017-1.29-.68-1.275-1.48.016-.802.616-1.422 1.33-1.42.08.003.16.002.24.003.31 0 .619-.013.931-.04.717-.059 1.344.532 1.4 1.331.058.798-.478 1.497-1.195 1.56-.388.034-.777.05-1.178.049M23.157 21.094a.933.933 0 0 1-.32-.057c-.707-.256-1.135-.467-1.152-.476-.565-.28-.834-1.059-.6-1.737.232-.68.876-1.004 1.443-.723.004.002.355.174.947.388.585.211.917.954.74 1.657-.143.575-.583.948-1.058.948m7.658.653c-.523 0-.987-.446-1.087-1.085-.112-.723.283-1.418.884-1.553a9.8 9.8 0 0 0 .98-.275c.59-.197 1.2.212 1.366.918.166.707-.175 1.442-.764 1.642-.38.129-.775.24-1.174.33a.901.901 0 0 1-.205.023M27.51 22l-.053-.001c-.385-.022-.78-.06-1.175-.114-.608-.083-1.044-.741-.976-1.472.069-.73.616-1.258 1.225-1.172.33.045.675.08 1.03.1.61.034 1.082.657 1.054 1.391-.028.713-.518 1.268-1.105 1.268M26.56 12.93c-.097 0-.197-.007-.296-.022a14.342 14.342 0 0 1-1.456-.285c-.666-.178-.984-.671-.709-1.102.275-.429 1.036-.634 1.704-.458.014.004.422.109 1.05.203.703.105 1.141.557.979 1.011-.14.39-.678.653-1.272.653m3.887.07c-.605 0-1.148-.272-1.277-.67-.149-.455.303-.902 1.01-.998.35-.048.686-.116.998-.202.664-.184 1.433.016 1.716.443.285.428-.023.924-.686 1.107-.47.13-.972.231-1.49.302-.09.012-.181.018-.27.018M28 6c-1.105 0-2-.61-2-1.361V1.36C26 .61 26.895 0 28 0s2 .61 2 1.361V4.64C30 5.39 29.105 6 28 6M32.54 9c-.254 0-.512-.058-.75-.18-.743-.382-1.009-1.248-.594-1.932l1.916-3.16c.416-.685 1.355-.93 2.098-.548.743.383 1.01 1.248.594 1.932l-1.916 3.16c-.282.466-.807.728-1.347.728M24.459 9c-.54 0-1.065-.262-1.348-.728l-1.915-3.16c-.415-.684-.149-1.55.594-1.931.743-.383 1.682-.138 2.098.547l1.916 3.16c.415.684.149 1.55-.594 1.932-.238.122-.496.18-.751.18M6.937 33.293a3.51 3.51 0 0 0-1.216-.19 2.835 2.835 0 0 0-1.093.247 2.668 2.668 0 0 0-.893.656 2.981 2.981 0 0 0-.6 1.043c-.141.41-.2.804-.17 1.184.026.379.126.73.3 1.053.173.323.411.605.714.847.304.243.665.434 1.083.572.412.137.813.2 1.21.19a2.846 2.846 0 0 0 1.1-.245c.338-.154.635-.372.893-.657.257-.284.456-.632.599-1.042.142-.41.2-.806.172-1.184a2.62 2.62 0 0 0-.3-1.054 2.719 2.719 0 0 0-.722-.85 3.486 3.486 0 0 0-1.077-.57m.69-1.992c.712.236 1.316.567 1.813.993.497.425.876.915 1.137 1.468a4.46 4.46 0 0 1 .42 1.799c.02.646-.088 1.31-.324 1.99a5.64 5.64 0 0 1-.978 1.774c-.417.502-.9.894-1.452 1.178a4.57 4.57 0 0 1-1.814.488c-.66.042-1.344-.057-2.056-.293s-1.317-.567-1.814-.993a4.383 4.383 0 0 1-1.137-1.467 4.46 4.46 0 0 1-.42-1.8c-.02-.646.09-1.31.325-1.99a5.64 5.64 0 0 1 .978-1.773 4.61 4.61 0 0 1 1.452-1.178 4.545 4.545 0 0 1 1.814-.488c.659-.041 1.345.055 2.056.292M5.828 44.629l.143 1.274c.021.194.05.4.088.615.038.215.1.406.187.574.087.167.21.3.366.398.156.099.364.133.625.102.242-.03.43-.102.561-.221.132-.118.227-.262.287-.427a1.79 1.79 0 0 0 .094-.56 4.595 4.595 0 0 0-.027-.6l-.158-1.413-2.166.258zM9.528 42l.425 3.795c.056.499.062.977.018 1.437-.044.459-.156.87-.339 1.233a2.408 2.408 0 0 1-.798.91c-.35.242-.804.396-1.359.463-.673.079-1.265-.033-1.776-.336-.512-.306-.87-.795-1.073-1.475L.882 51l-.29-2.592 3.578-2.501-.119-1.067-3.808.452L0 43.13 9.528 42zM7.531 61a7.234 7.234 0 0 1-1.53-1.214 9.213 9.213 0 0 1-1.193-1.544 5.405 5.405 0 0 1-.726-1.814 4.271 4.271 0 0 1 .024-1.783c.132-.573.39-1.11.775-1.611.383-.5.89-.933 1.517-1.299.627-.365 1.259-.593 1.895-.684a4.48 4.48 0 0 1 1.829.098 4.573 4.573 0 0 1 1.627.822c.502.39.936.884 1.303 1.48.375.61.645 1.215.81 1.815.165.602.182 1.203.051 1.806l-2.06-.412c.103-.372.129-.737.077-1.097-.05-.36-.208-.754-.474-1.186a2.959 2.959 0 0 0-.788-.864 2.681 2.681 0 0 0-.987-.442 2.795 2.795 0 0 0-1.098-.012 3.4 3.4 0 0 0-1.111.42c-.37.215-.674.466-.911.756a2.584 2.584 0 0 0-.503.943c-.097.338-.118.69-.066 1.053.053.364.192.724.412 1.083.225.366.463.657.711.873.25.216.466.378.652.484l1.273-.741-.842-1.367 1.596-.926 1.836 2.98L7.531 61zM15.702 60.438l-2.585 1.552 1.835 1.213.75-2.765zm.93-2.438l1.368.905L15.886 68l-1.868-1.236.492-1.896-2.917-1.93-1.767 1.055L8 62.787 16.632 58zM20.807 62l2.589.523 2.419 6.541.024.006 1.256-5.8 1.905.385L27.192 72l-2.49-.502-2.486-6.703-.025-.006-1.286 5.942L19 70.347z"/>
        <path d="M28 62.252L30.509 62 32 70.747 29.492 71zM38.275 63.22a1.788 1.788 0 0 0-.864-.208 2.227 2.227 0 0 0-.956.248 2.432 2.432 0 0 0-.835.66 2.645 2.645 0 0 0-.49.935c-.103.349-.14.72-.111 1.118.028.397.127.793.296 1.189.174.405.39.747.65 1.024.26.278.545.49.856.637.308.146.63.221.965.223.334.004.66-.073.978-.229.363-.178.649-.416.86-.715.21-.297.343-.637.4-1.017L42 67.54a3.72 3.72 0 0 1-.81 1.76 4.445 4.445 0 0 1-1.453 1.153 5.156 5.156 0 0 1-1.868.532 4.069 4.069 0 0 1-1.757-.232 4.166 4.166 0 0 1-1.51-.982c-.455-.453-.829-1.023-1.123-1.71a5.633 5.633 0 0 1-.476-2.025 4.794 4.794 0 0 1 .292-1.865 4.694 4.694 0 0 1 .985-1.575c.438-.47.97-.858 1.598-1.165a4.4 4.4 0 0 1 .737-.28c.264-.076.537-.124.816-.143.28-.02.563-.002.852.052.287.055.569.157.843.305l-.851 1.854z"/>
    </g>
</svg>
