<svg xmlns="http://www.w3.org/2000/svg" width="75" height="46" viewBox="0 0 75 46">
    <g fill="#F8CACC" fill-rule="evenodd">
        <path d="M57.162 9c-3.353 0-5.119-1.872-6.408-3.239-1.223-1.297-1.931-1.974-3.424-1.974-1.494 0-2.203.677-3.426 1.975C42.614 7.128 40.85 9 37.497 9c-3.355 0-5.12-1.872-6.409-3.239-1.223-1.297-1.93-1.974-3.421-1.974-1.494 0-2.203.677-3.426 1.975C22.951 7.128 21.186 9 17.833 9c-3.354 0-5.12-1.872-6.41-3.239C10.202 4.464 9.494 3.787 8 3.787c-1.105 0-2-.847-2-1.893S6.895 0 8 0c3.353 0 5.12 1.872 6.408 3.239 1.224 1.297 1.931 1.974 3.425 1.974 1.492 0 2.2-.677 3.423-1.974C22.546 1.872 24.311 0 27.666 0c3.353 0 5.119 1.872 6.407 3.239 1.223 1.297 1.93 1.974 3.424 1.974 1.491 0 2.2-.677 3.422-1.973C42.21 1.872 43.975 0 47.33 0c3.354 0 5.119 1.872 6.408 3.239 1.224 1.297 1.932 1.974 3.424 1.974 1.493 0 2.201-.677 3.426-1.974C61.878 1.872 63.644 0 67 0c1.105 0 2 .848 2 1.894 0 1.046-.895 1.893-2 1.893-1.495 0-2.204.677-3.428 1.975C62.282 7.128 60.516 9 57.162 9M57.317 20c-3.328 0-5.08-1.872-6.359-3.239-1.214-1.297-1.917-1.974-3.398-1.974-1.482 0-2.186.677-3.4 1.975C42.881 18.128 41.13 20 37.802 20s-5.08-1.872-6.36-3.239c-1.213-1.297-1.915-1.974-3.395-1.974-1.482 0-2.185.677-3.4 1.975C23.37 18.128 21.618 20 18.29 20s-5.08-1.872-6.359-3.237c-.42-.45-.816-.873-1.228-1.205a1.835 1.835 0 0 1-.232-2.67c.708-.797 1.96-.897 2.798-.22.624.503 1.132 1.046 1.624 1.572 1.213 1.296 1.915 1.973 3.397 1.973 1.481 0 2.184-.677 3.397-1.973 1.28-1.368 3.032-3.24 6.361-3.24 3.327 0 5.079 1.872 6.357 3.239 1.215 1.297 1.917 1.974 3.398 1.974 1.48 0 2.183-.677 3.396-1.973 1.28-1.368 3.033-3.24 6.362-3.24 3.328 0 5.08 1.872 6.36 3.239 1.213 1.297 1.916 1.974 3.397 1.974 1.482 0 2.184-.677 3.4-1.974.596-.638 1.273-1.36 2.134-1.955.888-.613 2.129-.424 2.772.423.643.848.444 2.032-.445 2.645-.513.354-.993.867-1.5 1.41C62.397 18.128 60.644 20 57.316 20"/>
        <path d="M37.5 46C16.822 46 0 29.39 0 8.973 0 7.883.894 7 1.998 7s1.998.883 1.998 1.973c0 18.24 15.03 33.081 33.504 33.081 18.474 0 33.504-14.84 33.504-33.081 0-1.09.894-1.973 1.998-1.973S75 7.883 75 8.973C75 29.389 58.178 46 37.5 46"/>
    </g>
</svg>
