<svg xmlns="http://www.w3.org/2000/svg" xmlns:xlink="http://www.w3.org/1999/xlink" width="25" height="25" viewBox="0 0 25 25">
    <defs>
        <path id="a" d="M0 12.5V0h25v25H0z"/>
    </defs>
    <g fill="none" fill-rule="evenodd">
        <mask id="b" fill="#fff">
            <use xlink:href="#a"/>
        </mask>
        <path fill="#92A8D1" d="M12.889.84h-.012C12.75.836 12.626.834 12.5.834a.432.432 0 0 1-.433-.417c0-.23.17-.417.4-.417v.417L12.485 0c.148-.003.285.002.419.006a.418.418 0 0 1-.014.834m-2.52.18a.414.414 0 0 1-.408-.345.415.415 0 0 1 .337-.482c.143-.025.285-.049.43-.07a.418.418 0 0 1 .118.827c-.135.018-.268.04-.403.063a.294.294 0 0 1-.073.008m4.61.067a.361.361 0 0 1-.083-.01c-.135-.026-.269-.053-.403-.075a.418.418 0 0 1 .142-.822c.143.026.285.052.428.081a.417.417 0 0 1-.084.826m-6.643.48a.417.417 0 0 1-.142-.808c.136-.048.273-.097.413-.142a.416.416 0 1 1 .258.791c-.128.043-.256.088-.384.135a.442.442 0 0 1-.144.024m8.658.13a.42.42 0 0 1-.154-.03c-.126-.05-.255-.1-.383-.147a.418.418 0 0 1 .285-.783c.136.049.273.102.407.157a.416.416 0 0 1-.155.803m-10.561.766a.416.416 0 0 1-.21-.778c.127-.073.253-.144.381-.211A.416.416 0 1 1 7 2.21c-.118.063-.239.13-.354.197a.42.42 0 0 1-.21.058m12.439.187a.404.404 0 0 1-.218-.063 10.959 10.959 0 0 0-.351-.21.416.416 0 1 1 .416-.722c.127.073.25.146.373.224a.414.414 0 0 1 .134.573.415.415 0 0 1-.354.198M4.716 3.675a.418.418 0 0 1-.27-.734c.111-.094.223-.186.337-.275a.417.417 0 0 1 .515.655c-.106.083-.212.169-.316.256a.403.403 0 0 1-.266.098m15.843.24a.417.417 0 0 1-.277-.106 12.387 12.387 0 0 0-.31-.268.414.414 0 0 1-.05-.586.418.418 0 0 1 .586-.053c.112.093.222.19.33.287a.418.418 0 0 1-.28.726M3.229 5.166a.417.417 0 0 1-.268-.095.419.419 0 0 1-.05-.588c.093-.112.186-.222.284-.33a.42.42 0 0 1 .59-.03c.171.152.185.417.03.587-.089.102-.179.204-.266.308a.42.42 0 0 1-.32.148m18.773.283a.422.422 0 0 1-.33-.159 9.382 9.382 0 0 0-.256-.315.416.416 0 0 1 .05-.586.414.414 0 0 1 .587.049c.094.112.185.223.277.337.14.182.11.444-.072.586a.42.42 0 0 1-.256.088M2.022 6.894a.417.417 0 0 1-.36-.625c.073-.126.147-.25.224-.373a.417.417 0 0 1 .708.44c-.073.114-.142.232-.212.35a.414.414 0 0 1-.36.208m21.13.315a.414.414 0 0 1-.366-.218c-.065-.12-.13-.238-.199-.356a.416.416 0 1 1 .72-.419c.074.126.142.252.212.38a.414.414 0 0 1-.366.613M1.135 8.804a.418.418 0 0 1-.393-.558c.05-.138.102-.274.157-.409a.417.417 0 1 1 .773.312c-.05.126-.1.252-.146.38a.418.418 0 0 1-.39.275m22.847.34a.417.417 0 0 1-.397-.287c-.043-.13-.088-.259-.134-.385a.418.418 0 0 1 .783-.287c.049.137.098.273.143.411a.417.417 0 0 1-.395.548M.594 10.84a.417.417 0 0 1-.41-.489c.025-.141.052-.284.08-.426a.417.417 0 0 1 .816.169c-.026.134-.052.268-.075.403a.417.417 0 0 1-.41.343m23.866.352a.417.417 0 0 1-.413-.358c-.018-.134-.04-.269-.063-.4a.417.417 0 1 1 .82-.147c.026.142.049.287.069.429a.418.418 0 0 1-.354.472c-.02.004-.04.004-.06.004M.418 12.927A.409.409 0 0 1 0 12.521v-.02c0-.139.002-.277.006-.416.008-.23.218-.423.431-.402.23.007.41.201.403.43-.006.129-.006.257-.006.387 0 .23-.187.427-.417.427m24.16.412h-.017a.416.416 0 0 1-.4-.432c.004-.134.006-.27.006-.407v-.045a.416.416 0 0 1 .834 0v.033c0 .159-.002.303-.008.448a.417.417 0 0 1-.415.403M.6 15.035a.417.417 0 0 1-.409-.346 14.17 14.17 0 0 1-.07-.429.418.418 0 0 1 .827-.118c.018.136.04.27.063.403a.416.416 0 0 1-.411.49m23.722.393a.42.42 0 0 1-.409-.503c.03-.132.056-.266.08-.4a.418.418 0 0 1 .482-.338c.226.039.379.254.338.482-.024.143-.053.285-.082.425a.419.419 0 0 1-.409.334m-23.175 1.64a.417.417 0 0 1-.39-.275 13.161 13.161 0 0 1-.142-.411.416.416 0 1 1 .79-.258c.043.128.088.256.135.384a.42.42 0 0 1-.393.56m22.56.376a.418.418 0 0 1-.387-.573c.05-.127.1-.253.146-.381a.418.418 0 0 1 .535-.25c.216.079.328.319.248.535-.048.136-.102.273-.156.409a.415.415 0 0 1-.387.26M2.041 18.972a.415.415 0 0 1-.36-.207 8.75 8.75 0 0 1-.212-.381.415.415 0 1 1 .734-.39c.065.118.13.235.198.354a.415.415 0 0 1-.36.624m20.707.348a.415.415 0 0 1-.352-.64c.073-.113.142-.229.21-.347a.416.416 0 1 1 .722.417 11.15 11.15 0 0 1-.226.375.418.418 0 0 1-.354.195M3.25 20.693a.413.413 0 0 1-.32-.149 7.977 7.977 0 0 1-.274-.337.416.416 0 1 1 .657-.512c.083.105.17.21.256.314a.417.417 0 0 1-.319.684m18.23.307a.415.415 0 0 1-.31-.695c.091-.1.181-.202.267-.305a.417.417 0 1 1 .639.534c-.094.112-.19.222-.287.33a.413.413 0 0 1-.31.136M4.74 22.18a.412.412 0 0 1-.266-.095 11.61 11.61 0 0 1-.33-.287.416.416 0 1 1 .558-.619c.102.09.203.18.307.267a.416.416 0 0 1-.268.734m15.201.257a.415.415 0 0 1-.256-.745c.106-.084.211-.169.315-.257a.42.42 0 0 1 .588.052.42.42 0 0 1-.05.588c-.112.093-.224.184-.34.274a.413.413 0 0 1-.257.088m-13.474.952a.423.423 0 0 1-.208-.055 9.027 9.027 0 0 1-.374-.226.418.418 0 0 1-.134-.574.418.418 0 0 1 .575-.132c.114.071.232.142.35.21a.417.417 0 0 1-.21.777m11.711.197a.417.417 0 0 1-.195-.785c.12-.063.238-.13.354-.197a.419.419 0 0 1 .57.15.415.415 0 0 1-.15.57 11.31 11.31 0 0 1-.384.214.417.417 0 0 1-.195.048m-9.8.694a.394.394 0 0 1-.143-.026 9.606 9.606 0 0 1-.408-.157.417.417 0 0 1 .313-.774c.126.052.252.1.38.147a.415.415 0 0 1 .249.533.416.416 0 0 1-.39.277m7.863.13a.417.417 0 0 1-.128-.814c.13-.04.258-.085.384-.132a.417.417 0 1 1 .285.783 14.17 14.17 0 0 1-.411.143.413.413 0 0 1-.13.02m-5.83.41a.288.288 0 0 1-.07-.007 9.986 9.986 0 0 1-.428-.081.418.418 0 0 1-.323-.495.42.42 0 0 1 .494-.321c.132.028.267.055.399.077a.416.416 0 0 1-.072.828m3.779.061a.417.417 0 0 1-.057-.828c.134-.018.268-.04.4-.063a.413.413 0 0 1 .483.338.414.414 0 0 1-.338.482c-.143.027-.287.049-.43.07l-.058.001M12.51 25h-.02c-.14 0-.278-.002-.416-.008a.416.416 0 1 1 .028-.832c.13.004.263.006.397.006l.047.004a.4.4 0 0 1 .398.415c0 .23-.205.415-.435.415" mask="url(#b)"/>
        <path fill="#18B3B2" d="M12.48 6.389c-3.317 0-4.989 2.302-4.989 4.222 0 1.162.453 2.195 1.43 2.581.16.063.304.003.35-.168l.142-.543c.046-.17.029-.23-.101-.377-.281-.32-.46-.736-.46-1.325 0-1.708 1.32-3.237 3.436-3.237 1.876 0 2.906 1.109 2.906 2.59 0 1.948-.891 3.592-2.215 3.592-.728 0-1.275-.584-1.1-1.302.21-.855.616-1.779.616-2.397 0-.552-.307-1.015-.942-1.015-.747 0-1.346.748-1.346 1.75 0 .638.223 1.068.223 1.068l-.899 3.684c-.267 1.092-.04 2.432-.02 2.567.012.08.117.1.166.04.068-.088.958-1.15 1.26-2.213.086-.3.491-1.858.491-1.858.243.448.952.844 1.707.844 2.242 0 3.766-1.981 3.766-4.632-.001-2.003-1.755-3.871-4.42-3.871" mask="url(#b)"/>
    </g>
</svg>
