<svg xmlns="http://www.w3.org/2000/svg" width="20" height="20" viewBox="0 0 20 20">
    <path fill="#1D1D1B" fill-rule="evenodd" d="M15.44 17.502a9.697 9.697 0 0 1-.389.268l-.18.117a9.824 9.824 0 0 1-.526.302l-.117.06a9.244 9.244 0 0 1-2.008.753h-.002a9.834 9.834 0 0 1-.733.151c-.226.036-.455.062-.682.083l-.123.01a8.917 8.917 0 0 1-1.488-.01c-.23-.021-.46-.05-.687-.085l-.03-.005a9.436 9.436 0 0 1-2.135-.629c-.001 0-.003 0-.005-.002-.21-.09-.415-.19-.62-.296l-.08-.04a9.5 9.5 0 0 1-1.19-.76l-.049-.038.034-.02 2.876-1.567c.494-.27.801-.789.801-1.352v-1.31l-.083-.101a6.062 6.062 0 0 1-1.092-2.26l-.032-.144-.125-.08a.602.602 0 0 1-.28-.506V8.75c0-.168.073-.326.202-.445l.121-.108V6.174l-.003-.048c0-.01-.109-.885.507-1.586.526-.6 1.428-.904 2.678-.904 1.246 0 2.145.302 2.67.897.616.694.515 1.586.515 1.593L13.182 8.2l.12.108c.13.117.203.275.203.444v1.289a.61.61 0 0 1-.43.574l-.18.055-.06.18a6.736 6.736 0 0 1-.907 1.83 4.768 4.768 0 0 1-.268.345l-.089.102v1.346c0 .586.325 1.113.849 1.376l3.08 1.54c.019.008.038.019.058.03l-.118.083M.728 10C.728 4.886 4.886.728 10 .728S19.272 4.886 19.272 10a9.248 9.248 0 0 1-3.123 6.932 2.632 2.632 0 0 0-.325-.196l-3.079-1.539a.808.808 0 0 1-.447-.724v-1.076a7.378 7.378 0 0 0 1.175-2.16 1.32 1.32 0 0 0 .758-1.196V8.75c0-.314-.115-.619-.321-.86V6.192c.018-.188.085-1.253-.685-2.132-.67-.764-1.755-1.153-3.225-1.153-1.47 0-2.555.39-3.225 1.153-.77.879-.703 1.944-.685 2.132V7.89c-.206.24-.321.547-.321.862v1.289c0 .401.18.774.486 1.026a6.777 6.777 0 0 0 1.126 2.323v1.052c0 .297-.163.57-.422.713l-2.877 1.567c-.09.05-.183.108-.273.174A9.254 9.254 0 0 1 .729 10M20 10c0-5.513-4.487-10-10-10S0 4.487 0 10a9.973 9.973 0 0 0 3.246 7.367l-.01.009.324.273c.021.018.045.032.066.05a10.848 10.848 0 0 0 1.308.916c.045.027.09.051.133.078.223.126.452.247.684.355.018.01.034.016.052.025.76.352 1.571.611 2.418.766l.067.01c.263.046.53.082.8.106l.097.01c.268.02.54.035.815.035a10.1 10.1 0 0 0 .91-.043c.267-.024.53-.06.79-.104.024-.004.047-.01.07-.013a9.853 9.853 0 0 0 3.125-1.125 9.221 9.221 0 0 0 .735-.456c.068-.045.134-.095.2-.143.16-.114.317-.232.468-.357.034-.026.071-.051.105-.078l.332-.279-.01-.008A9.968 9.968 0 0 0 20 10"/>
</svg>
