<svg xmlns="http://www.w3.org/2000/svg" width="44" height="44" viewBox="0 0 44 44">
    <path fill="#1D1D1B" fill-rule="evenodd" d="M33.969 38.504c-.281.203-.567.402-.856.59l-.398.258c-.379.234-.762.453-1.156.664-.086.043-.172.086-.258.132a20.336 20.336 0 0 1-2.895 1.215c-.5.168-1.008.313-1.523.442h-.004a21.634 21.634 0 0 1-1.613.332c-.496.078-1 .136-1.5.183-.09.008-.18.012-.27.02-.496.035-.996.058-1.496.058-.508 0-1.012-.023-1.516-.062a21.66 21.66 0 0 1-1.773-.203l-.066-.012a20.759 20.759 0 0 1-3.114-.777l-.093-.035c-.504-.168-1-.36-1.489-.571-.004 0-.008 0-.011-.004a20.736 20.736 0 0 1-1.364-.652c-.058-.031-.117-.059-.176-.09-.41-.219-.808-.453-1.203-.699a8.993 8.993 0 0 1-.347-.227 17.685 17.685 0 0 1-1.071-.746l-.105-.082.074-.043 6.328-3.449a3.389 3.389 0 0 0 1.762-2.973v-2.882l-.184-.223c-.019-.02-1.746-2.121-2.402-4.973l-.07-.316-.274-.176a1.325 1.325 0 0 1-.617-1.113v-2.836c0-.371.16-.719.445-.981l.266-.238v-4.453l-.008-.105c0-.02-.238-1.946 1.117-3.489C17.266 8.668 19.25 8 22 8c2.742 0 4.719.664 5.875 1.973 1.355 1.527 1.133 3.488 1.133 3.504L29 18.039l.266.238c.285.258.445.606.445.977v2.836c0 .57-.391 1.09-.945 1.262l-.399.121-.129.398a14.82 14.82 0 0 1-1.996 4.024c-.211.296-.414.558-.59.761l-.195.223v2.961c0 1.289.715 2.449 1.867 3.027l6.774 3.387c.043.019.086.043.129.066-.086.063-.172.121-.258.184M1.602 22C1.602 10.75 10.75 1.602 22 1.602S42.398 10.75 42.398 22c0 6.062-2.66 11.512-6.871 15.25a5.79 5.79 0 0 0-.715-.43l-6.773-3.386a1.777 1.777 0 0 1-.984-1.594v-2.367c.156-.192.324-.411.492-.653a16.232 16.232 0 0 0 2.094-4.097 2.903 2.903 0 0 0 1.668-2.633v-2.836c0-.692-.254-1.363-.707-1.895v-3.734c.039-.414.187-2.758-1.508-4.691-1.473-1.68-3.86-2.536-7.094-2.536-3.234 0-5.621.856-7.094 2.536-1.695 1.933-1.547 4.277-1.508 4.691v3.734a2.92 2.92 0 0 0-.707 1.895v2.836c0 .883.395 1.703 1.071 2.258.648 2.539 1.98 4.461 2.476 5.109v2.316c0 .653-.359 1.254-.929 1.567L8.98 36.789a5.58 5.58 0 0 0-.601.383C4.223 33.434 1.602 28.02 1.602 22M44 22C44 9.871 34.129 0 22 0S0 9.871 0 22c0 6.406 2.754 12.184 7.141 16.207l-.02.02.711.601c.047.039.098.07.145.11a33.105 33.105 0 0 0 1.562 1.179c.43.293.867.574 1.316.836.098.059.196.113.293.172.489.277.993.543 1.504.781.039.02.075.035.114.055a22.15 22.15 0 0 0 5.32 1.684l.148.023c.578.102 1.164.18 1.758.234.07.008.145.012.215.02.59.047 1.188.078 1.793.078.598 0 1.191-.031 1.777-.078.075-.008.149-.012.223-.016.59-.054 1.168-.133 1.742-.23.051-.008.102-.02.153-.028a21.677 21.677 0 0 0 5.242-1.644l.183-.082c.496-.234.977-.484 1.45-.75.117-.067.234-.133.351-.203.43-.254.856-.516 1.266-.801.148-.098.293-.207.437-.313.352-.25.699-.511 1.031-.785.075-.058.157-.113.231-.172l.73-.613-.023-.019C41.219 34.242 44 28.441 44 22"/>
</svg>
