<svg xmlns="http://www.w3.org/2000/svg" width="76" height="55" viewBox="0 0 76 55">
    <g fill="#92A8D1" fill-rule="evenodd">
        <path d="M71.199 19.644c-4.505.44-15.017 2.199-22.048 9.196-7.053 7.02-8.81 17.464-9.245 21.941 4.504-.44 15.019-2.199 22.052-9.197 7.03-6.997 8.8-17.457 9.24-21.94zM37.754 54.926a2.01 2.01 0 0 1-2.01-2.02c.007-.674.271-16.651 10.565-26.894 10.294-10.244 26.348-10.507 27.027-10.513h.019c.533 0 1.043.211 1.42.586.382.38.594.895.59 1.433-.007.675-.271 16.65-10.566 26.894C54.506 54.655 38.452 54.92 37.773 54.926h-.02z"/>
        <path d="M4.098 19.097c.435 4.43 2.173 14.782 9.094 21.705 6.941 6.944 17.268 8.674 21.695 9.102-.435-4.433-2.174-14.785-9.094-21.708-6.941-6.943-17.268-8.671-21.695-9.1M37.008 54h-.02c-.667-.006-16.464-.268-26.592-10.4C.266 33.468.006 17.664 0 16.997A1.977 1.977 0 0 1 1.978 15h.018c.668.006 16.465.266 26.593 10.399 9.525 9.529 10.323 24.074 10.39 26.328A1.978 1.978 0 0 1 37.023 54h-.016"/>
        <path d="M58.657 9.71c-3.99 1.928-13.055 7.108-17.171 16.002-4.13 8.922-2.246 19.256-1.146 23.578 3.988-1.925 13.058-7.107 17.174-16.004 4.116-8.892 2.24-19.244 1.143-23.575M39.081 54c-.285 0-.57-.063-.831-.187a1.973 1.973 0 0 1-1.02-1.138c-.222-.632-5.327-15.624.697-28.644C43.953 11.01 58.611 5.36 59.232 5.126a1.944 1.944 0 0 1 1.519.06c.477.226.845.636 1.02 1.138.22.632 5.326 15.625-.699 28.644-6.026 13.02-20.684 18.672-21.305 18.907a1.95 1.95 0 0 1-.686.125"/>
        <path d="M17.386 10c-1.09 4.372-2.96 14.838 1.137 23.826 4.11 9.017 13.122 14.235 17.09 16.174 1.09-4.374 2.961-14.84-1.136-23.828C30.367 17.156 21.354 11.94 17.387 10M36.92 54a1.95 1.95 0 0 1-.687-.125c-.621-.235-15.28-5.886-21.305-18.908-6.025-13.018-.92-28.011-.699-28.643a1.957 1.957 0 0 1 2.539-1.2c.621.235 15.28 5.886 21.305 18.907 6.024 13.018.92 28.011.699 28.644a1.979 1.979 0 0 1-1.02 1.138 1.954 1.954 0 0 1-.832.187"/>
        <path d="M38.002 5c-2.854 3.473-9.005 12.104-9.005 21.988 0 9.913 6.144 18.522 9 21.989 2.856-3.475 9.006-12.106 9.006-21.99 0-9.912-6.144-18.52-9-21.987M38 54a2 2 0 0 1-1.426-.598C36.102 52.92 25 41.452 25 26.988 25 12.523 36.102 1.056 36.574.575c.752-.767 2.1-.767 2.852 0C39.898 1.055 51 12.523 51 26.988S39.898 52.92 39.426 53.402c-.376.382-.89.598-1.426.598"/>
    </g>
</svg>
