<svg xmlns="http://www.w3.org/2000/svg" width="55" height="63" viewBox="0 0 55 63">
    <g fill="#18B3B2" fill-rule="evenodd">
        <path d="M31.523 51c-2.177 0-4.36-.378-6.474-1.138-10.148-3.65-15.508-15.08-11.948-25.481 1.726-5.038 5.263-9.086 9.958-11.4 4.697-2.311 9.99-2.61 14.908-.843 4.034 1.45 7.414 4.14 9.776 7.777a1.576 1.576 0 0 1-.422 2.152 1.494 1.494 0 0 1-2.1-.433c-1.994-3.071-4.849-5.343-8.257-6.568-4.154-1.494-8.626-1.24-12.593.713-3.967 1.953-6.955 5.373-8.412 9.63-3.008 8.786 1.52 18.442 10.093 21.524 4.151 1.494 8.624 1.241 12.592-.712 3.968-1.954 6.955-5.373 8.412-9.63a1.507 1.507 0 0 1 1.931-.95c.79.284 1.204 1.17.927 1.978-1.725 5.038-5.262 9.086-9.958 11.399A19.046 19.046 0 0 1 31.523 51"/>
        <path d="M50.043 29a1.82 1.82 0 0 1-.47-.062L45.2 27.773c-.883-.236-1.39-1.078-1.131-1.882.258-.803 1.18-1.263 2.07-1.029l2.777.74.818-2.514c.261-.803 1.187-1.264 2.072-1.025.883.238 1.387 1.082 1.126 1.885l-1.29 3.965c-.214.66-.879 1.087-1.598 1.087M51.307 49.031l-.84.93a2.508 2.508 0 0 0-.296.398 1.43 1.43 0 0 0-.173.433c-.033.149-.03.3.008.455.038.155.125.306.26.455.145.16.297.252.453.276a.876.876 0 0 0 .465-.058c.155-.063.303-.159.446-.287a5.47 5.47 0 0 0 .392-.388l.647-.715-1.362-1.499zM55 50.311l-2.127 2.351a6.087 6.087 0 0 1-.921.84 2.587 2.587 0 0 1-.972.458 1.823 1.823 0 0 1-1.003-.07c-.34-.12-.68-.366-1.02-.74-.337-.369-.563-.737-.682-1.106a2.363 2.363 0 0 1-.098-1.089c.053-.358.18-.71.383-1.058.202-.349.453-.69.755-1.024l.922-1.018L48 45.394 49.262 44 55 50.312zM47 57.124L45.227 58l-3.14-6.47-3.285 1.623L38 51.5 43.06 49zM38 62.22l-5.735.78-.214-1.876 3.875-.526-.195-1.719-3.66.497-.215-1.876 3.661-.497-.213-1.875-4.09.556L31 53.808 36.95 53zM24.928 58.31l1.76-2.384-2.096-.564.336 2.947zm.054 2.69l-1.563-.421L22 51l2.132.575.249 2.015 3.33.898 1.205-1.625 2.084.562L24.982 61zM13.06 53.355c.01.262.101.516.273.76.171.244.36.44.567.587.121.087.256.161.406.225.148.063.302.106.46.128.16.023.31.01.455-.035a.751.751 0 0 0 .373-.277c.167-.222.21-.453.127-.692a2.891 2.891 0 0 0-.42-.761 27.76 27.76 0 0 0-.65-.846 4.18 4.18 0 0 1-.574-.95 2.338 2.338 0 0 1-.185-1.074c.022-.378.195-.781.518-1.211.308-.409.656-.71 1.041-.903.387-.193.79-.295 1.208-.305.419-.01.841.06 1.267.215.426.154.835.37 1.227.65.492.349.892.746 1.203 1.19.312.446.526.96.644 1.544l-2.141.423a2.036 2.036 0 0 0-.26-.975 2.24 2.24 0 0 0-1.117-1.001 1.683 1.683 0 0 0-.48-.127c-.157-.016-.306 0-.447.05a.755.755 0 0 0-.36.27.753.753 0 0 0-.133.71c.078.253.215.518.41.796.197.277.414.57.652.878.24.309.433.633.582.973.149.339.216.696.204 1.07-.014.373-.175.764-.482 1.173-.298.394-.64.684-1.024.868-.385.184-.786.28-1.205.29a3.533 3.533 0 0 1-1.265-.205 4.764 4.764 0 0 1-1.194-.618 5.19 5.19 0 0 1-1.107-1.059 3.39 3.39 0 0 1-.633-1.36l2.06-.401zM7.157 51L4 46.09l1.392-.998 2.132 3.318 1.277-.915-2.015-3.134 1.392-.997 2.014 3.133 1.392-.998-2.25-3.5L10.725 41 14 46.093zM3.734 33.015l-.064-1.061a6.773 6.773 0 0 0-.049-.512 1.525 1.525 0 0 0-.14-.485.87.87 0 0 0-.314-.348c-.139-.09-.328-.128-.568-.116-.224.012-.4.063-.527.154a.858.858 0 0 0-.286.339 1.362 1.362 0 0 0-.116.457c-.015.17-.018.337-.008.498l.07 1.176 2.002-.102zM.197 35L.01 31.84a5.19 5.19 0 0 1 .06-1.189 2.68 2.68 0 0 1 .378-1.002 2.1 2.1 0 0 1 .78-.71c.334-.184.759-.288 1.272-.314.622-.032 1.16.09 1.613.368.452.278.754.702.904 1.273L8.612 28l.127 2.157-3.417 1.886.052.888 3.52-.18.106 1.8L.197 35z"/>
        <path d="M0 26.14L1.759 20l1.662.581-1.188 4.149 1.525.533 1.122-3.918 1.663.582-1.123 3.919 1.663.58 1.254-4.377 1.663.582L8.176 29zM10.353 11.092a2.023 2.023 0 0 0-.919.231c-.29.151-.558.38-.804.69a2.64 2.64 0 0 0-.55 2.087c.058.366.189.72.394 1.066a3.5 3.5 0 0 0 .818.932c.347.282.707.485 1.08.61.375.125.743.178 1.105.16a2.536 2.536 0 0 0 1.024-.267c.322-.16.599-.388.832-.683.267-.337.435-.691.502-1.065a2.306 2.306 0 0 0-.074-1.115l2.095-.55c.186.672.192 1.334.017 1.987a4.804 4.804 0 0 1-.874 1.75 5.838 5.838 0 0 1-1.548 1.39 4.63 4.63 0 0 1-1.785.645 4.446 4.446 0 0 1-1.886-.155c-.638-.189-1.251-.522-1.84-1.001-.59-.479-1.045-1.013-1.365-1.601a4.6 4.6 0 0 1-.56-1.83 4.784 4.784 0 0 1 .236-1.904 5.887 5.887 0 0 1 1.007-1.83c.167-.212.36-.415.578-.613.22-.197.458-.372.717-.526.258-.153.538-.276.838-.367.3-.09.615-.135.944-.133l.018 2.092zM17.423 8.817L12 6.14l2.113-1.167 3.283 1.89.084-3.749L19.495 2l-.372 5.879L21 11.062 19.3 12zM29.375 2.501a2.047 2.047 0 0 0-.832-.461 2.509 2.509 0 0 0-1.056-.05 2.606 2.606 0 0 0-1.816 1.142 2.974 2.974 0 0 0-.43 1.046 3.507 3.507 0 0 0-.028 1.238c.064.443.19.838.381 1.185.191.348.425.64.703.874.277.235.59.405.933.508.345.103.702.128 1.073.073a2.34 2.34 0 0 0 1.087-.43c.301-.225.535-.512.7-.862L32 7.8a3.62 3.62 0 0 1-1.33 1.456 4.7 4.7 0 0 1-1.823.674 5.821 5.821 0 0 1-2.078-.049 4.678 4.678 0 0 1-1.747-.755 4.518 4.518 0 0 1-1.28-1.406c-.341-.574-.566-1.237-.676-1.99-.11-.752-.083-1.453.08-2.1.162-.647.438-1.22.826-1.715A4.707 4.707 0 0 1 25.43.692 5.829 5.829 0 0 1 27.408.05c.264-.04.544-.055.838-.049.294.007.588.043.882.109.294.065.581.168.864.307.28.14.542.324.783.55l-1.4 1.534zM34.842 0l1.972.401-1.468 7.054L39 8.2 38.625 10 33 8.855zM43.647 2L49 4.83l-.945 1.437-3.617-1.912-.867 1.316 3.418 1.807-.945 1.437-3.418-1.806-.945 1.436 3.818 2.018L44.554 12 39 9.064z"/>
    </g>
</svg>
