<svg xmlns="http://www.w3.org/2000/svg" xmlns:xlink="http://www.w3.org/1999/xlink" width="320" height="320" viewBox="0 0 320 320">
    <defs>
        <path id="a" d="M.06 320H320V0H.06z"/>
    </defs>
    <g fill="none" fill-rule="evenodd">
        <mask id="b" fill="#fff">
            <use xlink:href="#a"/>
        </mask>
        <path fill="#000" d="M159.996 0C71.773 0 0 71.777 0 160s71.773 160 159.996 160C248.223 320 320 248.223 320 160S248.223 0 159.996 0zm0 299.016c-76.652 0-139.012-62.364-139.012-139.016 0-76.652 62.36-139.016 139.012-139.016 76.656 0 139.02 62.364 139.02 139.016 0 76.652-62.364 139.016-139.02 139.016z" mask="url(#b)"/>
        <path fill="#000" d="M223.582 149.508l-127.164.004c-5.793 0-10.492 4.695-10.492 10.492 0 5.793 4.699 10.492 10.492 10.492l127.164-.004c5.793 0 10.492-4.699 10.492-10.492 0-5.793-4.699-10.492-10.492-10.492z"/>
    </g>
</svg>
