<svg xmlns="http://www.w3.org/2000/svg" width="80" height="53" viewBox="0 0 80 53">
    <g fill="none" fill-rule="evenodd">
        <path fill="#FEFEFE" d="M46.633 18.016C42.086 16.455 23.1 6.015 21 2.307 24.35.472 44.132 7.39 48.68 8.951c4.55 1.562 8.217 4.722 10.32 8.43-3.352 1.834-7.817 2.199-12.367.635"/>
        <path fill="#18B3B2" d="M23.787 3.248c1.763 1.588 4.803 3.91 9.462 6.946 5.92 3.857 11.468 6.929 13.411 7.671 3.338 1.275 6.802 1.305 9.64.112-2.06-3.287-5.156-5.877-8.684-7.223l-.524-.2C35.766 6.218 27.944 3.767 23.787 3.248M51.807 22c-2.067 0-4.164-.4-6.234-1.191-4.374-1.67-23.947-13.358-26.4-18.174a1.587 1.587 0 0 1 .578-2.071C20.375.184 21.213 0 22.313 0c5.984 0 20.95 5.728 25.868 7.611l.521.2c4.715 1.798 8.768 5.479 11.124 10.097a1.588 1.588 0 0 1-.578 2.073C57.078 21.302 54.505 22 51.808 22"/>
        <path fill="#FEFEFE" d="M52.041 13.118c-9.62.448-26.79 2.568-36.816 6.886-.862-1.421-3.258-4.902-6.225-5.214 0 0 1.43 6.477 3.382 7.672 5.155 4.32 22.686 4.876 33.051 4.394C56.31 26.35 76.661 24.988 78 18.551c-4.085-4.928-15.078-5.942-25.959-5.433"/>
        <path fill="#18B3B2" d="M11.905 15.828c.61 1.65 1.29 2.935 1.762 3.205.064.037.125.077.183.122 3.128 2.448 12.723 3.909 25.668 3.91h.002c2.185 0 4.32-.046 6.345-.133 23.38-1.017 29.515-3.925 30.849-5.94-3.06-2.656-9.695-4.056-19.308-4.056-1.53 0-3.145.037-4.8.11-7.982.347-25.838 2.112-36.286 6.313a1.543 1.543 0 0 1-1.865-.574c-.37-.569-1.323-1.936-2.55-2.957M39.52 26h-.002c-8.08 0-22.36-.587-27.498-4.503-2.268-1.426-3.618-6.492-3.981-8.03-.11-.462.017-.946.341-1.3.323-.355.8-.538 1.29-.489 2.922.288 5.234 2.64 6.642 4.525 10.942-4.037 28.275-5.748 36.158-6.09 1.7-.075 3.36-.113 4.936-.113 11.396 0 18.874 1.915 22.228 5.69.31.35.432.818.332 1.267-1.156 5.19-11.63 7.937-33.964 8.907-2.071.09-4.253.136-6.482.136"/>
        <path fill="#FEFEFE" d="M42.633 18.984C38.086 20.545 19.098 30.985 17 34.693c3.35 1.835 23.132-5.083 27.68-6.644 4.55-1.562 8.217-4.722 10.32-8.43-3.351-1.834-7.816-2.199-12.367-.635"/>
        <path fill="#18B3B2" d="M48.808 19.144c-1.694 0-3.427.333-5.148.991-4.001 1.527-17.787 9.966-22.93 14.624 4.142-.504 11.981-2.957 23.357-7.31l.53-.203c3.527-1.346 6.623-3.936 8.683-7.224-1.374-.577-2.901-.878-4.492-.878M19.314 38c-1.1 0-1.94-.184-2.563-.564a1.586 1.586 0 0 1-.577-2.071c2.45-4.815 22.024-16.503 26.4-18.173 2.07-.79 4.167-1.192 6.234-1.192 2.697 0 5.27.698 7.44 2.02.7.426.954 1.334.578 2.072-2.356 4.618-6.41 8.3-11.124 10.098l-.526.201C40.26 32.273 25.296 38 19.314 38M5.018 26.381l-.433-2.042L5.801 24 7 29.66 5.785 30l-.433-2.042-5.018 1.401L0 27.782zM6.524 33.431c.08-.18.11-.384.087-.608a1.94 1.94 0 0 0-.148-.595 1.623 1.623 0 0 0-.171-.293 1.265 1.265 0 0 0-.236-.248.647.647 0 0 0-.287-.134.482.482 0 0 0-.318.056.549.549 0 0 0-.306.422c-.03.19-.03.41.001.66.03.25.069.517.114.8.044.282.055.562.03.84a1.93 1.93 0 0 1-.244.788c-.138.248-.377.46-.715.636-.322.168-.632.25-.93.245a1.772 1.772 0 0 1-.831-.216 2.318 2.318 0 0 1-.695-.588 3.814 3.814 0 0 1-.527-.866 3.971 3.971 0 0 1-.333-1.224c-.04-.409 0-.83.123-1.266l1.436.463a1.7 1.7 0 0 0-.166.748c0 .265.051.513.154.744.05.112.113.22.189.322.075.102.158.186.248.252s.185.108.286.124a.487.487 0 0 0 .309-.057.581.581 0 0 0 .315-.433c.037-.197.043-.424.016-.68a21.798 21.798 0 0 0-.103-.82 3.837 3.837 0 0 1-.028-.858c.022-.282.1-.546.231-.793.132-.248.36-.455.682-.623.31-.162.612-.238.906-.228.294.01.569.086.826.225.257.138.49.332.697.58.208.249.38.526.517.834.157.355.263.721.318 1.101.055.38.032.759-.068 1.138l-1.38-.448zM10.782 38.026l-2.456.837 1.201 1.53 1.255-2.367zM12.105 36L13 37.14 9.16 45l-1.223-1.554.844-1.628-1.91-2.429-1.677.568L4 38.438 12.105 36zM15.279 41L19 43.456l-.667 1.26-2.499-1.65-.666 1.26 2.31 1.526-.667 1.26-2.31-1.526L13.22 48 12 47.193zM22.83 47.47l.906.296a7.9 7.9 0 0 0 .444.128c.157.04.306.056.445.045a.744.744 0 0 0 .384-.137c.115-.081.203-.22.264-.416.055-.182.064-.34.025-.47a.78.78 0 0 0-.199-.339 1.27 1.27 0 0 0-.348-.241 3.035 3.035 0 0 0-.414-.17l-1.004-.327-.502 1.632zM22.21 44l2.697.88c.354.116.68.261.976.436.296.175.539.384.728.628.188.243.31.529.364.855.055.326.018.7-.11 1.118-.157.506-.418.895-.782 1.166-.366.272-.81.374-1.33.308L25.59 53l-1.84-.601-.574-3.344-.759-.247-.883 2.868-1.535-.5L22.21 44zM27.76 45l1.24.202L28.24 52 27 51.798zM31 45.151L35.608 45l.044 1.393-3.113.102.041 1.278 2.941-.097.045 1.393-2.94.096.044 1.393 3.285-.107.045 1.392-4.78.157zM36 44.014l2.152-.636 4.576 3.951.021-.007-1.52-4.854L42.813 42 45 48.985l-2.07.613-4.696-4.045-.02.006 1.557 4.973-1.584.468z"/>
        <path fill="#18B3B2" d="M47.958 47.726l.76-.492a4.86 4.86 0 0 0 .876-.712c.247-.255.423-.53.53-.825a1.89 1.89 0 0 0 .088-.942c-.05-.334-.198-.685-.446-1.054a2.206 2.206 0 0 0-.743-.715 2.053 2.053 0 0 0-.886-.266c-.31-.02-.63.022-.96.125-.33.104-.65.255-.956.453l-.864.559 2.6 3.869zM43 43.477l2.198-1.42a7.57 7.57 0 0 1 1.634-.807 4.26 4.26 0 0 1 1.635-.244c.532.03 1.044.186 1.534.468.49.283.936.72 1.336 1.317.356.529.567 1.059.633 1.593.068.534.02 1.05-.14 1.545-.161.496-.42.96-.774 1.393-.356.433-.782.81-1.277 1.13L47.384 50 43 43.477zM49 38.142L50.17 37l4.511 3.87 2.168-2.114 1.151.988L54.662 43zM56.305 36.438L51 36.442l1.16-1.534 3.321.184-1.472-2.629L55.115 31l2.123 4.204L60 36.766 59.067 38z"/>
    </g>
</svg>
