<svg xmlns="http://www.w3.org/2000/svg" xmlns:xlink="http://www.w3.org/1999/xlink" width="410" height="411" viewBox="0 0 410 411">
    <defs>
        <path id="a" d="M.06.4v409.602h409.542V.4z"/>
        <path id="c" d="M.06.4v311.652h402.483V.4z"/>
    </defs>
    <g fill="none" fill-rule="evenodd">
        <mask id="b" fill="#fff">
            <use xlink:href="#a"/>
        </mask>
        <path fill="#F3F3F3" d="M409.602 205.201c0 113.105-91.696 204.801-204.801 204.801C91.691 410.002 0 318.306 0 205.201 0 92.091 91.691.4 204.801.4c113.105 0 204.801 91.691 204.801 204.801z" mask="url(#b)"/>
        <path fill="#D80027" d="M195.895 205.201h213.707c0-18.485-2.465-36.395-7.059-53.426H195.895v53.426zM195.895 98.349h183.644a205.822 205.822 0 0 0-47.254-53.426h-136.39v53.426zM204.801 410.002c48.199 0 92.5-16.661 127.484-44.524H77.316c34.985 27.863 79.286 44.524 127.485 44.524z"/>
        <g>
            <mask id="d" fill="#fff">
                <use xlink:href="#c"/>
            </mask>
            <path fill="#D80027" d="M30.059 312.052h349.48a203.51 203.51 0 0 0 23.004-53.425H7.055a203.61 203.61 0 0 0 23.004 53.425z" mask="url(#d)"/>
            <path fill="#0052B4" d="M94.867 32.38h18.664L96.172 44.994l6.629 20.406-17.36-12.609L68.082 65.4l5.73-17.629a205.94 205.94 0 0 0-39.722 44.27h5.98l-11.05 8.027a205.5 205.5 0 0 0-4.958 8.754l5.278 16.238-9.844-7.152a202.204 202.204 0 0 0-6.699 15.898l5.816 17.895H40.07l-17.359 12.613 6.629 20.406-17.36-12.613-10.398 7.555A207.168 207.168 0 0 0 0 205.201h204.801V.4c-40.457 0-78.172 11.734-109.934 31.98zm7.934 152.34l-17.36-12.613-17.359 12.613 6.633-20.406-17.36-12.613h21.457l6.629-20.406 6.633 20.406h21.457l-17.359 12.613 6.629 20.406zm-6.629-80.066l6.629 20.406-17.36-12.613-17.359 12.613 6.633-20.406-17.36-12.613h21.457l6.629-20.407 6.633 20.407h21.457l-17.359 12.613zm80.09 80.066l-17.36-12.613-17.359 12.613 6.633-20.406-17.36-12.613h21.457l6.629-20.406 6.633 20.406h21.457l-17.359 12.613 6.629 20.406zm-6.629-80.066l6.629 20.406-17.36-12.613-17.359 12.613 6.633-20.406-17.36-12.613h21.457l6.629-20.407 6.633 20.407h21.457l-17.359 12.613zm0-59.66l6.629 20.406-17.36-12.609L141.543 65.4l6.633-20.406-17.36-12.614h21.457l6.629-20.406 6.633 20.406h21.457l-17.359 12.614z" mask="url(#d)"/>
        </g>
    </g>
</svg>
