<svg xmlns="http://www.w3.org/2000/svg" xmlns:xlink="http://www.w3.org/1999/xlink" width="410" height="411" viewBox="0 0 410 411">
    <defs>
        <path id="a" d="M.06.4v409.602h409.542V.4z"/>
        <path id="c" d="M.06.4v409.602h409.542V.4z"/>
    </defs>
    <g fill="none" fill-rule="evenodd">
        <mask id="b" fill="#fff">
            <use xlink:href="#a"/>
        </mask>
        <path fill="#F3F3F3" d="M409.602 205.201c0 113.105-91.696 204.801-204.801 204.801C91.691 410.002 0 318.306 0 205.201 0 92.091 91.691.4 204.801.4c113.105 0 204.801 91.691 204.801 204.801z" mask="url(#b)"/>
        <path fill="#0052B4" d="M42.336 80.513c-16.086 20.93-28.219 45.055-35.281 71.262h106.543L42.336 80.513zM402.543 151.775c-7.063-26.207-19.191-50.332-35.277-71.262l-71.262 71.262h106.539zM7.055 258.627c7.066 26.207 19.195 50.332 35.281 71.261l71.258-71.261H7.055zM329.488 42.736c-20.933-16.086-45.054-28.215-71.261-35.281v106.543l71.261-71.262zM80.113 367.662c20.93 16.09 45.055 28.218 71.262 35.281V296.404l-71.262 71.258zM151.375 7.455c-26.207 7.066-50.332 19.195-71.262 35.281l71.262 71.262V7.455zM258.227 402.943c26.207-7.063 50.332-19.191 71.261-35.277l-71.261-71.262v106.539z"/>
        <mask id="d" fill="#fff">
            <use xlink:href="#c"/>
        </mask>
        <path fill="#0052B4" d="M296.004 258.627l71.262 71.261c16.086-20.929 28.214-45.054 35.277-71.261H296.004z" mask="url(#d)"/>
        <path fill="#D80027" d="M407.867 178.486H231.512V2.134a206.482 206.482 0 0 0-53.426 0v176.352H1.734a206.58 206.58 0 0 0 0 53.426h176.352v176.355a207.113 207.113 0 0 0 26.715 1.735c9.054 0 17.969-.598 26.711-1.735V231.912h176.355a207.016 207.016 0 0 0 1.735-26.711c0-9.055-.598-17.969-1.735-26.715z" mask="url(#d)"/>
        <path fill="#D80027" d="M258.227 258.627l91.386 91.39a204.013 204.013 0 0 0 12.039-13.148l-78.242-78.242h-25.183zM151.375 258.627h-.004l-91.387 91.386a204.03 204.03 0 0 0 13.149 12.039l78.242-78.242v-25.183zM151.375 151.775L59.984 60.384a206.1 206.1 0 0 0-12.039 13.149l78.243 78.242h25.187zM258.227 151.775l91.39-91.391a206.354 206.354 0 0 0-13.148-12.039l-78.242 78.246v25.184z"/>
    </g>
</svg>
