<svg xmlns="http://www.w3.org/2000/svg" width="29" height="29" viewBox="0 0 29 29">
    <g fill="#000" fill-rule="evenodd">
        <path d="M3.359 13.549c-.016.306-.147.602-.38.898-.066.086-.135.1-.213.056l-.378-.237c-.075-.052-.09-.121-.031-.193.134-.19.21-.373.217-.524.01-.187-.077-.311-.224-.318-.258-.014-.37.342-.562.652-.248.394-.574.578-.95.54-.546-.053-.883-.53-.825-1.115.02-.234.11-.457.223-.634.047-.073.116-.083.188-.035l.306.22c.072.052.083.115.039.189a.727.727 0 0 0-.107.324c-.01.197.078.316.213.323.213.01.316-.273.463-.534.142-.255.446-.73 1.054-.7.574.03.996.488.967 1.088M3.135 9.01l-.843-.027.6.595.243-.569zm1.62-.534l-.202.462c-.029.07-.079.101-.155.098l-.49-.01-.473 1.1.351.354c.054.051.064.11.033.18l-.2.466c-.04.09-.112.103-.182.034L1.128 8.857c-.054-.052-.064-.11-.035-.178l.136-.316c.03-.07.08-.102.153-.098l3.274.053c.1.004.14.07.1.159zM4.719 3.678l.589 1.847.976.886c.062.057.066.127.01.19l-.304.333c-.058.063-.126.066-.188.009l-.978-.887L2.93 5.65c-.101-.021-.128-.098-.054-.178l.385-.426a.175.175 0 0 1 .178-.055l1.006.238-.335-.978a.175.175 0 0 1 .037-.182l.39-.43c.07-.08.152-.06.18.038M11.72.123l.431-.1c.083-.018.141.019.16.1l.68 2.95c.016.08-.019.14-.102.159l-.312.071a.174.174 0 0 1-.176-.046l-1.649-1.52.403 1.756c.02.083-.017.142-.104.16l-.438.103c-.082.018-.14-.018-.159-.101L9.776.708c-.019-.083.017-.142.1-.16l.3-.07c.067-.015.121-.005.173.046l1.67 1.53-.405-1.77c-.019-.081.016-.14.105-.16M15.45 1.604a.945.945 0 0 0 .767 1.105.972.972 0 0 0 1.112-.772.968.968 0 0 0-.775-1.106.949.949 0 0 0-1.104.773m2.59.46a1.673 1.673 0 0 1-1.945 1.348 1.672 1.672 0 0 1-1.356-1.934 1.679 1.679 0 0 1 1.945-1.35 1.666 1.666 0 0 1 1.356 1.935M24.737 4.782l-.316.327c-.058.06-.13.058-.19 0l-.408-.394-1.694 1.748c-.06.06-.13.063-.191.005l-.32-.314c-.062-.06-.064-.128-.004-.189l1.697-1.748-.407-.393c-.06-.06-.06-.128-.002-.19l.316-.325c.058-.062.128-.063.188-.002L24.73 4.59c.06.058.064.13.006.191M25.177 8.04a.95.95 0 0 0-.475 1.26.966.966 0 0 0 1.263.478c.473-.216.686-.797.473-1.268a.947.947 0 0 0-1.26-.47m1.084 2.396a1.666 1.666 0 0 1-2.209-.836 1.675 1.675 0 0 1 .826-2.218 1.67 1.67 0 0 1 2.21.836 1.674 1.674 0 0 1-.827 2.218M27.277 19.433l-2.72-1.57c-.072-.04-.09-.096-.07-.175l.086-.34c.021-.078.071-.12.15-.119l1.632-.017-1.428-.785c-.066-.04-.093-.104-.072-.18l.086-.34c.02-.075.06-.115.145-.117l3.142-.08c.093-.004.14.06.118.15l-.13.505c-.019.074-.06.113-.145.115l-1.664.046 1.407.781c.06.034.075.083.06.15l-.072.274c-.017.066-.052.098-.12.1l-1.614.017 1.443.825c.072.042.09.098.07.175l-.128.505c-.025.096-.097.128-.176.08M24.588 21.62l-.198.256a.302.302 0 1 0 .481.37l.2-.26-.483-.367zm-2.435-.05l.316-.416c.048-.06.102-.086.176-.073l1.31.177.062-.077-.882-.675c-.068-.052-.077-.12-.023-.19l.273-.359c.052-.067.122-.076.188-.026l2.4 1.837c.068.052.076.12.025.188l-.556.726c-.344.45-.986.537-1.433.196a1.021 1.021 0 0 1-.388-.968l-1.398-.169c-.105-.008-.138-.084-.07-.172zM21.006 22.738L22.8 25.17c.05.069.039.136-.027.188l-.357.262c-.071.053-.139.043-.188-.024l-1.795-2.431c-.049-.069-.041-.138.031-.19l.356-.264c.068-.05.136-.038.186.028M18.201 27.693l-.42.15c-.078.027-.142-.002-.169-.083l-1.003-2.852c-.026-.08.005-.142.083-.17l.304-.107c.066-.024.12-.019.178.027l1.81 1.322-.595-1.7c-.027-.079.002-.142.087-.172l.424-.149c.08-.029.142.001.171.081l1.001 2.852c.026.081-.005.142-.083.171l-.29.102a.169.169 0 0 1-.179-.026l-1.832-1.329.6 1.711c.03.081-.002.142-.087.172M12.87 24.944l.576.01c.072.003.128.03.163.099l.647 1.233.082-.111.027-1.066c.002-.085.052-.133.143-.131l.444.01c.085.002.133.05.13.137l-.072 3.022c-.002.085-.051.132-.138.13l-.445-.008c-.091-.002-.136-.052-.134-.137l.019-.81-.645.847a.189.189 0 0 1-.166.08l-.531-.011c-.116-.003-.15-.075-.08-.167l.878-1.151-.994-1.818c-.05-.091-.008-.161.097-.158M9.655 24.016l1.46.537c.08.029.108.092.08.17l-1.045 2.839c-.029.08-.093.108-.171.078l-.42-.154c-.084-.031-.114-.094-.084-.172l.84-2.287-.909-.335c-.08-.03-.107-.092-.079-.171l.155-.425c.03-.08.094-.11.173-.08M6.42 22.58l.277-.36c.054-.066.122-.075.188-.023l1.288.993c.066.051.076.12.025.187L6.352 25.77c-.052.067-.12.076-.186.025l-1.29-.994c-.066-.052-.076-.12-.023-.187l.275-.359c.052-.067.12-.075.188-.024l.823.635.372-.483-.757-.582c-.07-.055-.078-.123-.028-.19l.223-.289c.05-.067.12-.075.19-.022l.758.584.372-.482-.824-.636c-.066-.05-.077-.12-.025-.186M5.19 20.148c.172.256.246.57.238.948-.002.107-.048.16-.137.171l-.446.038c-.09 0-.141-.043-.141-.136-.006-.232-.056-.425-.14-.55-.106-.155-.25-.203-.372-.12-.213.143-.09.494-.056.86.039.461-.11.804-.432 1-.467.284-1.023.105-1.331-.397a1.474 1.474 0 0 1-.203-.642c-.006-.088.042-.136.128-.142l.377-.006c.09-.002.136.043.146.127a.75.75 0 0 0 .11.323c.109.163.252.206.364.131.175-.117.086-.407.047-.704-.04-.29-.082-.851.422-1.191.475-.322 1.089-.207 1.426.29M2.524 17.744a.367.367 0 0 1 .467.229.36.36 0 0 1-.225.46.365.365 0 1 1-.242-.69"/>
    </g>
</svg>
