<svg xmlns="http://www.w3.org/2000/svg" width="29" height="29" viewBox="0 0 29 29">
    <g fill="#000" fill-rule="evenodd">
        <path d="M.3 12.287l1.74 1.118 1.408.064c.09.005.14.058.136.15l-.023.479c-.005.09-.06.14-.15.137l-1.408-.064-1.837.955c-.097.053-.171.007-.166-.108l.029-.613a.19.19 0 0 1 .109-.167l.992-.49-.942-.575a.183.183 0 0 1-.092-.175l.03-.62c.005-.113.083-.153.175-.091M2.731 9.55c.501.262 1.112.08 1.376-.421a1.037 1.037 0 0 0-.43-1.38 1.036 1.036 0 0 0-1.38.43 1.012 1.012 0 0 0 .434 1.371m1.303-2.483a1.785 1.785 0 0 1 .752 2.413 1.788 1.788 0 0 1-2.413.752 1.789 1.789 0 0 1-.75-2.412 1.785 1.785 0 0 1 2.411-.753M8.538 3.006l.148.216c.514.822.298 1.866-.478 2.395-.83.567-1.9.321-2.45-.487a1.792 1.792 0 0 1 .473-2.485c.397-.27.831-.337 1.32-.246.091.018.13.074.122.164l-.042.43c-.007.092-.066.138-.16.127-.299-.03-.559-.015-.81.157a1.023 1.023 0 0 0-.267 1.418c.326.48.932.6 1.386.291a.964.964 0 0 0 .375-1.073l-.862.588c-.078.053-.152.04-.205-.039l-.217-.317c-.049-.075-.036-.148.042-.2l1.424-.973c.08-.055.151-.04.201.034M12.779 2.466l-.446-.785-.21.88.656-.095zm1.389 1.177l-.534.074c-.08.012-.137-.014-.175-.084l-.264-.456-1.266.188-.127.516c-.017.08-.065.12-.145.132l-.537.08c-.103.015-.155-.045-.132-.15L11.8.55c.017-.08.064-.12.144-.132l.362-.054c.08-.012.138.014.175.085l1.774 3.01c.053.095.016.168-.087.183zM19.748 5.39c-.278-.175-.488-.45-.645-.821-.045-.107-.024-.178.058-.228l.419-.232c.087-.04.158-.019.196.072.108.224.24.391.377.476.17.107.333.09.416-.043.145-.234-.13-.522-.32-.865-.24-.436-.245-.836-.014-1.167.33-.482.953-.548 1.47-.192.21.141.372.342.479.538.045.083.02.152-.064.195l-.364.17c-.088.041-.151.018-.198-.06a.746.746 0 0 0-.25-.268c-.176-.11-.335-.091-.41.03-.121.192.09.437.26.71.165.265.453.795.109 1.348-.324.521-.972.678-1.52.338M23.454 9.1l-.358-.498c-.044-.062-.057-.128-.021-.201l.635-1.347h-.146l-.927.666c-.074.053-.146.04-.202-.036l-.277-.386c-.052-.074-.041-.147.032-.2l2.626-1.887c.073-.052.146-.04.198.034l.277.385c.056.076.044.15-.03.204l-.702.504 1.134.005a.195.195 0 0 1 .175.09l.33.459c.074.1.034.176-.09.177l-1.545-.008-.911 2.02c-.045.103-.131.112-.198.02M24.38 10.983l3.104-.91c.087-.024.152.01.178.098l.132.452c.027.092-.01.156-.095.182l-3.103.908c-.087.025-.151-.01-.18-.102l-.131-.452c-.025-.085.01-.151.096-.176M28.22 16.028l-.029.474c-.005.09-.06.14-.15.134l-3.228-.2c-.09-.006-.138-.06-.132-.152l.02-.342a.181.181 0 0 1 .1-.164l2.06-1.229-1.923-.12c-.089-.006-.139-.06-.133-.157l.03-.479c.005-.09.061-.138.151-.133l3.227.201c.09.005.138.06.133.15l-.02.328c-.005.075-.03.127-.1.165l-2.073 1.248 1.934.12c.091.006.14.061.133.156M23.713 22.777l-.238.253a.323.323 0 1 0 .472.443l.238-.254-.472-.442zm-2.587-.317l.381-.405c.056-.06.116-.082.194-.061l1.378.332.07-.076-.867-.813c-.067-.062-.069-.135-.004-.205l.33-.352c.061-.066.135-.068.2-.006l2.361 2.213c.067.061.07.135.007.201l-.666.711a1.093 1.093 0 0 1-1.857-1.016l-1.47-.332c-.11-.02-.137-.103-.057-.191zM18.282 25.626l.614.66v-.905l-.614.245zm-1.624-.824l.502-.195c.075-.03.136-.019.191.042l.362.382 1.188-.475.004-.533c0-.081.037-.131.11-.161l.504-.202c.098-.038.162.007.163.114l-.004 3.488c.003.08-.033.131-.109.161l-.34.135c-.076.031-.137.019-.193-.041l-2.422-2.518c-.072-.079-.052-.159.044-.197zM12.297 28.388l-.474-.037c-.091-.007-.14-.064-.132-.154l.248-3.219c.007-.09.063-.138.152-.13l.343.026a.185.185 0 0 1 .165.104l1.2 2.075.147-1.916c.008-.09.062-.14.158-.132l.48.038c.09.007.139.063.13.153l-.247 3.22c-.006.09-.062.137-.152.131l-.33-.027c-.074-.006-.125-.032-.162-.103l-1.22-2.09-.148 1.931c-.006.09-.063.137-.158.13M6.202 24.222L6.337 24c.535-.81 1.573-1.05 2.374-.565.858.52 1.08 1.597.573 2.436a1.79 1.79 0 0 1-2.455.605c-.41-.248-.65-.615-.77-1.099-.022-.09.013-.149.098-.18l.409-.142c.087-.03.152.004.183.094.094.284.216.514.477.671.48.291 1.11.133 1.4-.348.3-.497.158-1.1-.31-1.382a.962.962 0 0 0-1.132.106l.891.538c.082.05.1.121.052.203l-.2.33c-.046.076-.117.095-.2.045l-1.474-.89c-.08-.049-.098-.12-.051-.199M4.3 19.846l.4-.273c.074-.052.146-.038.197.037l.982 1.44c.053.074.04.147-.034.2l-2.66 1.822c-.075.051-.147.037-.199-.038l-.982-1.439c-.052-.075-.038-.147.035-.199l.4-.273c.075-.05.148-.038.199.037l.627.921.536-.368-.578-.845c-.053-.079-.04-.152.034-.203l.321-.22c.075-.05.147-.037.202.041l.576.847.537-.368-.628-.92c-.051-.075-.04-.148.036-.199M2.618 17.45a.39.39 0 0 1 .487.265.381.381 0 0 1-.26.482.388.388 0 0 1-.489-.255.393.393 0 0 1 .262-.492"/>
    </g>
</svg>
