<svg xmlns="http://www.w3.org/2000/svg" width="72" height="52" viewBox="0 0 72 52">
    <g fill="#18B3B2" fill-rule="evenodd">
        <path d="M35.502 4.722c-2.744 3.28-8.66 11.432-8.66 20.766 0 9.363 5.909 17.493 8.656 20.768 2.745-3.282 8.66-11.434 8.66-20.768 0-9.361-5.909-17.492-8.656-20.766M35.5 51a1.94 1.94 0 0 1-1.371-.565C33.675 49.98 23 39.15 23 25.488 23 11.828 33.675.997 34.129.543c.723-.724 2.019-.724 2.742 0C37.325.997 48 11.828 48 25.488c0 13.662-10.675 24.493-11.129 24.947A1.94 1.94 0 0 1 35.5 51"/>
        <path d="M68.004 17.995c-4.32.424-14.402 2.12-21.145 8.863-6.765 6.766-8.45 16.833-8.867 21.148 4.32-.424 14.404-2.12 21.15-8.865 6.743-6.744 8.44-16.825 8.862-21.146zM35.928 52A1.927 1.927 0 0 1 34 50.055c.006-.651.26-16.05 10.133-25.923C54.005 14.26 69.403 14.006 70.055 14h.017A1.927 1.927 0 0 1 72 15.946c-.006.65-.26 16.048-10.133 25.92C51.995 51.74 36.597 51.996 35.947 52h-.02z"/>
        <path d="M3.937 18.096c.418 4.255 2.088 14.197 8.737 20.846 6.67 6.668 16.591 8.33 20.844 8.74-.417-4.257-2.088-14.198-8.737-20.847-6.669-6.668-16.59-8.328-20.844-8.74m31.619 33.521h-.019c-.641-.005-15.818-.257-25.55-9.988C.257 31.898.007 16.72 0 16.08a1.901 1.901 0 0 1 1.9-1.919h.017c.642.006 15.82.256 25.55 9.987C36.62 33.3 37.387 47.27 37.45 49.434a1.9 1.9 0 0 1-1.88 2.183h-.014"/>
        <path d="M55.842 8.518c-3.852 1.849-12.606 6.818-16.58 15.349-3.986 8.558-2.168 18.47-1.106 22.616 3.851-1.848 12.607-6.818 16.582-15.351 3.973-8.53 2.162-18.46 1.104-22.614M36.94 51a1.895 1.895 0 0 1-1.787-1.27c-.214-.607-5.144-14.987.674-27.476C41.645 9.766 55.797 4.345 56.397 4.12a1.888 1.888 0 0 1 1.466.059 1.9 1.9 0 0 1 .985 1.091c.213.606 5.143 14.987-.675 27.475-5.818 12.489-19.97 17.91-20.57 18.135-.214.08-.438.12-.663.12"/>
        <path d="M16.16 8.514c-1.058 4.15-2.873 14.085 1.102 22.617 3.987 8.56 12.729 13.513 16.579 15.353 1.057-4.152 2.872-14.086-1.103-22.618-3.986-8.558-12.73-13.511-16.579-15.352M35.06 51c-.224 0-.449-.04-.663-.12-.6-.225-14.752-5.646-20.57-18.136C8.01 20.257 12.94 5.876 13.152 5.27a1.897 1.897 0 0 1 2.451-1.15c.6.224 14.753 5.644 20.57 18.134 5.817 12.487.889 26.868.676 27.475A1.899 1.899 0 0 1 35.06 51"/>
    </g>
</svg>
