<?xml version="1.0" encoding="utf-8"?>
<!-- Generator: Adobe Illustrator 22.1.0, SVG Export Plug-In . SVG Version: 6.00 Build 0)  -->
<svg version="1.1" id="Layer_1" xmlns="http://www.w3.org/2000/svg" xmlns:xlink="http://www.w3.org/1999/xlink" x="0px" y="0px"
	 viewBox="0 0 340.2 141.7" style="enable-background:new 0 0 340.2 141.7;" xml:space="preserve">
<style type="text/css">
	.st0{fill:#58595B;}
	.st1{fill:#00A79D;}
</style>
<g>
	<g>
		<path class="st0" d="M33.9,92.4c-5.7,0-10.6-1.9-14.7-5.8c-4.1-3.9-6.2-9-6.2-15.2c0-6.3,2.1-11.4,6.4-15.3
			c4.3-3.9,9.5-5.9,15.7-5.9c6.2,0,11.4,2.1,15.7,6.4l-5.1,6.2c-3.5-3.1-7.1-4.6-10.7-4.6c-3.6,0-6.7,1.2-9.4,3.6
			c-2.6,2.4-4,5.5-4,9.3s1.3,7,3.9,9.6c2.6,2.6,5.8,3.9,9.7,3.9c3.8,0,7.4-1.7,10.8-5.2l5.1,5.6C46.2,89.9,40.5,92.4,33.9,92.4z"/>
		<path class="st0" d="M85.9,86.3c-4.1,4.1-9.3,6.1-15.4,6.1c-6.2,0-11.3-2-15.4-6.1c-4.1-4.1-6.2-9.1-6.2-15c0-5.9,2.1-10.9,6.2-15
			c4.1-4.1,9.3-6.1,15.4-6.1c6.2,0,11.3,2,15.4,6.1c4.1,4.1,6.2,9.1,6.2,15C92.1,77.2,90,82.2,85.9,86.3z M61.2,80.9
			c2.4,2.5,5.5,3.7,9.3,3.7c3.8,0,6.8-1.2,9.3-3.7c2.4-2.5,3.7-5.7,3.7-9.7c0-4-1.2-7.2-3.7-9.7c-2.4-2.5-5.5-3.7-9.3-3.7
			c-3.8,0-6.8,1.2-9.3,3.7c-2.4,2.5-3.7,5.7-3.7,9.7C57.5,75.2,58.7,78.4,61.2,80.9z"/>
		<path class="st0" d="M104.3,91.8l-16.5-41h8.9l12.5,31l12.5-31h8.9l-16.5,41H104.3z"/>
		<path class="st0" d="M168,75h-32.1c0.2,3,1.6,5.4,4.1,7.2c2.5,1.8,5.4,2.7,8.6,2.7c5.1,0,9-1.6,11.7-4.9l4.9,5.4
			c-4.4,4.6-10.2,6.9-17.3,6.9c-5.8,0-10.7-1.9-14.7-5.7c-4-3.8-6.1-9-6.1-15.4c0-6.4,2.1-11.6,6.2-15.4c4.1-3.8,9-5.7,14.5-5.7
			c5.6,0,10.3,1.7,14.2,5c3.9,3.4,5.9,8,5.9,13.9V75z M135.8,68.3h23.5c0-3.4-1.1-6.1-3.2-7.9c-2.2-1.9-4.8-2.8-8-2.8
			c-3.2,0-6,1-8.5,2.9C137.1,62.4,135.8,65,135.8,68.3z"/>
		<path class="st0" d="M191.3,58.9c-4.3,0-7.5,1.4-9.6,4.2c-2.2,2.8-3.2,6.5-3.2,11.2v17.6h-8.6v-41h8.6V59c1.4-2.6,3.3-4.7,5.7-6.3
			c2.4-1.6,4.9-2.5,7.6-2.5l0.1,8.7C191.6,58.9,191.4,58.9,191.3,58.9z"/>
	</g>
	<g>
		<path class="st0" d="M186.9,41.8c-3.3,3.2-7.3,4.9-12.2,4.9c-4.9,0-9-1.6-12.2-4.9c-3.3-3.2-4.9-7.2-4.9-11.9
			c0-4.7,1.6-8.7,4.9-11.9c3.3-3.2,7.3-4.9,12.2-4.9c4.9,0,9,1.6,12.2,4.9c3.3,3.2,4.9,7.2,4.9,11.9
			C191.8,34.6,190.2,38.6,186.9,41.8z M167.3,37.6c1.9,2,4.4,3,7.4,3c3,0,5.4-1,7.4-3c1.9-2,2.9-4.5,2.9-7.7c0-3.1-1-5.7-2.9-7.7
			c-1.9-2-4.4-3-7.4-3c-3,0-5.4,1-7.4,3c-1.9,2-2.9,4.5-2.9,7.7C164.4,33.1,165.4,35.6,167.3,37.6z"/>
		<path class="st0" d="M201.6,46.2l-13.1-32.6h7.1l9.9,24.6l9.9-24.6h7.1l-13.1,32.6H201.6z"/>
		<path class="st0" d="M252.2,32.9h-25.5c0.2,2.4,1.2,4.3,3.2,5.7c2,1.4,4.3,2.2,6.9,2.2c4.1,0,7.2-1.3,9.3-3.9l3.9,4.3
			c-3.5,3.6-8.1,5.4-13.7,5.4c-4.6,0-8.5-1.5-11.7-4.6c-3.2-3-4.8-7.1-4.8-12.2c0-5.1,1.6-9.2,4.9-12.2c3.3-3,7.1-4.5,11.5-4.5
			s8.2,1.3,11.3,4c3.1,2.7,4.7,6.4,4.7,11.1V32.9z M226.6,27.5h18.7c0-2.7-0.9-4.8-2.6-6.3s-3.8-2.2-6.3-2.2s-4.8,0.8-6.8,2.3
			C227.6,22.8,226.6,24.9,226.6,27.5z"/>
		<path class="st0" d="M270.7,20.1c-3.4,0-5.9,1.1-7.7,3.3c-1.7,2.2-2.6,5.2-2.6,8.9v14h-6.9V13.6h6.9v6.6c1.1-2,2.6-3.7,4.5-5
			c1.9-1.3,3.9-2,6-2l0.1,6.9C270.9,20.1,270.8,20.1,270.7,20.1z"/>
	</g>
	<g>
		<path class="st1" d="M245.8,49.8v15.5H214v13.5c2.4-0.7,5.1-1,8.2-1c7.7,0,14.4,2.3,20,7c5.6,4.7,8.4,11,8.4,18.9
			c0,7.9-2.9,14.5-8.7,19.7c-5.8,5.2-12.9,7.8-21.5,7.8c-10.9,0-20-4-27.3-12.1l9.4-13.1c0.7,0.7,1.6,1.5,2.8,2.5
			c1.2,1,3.3,2.3,6.3,4c3.1,1.7,6.1,2.5,9.2,2.5c3.1,0,5.8-0.9,8.2-2.8c2.4-1.8,3.6-4.6,3.6-8.2c0-3.6-1.3-6.4-3.9-8.3
			c-2.6-2-5.9-2.9-10-2.9c-4.1,0-8.8,1.5-14.2,4.4l-7.5-8.1V49.8H245.8z"/>
	</g>
	<rect x="18" y="98.7" class="st1" width="168.9" height="5.5"/>
	<g>
		<path class="st1" d="M297.4,68l-10.8-18.6c0,0-0.1,0-0.1,0v16C290.3,65.4,294,66.3,297.4,68z"/>
		<path class="st1" d="M326.3,82.1c-0.8-3.8-2-7.3-3.7-10.6l0.1-0.1l-23.9-41.1l10.5-6.6l-32.5-13.3l-2.2,35.1l10.6-6.7l6.3,10.8
			c-0.1,0-0.1,0-0.2,0l15.1,26c2,2.8,3.5,6,4.2,9.6c2.7,13.4-6,26.4-19.4,29.1c-1.6,0.3-3.3,0.5-4.9,0.5c-11.7,0-21.9-8.4-24.2-19.9
			c-1.3-6.5,0-13.1,3.7-18.6c3.7-5.5,9.3-9.2,15.7-10.5c1.6-0.3,3.3-0.5,4.9-0.5l0-16c0,0,0,0,0,0c-2.6,0-5.3,0.3-8,0.8
			c-22.1,4.4-36.4,25.8-32,47.9c3.9,19.4,20.9,32.8,39.9,32.8c2.6,0,5.3-0.3,8-0.8C316.4,125.6,330.7,104.2,326.3,82.1z"/>
	</g>
</g>
</svg>
